/* XPM */
static char *result[] = {
/* columns rows colors chars-per-pixel */
"50 50 177 2 ",
"   c #361F00",
".  c #3B1F00",
"X  c #2D2505",
"o  c #2D280E",
"O  c #2A230F",
"+  c #372100",
"@  c #3C2400",
"#  c #3D2A04",
"$  c #32230C",
"%  c #36290E",
"&  c #3C2A0B",
"*  c #372904",
"=  c #292618",
"-  c #2E2918",
";  c #322713",
":  c #342913",
">  c #3A2912",
",  c #372E1E",
"<  c #3B311A",
"1  c #302920",
"2  c #422400",
"3  c #492603",
"4  c #412B06",
"5  c #4A2A04",
"6  c #412B08",
"7  c #463214",
"8  c #4A3214",
"9  c #46381D",
"0  c #453820",
"q  c #72460D",
"w  c #7D490F",
"e  c #764A0F",
"r  c #724411",
"t  c #7C4714",
"y  c #7C4913",
"u  c #754A17",
"i  c #5F462C",
"p  c #664A27",
"a  c #704B20",
"s  c #5F5746",
"d  c #62594F",
"f  c #82510F",
"g  c #844C13",
"h  c #835112",
"j  c #8B5716",
"k  c #8A5F17",
"l  c #8B591A",
"z  c #83591D",
"x  c #82651C",
"c  c #96601C",
"v  c #9F681E",
"b  c #BB6F1A",
"n  c #BB731C",
"m  c #866420",
"M  c #876429",
"N  c #87692E",
"B  c #9F6822",
"V  c #856A34",
"C  c #896A34",
"Z  c #856C3D",
"A  c #A16922",
"S  c #A7762A",
"D  c #C66E01",
"F  c #CA6B03",
"G  c #C36F0A",
"H  c #C57104",
"J  c #C4710A",
"K  c #CC760C",
"L  c #CE7507",
"P  c #DB7B0D",
"I  c #C27211",
"U  c #CA7511",
"Y  c #CF7811",
"T  c #C17318",
"R  c #C97619",
"E  c #DA7B13",
"W  c #E2790B",
"Q  c #CB7D24",
"!  c #C47923",
"~  c #836C42",
"^  c #886D41",
"/  c #836B4C",
"(  c #AF802F",
")  c #AE8232",
"_  c #DA8106",
"`  c #D78110",
"'  c #D7821A",
"]  c #E78600",
"[  c #E68A02",
"{  c #EC8A03",
"}  c #E68A0C",
"|  c #ED8A0B",
" . c #EC870B",
".. c #F18A02",
"X. c #F18908",
"o. c #ED9007",
"O. c #E78A11",
"+. c #EC8D12",
"@. c #E78D1C",
"#. c #EC8E19",
"$. c #F18811",
"%. c #EB9016",
"&. c #E6921D",
"*. c #E9911E",
"=. c #F6B108",
"-. c #F4A41B",
";. c #F3A916",
":. c #FBB513",
">. c #FBBB14",
",. c #FBB41B",
"<. c #F6B81D",
"1. c #FCBB1B",
"2. c #DD8E24",
"3. c #DF8F28",
"4. c #DC9126",
"5. c #E28E25",
"6. c #FCB521",
"7. c #F7BA21",
"8. c #FCBB23",
"9. c #F5BA2A",
"0. c #FAB92C",
"q. c #E8A435",
"w. c #F5A933",
"e. c #EBB73D",
"r. c #F0B93F",
"t. c #FEBB3C",
"y. c #FFBB34",
"u. c #AC8742",
"i. c #AD914C",
"p. c #AE9254",
"a. c #AF955C",
"s. c #AE9563",
"d. c #A59369",
"f. c #EDBA46",
"g. c #F5C44E",
"h. c #F9C44F",
"j. c #F5C554",
"k. c #F7C656",
"l. c #F9D25F",
"z. c #EBC560",
"x. c #FBCA62",
"c. c #FCD464",
"v. c #F6D46A",
"b. c #FCD46A",
"n. c #EFD274",
"m. c #EDD37A",
"M. c #F2D273",
"N. c #FAD572",
"B. c #FED974",
"V. c #FAD67D",
"C. c #FCDA7B",
"Z. c #F4D973",
"A. c #DFCD97",
"S. c #EED583",
"D. c #F1D787",
"F. c #FCD786",
"G. c #FBD982",
"H. c #FCD789",
"J. c #FCDC8C",
"K. c #F1DB8D",
"L. c #E7CE93",
"P. c #E9CF9B",
"I. c #E7D293",
"U. c #E7D199",
"Y. c #E8D39C",
"T. c #F2DC94",
"R. c #FBDD94",
"E. c #F3DC9B",
"W. c #FDDC9B",
"Q. c #FAE089",
"!. c #F7E091",
"~. c #FCE295",
"^. c #FEE39C",
"/. c #FFD8A0",
"(. c #FEE3A3",
"). c #FFE9A0",
"_. c None",
/* pixels */
"_._._._._._._._._._._._._._._._._._._._._._._._._._._._._._._._._._._._._._._._._._._._._._._._._._.",
"_._._._._._._._._._._._._._._._._._._., : : : : : ; ; : : - _._._._._._._._._._._._._._._._._._._._.",
"_._._._._._._._._._._._._._._._._._.d 0 7 7 8 8 7 7 7 8 8 7 s _._._._._._._._._._._._._._._._._._._.",
"_._._._._._._._._._._._._._._.1 1 > / A.L.L.Y.P.U.U.I.Y.U.Y.d.9 < , _._._._._._._._._._._._._._._._.",
"_._._._._._._._._._._._._._._.: 6 @ Z E.~.~.W.(.^.^.~.^.R.).a.# * % _._._._._._._._._._._._._._._._.",
"_._._._._._._._._._._._._._._.> 6 @ ~ E.W.R.W./.W.~.R.W.T.(.a.6 @ % _._._._._._._._._._._._._._._._.",
"_._._._._._._._._._._._._._._.: 6 @ C D.G.V.F.H.G.G.V.F.V.J.a.4 # % _._._._._._._._._._._._._._._._.",
"_._._._._._._._._._._._._._._.: # @ C n.v.c.c.c.c.c.b.b.l.B.i.4 @ % _._._._._._._._._._._._._._._._.",
"_._._._._._._._._._._._._._._.: 6 # V n.v.b.b.c.c.c.b.b.c.B.i.4 @ % _._._._._._._._._._._._._._._._.",
"_._._._._._._._._._._._._._._.: 6 & a m.Z.N.N.N.N.B.V.Z.v.G.i.4 @ % _._._._._._._._._._._._._._._._.",
"_._._._._._._._._._._._._._._.: 6 * Z T.J.J.R.J.Q.J.~.J.J.(.a.6 * % _._._._._._._._._._._._._._._._.",
"_._._._._._._._._._._._._._._.: 6 + ~ E.W.E./.W.R.~.W.~.T.(.s.6 # > _._._._._._._._._._._._._._._._.",
"_._._._._._._._._._._._._._._.: & @ ~ T.T.W.W.W.R.R.W.R.R.(.s.6 # > _._._._._._._._._._._._._._._._.",
"_._._._._._._._._._._._._._._.: 6 @ Z S.G.G.G.V.C.C.F.G.G.H.p.6 @ % _._._._._._._._._._._._._._._._.",
"_._._._._._._._._._._._._._._.: 6 @ V n.v.v.B.b.b.b.b.b.v.B.p.4 * % _._._._._._._._._._._._._._._._.",
"_._._._._._._._._._._._._._._.: 4 @ V n.c.b.b.c.c.c.b.b.l.B.i.4 @ % _._._._._._._._._._._._._._._._.",
"_._._._._._._._._._._._._._._.: # . C n.v.N.b.b.c.b.b.b.c.B.i.4 @ % _._._._._._._._._._._._._._._._.",
"_._._._._._._._._._._._._._._.: # @ C n.v.b.b.b.c.b.b.b.l.B.i.4 @ % _._._._._._._._._._._._._._._._.",
"_._._._._._._._._._._._._._._.: # . C M.c.b.c.c.l.c.b.b.c.C.i.4 * % _._._._._._._._._._._._._._._._.",
"_._._._._._._._._._._._._._._.: 6 . C M.b.b.b.c.l.c.b.b.c.B.i.4 # % _._._._._._._._._._._._._._._._.",
"_._._._._._._._._._._._._._._.: # @ C M.v.b.b.c.c.c.b.v.c.B.i.# * % _._._._._._._._._._._._._._._._.",
"_._._._._._._._._._._._._._._.: 6 @ V Z.v.N.N.N.b.N.N.N.v.C.p.& * > _._._._._._._._._._._._._._._._.",
"_._._._._._._._._._._._._._._.: 6 @ Z Q.G.J.J.J.J.J.R.Q.J.~.a.4 @ > _._._._._._._._._._._._._._._._.",
"_._._._._._._._._._._._._._._.: &   d ~.~.~.W.W.W.W./.^.R.).s.4 * > _._._._._._._._._._._._._._._._.",
"_._._._._._._._._._._._._._._.: # . Z T.~.W.W.W.^.W.W.R.T.(.s.# * % _._._._._._._._._._._._._._._._.",
"_._._._._._._._._._._._._._._.: 6 @ ^ T.R.W.W.W.R.R.W.R.R.(.s.# * > _._._._._._._._._._._._._._._._.",
"_._._._._._._._._._._._._._._.; #   ~ E.Q.R.R.~.R.~.~.^.R.(.a.6 * % _._._._._._._._._._._._._._._._.",
"_._._._._._._._._._._._._._._.: 4 @ M z.j.j.h.h.h.j.k.j.f.x.u.3 4 % _._._._._._._._._._._._._._._._.",
"_._._._._._._._._._._._._._._.: 4 2 k e.9.6.1.:.>.7.9.1.=.y.S 5 @ % _._._._._._._._._._._._._._._._.",
"_._._._._._._._._._._._._._._.: 6 2 m f.0.0.8.1.<.8.8.1.:.y.) 5 # % _._._._._._._._._._._._._._._._.",
"_._._._._._._._._._._._._._._.: 4 @ x e.8.7.1.>.1.1.>.>.,.y.) 5 @ > _._._._._._._._._._._._._._._._.",
"_._._._._._._._._._._._._._._.: 4 @ x r.8.8.8.8.0.8.1.1.,.h.) 5 2 % _._._._._._._._._._._._._._._._.",
"_._._._._._._._._._._._._._._.: 4 2 z q.-.*.;.-.-.-.;.-.-.w.S 5 @ % _._._._._._._._._._._._._._._._.",
"_._._._._._._._._._._._._._._.: 3 2 g 2.{ [ [ {  .| [ [ ] @.v 3 4 % _._._._._._._._._._._._._._._._.",
"_._._._._._._._._._._._._._._.: 4 2 g 5.o.{ { ..$.X.{ o.{ *.B 3 2 > _._._._._._._._._._._._._._._._.",
"_._._._._._._._._._._._._._._.: 4 2 h 5.%.} ....| { { } [ &.B 3 2 % _._._._._._._._._._._._._._._._.",
"_._._._._._._._._._._._._._._.: # 2 h 3.#.@.....X. .$.} } *.A 3 4 % _._._._._._._._._._._._._._._._.",
"_._._._._._._._._._._._._._._.: # 3 f 4.+.} { ....| | { { *.A 3 @ & _._._._._._._._._._._._._._._._.",
"_._._._._._._._._._._._._._._.: # 2 y 4.%.+.o.o.X.$.%.%.} *.A 5 2 % _._._._._._._._._._._._._._._._.",
"_._._._._._._._._._._._._._._.: # 3 u ' E E _ _ W P ` E P ' B 3 2 % _._._._._._._._._._._._._._._._.",
"_._._._._._._._._._._._._._._.: 4 2 r b F F H D F D H D D I j 3 @ % _._._._._._._._._._._._._._._._.",
"_._._._._._._._._._._._._._._.: & @ r b G D H D D H J H D I l 3 4 % _._._._._._._._._._._._._._._._.",
"_._._._._._._._._._._._._._._.: # 2 r n D H H H D H J H D T l 3 @ % _._._._._._._._._._._._._._._._.",
"_._._._._._._._._._._._._._._.: # @ r n H G J H D J J G H T l 3 @ % _._._._._._._._._._._._._._._._.",
"_._._._._._._._._._._._._._._.: 6 2 r b G G G D D H I G D b j 3 4 & _._._._._._._._._._._._._._._._.",
"_._._._._._._._._._._._._._._.- & # r ! Y U K L L K R U K Q l 2 @ % _._._._._._._._._._._._._._._._.",
"_._._._._._._._._._._._._._._._._._.i u u e q w t t t t y u p _._._._._._._._._._._._._._._._._._._.",
"_._._._._._._._._._._._._._._._._._._.= o X X $ $ $ $ $ $ ; _._._._._._._._._._._._._._._._._._._._.",
"_._._._._._._._._._._._._._._._._._._._._._._._._._._._._._._._._._._._._._._._._._._._._._._._._._.",
"_._._._._._._._._._._._._._._._._._._._._._._._._._._._._._._._._._._._._._._._._._._._._._._._._._."
};
