/* XPM */
static char *result[] = {
/* columns rows colors chars-per-pixel */
"75 75 252 2 ",
"   c #2C1A01",
".  c #341C01",
"X  c #3B1D01",
"o  c #331500",
"O  c #2D2201",
"+  c #2D250A",
"@  c #342404",
"#  c #3B2502",
"$  c #352805",
"%  c #3D2902",
"&  c #36250A",
"*  c #3A250A",
"=  c #36290C",
"-  c #3C2B0B",
";  c #3B2C13",
":  c #392A17",
">  c #3B3115",
",  c #3E300A",
"<  c #431D00",
"1  c #4A1E08",
"2  c #422503",
"3  c #412A04",
"4  c #492C02",
"5  c #432B0B",
"6  c #452408",
"7  c #552D04",
"8  c #4D3203",
"9  c #4B330B",
"0  c #45330D",
"q  c #543106",
"w  c #5B3207",
"e  c #5B3309",
"r  c #563E0E",
"t  c #5A370C",
"y  c #483415",
"u  c #563D14",
"i  c #412B10",
"p  c #65370A",
"a  c #67370E",
"s  c #463923",
"d  c #544114",
"f  c #584318",
"g  c #52420A",
"h  c #694208",
"j  c #78480C",
"k  c #674519",
"l  c #7B5518",
"z  c #734C13",
"x  c #664423",
"c  c #695A35",
"v  c #6E572E",
"b  c #7F6427",
"n  c #77663E",
"m  c #5B4D2C",
"M  c #7E6D44",
"N  c #965814",
"B  c #8B5413",
"V  c #966919",
"C  c #AB6416",
"Z  c #B06617",
"A  c #B97918",
"S  c #AF7016",
"D  c #885E25",
"F  c #955C25",
"G  c #88672A",
"H  c #976A22",
"J  c #95772B",
"K  c #886A33",
"L  c #8A753C",
"P  c #947837",
"I  c #996C33",
"U  c #A76824",
"Y  c #A77627",
"T  c #B77728",
"R  c #B97730",
"E  c #CC6E02",
"W  c #C26F0D",
"Q  c #C77309",
"!  c #C67516",
"~  c #C66D18",
"^  c #C0712B",
"/  c #806648",
"(  c #8C784B",
")  c #957D48",
"_  c #8D7B59",
"`  c #BF821D",
"'  c #BC8F31",
"]  c #DD8B05",
"[  c #DC8916",
"{  c #DF9C19",
"}  c #D19010",
"|  c #E58C02",
" . c #EB8B02",
".. c #E48C0B",
"X. c #EC8C0C",
"o. c #E88607",
"O. c #F18C0E",
"+. c #F38902",
"@. c #E59303",
"#. c #ED9404",
"$. c #EC9B06",
"%. c #E9960C",
"&. c #F09504",
"*. c #F29C0C",
"=. c #F69509",
"-. c #E78B17",
";. c #F28C19",
":. c #E69916",
">. c #F39E13",
",. c #F39E19",
"<. c #F99F16",
"1. c #EDA10A",
"2. c #F4AD05",
"3. c #FBAC03",
"4. c #F4AB0D",
"5. c #FBAA0B",
"6. c #F9A60C",
"7. c #FCB40C",
"8. c #FCB90A",
"9. c #F3A412",
"0. c #FBA713",
"q. c #FCAB15",
"w. c #FAA61A",
"e. c #FBAC1B",
"r. c #F4AA17",
"t. c #FDB414",
"y. c #FCBB14",
"u. c #F6B41B",
"i. c #FCB31C",
"p. c #F6B91D",
"a. c #FCBA1C",
"s. c #F7B616",
"d. c #EFB315",
"f. c #CA8629",
"g. c #D48D26",
"h. c #D59526",
"j. c #CD8E3D",
"k. c #CB9334",
"l. c #CD933A",
"z. c #C69636",
"x. c #D59538",
"c. c #CC8E32",
"v. c #E78921",
"b. c #E49B21",
"n. c #EB9726",
"m. c #F29229",
"M. c #DEA83E",
"N. c #E4A424",
"B. c #E8A328",
"V. c #FBAD23",
"C. c #F6AA27",
"Z. c #EDBA2C",
"A. c #FCB423",
"S. c #F5BB23",
"D. c #FCBB23",
"F. c #F2B22B",
"G. c #FCB52C",
"H. c #F4BB2C",
"J. c #FBBA2B",
"K. c #F6B424",
"L. c #E9A935",
"P. c #F4AC36",
"I. c #ECB438",
"U. c #F4B434",
"Y. c #F5BC33",
"T. c #FABB32",
"R. c #F4BC3C",
"E. c #FBBD3A",
"W. c #F7B538",
"Q. c #F6C014",
"!. c #F6C12D",
"~. c #FAC333",
"^. c #F6C23C",
"/. c #FAC23C",
"(. c #F7C539",
"). c #EDC134",
"_. c #99844C",
"`. c #9F8357",
"'. c #AC8546",
"]. c #B79848",
"[. c #B89B56",
"{. c #AB8C55",
"}. c #B49C6A",
"|. c #BDA66F",
" X c #C99443",
".X c #C79F54",
"XX c #C3A455",
"oX c #C5AA5B",
"OX c #D5B65E",
"+X c #D2AB50",
"@X c #EAB246",
"#X c #F2B441",
"$X c #F5BC46",
"%X c #E1B552",
"&X c #D3B462",
"*X c #D7BA6B",
"=X c #C3AC74",
"-X c #C1AD78",
";X c #D4B671",
":X c #C9AE6B",
">X c #E0BF60",
",X c #F5C343",
"<X c #F9C443",
"1X c #FBCB45",
"2X c #F5C44B",
"3X c #FAC54A",
"4X c #FBCB4B",
"5X c #F6CA48",
"6X c #FCC652",
"7X c #FCCB53",
"8X c #FCCC5A",
"9X c #F6C957",
"0X c #FDD153",
"qX c #FDD35B",
"wX c #FED95D",
"eX c #F6D05E",
"rX c #F3C94E",
"tX c #F8CA69",
"yX c #F6D465",
"uX c #FDD463",
"iX c #FEDB64",
"pX c #FCD46B",
"aX c #FEDB6C",
"sX c #F4D56D",
"dX c #E5C47C",
"fX c #F7CE76",
"gX c #F5D374",
"hX c #FAD371",
"jX c #FEDB74",
"kX c #F5D47D",
"lX c #FFDC7D",
"zX c #FBD779",
"xX c #ECCE69",
"cX c #FFE27D",
"vX c #FEE165",
"bX c #DCC48E",
"nX c #FBDB85",
"mX c #F8D887",
"MX c #FDDD94",
"NX c #FDDD9B",
"BX c #F6DA97",
"VX c #EACB88",
"CX c #FBE388",
"ZX c #FBE193",
"AX c #FEE59D",
"SX c #FEE99C",
"DX c #FBDDA3",
"FX c #F4DDA1",
"GX c #E8D4A2",
"HX c #FCE6A5",
"JX c #FEEDB1",
"KX c None",
/* pixels */
"KXKXKXKXKXKXKXKXKXKXKXKXKXKXKXKXKXKXKXKXKXKXKXKXKXKXKXKXKXKXKXKXKXKXKXKXKXKXKXKXKXKXKXKXKXKXKXKXKXKXKXKXKXKXKXKXKXKXKXKXKXKXKXKXKXKXKXKXKXKXKXKXKXKXKX",
"KXKXKXKXKXKXKXKXKXKXKXKXKXKXKXKXKXKXKXKXKXKXKXKXKXKXKXKXKXKXKXKXKXKXKXKXKXKXKXKXKXKXKXKXKXKXKXKXKXKXKXKXKXKXKXKXKXKXKXKXKXKXKXKXKXKXKXKXKXKXKXKXKXKXKX",
"KXKXKXKXKXKXKXKXKXKXKXKXKXKXKXKXKXKXKXKXKXKXKXKXKXKXKXKXKXKXKXKXKXKXKXKXKXKXKXKXKXKXKXKXKXKXKXKXKXKXKXKXKXKXKXKXKXKXKXKXKXKXKXKXKXKXKXKXKXKXKXKXKXKXKX",
"KXKXKXKXKXKXKXKXKXKXKXKXKXKXKXKXKXKXKXKXKXKXKXKXKXKXKXKXKXKXKXKXKXKXKXKXKXKXKXKXKXKXKXKXKXKXKXKXKXKXKXKXKXKXKXKXKXKXKXKXKXKXKXKXKXKXKXKXKXKXKXKXKXKXKX",
"KXKXKXKXKXKXKXKXKXKXKXKXKXKXKXKXKXKXKXKXKXKXKXKXKXKXKXKXKXKXKXKXKXKXKXKXKXKXKXKXKXKXKXKXKXKXKXKXKXKXKXKXKXKXKXKXKXKXKXKXKXKXKXKXKXKXKXKXKXKXKXKXKXKXKX",
"KXKXKXKXKXKXKXKXKXKXKXKXKXKXKXKXKXKXKXKXKXKXKXKXKXKXKXKXKXKXKXKXKXKXKXKXKXKXKXKXKXKXKXKXKXKXKXKXKXKXKXKXKXKXKXKXKXKXKXKXKXKXKXKXKXKXKXKXKXKXKXKXKXKXKX",
"KXKXKXKXKXKXKXKXKXKXKXKXKXKXKXKXKXKXKXKXKXKXKXKXKXKXKXKXKXKXKXKXKXKXKXKXKXKXKXKXKXKXKXKXKXKXKXKXKXKXKXKXKXKXKXKXKXKXKXKXKXKXKXKXKXKXKXKXKXKXKXKXKXKXKX",
"KXKXKXKXKXKXKXKXKXKXKXKXKXKXKXKXKXKXKXKXKXKXKXKXKXKXKXKXKXKXKXKXKXKXKXKXKXKXKXKXKXKXKXKXKXKXKXKXKXKXKXKXKXKXKXKXKXKXKXKXKXKXKXKXKXKXKXKXKXKXKXKXKXKXKX",
"KXKXKXKXKXKXKXKXKXKXKXKXKXKXKXKXKXKXKXKXKXKXKXKXKXKXKXKXKXKXKXKXKXKXKXKXKXKXKXKXKXKXKXKXKXKXKXKXKXKXKXKXKXKXKXKXKXKXKXKXKXKXKXKXKXKXKXKXKXKXKXKXKXKXKX",
"KXKXKXKXKXKXKXKXKXKXKXKXKXKXKXKXKXKXKXKXKXKXKXKXKXKXKXKXKXKXKXKXKXKXKXKXKXKXKXKXKXKXKXKXKXKXKXKXKXKXKXKXKXKXKXKXKXKXKXKXKXKXKXKXKXKXKXKXKXKXKXKXKXKXKX",
"KXKXKXKXKXKXKXKXKXKXKXKXKXKXKXKXKXKXKXKXKXKXKXKXKXKXKXKXKXKXKXKXKXKXKXKXKXKXKXKXKXKXKXKXKXKXKXKXKXKXKXKXKXKXKXKXKXKXKXKXKXKXKXKXKXKXKXKXKXKXKXKXKXKXKX",
"KXKXKXKXKXKXKXKXKXKXKXKXKXKXKXKXKXKXKXKXKXKXKXKXKXKXKXKXKXKXKXKXKXKXKXKXKXKXKXKXKXKXKXKXKXKXKXKXKXKXKXKXKXKXKXKXKXKXKXKXKXKXKXKXKXKXKXKXKXKXKXKXKXKXKX",
"KXKXKXKXKXKXKXKXKXKXKXKXKXKXKXKXKXKXKXKXKXKXKXKXKXKXKXKXKXKXKXKXKXKXKXKXKXKXKXKXKXKXKXKXKXKXKXKXKXKXKXKXKXKXKXKXKXKXKXKXKXKXKXKXKXKXKXKXKXKXKXKXKXKXKX",
"KXKXKXKXKXKXKXKXKXKXKXKXKXKXKXKXKXKXKXKXKXKXKXKXKXKXKXKXKXKXKXKXKXKXKXKXKXKXKXKXKXKXKXKXKXKXKXKXKXKXKXKXKXKXKXKXKXKXKXKXKXKXKXKXKXKXKXKXKXKXKXKXKXKXKX",
"KXKXKXKXKXKXKXKXKXKXKXKXKXKXKXKXKXKXKXKXKXKXKXKXKXKXKXKXKXKXKXKXKXKXKXKXKXKXKXKXKXKXKXKXKXKXKXKXKXKXKXKXKXKXKXKXKXKXKXKXKXKXKXKXKXKXKXKXKXKXKXKXKXKXKX",
"KXKXKXKXKXKXKXKXKXKXKXKXKXKXKXKXKXKXKXKXKXKXKXKXKXKXKXKX& & * = : & & $ $ , i i > = $ $ $ + + KXKXKXKXKXKXKXKXKXKXKXKXKXKXKXKXKXKXKXKXKXKXKXKXKXKXKXKX",
"KXKXKXKXKXKXKXKXKXKXKXKXKXKXKXKXKXKXKXKXKXKXKXKXKXKXKXd d d d d d d d d u 9 % 2 i y f d d f f m KXKXKXKXKXKXKXKXKXKXKXKXKXKXKXKXKXKXKXKXKXKXKXKXKXKXKX",
"KXKXKXKXKXKXKXKXKXKXKXKXKXKXKXKXKXKXKXKXKXKXKX+ .   L mXsXyXsXgXgXkXkXmXmXK .   0 bXJXSXHXBXHXGXc O O > KXKXKXKXKXKXKXKXKXKXKXKXKXKXKXKXKXKXKXKXKXKXKX",
"KXKXKXKXKXKXKXKXKXKXKXKXKXKXKXKXKXKXKXKXKXKXM ( L P  XtX4X4X1X4X7X4X4X4X9X' P P P _.`.`.-XFXZXFX}.( ( _ c KXKXKXKXKXKXKXKXKXKXKXKXKXKXKXKXKXKXKXKXKXKX",
"KXKXKXKXKXKXKXKXKXKXKXKXKXKXKXKXKXKXKXKX: # f VXcXaX0XU.J.a.t.a.a.p.p.Z.H.0XvXcXdXd o   n FXZXmXAXJXJXbXy * > KXKXKXKXKXKXKXKXKXKXKXKXKXKXKXKXKXKXKXKX",
"KXKXKXKXKXKXKXKXKXKXKXKXKXKXKXKXKXKXKXKX& . h *XsXuX7XH.D.y.y.D.H.<X7XqX0X(.H.3X+Xt # @ K MXlXcXjXgXmX;X8 . : KXKXKXKXKXKXKXKXKXKXKXKXKXKXKXKXKXKXKXKX",
"KXKXKXKXKXKXKXKXKXKXKXKXKXKXKXKXKXKXKXn f f b >XyXqX1XH.D.D.!.).).2X8XuXwX~.8.Q.@Xj t t K *XOXOXxXyXaX*Xz d u M KXKXKXKXKXKXKXKXKXKXKXKXKXKXKXKXKXKXKX",
"KXKXKXKXKXKXKXKXKXKXKXKXKXKXKXKX> , 9 [.kXfXtX$X!.S.p.p.H.Y.0XwXwXqXR.U.J.H.D.A.W.C.B.I.Y 3 5 4 ' jXyXhXgXgXVX_.i ; KXKXKXKXKXKXKXKXKXKXKXKXKXKXKXKXKX",
"KXKXKXKXKXKXKXKXKXKXKXKXKXKXKXKX, % 4 [.jXtX0XH.y.Q.!.(.,X2X2X#XW.Y.J.D.a.D.y.y.A.0.q.U.Y 2 - 5 [.mXkXnXnXvXCX_.3 3 y KXKXKXKXKXKXKXKXKXKXKXKXKXKXKXKX",
"KXKXKXKXKXKXKXKXKXKXKXKXKXKXKXKX& # 2 [.jXyX0X!.Y.Y.5XwXwXqXN.[ ] $.D.D.J.H.y.8.t.5.5.F.Y 2 X * }.JXHXHXZXnXSX_.# . : KXKXKXKXKXKXKXKXKXKXKXKXKXKXKXKX",
"KXKXKXKXKXKXKXKXKXKXKXKXKX> ; / }.XX.X%X,X^.,X4X9X8X$XN.N.L.@X2X$XR.:.*.&.e.J.Q.J.J.t.y.N.! ' R K c c L GXDXDXbX=X-X|.v i > KXKXKXKXKXKXKXKXKXKXKXKXKX",
"KXKXKXKXKXKXKXKXKXKXKXKXs - X G zXaXiX1X).Z.^.5XrX9XL.@...:.<XwXwX2Xh.{ @.r.A.A.G.G.D.D.y.7.A.I.j X O g bXMXMXMXZXSXBXv $ , KXKXKXKXKXKXKXKXKXKXKXKXKX",
"KXKXKXKXKXKXKXKXKXKXKXKX: . o b VXgXyXyXyXwX7XN.@.@.>.C.w.q.A.H.Y.$XqX8XeXU...@.$.i.D.D.u.4.r.B.j < X f dXjXlXjXyXhX;Xx . @ > KXKXKXKXKXKXKXKXKXKXKXKX",
"KXKXKXKXKXKXKXKXKXKXKXKX( K G ].hXsXyXeXrX7X$X%.@.| =.0.5.3.7.D.H.<XuXuXpXL...| #.e.J.D.p.u.K.C.S B D D '.{.'.+XpXyXtX'.K K L KXKXKXKXKXKXKXKXKXKXKXKX",
"KXKXKXKXKXKXKXKXKX= % u ;XnXjXaXwXqX0X<XU.J.e.#. .| <.0.5.3.y.D.H.<XqXwXuXI.} @.@.A.J.a.a.D.a.a.i.A.H.x.7 X X I kXsXuXaXlXCXoX9 - > KXKXKXKXKXKXKXKXKX",
"KXKXKXKXKXKXKXKXKX& # r &XpXuX7X<X/.E.V.*.*.>.<.6.6.V.G.p.a.a.D.A.H.Y./.R.<X^.<XR.b.:.$.6.a.a.a.5.5.V.j.e 3 # J gXpXpXuXuXaXXX8 # i KXKXKXKXKXKXKXKXKX",
"KXKXKXKXKXKXKXKXKX& # r &XpXuX4XH.D.i.*.| | X.0.5.q.G.G.J.D.a.7.y.D.J.T.R.4XiXiXuXb.X. .*.A.D.D.7.5.V. Xq # # J pXhXpXpXgXjXXX8 # ; KXKXKXKXKXKXKXKXKX",
"KXKXKXKXKXKXKXKXKX$ # r OXpXuX6X!.p.D.>.O.O.#.5.3.5.G.G.J.D.y.y.S./.0XwXqXuXsXaX6X%.|  .<.J.D.y.q.5.A.l.w # # P hXpXpXpXtXzXXX4 $ - KXKXKXKXKXKXKXKXKX",
"KXKXKXKXKXKXKXKXKX& # r &XpXuX3XY.S.A.<.O. .#.0.0.6.a.a.D.J.^./.,X4X0X4X4XyXuXpX8X%.| @.,.J.D.a.5.5.A.l.w 2 2 J gXpXpXpXpXjXXX8 # , KXKXKXKXKXKXKXKXKX",
"KXKXKXKXKXKXKXKXKX& # r OXpXuX6XY.D.D.>.O.o.#.w.V.5.7.8.a.Y.7XuXuX7X).H.Y.7XpXuX8X:.| | ,.J.p.D.q.5.V.x.w 3 # P gXhXhXpXpXzXXXq # - KXKXKXKXKXKXKXKXKX",
"KXKXKXKXKXKXKXKXKX& # g OXpXuX4XH.S.A.<.O.+.#.0.0.4.t.a.S.R.8XeXuX0XE.J.Y.7XuXpX8X:...X.,.J.D.a.e.5.V.l.w 2 # L mXmXmXMXnXZX:X9 % = KXKXKXKXKXKXKXKXKX",
"KXKXKXKXKXKXKXKXKX& # r &XaXeX7XY.Q.J.<.O.X.#.5.3.3.u.G.Y.,X9XwXqX4XT.J.J.4XuXuX6Xb...X.<.G.y.D.q.5.i.l.e # # ) ZXZXNXNXNXHX=Xy * - KXKXKXKXKXKXKXKXKX",
"KXKXKXKXKXKXKXKXKX& # g OXpXyX6XT.D.A.9.O.+.&.5.3.r.$X7XeXqX5X~.J.J.J.a.p.4XiXpX8Xb...o.>.J.D.D.q.5.V.k.e # . ) ZXMXZXMXMXAX=X9 % - KXKXKXKXKXKXKXKXKX",
"KXKXKXKXKXKXKXKXKX% # r OXpXqX6XT.D.D.>.X.o.&.0.r.r.E.4X7X4X~.A.a.D.D.a.a.4XuXpX8Xb. . .>.J.a.a.q.5.e.j.e # * ) NXNXNXDXNXHX=X0 $ 5 KXKXKXKXKXKXKXKXKX",
"KXKXKXKXKXKXKXKXKX& # r &XpXuX6XY.S.D.>.X. .&.5.0.7.p.J.S.D.y.y.a.D.!.D.D.4XpXpX8Xb...| >.J.D.D.q.3.t.x.w 2 # ) MXNXNXNXMXAX=X0 # - KXKXKXKXKXKXKXKXKX",
"KXKXKXKXKXKXKXKXKX& # r OXpXuX6XT.p.D.>.X. .&.0.5.3.i.a.y.y.y.y.a.!.D.a.!.1XuXpX8Xb... .<.G.D.G.e.5.r.k.q 2 # J eXrX9X9X9XeX].8 # - KXKXKXKXKXKXKXKXKX",
"KXKXKXKXKXKXKXKXKX& # r &XaXuX6XT.D.J.>.O. .&.0.e.5.i.a.a.D.a.D.D.a.a.y.p.4XiXpX8X:... .9.J.D.J.q.3.s.l.q 2 < V I.u.u.D.7.H.' 8 2 - KXKXKXKXKXKXKXKXKX",
"KXKXKXKXKXKXKXKXKX% # r OXuX8X4XH.D.A.>. . .&.0.5.5.i.J.J.J.D.J.y.y.y.y.S.4XuXpXtXn. .| 1.J.D.7.3.3.K.l.w 2 2 V Y.y.a.D.a.T.z.8 # - KXKXKXKXKXKXKXKXKX",
"KXKXKXKXKXKXKXKXKX& # r &XpXuX7X^.T.G.<. .#.X.w.5.5.i.J.J.a.y.y.a.a.!.a.D.1XyXpXtXn...@.1.D.D.D.q.5.e.l.q # # V W.G.a.y.a.~.z.8 % - KXKXKXKXKXKXKXKXKX",
"KXKXKXKXKXKXKXKXKX* # u &XpXyX7XR.T.J.*.| | =.C.e.e.A.J.J.D.D.y.D.D.J.A.J.4XuXaX8Xb.] ] 1.A.J.J.A.4.r.k.w 2 2 V R.a.Q.p.A.E.z.4 # - KXKXKXKXKXKXKXKXKX",
"KXKXKXKXKXKXKXKXKX$ # r &XaX0X1XH.a.y.7.4.w.w.>.=.*.w.V.e.i.a.a.D.E.<X3X6X$XI.I.C.,.,.r.F.5X4X/.p.2.e.x.e 5 # V I.Q.Q.Q.A.E.z.7 % - KXKXKXKXKXKXKXKXKX",
"KXKXKXKXKXKXKXKXKX= @ d ;XmXtX9XR.H.!.p.T.G.G.X.| | >.e.5.3.a.A.T.<XqXiXpXP.| | @.K.E.Y.3XqXyXtX@XN.P.j.e - % V W.A.p.S.Z.R.' 8 % KXKXKXKXKXKXKXKXKXKX",
"KXKXKXKXKXKXKXKXKXKXKXKXc f f J xXqX4X(.H.J.A.#.| | <.V.5.5.t.p.H.,XuXiXuXP.o.X.:.2XqX0X<XP.F.I.V a a j Y } ! v.-.:.z.l t a KXKXKXKXKXKXKXKXKXKXKXKXKX",
"KXKXKXKXKXKXKXKXKXKXKXKXy # . D kXsXqX^.D.T.G.1.%.*.w.w.9.4.S.~.R.<X2X2X6X#XL.B.L.2X0X7XW.r.C.B.j 2 < p f. .;.;.o.-.f.a # # KXKXKXKXKXKXKXKXKXKXKXKXKX",
"KXKXKXKXKXKXKXKXKXKXKXKXs ; @ b mXlXaX1XS.D.D.a.D.J.w.| o.{ rXiXvX6X..o.o.#XuXwXwX/.H.J.J.s.A.L.j X < w f... .m.m.;.x.a 2 - KXKXKXKXKXKXKXKXKXKXKXKXKX",
"KXKXKXKXKXKXKXKXKXKXKXKXKXKXKXM ) P J +XrX3X/.D.a.!.r.9.9.C.P.I.I.#X#XW.#X$X<X1X~.s.u.U.g.V V V N N N C v. .;.~ N N F KXKXKXKXKXKXKXKXKXKXKXKXKXKXKXKX",
"KXKXKXKXKXKXKXKXKXKXKXKXKXKXKXKXO @ % ].zXpX8XR.J.D.a.8.y.A.#.o.[ L.eXaXiX3XU.D.8.2.r.I.U 2 X < Z n.X. .+.o.-.N X . : KXKXKXKXKXKXKXKXKXKXKXKXKXKXKXKX",
"KXKXKXKXKXKXKXKXKXKXKXKXKXKXKXKX> % 3 XXnXpX0X~.D.D.y.y.D.W.5X6X$X3XE.T.!.J.J.D.t.5.i.$XY 2 2 2 S v...X.O.X.;.N 2 5 y KXKXKXKXKXKXKXKXKXKXKXKXKXKXKXKX",
"KXKXKXKXKXKXKXKXKXKXKXKXKXKXKXKXKX; y {.;X&X%XT.A.a.D.J.E.2X8XeXqX4XJ.A.J.y.y.D.F.:.g.k.H p p p Z -.o.[ ! A ` F i : KXKXKXKXKXKXKXKXKXKXKXKXKXKXKXKXKX",
"KXKXKXKXKXKXKXKXKXKXKXKXKXKXKXKXKXKXKXKX5 2 h h.P.C.$XqXwXwX^.Y.D.y.8.a.A.7.2.F.x.a 1 2 h R ^ T ! E Q U w 2 5 KXKXKXKXKXKXKXKXKXKXKXKXKXKXKXKXKXKXKXKX",
"KXKXKXKXKXKXKXKXKXKXKXKXKXKXKXKXKXKXKXKX- # p L.e.6.T.<X5X(.H.S.a.a.D.D.J.A.3.i.x.a * 2 h ! E E Q E ! H 8 $ = KXKXKXKXKXKXKXKXKXKXKXKXKXKXKXKXKXKXKXKX",
"KXKXKXKXKXKXKXKXKXKXKXKXKXKXKXKXKXKXKXKX- $ h  XP.C.G.T.K.p.a.a.a.G.G.D.D.F.d.u.x.p 7 < a T W E W ! A H q 3 5 KXKXKXKXKXKXKXKXKXKXKXKXKXKXKXKXKXKXKXKX",
"KXKXKXKXKXKXKXKXKXKXKXKXKXKXKXKXKXKXKXKXKXKXKXk k a S W.e.7.7.t.t.t.8.7.G.S k a a F U C Z Q ~ ~ B a t x KXKXKXKXKXKXKXKXKXKXKXKXKXKXKXKXKXKXKXKXKXKXKX",
"KXKXKXKXKXKXKXKXKXKXKXKXKXKXKXKXKXKXKXKXKXKXKXKX= & G  Xg.[ g.g.c.g.g.h.k.z X X 4 F U Z Z Z C I a i & KXKXKXKXKXKXKXKXKXKXKXKXKXKXKXKXKXKXKXKXKXKXKXKX",
"KXKXKXKXKXKXKXKXKXKXKXKXKXKXKXKXKXKXKXKXKXKXKXKXKXKXKX- % 5 6 2 4 3 % % 3 3 3 3 3 2 % 6 2 4 2 5 KXKXKXKXKXKXKXKXKXKXKXKXKXKXKXKXKXKXKXKXKXKXKXKXKXKXKX",
"KXKXKXKXKXKXKXKXKXKXKXKXKXKXKXKXKXKXKXKXKXKXKXKXKXKXKXKXKXKXKXKXKXKXKXKXKXKXKXKXKXKXKXKXKXKXKXKXKXKXKXKXKXKXKXKXKXKXKXKXKXKXKXKXKXKXKXKXKXKXKXKXKXKXKX",
"KXKXKXKXKXKXKXKXKXKXKXKXKXKXKXKXKXKXKXKXKXKXKXKXKXKXKXKXKXKXKXKXKXKXKXKXKXKXKXKXKXKXKXKXKXKXKXKXKXKXKXKXKXKXKXKXKXKXKXKXKXKXKXKXKXKXKXKXKXKXKXKXKXKXKX",
"KXKXKXKXKXKXKXKXKXKXKXKXKXKXKXKXKXKXKXKXKXKXKXKXKXKXKXKXKXKXKXKXKXKXKXKXKXKXKXKXKXKXKXKXKXKXKXKXKXKXKXKXKXKXKXKXKXKXKXKXKXKXKXKXKXKXKXKXKXKXKXKXKXKXKX",
"KXKXKXKXKXKXKXKXKXKXKXKXKXKXKXKXKXKXKXKXKXKXKXKXKXKXKXKXKXKXKXKXKXKXKXKXKXKXKXKXKXKXKXKXKXKXKXKXKXKXKXKXKXKXKXKXKXKXKXKXKXKXKXKXKXKXKXKXKXKXKXKXKXKXKX",
"KXKXKXKXKXKXKXKXKXKXKXKXKXKXKXKXKXKXKXKXKXKXKXKXKXKXKXKXKXKXKXKXKXKXKXKXKXKXKXKXKXKXKXKXKXKXKXKXKXKXKXKXKXKXKXKXKXKXKXKXKXKXKXKXKXKXKXKXKXKXKXKXKXKXKX",
"KXKXKXKXKXKXKXKXKXKXKXKXKXKXKXKXKXKXKXKXKXKXKXKXKXKXKXKXKXKXKXKXKXKXKXKXKXKXKXKXKXKXKXKXKXKXKXKXKXKXKXKXKXKXKXKXKXKXKXKXKXKXKXKXKXKXKXKXKXKXKXKXKXKXKX",
"KXKXKXKXKXKXKXKXKXKXKXKXKXKXKXKXKXKXKXKXKXKXKXKXKXKXKXKXKXKXKXKXKXKXKXKXKXKXKXKXKXKXKXKXKXKXKXKXKXKXKXKXKXKXKXKXKXKXKXKXKXKXKXKXKXKXKXKXKXKXKXKXKXKXKX",
"KXKXKXKXKXKXKXKXKXKXKXKXKXKXKXKXKXKXKXKXKXKXKXKXKXKXKXKXKXKXKXKXKXKXKXKXKXKXKXKXKXKXKXKXKXKXKXKXKXKXKXKXKXKXKXKXKXKXKXKXKXKXKXKXKXKXKXKXKXKXKXKXKXKXKX",
"KXKXKXKXKXKXKXKXKXKXKXKXKXKXKXKXKXKXKXKXKXKXKXKXKXKXKXKXKXKXKXKXKXKXKXKXKXKXKXKXKXKXKXKXKXKXKXKXKXKXKXKXKXKXKXKXKXKXKXKXKXKXKXKXKXKXKXKXKXKXKXKXKXKXKX",
"KXKXKXKXKXKXKXKXKXKXKXKXKXKXKXKXKXKXKXKXKXKXKXKXKXKXKXKXKXKXKXKXKXKXKXKXKXKXKXKXKXKXKXKXKXKXKXKXKXKXKXKXKXKXKXKXKXKXKXKXKXKXKXKXKXKXKXKXKXKXKXKXKXKXKX",
"KXKXKXKXKXKXKXKXKXKXKXKXKXKXKXKXKXKXKXKXKXKXKXKXKXKXKXKXKXKXKXKXKXKXKXKXKXKXKXKXKXKXKXKXKXKXKXKXKXKXKXKXKXKXKXKXKXKXKXKXKXKXKXKXKXKXKXKXKXKXKXKXKXKXKX",
"KXKXKXKXKXKXKXKXKXKXKXKXKXKXKXKXKXKXKXKXKXKXKXKXKXKXKXKXKXKXKXKXKXKXKXKXKXKXKXKXKXKXKXKXKXKXKXKXKXKXKXKXKXKXKXKXKXKXKXKXKXKXKXKXKXKXKXKXKXKXKXKXKXKXKX",
"KXKXKXKXKXKXKXKXKXKXKXKXKXKXKXKXKXKXKXKXKXKXKXKXKXKXKXKXKXKXKXKXKXKXKXKXKXKXKXKXKXKXKXKXKXKXKXKXKXKXKXKXKXKXKXKXKXKXKXKXKXKXKXKXKXKXKXKXKXKXKXKXKXKXKX",
"KXKXKXKXKXKXKXKXKXKXKXKXKXKXKXKXKXKXKXKXKXKXKXKXKXKXKXKXKXKXKXKXKXKXKXKXKXKXKXKXKXKXKXKXKXKXKXKXKXKXKXKXKXKXKXKXKXKXKXKXKXKXKXKXKXKXKXKXKXKXKXKXKXKXKX",
"KXKXKXKXKXKXKXKXKXKXKXKXKXKXKXKXKXKXKXKXKXKXKXKXKXKXKXKXKXKXKXKXKXKXKXKXKXKXKXKXKXKXKXKXKXKXKXKXKXKXKXKXKXKXKXKXKXKXKXKXKXKXKXKXKXKXKXKXKXKXKXKXKXKXKX"
};
