/* XPM */
static char *result[] = {
/* columns rows colors chars-per-pixel */
"75 75 236 2 ",
"   c #2A0E00",
".  c #2D1C02",
"X  c #2A1805",
"o  c #321D00",
"O  c #371802",
"+  c #2D2409",
"@  c #332201",
"#  c #3B2302",
"$  c #3B2807",
"%  c #35260B",
"&  c #362A0C",
"*  c #3B2D0B",
"=  c #3B300C",
"-  c #2E2717",
";  c #3A2C13",
":  c #382B17",
">  c #3C3111",
",  c #363117",
"<  c #3A2F20",
"1  c #432602",
"2  c #422904",
"3  c #432B0C",
"4  c #462806",
"5  c #522806",
"6  c #483308",
"7  c #563609",
"8  c #432E17",
"9  c #483717",
"0  c #553F14",
"q  c #5B3B14",
"w  c #6B3D0A",
"e  c #643A09",
"r  c #6A3910",
"t  c #4F3D25",
"y  c #5E4409",
"u  c #4E4317",
"i  c #554114",
"p  c #594519",
"a  c #61420B",
"s  c #66430B",
"d  c #634A1A",
"f  c #674919",
"g  c #7B4818",
"h  c #76581E",
"j  c #584422",
"k  c #6A4C24",
"l  c #695528",
"z  c #795B24",
"x  c #775A29",
"c  c #675636",
"v  c #785F31",
"b  c #694E2B",
"n  c #72653A",
"m  c #796B4A",
"M  c #814C12",
"N  c #885719",
"B  c #945A18",
"V  c #8E6219",
"C  c #92631D",
"Z  c #966514",
"A  c #AF7719",
"S  c #B67A1B",
"D  c #8F5722",
"F  c #8C6223",
"G  c #846929",
"H  c #8A692A",
"J  c #956823",
"K  c #9F7727",
"L  c #866D36",
"P  c #8C743B",
"I  c #997A39",
"U  c #AB6927",
"Y  c #A57534",
"T  c #A7742D",
"R  c #CA782F",
"E  c #846D43",
"W  c #957C46",
"Q  c #8E7849",
"!  c #BC8229",
"~  c #B08937",
"^  c #D08E1A",
"/  c #E58C02",
"(  c #EA8A01",
")  c #E98909",
"_  c #E59302",
"`  c #EB9302",
"'  c #ED9B05",
"]  c #EC9A0B",
"[  c #E7960C",
"{  c #F1950A",
"}  c #F0990A",
"|  c #E69816",
" . c #F69D12",
".. c #F99D15",
"X. c #F7AF0A",
"o. c #FAAD0C",
"O. c #F8A60A",
"+. c #FCB20D",
"@. c #FBBB0C",
"#. c #FBB608",
"$. c #EAA419",
"%. c #F5A314",
"&. c #F4AA14",
"*. c #FAAB14",
"=. c #F5A31D",
"-. c #FDA61C",
";. c #F4AB1C",
":. c #FBAB1B",
">. c #FAA015",
",. c #FCB313",
"<. c #F5BB14",
"1. c #FCBB15",
"2. c #F5B41C",
"3. c #FCB41C",
"4. c #F6BB1C",
"5. c #FDBA1D",
"6. c #F3B213",
"7. c #EDA915",
"8. c #C48E2C",
"9. c #D58E25",
"0. c #D18E2B",
"q. c #CE932E",
"w. c #D49429",
"e. c #C98B35",
"r. c #CA9936",
"t. c #D79334",
"y. c #D18438",
"u. c #E49D2A",
"i. c #E89D25",
"p. c #E99933",
"a. c #DDA532",
"s. c #E9A726",
"d. c #F3AB24",
"f. c #FAAE22",
"g. c #F6A926",
"h. c #F4B322",
"j. c #FBB423",
"k. c #F6BB23",
"l. c #FDBB23",
"z. c #F4B42B",
"x. c #FBB52B",
"c. c #F5BB2B",
"v. c #FBBB2B",
"b. c #E3A332",
"n. c #E8A838",
"m. c #F1AF34",
"M. c #F2AF3D",
"N. c #F8AA34",
"B. c #EBB336",
"V. c #F4B332",
"C. c #F6BC33",
"Z. c #FABD33",
"A. c #F3B43C",
"S. c #FABD3A",
"D. c #F7BD3A",
"F. c #EDBD28",
"G. c #F8C21F",
"H. c #FAC12D",
"J. c #F4C229",
"K. c #EEC335",
"L. c #F6C334",
"P. c #FAC134",
"I. c #F5C33B",
"U. c #FAC23B",
"Y. c #F9CA3B",
"T. c #988147",
"R. c #9C8958",
"E. c #A78A46",
"W. c #A68F5B",
"Q. c #B89B54",
"!. c #B09344",
"~. c #BDA256",
"^. c #A79666",
"/. c #BCA365",
"(. c #B7A97E",
"). c #C59D4A",
"_. c #D5B24E",
"`. c #C7A858",
"'. c #D6B55B",
"]. c #D1A74E",
"[. c #EAB846",
"{. c #F4BB47",
"}. c #F7BD50",
"|. c #EBAF42",
" X c #C5A963",
".X c #D4B767",
"XX c #D2AC66",
"oX c #EFC143",
"OX c #F5C443",
"+X c #FBC544",
"@X c #F5CA44",
"#X c #FBCA44",
"$X c #F5C54B",
"%X c #F9C54B",
"&X c #F6CB4C",
"*X c #FBCB4C",
"=X c #FDD24F",
"-X c #F6C553",
";X c #FACC54",
":X c #FBCD5B",
">X c #F8C857",
",X c #FCD254",
"<X c #FDD35C",
"1X c #F8D85D",
"2X c #EFC350",
"3X c #E5C465",
"4X c #E6C86D",
"5X c #F8CE68",
"6X c #FDD464",
"7X c #FCDA65",
"8X c #F6D66C",
"9X c #FDD56A",
"0X c #FED96B",
"qX c #F6D768",
"wX c #E9C974",
"eX c #F7CE74",
"rX c #F6D474",
"tX c #FCD573",
"yX c #FDDB73",
"uX c #FEDA7B",
"iX c #F6D878",
"pX c #EED175",
"aX c #FFE47A",
"sX c #FFE26F",
"dX c #C8B48A",
"fX c #F8D882",
"gX c #EBD599",
"hX c #F3D88E",
"jX c #FFE282",
"kX c #FFEC8D",
"lX c #FEE494",
"zX c #EDD5A0",
"xX c #FBE3A3",
"cX c #FFF5B6",
"vX c #FFFDC4",
"bX c None",
/* pixels */
"bXbXbXbXbXbXbXbXbXbXbXbXbXbXbXbXbXbXbXbXbXbXbXbXbXbXbXbXbXbXbXbXbXbXbXbXbXbXbXbXbXbXbXbXbXbXbXbXbXbXbXbXbXbXbXbXbXbXbXbXbXbXbXbXbXbXbXbXbXbXbXbXbXbXbX",
"bXbXbXbXbXbXbXbXbXbXbXbXbXbXbXbXbXbXbXbXbXbXbXbXbXbXbXbXbXbXbXbXbXbXbXbXbXbXbXbXbXbXbXbXbXbXbXbXbXbXbXbXbXbXbXbXbXbXbXbXbXbXbXbXbXbXbXbXbXbXbXbXbXbXbX",
"bXbXbXbXbXbXbXbXbXbXbXbXbXbXbXbXbXbXbXbXbXbXbXbXbXbXbXbXbXbXbXbXbXbXbXbXbXbXbXbXbXbXbXbXbXbXbXbXbXbXbXbXbXbXbXbXbXbXbXbXbXbXbXbXbXbXbXbXbXbXbXbXbXbXbX",
"bXbXbXbXbXbXbXbXbXbXbXbXbXbXbXbXbXbXbXbXbXbXbXbXbXbXbXbXbXbXbXbXbXbXbXbXbXbXbXbXbXbXbXbXbXbXbXbXbXbXbXbXbXbXbXbXbXbXbXbXbXbXbXbXbXbXbXbXbXbXbXbXbXbXbX",
"bXbXbXbXbXbXbXbXbXbXbXbXbXbXbXbXbXbXbXbXbXbXbXbXbXbXbXbXbXbXbXbXbXbXbXbXbXbXbXbXbXbXbXbXbXbXbXbXbXbXbXbXbXbXbXbXbXbXbXbXbXbXbXbXbXbXbXbXbXbXbXbXbXbXbX",
"bXbXbXbXbXbXbXbXbXbXbXbXbXbXbXbXbXbXbXbXbXbXbXbXbXbXbXbXbXbXbXbXbXbXbXbXbXbXbXbXbXbXbXbXbXbXbXbXbXbXbXbXbXbXbXbXbXbXbXbXbXbXbXbXbXbXbXbXbXbXbXbXbXbXbX",
"bXbXbXbXbXbXbXbXbXbXbXbXbXbXbXbXbXbXbXbXbXbXbXbXbXbXbXbXbXbXbXbXbXbXbXbXbXbXbXbXbXbXbXbXbXbXbXbXbXbXbXbXbXbXbXbXbXbXbXbXbXbXbXbXbXbXbXbXbXbXbXbXbXbXbX",
"bXbXbXbXbXbXbXbXbXbXbXbXbXbXbXbXbXbXbXbXbXbXbXbXbXbXbXbXbXbXbXbXbXbXbXbXbXbXbXbXbXbXbXbXbXbXbXbXbXbXbXbXbXbXbXbXbXbXbXbXbXbXbXbXbXbXbXbXbXbXbXbXbXbXbX",
"bXbXbXbXbXbXbXbXbXbXbXbXbXbXbXbXbXbXbXbXbXbXbXbXbXbXbXbXbXbXbXbXbXbXbXbXbXbXbXbXbXbXbXbXbXbXbXbXbXbXbXbXbXbXbXbXbXbXbXbXbXbXbXbXbXbXbXbXbXbXbXbXbXbXbX",
"bXbXbXbXbXbXbXbXbXbXbXbXbXbXbXbXbXbXbXbXbXbXbXbXbXbXbXbXbXbXbXbXbXbXbXbXbXbXbXbXbXbXbXbXbXbXbXbXbXbXbXbXbXbXbXbXbXbXbXbXbXbXbXbXbXbXbXbXbXbXbXbXbXbXbX",
"bXbXbXbXbXbXbXbXbXbXbXbXbXbXbXbXbXbXbXbXbXbXbXbXbXbXbXbXbXbXbXbXbXbXbXbXbXbXbXbXbXbXbXbXbXbXbXbXbXbXbXbXbXbXbXbXbXbXbXbXbXbXbXbXbXbXbXbXbXbXbXbXbXbXbX",
"bXbXbXbXbXbXbXbXbXbXbXbXbXbXbXbXbXbXbXbXbXbXbXbXbXbXbXbXbXbXbXbXbXbXbXbXbXbXbXbXbXbXbXbXbXbXbXbXbXbXbXbXbXbXbXbXbXbXbXbXbXbXbXbXbXbXbXbXbXbXbXbXbXbXbX",
"bXbXbXbXbXbXbXbXbXbXbXbXbXbXbXbXbXbXbXbXbXbXbXbXbXbXbXbXbXbXbXbXbXbXbXbXbXbXbXbXbXbXbXbXbXbXbXbXbXbXbXbXbXbXbXbXbXbXbXbXbXbXbXbXbXbXbXbXbXbXbXbXbXbXbX",
"bXbXbXbXbXbXbXbXbXbXbXbXbXbXbXbXbXbXbXbXbXbXbXbXbXbXbXbXbXbXbXbXbXbXbXbXbXbXbXbXbXbXbXbXbXbXbXbXbXbXbXbXbXbXbXbXbXbXbXbXbXbXbXbXbXbXbXbXbXbXbXbXbXbXbX",
"bXbXbXbXbXbXbXbXbXbXbXbXbXbXbXbXbXbXbXbXbXbXbXbXbXbXbXbXbXbXbXbXbXbXbXbXbXbXbXbXbXbXbXbXbXbXbXbXbXbXbXbXbXbXbXbXbXbXbXbXbXbXbXbXbXbXbXbXbXbXbXbXbXbXbX",
"bXbXbXbXbXbXbXbXbXbXbXbXbXbXbXbXbXbXbXbXbXbXbXbXbXbXbXbXbX+ % % & & & & & & & * & & ; & * 3 8 & + bXbXbXbXbXbXbXbXbXbXbXbXbXbXbXbXbXbXbXbXbXbXbXbXbXbX",
"bXbXbXbXbXbXbXbXbXbXbXbXbXbXbXbXbXbXbXbXbXbXbXbXbXbXbXbXn u i i i p i i i i 0 q 0 0 i i 6 $ 3 0 i c bXbXbXbXbXbXbXbXbXbXbXbXbXbXbXbXbXbXbXbXbXbXbXbXbX",
"bXbXbXbXbXbXbXbXbXbXbXbXbXbXbXbXbXbXbXbXbXbXbXbXbXbX@ @ W iXrXtXrX8X8XrX8XrXrXrXtXtX8XfXT.. $ `.kX/.= . bXbXbXbXbXbXbXbXbXbXbXbXbXbXbXbXbXbXbXbXbXbXbX",
"bXbXbXbXbXbXbXbXbXbXbXbXbXbXbXbXbXbXbXbXbXbXbXbXbXm Q P ].;X+X+X*X;X6X6X<X*X*X*X#X*X*X:Xr.Z C I E.T.P P E bXbXbXbXbXbXbXbXbXbXbXbXbXbXbXbXbXbXbXbXbXbX",
"bXbXbXbXbXbXbXbXbXbXbXbXbXbXbXbXbXbXbXbXbXbXbXt . h rXaX>Xx.v.c.V.OX6X<X+XV.c.l.l.j.2.k.1.5.N.s   d fXkXW @ 8 bXbXbXbXbXbXbXbXbXbXbXbXbXbXbXbXbXbXbXbX",
"bXbXbXbXbXbXbXbXbXbXbXbXbXbXbXbXbXbXbXbXbX, j ^.XX_.K.c.z.6.h.*X,X;XI.L.l.5.5.5.l.l.5.l.l.2.h.^ e.Y k f I .X/.x % bXbXbXbXbXbXbXbXbXbXbXbXbXbXbXbXbXbX",
"bXbXbXbXbXbXbXbXbXbXbXbXbXbXbXbXbXbXbXbXn u d .X7X*XJ.4.<.2.B.>X1X@Xc.l.5.5.1.5.5.l.5.l.c.l.5.2.S.e.w 5 I 4X.Xz q c bXbXbXbXbXbXbXbXbXbXbXbXbXbXbXbXbX",
"bXbXbXbXbXbXbXbXbXbXbXbXbXbXbXbXbXbX- @ T.iXqX{.c.l.<.<.@X9X6XI.J.l.l.l.l.v.v.v.v.v.l.l.v.l.5.5.x.V.s.B.V O 3 dXvXdX; X bXbXbXbXbXbXbXbXbXbXbXbXbXbXbX",
"bXbXbXbXbXbXbXbXbXbXbXbXbXbXbXbXbXbXP G ).*X#Xv.5.J.L.+X>X;X+Xh.;.;.;.:.-.g.-.d.:.6.1.5.l.l.5.1.5.l.j.x.^ M F R.^.R.L P E bXbXbXbXbXbXbXbXbXbXbXbXbXbX",
"bXbXbXbXbXbXbXbXbXbXbXbXbXbXbXbX. d pXyX*Xk.c.l.<.L.6X9X$Xk.5.{ ) ) ( ( ( ( ( ( / [ 3.5.l.3.5.l.l.c.c.k.,.f.n.w   j fXlXP . : bXbXbXbXbXbXbXbXbXbXbXbX",
"bXbXbXbXbXbXbXbXbXbXbXbXbXbX0 W. X].oXI.x.@.l.+X;X&XOXI.h.' ' O.-... .O.O. .-.A.}.{.i.' o.l.5.H.v.c.#X&X*X%X}.0.! Y x l R.dX(.c , bXbXbXbXbXbXbXbXbXbX",
"bXbXbXbXbXbXbXbXbXbXbXbXbX& 6 `.aX<Xc.j.v.J.K.&X<X&Xz.j...( ` O.o.X.o.X.X.o.h.*X<X}.u.[ $.2.2.c.c.Y.<X9X9X9X6Xv.5.8.4 o ^.cXgXd # 9 bXbXbXbXbXbXbXbXbX",
"bXbXbXbXbXbXbXbXbXbXbXbXbX. $ ~.uX>Xc.1.Y.7X6XOXv.2._ /  .-.:.l.l.j.l.j.5.5.l.c.C.OX>X6Xm.) ^ %X9X9X8X8X6X9X6XA.g.8.4 O W.cXzXj X < bXbXbXbXbXbXbXbXbX",
"bXbXbXbXbXbXbXbXbXbXbXbXE L H _.:X&X@X@X&X*X+Xf.&.%.} } %.j.h.l.5.l.l.l.5.5.l.l.v.H.@X*X{.n.n.{.[.2XqX8X;XY.@XD.x.w.V N W ^.W.E L L bXbXbXbXbXbXbXbXbX",
"bXbXbXbXbXbXbXbXbXbX> o I aX7XI.F.I.<X9X%Xk.,.' / { -.-.j.v.l.l.l.l.l.5.5.5.5.l.l.l.k.c.U.7X<Xi.) $.:X6XY.1.5.v.5.1.6.z.B O 2 .XjXQ.$ : bXbXbXbXbXbXbX",
"bXbXbXbXbXbXbXbXbXbX; o I yX<X:X:X&XI.L.v.v.x.{ ( { -.*.3.l.l.5.l.5.l.l.l.l.v.l.5.H.*X;X<X7X:Xp.) | D.OXS.j.5.v.l.3.*.d.C o 7 '.fX`.# % bXbXbXbXbXbXbX",
"bXbXbXbXbXbXbXbXbXbXp 6 E.0X6X6X6X&Xc.4.5.x.x.] ` } :.*.3.l.5.l.l.l.l.5.l.l.v.v.C.@X7X9X6X7X:Xn.| $.2.2.j.1.1.l.l.3.*.3.Z 5 y `.wX!.u u bXbXbXbXbXbXbX",
"bXbXbXbXbXbXbXbX% k .XwXeX7X,XOXL.c.5.v.%._ ` >.O.*.j.l.l.l.5.H.l.l.v.5.5.5.c.*X<X6X7X6X9X0X7X6X6X{.[ / %.v.l.5.5.l.5.5.m.b.t.s $ v gXgXE # bXbXbXbXbX",
"bXbXbXbXbXbXbXbX@ f 4XyX6X*X#XC.c.l.&.*.%.] ] *.,.,.l.l.l.l.5.l.l.5.5.l.Z.U.+X<X6X9X8X6X<X;X*X*X&X+Xs.s.s.d.*.3.3.l.5.5.h.V.b.a . v xXxXE o ; bXbXbXbX",
"bXbXbXbXbXbXbXbX@ f 3X9X$Xc.l.5.v.f._ /  .:.:.l.5.5.5.5.5.l.l.5.5.5.5.v.+X6X6X9X9X6X6X6X#Xc.v.v.c.I.<X9XA./ ` :.l.5.1.@.3.g.b.a o v zXlXL # > bXbXbXbX",
"bXbXbXbXbXbXbXbX@ d 3X6X%Xc.l.l.x.f.( ( ..:.+.3.j.5.5.l.5.l.l.l.l.H.#X&X<X9X9X9X6X<XOXY.Z.l.5.l.c.I.,X9XM.[ ` :.v.l.l.5.,.X.i.a o x fXfXL o = bXbXbXbX",
"bXbXbXbXbXbXbXbX@ d 3X7X*Xk.5.3.l.:.` ( ..:.X.3.j.l.l.l.l.l.c.v.c.+X6X6X9X9X6X6X<X*Xv.5.l.5.l.v.v.P.<X6XM.) ` :.v.l.l.l.,.o.i.7 o z eXtXG @ > bXbXbXbX",
"bXbXbXbXbXbXbXbX@ p 3X0XOX5.5.5.l.3._ (  .:.o.3.l.l.l.l.l.l.C.*X,X6X9X0X9X9X<X+XL.l.5.5.l.l.l.l.c.U.<X9XA.) ` 3.l.l.l.5.6.:.s.a . z rXtXG @ > bXbXbXbX",
"bXbXbXbXbXbXbXbXo f 3X7X%Xk.5.l.v.f.` /  .:.*.3.l.1.5.j.v.U.$X<X7X9X8X6X6X>X*XZ.l.l.5.5.l.l.5.5.c.U.<X9X|.) { ,.l.l.5.5.,.:.u.e o z rXtXG o > bXbXbXbX",
"bXbXbXbXbXbXbXbXo d 3X0X+Xj.5.5.v.j.` ( ..:.+.5.5.1.4.c.%X6X8X0X9X9X6X<XOXc.l.l.l.l.5.H.l.l.5.l.l.U.<X9X|.) ` :.l.5.l.5.,.:.u.y . z eXtXG @ > bXbXbXbX",
"bXbXbXbXbXbXbXbXo f 3X9X%Xc.5.5.l.f.` / ..-.o.*.,.c.@X;X5X9XtX9X9X6X$X#XP.5.1.5.5.5.l.l.l.l.l.l.c.I.:X9XM./ ` 6.v.l.v.k.3.:.u.a . z rXtXG @ > bXbXbXbX",
"bXbXbXbXbXbXbXbX@ f 3X9X%Xc.5.5.l.3.' (  .-.*.*.%.A.<X7X9X0X6X6X,X*XZ.c.l.3.5.5.l.l.5.l.c.l.l.l.C.OX:X:XB.[ ` j.v.Z.c.L.h.;.i.a @ z eXtXG @ * bXbXbXbX",
"bXbXbXbXbXbXbXbXo f wXaXY.<.j.l.5.3.3.j.%.` ` -.f.A.<X6X8X0X<XOXL.v.l.l.,.X.X.3.l.l.H.5.5.l.x.*X<X-Xi.| s.j.,.5.j.U.,X<XU.:.b.7 X h uXuXG @ * bXbXbXbX",
"bXbXbXbXbXbXbXbXbXl /.`.[.I.S.C.l.1.5.l.d.=.| >.>.V.%X;X;X;X*Xv.l.3.5.5.,.X.,.5.l.l.l.l.l.Z.OX$X-XA.] ' ;.v.J.J.U.+X;X>Xa.^ ~ z k L `. XP bXbXbXbXbXbX",
"bXbXbXbXbXbXbXbXbXbX> o I uX6XL.2.l.j.c.&X7X<Xs.( } :.;.k.l.l.l.5.l.l.l.5.l.l.l.l.l.5.l.+X,X:Xs.) ' 4.l.v.x.k.,X9X>Xd.d.V # 6 _.jXQ.1 $ bXbXbXbXbXbXbX",
"bXbXbXbXbXbXbXbXbXbX> @ I uX6XL.J.P.+X$X1XqX:Xi.) { -.*.3.5.J.l.v.l.l.l.l.l.l.5.5.5.G.2.*X7X5Xi.( { 5.k.S.Y.@X&X-XS.X.s.F # 6 _.aX~.1 $ bXbXbXbXbXbXbX",
"bXbXbXbXbXbXbXbXbXbX> % I iX5XOXB.@X<X6X7X8X:Xi./ } -.f.j.j.v.l.l.l.l.l.l.l.l.l.l.5.G.c.+X<X;Xs._ | x.k.+X<X6XOXc.z.s.s.B 1 q XXfXQ.= * bXbXbXbXbXbXbX",
"bXbXbXbXbXbXbXbXbXbXbXbXbXp f `.6X6X6X6X9X9X6XC.h.f.` ` %.:.*.5.l.5.5.l.5.l.l.5.5.H.=X<X[.w.$.;.h.A.:X<X@XS.Z.1.G.r.s 7 K ].r.h p l bXbXbXbXbXbXbXbXbX",
"bXbXbXbXbXbXbXbXbXbXbXbXbXo 2 `.0X6X7X8X5X:X;XP.1.6.] ] %.O.%.c.U.Z.Z.Z.P.Z.Z.P.P.{.-X-XB.| $.V.Y.$X<X<X+X3.@.3.c.8.4 # K %XB.y o 8 bXbXbXbXbXbXbXbXbX",
"bXbXbXbXbXbXbXbXbXbXbXbXbX% 3  XjXyX8X9X*X4.5.c.l.5.l.x. ./ [ >X0XyX0X0X0X0X0X9X0X-X9./ ] 3.c.:X9X*XJ.2.j.v.l.l.x.8.4 O K *XM.a % bXbXbXbXbXbXbXbXbXbX",
"bXbXbXbXbXbXbXbXbXbXbXbXbXbXbXW P E.8X6XU.@.1.l.5.@.5.l.:.;.;.m.A.M.n.m.m.V.m.m.V.g.%.O.h.@X$X;X*XL.4.@.,.,.;.A J C B D C J J bXbXbXbXbXbXbXbXbXbXbXbX",
"bXbXbXbXbXbXbXbXbXbXbXbXbXbXbXbXX k wXtX;XC.V.v.@.5.l.l.l.l.3.` ( ( ( / ( ( ( ( ( ] l.H.@X9X6XI.4.5.v.k.j.g.b.w   w p.p.D . + bXbXbXbXbXbXbXbXbXbXbXbX",
"bXbXbXbXbXbXbXbXbXbXbXbXbXbXbXbXbXbXl p !.0X,XL.5.5.l.v.l.l.5.3.f.f.j.j.3.h.j.h.j.Z.:X5X@XL.J.v.l.,.@.x.A q s U R U e q bXbXbXbXbXbXbXbXbXbXbXbXbXbXbX",
"bXbXbXbXbXbXbXbXbXbXbXbXbXbXbXbXbXbXbX% T..X_.{.c.v.l.l.5.5.l.5.l.c.l.5.1.<.5.H.Z.+X:X<XY.<.5.j.j.;.^ w.B 5 7 U y.Y 6 ; bXbXbXbXbXbXbXbXbXbXbXbXbXbXbX",
"bXbXbXbXbXbXbXbXbXbXbXbXbXbXbXbXbXbXbXbXbX& 7 .XjX6Xl.1.l.5.v.l.l.l.l.3.l.j.v.;X1X;XD.l.l.l.5.,.l.e.5 O M 8.S e # 8 bXbXbXbXbXbXbXbXbXbXbXbXbXbXbXbXbX",
"bXbXbXbXbXbXbXbXbXbXbXbXbXbXbXbXbXbXbXbXbXbXc W T.~ 6.#.l.5.l.c.l.5.l.l.S.+X%X*X&XI.4.l.x.6.2.S J J g g M M M g bXbXbXbXbXbXbXbXbXbXbXbXbXbXbXbXbXbXbX",
"bXbXbXbXbXbXbXbXbXbXbXbXbXbXbXbXbXbXbXbXbXbXbXbXo f n.N.V.5.5.c.5.,.x.c.+X,X=XL.j.,.#.5.z.;.n.r   r R R h % 8 bXbXbXbXbXbXbXbXbXbXbXbXbXbXbXbXbXbXbXbX",
"bXbXbXbXbXbXbXbXbXbXbXbXbXbXbXbXbXbXbXbXbXbXbXbXbXbXk w S ,.,.j.+.,.3.j.x.v.l.3.,.+.+.5.! r r D U B 7 q b bXbXbXbXbXbXbXbXbXbXbXbXbXbXbXbXbXbXbXbXbXbX",
"bXbXbXbXbXbXbXbXbXbXbXbXbXbXbXbXbXbXbXbXbXbXbXbXbXbX, : J q.0.0.9.9.^ 9.9.9.9.9.0.0.q.q.F o 1 N U D 9 - bXbXbXbXbXbXbXbXbXbXbXbXbXbXbXbXbXbXbXbXbXbXbX",
"bXbXbXbXbXbXbXbXbXbXbXbXbXbXbXbXbXbXbXbXbXbXbXbXbXbXbXbXbX* 2 2 2 2 2 4 2 2 2 3 2 2 2 3 $ 3 3 $ % t bXbXbXbXbXbXbXbXbXbXbXbXbXbXbXbXbXbXbXbXbXbXbXbXbX",
"bXbXbXbXbXbXbXbXbXbXbXbXbXbXbXbXbXbXbXbXbXbXbXbXbXbXbXbXbXbXbXbXbXbXbXbXbXbXbXbXbXbXbXbXbXbXbXbXbXbXbXbXbXbXbXbXbXbXbXbXbXbXbXbXbXbXbXbXbXbXbXbXbXbXbX",
"bXbXbXbXbXbXbXbXbXbXbXbXbXbXbXbXbXbXbXbXbXbXbXbXbXbXbXbXbXbXbXbXbXbXbXbXbXbXbXbXbXbXbXbXbXbXbXbXbXbXbXbXbXbXbXbXbXbXbXbXbXbXbXbXbXbXbXbXbXbXbXbXbXbXbX",
"bXbXbXbXbXbXbXbXbXbXbXbXbXbXbXbXbXbXbXbXbXbXbXbXbXbXbXbXbXbXbXbXbXbXbXbXbXbXbXbXbXbXbXbXbXbXbXbXbXbXbXbXbXbXbXbXbXbXbXbXbXbXbXbXbXbXbXbXbXbXbXbXbXbXbX",
"bXbXbXbXbXbXbXbXbXbXbXbXbXbXbXbXbXbXbXbXbXbXbXbXbXbXbXbXbXbXbXbXbXbXbXbXbXbXbXbXbXbXbXbXbXbXbXbXbXbXbXbXbXbXbXbXbXbXbXbXbXbXbXbXbXbXbXbXbXbXbXbXbXbXbX",
"bXbXbXbXbXbXbXbXbXbXbXbXbXbXbXbXbXbXbXbXbXbXbXbXbXbXbXbXbXbXbXbXbXbXbXbXbXbXbXbXbXbXbXbXbXbXbXbXbXbXbXbXbXbXbXbXbXbXbXbXbXbXbXbXbXbXbXbXbXbXbXbXbXbXbX",
"bXbXbXbXbXbXbXbXbXbXbXbXbXbXbXbXbXbXbXbXbXbXbXbXbXbXbXbXbXbXbXbXbXbXbXbXbXbXbXbXbXbXbXbXbXbXbXbXbXbXbXbXbXbXbXbXbXbXbXbXbXbXbXbXbXbXbXbXbXbXbXbXbXbXbX",
"bXbXbXbXbXbXbXbXbXbXbXbXbXbXbXbXbXbXbXbXbXbXbXbXbXbXbXbXbXbXbXbXbXbXbXbXbXbXbXbXbXbXbXbXbXbXbXbXbXbXbXbXbXbXbXbXbXbXbXbXbXbXbXbXbXbXbXbXbXbXbXbXbXbXbX",
"bXbXbXbXbXbXbXbXbXbXbXbXbXbXbXbXbXbXbXbXbXbXbXbXbXbXbXbXbXbXbXbXbXbXbXbXbXbXbXbXbXbXbXbXbXbXbXbXbXbXbXbXbXbXbXbXbXbXbXbXbXbXbXbXbXbXbXbXbXbXbXbXbXbXbX",
"bXbXbXbXbXbXbXbXbXbXbXbXbXbXbXbXbXbXbXbXbXbXbXbXbXbXbXbXbXbXbXbXbXbXbXbXbXbXbXbXbXbXbXbXbXbXbXbXbXbXbXbXbXbXbXbXbXbXbXbXbXbXbXbXbXbXbXbXbXbXbXbXbXbXbX",
"bXbXbXbXbXbXbXbXbXbXbXbXbXbXbXbXbXbXbXbXbXbXbXbXbXbXbXbXbXbXbXbXbXbXbXbXbXbXbXbXbXbXbXbXbXbXbXbXbXbXbXbXbXbXbXbXbXbXbXbXbXbXbXbXbXbXbXbXbXbXbXbXbXbXbX",
"bXbXbXbXbXbXbXbXbXbXbXbXbXbXbXbXbXbXbXbXbXbXbXbXbXbXbXbXbXbXbXbXbXbXbXbXbXbXbXbXbXbXbXbXbXbXbXbXbXbXbXbXbXbXbXbXbXbXbXbXbXbXbXbXbXbXbXbXbXbXbXbXbXbXbX",
"bXbXbXbXbXbXbXbXbXbXbXbXbXbXbXbXbXbXbXbXbXbXbXbXbXbXbXbXbXbXbXbXbXbXbXbXbXbXbXbXbXbXbXbXbXbXbXbXbXbXbXbXbXbXbXbXbXbXbXbXbXbXbXbXbXbXbXbXbXbXbXbXbXbXbX",
"bXbXbXbXbXbXbXbXbXbXbXbXbXbXbXbXbXbXbXbXbXbXbXbXbXbXbXbXbXbXbXbXbXbXbXbXbXbXbXbXbXbXbXbXbXbXbXbXbXbXbXbXbXbXbXbXbXbXbXbXbXbXbXbXbXbXbXbXbXbXbXbXbXbXbX",
"bXbXbXbXbXbXbXbXbXbXbXbXbXbXbXbXbXbXbXbXbXbXbXbXbXbXbXbXbXbXbXbXbXbXbXbXbXbXbXbXbXbXbXbXbXbXbXbXbXbXbXbXbXbXbXbXbXbXbXbXbXbXbXbXbXbXbXbXbXbXbXbXbXbXbX",
"bXbXbXbXbXbXbXbXbXbXbXbXbXbXbXbXbXbXbXbXbXbXbXbXbXbXbXbXbXbXbXbXbXbXbXbXbXbXbXbXbXbXbXbXbXbXbXbXbXbXbXbXbXbXbXbXbXbXbXbXbXbXbXbXbXbXbXbXbXbXbXbXbXbXbX"
};
