/* XPM */
static char *result[] = {
/* columns rows colors chars-per-pixel */
"75 75 225 2 ",
"   c #251500",
".  c #2D1C01",
"X  c #2B1C0A",
"o  c #2D1400",
"O  c #321D01",
"+  c #371C08",
"@  c #2E2403",
"#  c #342404",
"$  c #3D2404",
"%  c #3D2806",
"&  c #36240A",
"*  c #352A0B",
"=  c #3A2A0A",
"-  c #392708",
";  c #322411",
":  c #3D2C12",
">  c #3E2F1D",
",  c #3D3113",
"<  c #323311",
"1  c #2E2615",
"2  c #452B06",
"3  c #4D2D04",
"4  c #442D0A",
"5  c #4D2F09",
"6  c #432503",
"7  c #502E04",
"8  c #56380C",
"9  c #422E14",
"0  c #4D3D12",
"q  c #46371C",
"w  c #523E11",
"e  c #543D19",
"r  c #46340E",
"t  c #643E0C",
"y  c #493821",
"u  c #57441A",
"i  c #68460D",
"p  c #644314",
"a  c #6D4611",
"s  c #654D1E",
"d  c #694B17",
"f  c #704610",
"g  c #6B511F",
"h  c #764C12",
"j  c #5A4A25",
"k  c #5F562E",
"l  c #674B21",
"z  c #6B5529",
"x  c #7F6732",
"c  c #796946",
"v  c #885B17",
"b  c #905E17",
"n  c #87621D",
"m  c #98691B",
"M  c #89610D",
"N  c #A6741C",
"B  c #B17B19",
"V  c #A8760D",
"C  c #865E29",
"Z  c #856427",
"A  c #997128",
"S  c #866A35",
"D  c #977839",
"F  c #936E34",
"G  c #A16D22",
"H  c #B77B27",
"J  c #A37727",
"K  c #8B7748",
"L  c #BD8213",
"P  c #BB8225",
"I  c #B7872A",
"U  c #B58B3D",
"Y  c #BB9132",
"T  c #DC8B05",
"R  c #C4851A",
"E  c #D99518",
"W  c #E58B01",
"Q  c #EA8B01",
"!  c #E68809",
"~  c #E59302",
"^  c #EC9405",
"/  c #EC9A06",
"(  c #EC950A",
")  c #EB9A0C",
"_  c #E5950D",
"`  c #F19D0D",
"'  c #F59A09",
"]  c #E88913",
"[  c #E99B18",
"{  c #F59F13",
"}  c #F99F12",
"|  c #EAA50F",
" . c #F9AA04",
".. c #F8A00E",
"X. c #F3AA0C",
"o. c #FBAC0B",
"O. c #F8A708",
"+. c #F5B30E",
"@. c #FCB40C",
"#. c #FCB90E",
"$. c #FBB602",
"%. c #EAA617",
"&. c #F4A214",
"*. c #FAA314",
"=. c #F5AB14",
"-. c #FBAC14",
";. c #F5A41A",
":. c #FBA31A",
">. c #F5AB1B",
",. c #FBAB1B",
"<. c #EDB01D",
"1. c #F6B414",
"2. c #FCB313",
"3. c #FCBA14",
"4. c #F5B11C",
"5. c #FCB41C",
"6. c #F5BB1D",
"7. c #FDBB1D",
"8. c #F4B911",
"9. c #C98A23",
"0. c #C79129",
"q. c #D69323",
"w. c #DE9B2C",
"e. c #D79526",
"r. c #D79B36",
"t. c #CA923E",
"y. c #E59B2A",
"u. c #DDA136",
"i. c #EEAC24",
"p. c #E7A42C",
"a. c #EDAA28",
"s. c #EAA525",
"d. c #F5AD21",
"f. c #FAAE22",
"g. c #F3AD2B",
"h. c #F9A927",
"j. c #EFB121",
"k. c #F5B422",
"l. c #FBB423",
"z. c #F6BB24",
"x. c #FDBB23",
"c. c #F4B22B",
"v. c #FDB52A",
"b. c #F5BB2C",
"n. c #FCBB2A",
"m. c #E6AF34",
"M. c #EBAB32",
"N. c #E6A634",
"B. c #F8AC3B",
"V. c #ECB539",
"C. c #F4B334",
"Z. c #F5BC33",
"A. c #FABD33",
"S. c #F5BD3C",
"D. c #FBBD3C",
"F. c #F7B437",
"G. c #F8C11F",
"H. c #F5C32E",
"J. c #FBC02F",
"K. c #FAC125",
"L. c #F5C233",
"P. c #FAC235",
"I. c #F5C33C",
"U. c #FAC33B",
"Y. c #F5C936",
"T. c #9D864B",
"R. c #B1934B",
"E. c #B59A53",
"W. c #A89056",
"Q. c #C29D4A",
"!. c #C7A745",
"~. c #C3A655",
"^. c #D3AD57",
"/. c #DCBA5E",
"(. c #D1AD44",
"). c #EDBB41",
"_. c #F2BA44",
"`. c #F4BD4A",
"'. c #F9B845",
"]. c #E0BB58",
"[. c #D8B866",
"{. c #DCBD72",
"}. c #C6AF69",
"|. c #F6C543",
" X c #FAC444",
".X c #F5C945",
"XX c #FAC944",
"oX c #F4C64A",
"OX c #FAC64C",
"+X c #F5CA4B",
"@X c #FBCB4C",
"#X c #FCD24E",
"$X c #F7C652",
"%X c #F9C553",
"&X c #F6CA53",
"*X c #FBCC53",
"=X c #FCCC5B",
"-X c #FCD254",
";X c #FDD35C",
":X c #FEDA5C",
">X c #FAD657",
",X c #DDC476",
"<X c #FCCA62",
"1X c #FCCD6C",
"2X c #F3CC6E",
"3X c #EFD26D",
"4X c #FDD464",
"5X c #FDDA64",
"6X c #F2D36E",
"7X c #FDD56A",
"8X c #FDD96C",
"9X c #F6D963",
"0X c #F5CE71",
"qX c #EED273",
"wX c #F3D374",
"eX c #FAD475",
"rX c #FEDC7E",
"tX c #F9D87B",
"yX c #E9C361",
"uX c #FEE36E",
"iX c #FFEC7D",
"pX c #FEE172",
"aX c #F7D683",
"sX c #FFE385",
"dX c None",
/* pixels */
"dXdXdXdXdXdXdXdXdXdXdXdXdXdXdXdXdXdXdXdXdXdXdXdXdXdXdXdXdXdXdXdXdXdXdXdXdXdXdXdXdXdXdXdXdXdXdXdXdXdXdXdXdXdXdXdXdXdXdXdXdXdXdXdXdXdXdXdXdXdXdXdXdXdXdX",
"dXdXdXdXdXdXdXdXdXdXdXdXdXdXdXdXdXdXdXdXdXdXdXdXdXdXdXdXdXdXdXdXdXdXdXdXdXdXdXdXdXdXdXdXdXdXdXdXdXdXdXdXdXdXdXdXdXdXdXdXdXdXdXdXdXdXdXdXdXdXdXdXdXdXdX",
"dXdXdXdXdXdXdXdXdXdXdXdXdXdXdXdXdXdXdXdXdXdXdXdXdXdXdXdXdXdXdXdXdXdXdXdXdXdXdXdXdXdXdXdXdXdXdXdXdXdXdXdXdXdXdXdXdXdXdXdXdXdXdXdXdXdXdXdXdXdXdXdXdXdXdX",
"dXdXdXdXdXdXdXdXdXdXdXdXdXdXdXdXdXdXdXdXdXdXdXdXdXdXdXdXdXdXdXdXdXdXdXdXdXdXdXdXdXdXdXdXdXdXdXdXdXdXdXdXdXdXdXdXdXdXdXdXdXdXdXdXdXdXdXdXdXdXdXdXdXdXdX",
"dXdXdXdXdXdXdXdXdXdXdXdXdXdXdXdXdXdXdXdXdXdXdXdXdXdXdXdXdXdXdXdXdXdXdXdXdXdXdXdXdXdXdXdXdXdXdXdXdXdXdXdXdXdXdXdXdXdXdXdXdXdXdXdXdXdXdXdXdXdXdXdXdXdXdX",
"dXdXdXdXdXdXdXdXdXdXdXdXdXdXdXdXdXdXdXdXdXdXdXdXdXdXdXdXdXdXdXdXdXdXdXdXdXdXdXdXdXdXdXdXdXdXdXdXdXdXdXdXdXdXdXdXdXdXdXdXdXdXdXdXdXdXdXdXdXdXdXdXdXdXdX",
"dXdXdXdXdXdXdXdXdXdXdXdXdXdXdXdXdXdXdXdXdXdXdXdXdXdXdXdXdXdXdXdXdXdXdXdXdXdXdXdXdXdXdXdXdXdXdXdXdXdXdXdXdXdXdXdXdXdXdXdXdXdXdXdXdXdXdXdXdXdXdXdXdXdXdX",
"dXdXdXdXdXdXdXdXdXdXdXdXdXdXdXdXdXdXdXdXdXdXdXdXdXdXdXdXdXdXdXdXdXdXdXdXdXdXdXdXdXdXdXdXdXdXdXdXdXdXdXdXdXdXdXdXdXdXdXdXdXdXdXdXdXdXdXdXdXdXdXdXdXdXdX",
"dXdXdXdXdXdXdXdXdXdXdXdXdXdXdXdXdXdXdXdXdXdXdXdXdXdXdXdXdXdXdXdXdXdXdXdXdXdXdXdXdXdXdXdXdXdXdXdXdXdXdXdXdXdXdXdXdXdXdXdXdXdXdXdXdXdXdXdXdXdXdXdXdXdXdX",
"dXdXdXdXdXdXdXdXdXdXdXdXdXdXdXdXdXdXdXdXdXdXdXdXdXdXdXdXdXdXdXdXdXdXdXdXdXdXdXdXdXdXdXdXdXdXdXdXdXdXdXdXdXdXdXdXdXdXdXdXdXdXdXdXdXdXdXdXdXdXdXdXdXdXdX",
"dXdXdXdXdXdXdXdXdXdXdXdXdXdXdXdXdXdXdXdXdXdXdXdXdXdXdXdXdXdXdXdXdXdXdXdXdXdXdXdXdXdXdXdXdXdXdXdXdXdXdXdXdXdXdXdXdXdXdXdXdXdXdXdXdXdXdXdXdXdXdXdXdXdXdX",
"dXdXdXdXdXdXdXdXdXdXdXdXdXdXdXdXdXdXdXdXdXdXdXdXdXdXdXdXdXdXdXdXdXdXdXdXdXdXdXdXdXdXdXdXdXdXdXdXdXdXdXdXdXdXdXdXdXdXdXdXdXdXdXdXdXdXdXdXdXdXdXdXdXdXdX",
"dXdXdXdXdXdXdXdXdXdXdXdXdXdXdXdXdXdXdXdXdXdXdXdXdXdXdXdXdXdXdXdXdXdXdXdXdXdXdXdXdXdXdXdXdXdXdXdXdXdXdXdXdXdXdXdXdXdXdXdXdXdXdXdXdXdXdXdXdXdXdXdXdXdXdX",
"dXdXdXdXdXdXdXdXdXdXdXdXdXdXdXdXdXdXdXdXdXdXdXdXdXdXdXdXdXdXdXdXdXdXdXdXdXdXdXdXdXdXdXdXdXdXdXdXdXdXdXdXdXdXdXdXdXdXdXdXdXdXdXdXdXdXdXdXdXdXdXdXdXdXdX",
"dXdXdXdXdXdXdXdXdXdXdXdXdXdXdXdXdXdXdXdXdXdXdXdXdXdXdXdXdXdXdXdXdXdXdXdXdXdXdXdXdXdXdXdXdXdXdXdXdXdXdXdXdXdXdXdXdXdXdXdXdXdXdXdXdXdXdXdXdXdXdXdXdXdXdX",
"dXdXdXdXdXdXdXdXdXdXdXdXdXdXdXdXdXdXdXdXdXdXdXdXdXdXdXdXdXdX@ & - * * * = - = * = * * * 1 dXdXdXdXdXdXdXdXdXdXdXdXdXdXdXdXdXdXdXdXdXdXdXdXdXdXdXdXdXdX",
"dXdXdXdXdXdXdXdXdXdXdXdXdXdXdXdXdXdXdXdXdXdXdXdXdXdXdXdXdXk 0 w w w w w w e w 0 0 w w w e dXdXdXdXdXdXdXdXdXdXdXdXdXdXdXdXdXdXdXdXdXdXdXdXdXdXdXdXdXdX",
"dXdXdXdXdXdXdXdXdXdXdXdXdXdXdXdXdXdXdXdXdXdXdXdXdX# # X O R.aX0X6X6X6XwX0XwXwXwXwXqXqX6XtXK . # # 1 dXdXdXdXdXdXdXdXdXdXdXdXdXdXdXdXdXdXdXdXdXdXdXdXdX",
"dXdXdXdXdXdXdXdXdXdXdXdXdXdXdXdXdXdXdXdXdXdXdXdXc S F S S (.-XXX XXX;X5X=X@XOX XXX@X@X@X*XY v b M Z dXdXdXdXdXdXdXdXdXdXdXdXdXdXdXdXdXdXdXdXdXdXdXdXdX",
"dXdXdXdXdXdXdXdXdXdXdXdXdXdXdXdXdXdXdXdX, # - . l sXpX8X8XXXb.v.s.C.=X4XP.l.5.X.X.x.6.v.b.@.v.B.l.N.7 & = * dXdXdXdXdXdXdXdXdXdXdXdXdXdXdXdXdXdXdXdXdX",
"dXdXdXdXdXdXdXdXdXdXdXdXdXdXdXdXdXdXdX9 W.~.!.~.^.'.P.|._.l.<.Z.OX&X|.P.n.7.l.5.5.x.7.n.7.$.3.k.2.i.9.L L I F = dXdXdXdXdXdXdXdXdXdXdXdXdXdXdXdXdXdXdX",
"dXdXdXdXdXdXdXdXdXdXdXdXdXdXdXdXdXdXj w [.uX5X8X*Xl.7.x.n.k.a.|.4X;XA.3.3.7.7.7.x.7.x.x.7.7.7.3.6.x.5.l.5.P.I 8 l dXdXdXdXdXdXdXdXdXdXdXdXdXdXdXdXdXdX",
"dXdXdXdXdXdXdXdXdXdXdXdXdXdXdXdX. w ,XwX0XeX&X6.3.>.=.O.=. X;XXXL.b.n.x.x.x.x.x.x.n.n.K.n.x.x.x.7.x.5.8.@XeX_.%.R.4 ; dXdXdXdXdXdXdXdXdXdXdXdXdXdXdXdX",
"dXdXdXdXdXdXdXdXdXdXdXdXdXdXdXdXS D 0X:X*X@XU.1.$.o.=.Z.S.oX@XA.X.-.:.>.d.>.,.,.>.>.=.7.x.7.6.7.l.x.Y.Y.-X7X@XA.N.v v dXdXdXdXdXdXdXdXdXdXdXdXdXdXdXdX",
"dXdXdXdXdXdXdXdXdXdXdXdXdXdX  x sXeX;X-XI.6.1.h.h.O.>.;X7XP.A.h.W ! Q Q Q Q Q Q Q W W f.x.x.n.n.b.b.-X8X7X7X6X8X*Xk.g.i + dXdXdXdXdXdXdXdXdXdXdXdXdXdX",
"dXdXdXdXdXdXdXdXdXdXdXdX= T.E.[.eX=XY. XC.o.1.l.F.XX+Xm.p.&.` { } } } } } ..} } } *.*.` ` { ) a.*X=X4X5X4X5X>X.XP.l.l.R H C , dXdXdXdXdXdXdXdXdXdXdXdX",
"dXdXdXdXdXdXdXdXdXdXdX> # E.iX4X=X@XH.z.2. .k.z.I.<X%X[ Q Q Q ` -.o.o.o.o.o.o.o.-.,.,./ W ^ _ p.=X4X7X6X4X-XP.n.v.x.7.5.l.n # u dXdXdXdXdXdXdXdXdXdXdX",
"dXdXdXdXdXdXdXdXdXdXdX= o R.8X&XL.x.@.=.l.l.XX5XoXE _ ;.*.*.-.,.l.x.6.7.7.x.o.o.o.l.n.x.c.|.=X`.E e.<X8X+Xb.K.b.n.7.x.>.f.C   y dXdXdXdXdXdXdXdXdXdXdX",
"dXdXdXdXdXdXdXdXdXdXdXS x t.-XU.6.+.o.,.D.oX`.).C.) ' ,.,.2.2.5.x.7.x.x.x.x.7.@.1.6.v.P.oX>X5X&XM.M._._.Z.v.6.7.7.7.x.4.2.B v C dXdXdXdXdXdXdXdXdXdXdX",
"dXdXdXdXdXdXdXdXdX* 5 {.iX.Xn.l. . .*.a.*X5XV.T ( ,.o.7.7.7.7.7.7.7.x.7.n.l.7.7.x.n.b.@X4X7X7X7X5X*X_ T >.v.7.7.7.x.x.7.3.k.'.H 6 , dXdXdXdXdXdXdXdXdX",
"dXdXdXdXdXdXdXdXdX# 2 [.5XL.b.2.O.d.OX$Xm.s.%.{ :.,.3.7.7.x.x.x.x.K.x.x.n.x.7.l.A.@X&X4X7X7X8X=X|.A.d.d.&.) =.7.7.n.n.x.n.2.5.H # * dXdXdXdXdXdXdXdXdX",
"dXdXdXdXdXdXdXdXdX0 8 ].4XL.b.6.4.C.-X;X[ W ' -.5.x.x.l.l.x.x.n.n.x.x.x.7.x.n.n.|.4X7X7X4X4X;XXXz.7.x.A.&.W &.7.6.x.#.#.n.2.2.R 7 w dXdXdXdXdXdXdXdXdX",
"dXdXdXdXdXdXdX# z ,XyXI.P.4.=.Z.-X#XP.A.) Q } -.2.7.x.x.x.x.x.n.x.7.7.7.7.z.U.;X4X7X4X4X4X@XZ.n.x.7.7.x.&.W &.x.7.7.#.7.n.4.o.&.N.t.5 : dXdXdXdXdXdXdX",
"dXdXdXdXdXdXdXO l tX7Xn.l.z.j.I.*XOXc.>.{ ^ *.,.5.x.x.x.7.K.x.7.7.7.7.7.P.oX&X5X7X5X5X=X@XU.n.x.x.x.7.n.=.) &.>.4.n.x.P.U.n.-.o.v.r.3 4 dXdXdXdXdXdXdX",
"dXdXdXdXdXdXdXO s 3X;X>.a. X:XXXS.C.~ Q *.,.5.l.x.7.7.x.x.7.7.x.x.x.z.n.@X7X7X7X7X4X;X|.b.v.x.x.x.x.x.7.x.n.;.W _ F.Z.*X;X Xn.5.o.y.3 % dXdXdXdXdXdXdX",
"dXdXdXdXdXdXdX. s wX4XoX|..XY.J.n.v.^ Q *.-.5.x.7.7.7.G.n.x.7.7.n.n.XX@X<X8X7X7X;X+XU.n.x.7.7.x.7.x.n.7.7.x.:.W [ OX*XOXXXL.n.k.-.y.7 6 dXdXdXdXdXdXdX",
"dXdXdXdXdXdXdX@ l eX7X5X;XI.6.3.7.l.^ Q :.-.2.x.7.7.7.x.n.x.7.n.A.D.;X7X7X7X5X4X@XZ.6.3.7.7.7.n.n.x.x.l.7.7.,.! y.-X:XD.k.7.7.5.-.w.5 - dXdXdXdXdXdXdX",
"dXdXdXdXdXdXdXO s wX;XL.H.z.7.7.7.l.^ Q *.-.4.x.x.7.x.x.x.7.z.U.=X4X4X7X7X5X*XS.A.x.7.7.x.x.x.x.x.x.7.x.7.n.>.W ) A.A.n.x.7.5.2.o.w.7 4 dXdXdXdXdXdXdX",
"dXdXdXdXdXdXdXO s eX;XH.x.7.7.7.x.v.Q Q *.-.5.x.7.7.l.x.x.Z.I.&X5X7X5X7X;X#XD.z.l.7.7.x.7.x.x.7.7.7.x.n.J.Y.c.W ( x.6.l.x.x.x.7.o.y.3 2 dXdXdXdXdXdXdX",
"dXdXdXdXdXdXdXO s wX;XL.v.x.7.x.x.l.^ Q :.-.2.7.7.7.7.x.b.*X4X4X7X4X5X4XI.z.v.7.7.7.x.x.x.x.7.7.7.x.x.b..X:X_.] ' x.7.7.x.v.l.k.-.w.3 % dXdXdXdXdXdXdX",
"dXdXdXdXdXdXdXO j wX:XH.x.x.x.x.n.l.^ Q ,.-.l.x.7.z.b. X@X4X7X7X5X;X@X Xn.3.7.3.7.7.x.x.x.x.7.7.x.b.U.@X+X+XC.W ( l.3.7.n.I.XXL.,.y.3 % dXdXdXdXdXdXdX",
"dXdXdXdXdXdXdX. l wX;XL.x.x.7.x.x.l.( Q :.:.l.x.n.b.I.>X7X5X4X4X=X*XA.n.x.x.7.7.7.x.5.7.7.7.7.n.b.I.-X;X|.c.;.~ ) l.7.v.H..X>X X=.w.3 % dXdXdXdXdXdXdX",
"dXdXdXdXdXdXdX@ s pX:XG.x.x.7.l.7.7.l.f.) ~ =.v.A.-X;X5X7X7X8X=XS.A.n.n.x.x.x.x.x.x.x.7.5.3.6.P.-X-X|.S.>.~ &.l.l.x.x.@X4X&XI.7.5.N.3 % dXdXdXdXdXdXdX",
"dXdXdXdXdXdXdXdXz }.^.L.S.n.x.x.7.6.x.n.` W d.P.|.4X7X7X7X<X=XXXv.7.x.x.x.x.x.x.n.x.x.x.7.x.L.oX;X@Xb.x.) W %.x.x.P.D.*X=XS.6.=.0.U 8 dXdXdXdXdXdXdXdX",
"dXdXdXdXdXdXdXdXdX: 5 [.5XH.6.x.7.5.x.n.) ! F.8X9X1X7X6X5X|.b.x.G.#.7.G.x.x.x.7.7.7.6.7.6.@X5X*XA.x.6.G.&.W { 5.Z.4X5XH.G.+.5.P 6 % dXdXdXdXdXdXdXdXdX",
"dXdXdXdXdXdXdXdXdX* 4 [.8XH.6.x.3.3.7.l.c.M.V.B.`.5X9X*XXXJ.x.x.7.7.7.n.n.x.7.x.7.x.v.Y.+X$X@XP.6.7.;.*.:.| c.+X+X&X@Xn.x.,.5.P $ : dXdXdXdXdXdXdXdXdX",
"dXdXdXdXdXdXdXdXdX* r [.tXoXZ.x.7.7.x.A.%X<XM.T y.=X>XZ.x.x.x.x.x.n.x.n.n.x.7.7.v.n.Z.@X;X Xb.5.7.l.^ W d.Z..X4X*Xb.v.6.x.>.d.I 6 > dXdXdXdXdXdXdXdXdX",
"dXdXdXdXdXdXdXdXdXdXdXz u Q.5XI.n.n. X*X<X<X%X`.'.y.%.n.7.7.x.x.7.7.7.7.x.x.7.x.J.@X-X.XP.K.x.k.) / 4.j. X-X@XP.J.7.3.1.Z.N 8 z dXdXdXdXdXdXdXdXdXdXdX",
"dXdXdXdXdXdXdXdXdXdXdX: O R.uX*XF.D.=X1X<X<X=X*XD.) ) f.l.f.4.4.7.7.7.x.x.n.n.A.oX*X*XZ.k.4.5.,.( | b.I.#X-X Xv.7.7.3.-.h.v O dXdXdXdXdXdXdXdXdXdXdXdX",
"dXdXdXdXdXdXdXdXdXdXdX, O E.iX4X<X=X<X<X<X<XU.b.n.v.v.^ W W W &.n.n.x.G.7.K.+X:X#XA.D.) Q Q W / k.Z.=X:XI.v.7.n.J.n.A.l.n.m + dXdXdXdXdXdXdXdXdXdXdXdX",
"dXdXdXdXdXdXdXdXdXdXdXdXdXK D Q.1X<X=X=XOXD.n.7.7.x.x.&.&.;.{ ;.:.*.&.&...&.g.F.V.s.&.*.{ } &.>.U.|.@XOXA.7.7.z.6.@.k.B m Z dXdXdXdXdXdXdXdXdXdXdXdXdX",
"dXdXdXdXdXdXdXdXdXdXdXdXdXdX  S tX2X<X=XA.#.x.n.x.K.7.x.7.n.n.=.~ W Q ] ] Q Q Q ] ! W 2.J.7.G.I.5X-XA.v.n.n.x.z.v.>.M.t X dXdXdXdXdXdXdXdXdXdXdXdXdXdX",
"dXdXdXdXdXdXdXdXdXdXdXdXdXdXdXc l C 2X8X_.3.x.x.x.x.x.x.x.6.6.7.>.c.`.%XF.k.f.4.-.2.1.7.6.P.-X*XU.n.x.7.K.n.#.3.r.f d dXdXdXdXdXdXdXdXdXdXdXdXdXdXdXdX",
"dXdXdXdXdXdXdXdXdXdXdXdXdXdXdXdX. u }./.F.7.3.5.l.x.x.3.3.7.7.K.I.oX-X*XJ.n.x.7.3.G.n.A.P.U.=X%Xb.v.2.#.l.7.| q.U 6 ; dXdXdXdXdXdXdXdXdXdXdXdXdXdXdXdX",
"dXdXdXdXdXdXdXdXdXdXdXdXdXdXdXdXdXdXy 3 0.x.2.5.l.#.x.5.7.x.z.U.-X-XD.v.6.7.7.3.7.n.b.*X5XI.z.x.8.x.v.5.f.D.H 6 q dXdXdXdXdXdXdXdXdXdXdXdXdXdXdXdXdXdX",
"dXdXdXdXdXdXdXdXdXdXdXdXdXdXdXdXdXdXdXdXF G G G L 1.l.v.5.L.oXoXXXY.G.x.l.3.7.x.n.U.|.+X*XL.+.2.3.<.N m N G A dXdXdXdXdXdXdXdXdXdXdXdXdXdXdXdXdXdXdXdX",
"dXdXdXdXdXdXdXdXdXdXdXdXdXdXdXdXdXdXdXdXdX# $ + f m.h.>.X.|.4X$Xb.3.#.l.x.7.x.v.A.#X-XS.f.k.-.*.B.r.5 ; + # dXdXdXdXdXdXdXdXdXdXdXdXdXdXdXdXdXdXdXdXdX",
"dXdXdXdXdXdXdXdXdXdXdXdXdXdXdXdXdXdXdXdXdXdXdXdXdXg a a i 0. Xk.3.#.5.,.2.2.5.7.l.v.n.l.l.V p a a z dXdXdXdXdXdXdXdXdXdXdXdXdXdXdXdXdXdXdXdXdXdXdXdXdX",
"dXdXdXdXdXdXdXdXdXdXdXdXdXdXdXdXdXdXdXdXdXdXdXdXdX& - - & J r.E E q.e.e.E q.q.e.e.q.q.e.r.Z X * & dXdXdXdXdXdXdXdXdXdXdXdXdXdXdXdXdXdXdXdXdXdXdXdXdXdX",
"dXdXdXdXdXdXdXdXdXdXdXdXdXdXdXdXdXdXdXdXdXdXdXdXdXdXdXdXdXdX4 4 2 2 6 2 2 2 2 2 2 2 2 2 2 dXdXdXdXdXdXdXdXdXdXdXdXdXdXdXdXdXdXdXdXdXdXdXdXdXdXdXdXdXdX",
"dXdXdXdXdXdXdXdXdXdXdXdXdXdXdXdXdXdXdXdXdXdXdXdXdXdXdXdXdXdXdXdXdXdXdXdXdXdXdXdXdXdXdXdXdXdXdXdXdXdXdXdXdXdXdXdXdXdXdXdXdXdXdXdXdXdXdXdXdXdXdXdXdXdXdX",
"dXdXdXdXdXdXdXdXdXdXdXdXdXdXdXdXdXdXdXdXdXdXdXdXdXdXdXdXdXdXdXdXdXdXdXdXdXdXdXdXdXdXdXdXdXdXdXdXdXdXdXdXdXdXdXdXdXdXdXdXdXdXdXdXdXdXdXdXdXdXdXdXdXdXdX",
"dXdXdXdXdXdXdXdXdXdXdXdXdXdXdXdXdXdXdXdXdXdXdXdXdXdXdXdXdXdXdXdXdXdXdXdXdXdXdXdXdXdXdXdXdXdXdXdXdXdXdXdXdXdXdXdXdXdXdXdXdXdXdXdXdXdXdXdXdXdXdXdXdXdXdX",
"dXdXdXdXdXdXdXdXdXdXdXdXdXdXdXdXdXdXdXdXdXdXdXdXdXdXdXdXdXdXdXdXdXdXdXdXdXdXdXdXdXdXdXdXdXdXdXdXdXdXdXdXdXdXdXdXdXdXdXdXdXdXdXdXdXdXdXdXdXdXdXdXdXdXdX",
"dXdXdXdXdXdXdXdXdXdXdXdXdXdXdXdXdXdXdXdXdXdXdXdXdXdXdXdXdXdXdXdXdXdXdXdXdXdXdXdXdXdXdXdXdXdXdXdXdXdXdXdXdXdXdXdXdXdXdXdXdXdXdXdXdXdXdXdXdXdXdXdXdXdXdX",
"dXdXdXdXdXdXdXdXdXdXdXdXdXdXdXdXdXdXdXdXdXdXdXdXdXdXdXdXdXdXdXdXdXdXdXdXdXdXdXdXdXdXdXdXdXdXdXdXdXdXdXdXdXdXdXdXdXdXdXdXdXdXdXdXdXdXdXdXdXdXdXdXdXdXdX",
"dXdXdXdXdXdXdXdXdXdXdXdXdXdXdXdXdXdXdXdXdXdXdXdXdXdXdXdXdXdXdXdXdXdXdXdXdXdXdXdXdXdXdXdXdXdXdXdXdXdXdXdXdXdXdXdXdXdXdXdXdXdXdXdXdXdXdXdXdXdXdXdXdXdXdX",
"dXdXdXdXdXdXdXdXdXdXdXdXdXdXdXdXdXdXdXdXdXdXdXdXdXdXdXdXdXdXdXdXdXdXdXdXdXdXdXdXdXdXdXdXdXdXdXdXdXdXdXdXdXdXdXdXdXdXdXdXdXdXdXdXdXdXdXdXdXdXdXdXdXdXdX",
"dXdXdXdXdXdXdXdXdXdXdXdXdXdXdXdXdXdXdXdXdXdXdXdXdXdXdXdXdXdXdXdXdXdXdXdXdXdXdXdXdXdXdXdXdXdXdXdXdXdXdXdXdXdXdXdXdXdXdXdXdXdXdXdXdXdXdXdXdXdXdXdXdXdXdX",
"dXdXdXdXdXdXdXdXdXdXdXdXdXdXdXdXdXdXdXdXdXdXdXdXdXdXdXdXdXdXdXdXdXdXdXdXdXdXdXdXdXdXdXdXdXdXdXdXdXdXdXdXdXdXdXdXdXdXdXdXdXdXdXdXdXdXdXdXdXdXdXdXdXdXdX",
"dXdXdXdXdXdXdXdXdXdXdXdXdXdXdXdXdXdXdXdXdXdXdXdXdXdXdXdXdXdXdXdXdXdXdXdXdXdXdXdXdXdXdXdXdXdXdXdXdXdXdXdXdXdXdXdXdXdXdXdXdXdXdXdXdXdXdXdXdXdXdXdXdXdXdX",
"dXdXdXdXdXdXdXdXdXdXdXdXdXdXdXdXdXdXdXdXdXdXdXdXdXdXdXdXdXdXdXdXdXdXdXdXdXdXdXdXdXdXdXdXdXdXdXdXdXdXdXdXdXdXdXdXdXdXdXdXdXdXdXdXdXdXdXdXdXdXdXdXdXdXdX",
"dXdXdXdXdXdXdXdXdXdXdXdXdXdXdXdXdXdXdXdXdXdXdXdXdXdXdXdXdXdXdXdXdXdXdXdXdXdXdXdXdXdXdXdXdXdXdXdXdXdXdXdXdXdXdXdXdXdXdXdXdXdXdXdXdXdXdXdXdXdXdXdXdXdXdX",
"dXdXdXdXdXdXdXdXdXdXdXdXdXdXdXdXdXdXdXdXdXdXdXdXdXdXdXdXdXdXdXdXdXdXdXdXdXdXdXdXdXdXdXdXdXdXdXdXdXdXdXdXdXdXdXdXdXdXdXdXdXdXdXdXdXdXdXdXdXdXdXdXdXdXdX",
"dXdXdXdXdXdXdXdXdXdXdXdXdXdXdXdXdXdXdXdXdXdXdXdXdXdXdXdXdXdXdXdXdXdXdXdXdXdXdXdXdXdXdXdXdXdXdXdXdXdXdXdXdXdXdXdXdXdXdXdXdXdXdXdXdXdXdXdXdXdXdXdXdXdXdX"
};
