/* XPM */
static char *result[] = {
/* columns rows colors chars-per-pixel */
"75 75 241 2 ",
"   c #2E1900",
".  c #341D01",
"X  c #3A1D01",
"o  c #321804",
"O  c #2E2407",
"+  c #352403",
"@  c #3A2401",
"#  c #362904",
"$  c #3C2902",
"%  c #35250A",
"&  c #352A0B",
"*  c #3A2D0B",
"=  c #3C2309",
"-  c #3C310A",
";  c #3B2B13",
":  c #382914",
">  c #3D3219",
",  c #2F2410",
"<  c #3E2F20",
"1  c #441F00",
"2  c #422602",
"3  c #442B03",
"4  c #432A0B",
"5  c #492804",
"6  c #552D01",
"7  c #5A2D07",
"8  c #4A3508",
"9  c #553D0E",
"0  c #583708",
"q  c #412C14",
"w  c #483412",
"e  c #543D11",
"r  c #573D15",
"t  c #663D09",
"y  c #63350B",
"u  c #413622",
"i  c #574216",
"p  c #55410F",
"a  c #65400A",
"s  c #6C420A",
"d  c #65480E",
"f  c #774707",
"g  c #644611",
"h  c #654A18",
"j  c #7A5318",
"k  c #704E1A",
"l  c #5E4721",
"z  c #664C21",
"x  c #6E5626",
"c  c #735825",
"v  c #725932",
"b  c #7C663A",
"n  c #756245",
"m  c #804F0A",
"M  c #875717",
"N  c #975A16",
"B  c #8A540D",
"V  c #A35B17",
"C  c #9D6414",
"Z  c #AA641A",
"A  c #AE7A18",
"S  c #B97211",
"D  c #875A26",
"F  c #88692B",
"G  c #976C26",
"H  c #866935",
"J  c #947137",
"K  c #AA6A26",
"L  c #B16A26",
"P  c #B07927",
"I  c #C7730A",
"U  c #C56E16",
"Y  c #C67717",
"T  c #CA710D",
"R  c #C77A25",
"E  c #C67529",
"W  c #8B7547",
"Q  c #877047",
"!  c #A27F45",
"~  c #A5811E",
"^  c #A98024",
"/  c #B78324",
"(  c #AD8B3B",
")  c #DE8E04",
"_  c #D4941B",
"`  c #D88D14",
"'  c #E58D02",
"]  c #EB8C02",
"[  c #E38A0C",
"{  c #EC8D0A",
"}  c #ED8702",
"|  c #F28A06",
" . c #E49102",
".. c #EA9101",
"X. c #EA9608",
"o. c #F49B0B",
"O. c #E78A14",
"+. c #F58C18",
"@. c #E69516",
"#. c #F59C13",
"$. c #FC9D16",
"%. c #F99D1B",
"&. c #FBAA05",
"*. c #F4A10D",
"=. c #FAA90D",
"-. c #F8A90A",
";. c #FCBA0D",
":. c #F9B708",
">. c #EAA11A",
",. c #F3A513",
"<. c #FCA316",
"1. c #FBAB13",
"2. c #FCA41A",
"3. c #F5AD1D",
"4. c #FCAA1D",
"5. c #F5A917",
"6. c #FDB214",
"7. c #F7B915",
"8. c #FCBA14",
"9. c #FCB41B",
"0. c #F5BB1D",
"q. c #FCBA1C",
"w. c #F5B217",
"e. c #ECAF11",
"r. c #C9852B",
"t. c #CB9528",
"y. c #D79425",
"u. c #DB9934",
"i. c #D7973C",
"p. c #DC8521",
"a. c #EA9522",
"s. c #E69A21",
"d. c #E79827",
"f. c #F09222",
"g. c #D6A938",
"h. c #E9A527",
"j. c #F5AA23",
"k. c #FBAC21",
"l. c #F8AB2C",
"z. c #F6B526",
"x. c #FDB523",
"c. c #F5BB24",
"v. c #FBBA23",
"b. c #F5B52B",
"n. c #FDB52A",
"m. c #F4BC2B",
"M. c #FCBB2A",
"N. c #E8AB37",
"B. c #F6AE34",
"V. c #E9B336",
"C. c #F4B334",
"Z. c #F4BC33",
"A. c #FABC33",
"S. c #F2B33A",
"D. c #F3BD3B",
"F. c #FBBD3A",
"G. c #FCB432",
"H. c #EDBC28",
"J. c #FAC02B",
"K. c #ECC23F",
"L. c #F5C234",
"P. c #F9C234",
"I. c #F5C33C",
"U. c #FAC23C",
"Y. c #FAC93D",
"T. c #F5C83B",
"R. c #9B824C",
"E. c #AC8D42",
"W. c #AA8E4B",
"Q. c #AC9445",
"!. c #B89746",
"~. c #A58E5B",
"^. c #AD9459",
"/. c #B69351",
"(. c #B59B64",
"). c #A89164",
"_. c #BCA672",
"`. c #CD9C45",
"'. c #DEBA5B",
"]. c #CEA450",
"[. c #EEB646",
"{. c #F4BC42",
"}. c #F4BC4A",
"|. c #F8BB44",
" X c #F0BA56",
".X c #CBB26A",
"XX c #DAB967",
"oX c #DEBD73",
"OX c #D8B874",
"+X c #CDAE6F",
"@X c #E2BC6A",
"#X c #E0BD73",
"$X c #F5C343",
"%X c #FAC545",
"&X c #F5C943",
"*X c #FAC944",
"=X c #F5C54C",
"-X c #F9C74B",
";X c #F5CB4C",
":X c #FBCB4C",
">X c #FDD14F",
",X c #FBC554",
"<X c #FBCC53",
"1X c #FAC559",
"2X c #FCCC5A",
"3X c #F3C953",
"4X c #FCD354",
"5X c #FDD35C",
"6X c #F9D75C",
"7X c #DFC178",
"8X c #E6C36C",
"9X c #E9C363",
"0X c #FACC67",
"qX c #EED16D",
"wX c #FDD464",
"eX c #FBD964",
"rX c #FCD56A",
"tX c #FCD96C",
"yX c #F4D56C",
"uX c #E9C878",
"iX c #EFD273",
"pX c #FDD572",
"aX c #FEDA73",
"sX c #FCD57A",
"dX c #FDDA7B",
"fX c #F3D475",
"gX c #F2CB76",
"hX c #FFE573",
"jX c #D9BB83",
"kX c #EAD188",
"lX c #FBD987",
"zX c #FBDD9A",
"xX c #F6DC9B",
"cX c #E7CF90",
"vX c #FFE385",
"bX c #FDE29B",
"nX c #FFE396",
"mX c #F8DDA2",
"MX c #FEE5A2",
"NX c #FEEAA4",
"BX c None",
/* pixels */
"BXBXBXBXBXBXBXBXBXBXBXBXBXBXBXBXBXBXBXBXBXBXBXBXBXBXBXBXBXBXBXBXBXBXBXBXBXBXBXBXBXBXBXBXBXBXBXBXBXBXBXBXBXBXBXBXBXBXBXBXBXBXBXBXBXBXBXBXBXBXBXBXBXBXBX",
"BXBXBXBXBXBXBXBXBXBXBXBXBXBXBXBXBXBXBXBXBXBXBXBXBXBXBXBXBXBXBXBXBXBXBXBXBXBXBXBXBXBXBXBXBXBXBXBXBXBXBXBXBXBXBXBXBXBXBXBXBXBXBXBXBXBXBXBXBXBXBXBXBXBXBX",
"BXBXBXBXBXBXBXBXBXBXBXBXBXBXBXBXBXBXBXBXBXBXBXBXBXBXBXBXBXBXBXBXBXBXBXBXBXBXBXBXBXBXBXBXBXBXBXBXBXBXBXBXBXBXBXBXBXBXBXBXBXBXBXBXBXBXBXBXBXBXBXBXBXBXBX",
"BXBXBXBXBXBXBXBXBXBXBXBXBXBXBXBXBXBXBXBXBXBXBXBXBXBXBXBXBXBXBXBXBXBXBXBXBXBXBXBXBXBXBXBXBXBXBXBXBXBXBXBXBXBXBXBXBXBXBXBXBXBXBXBXBXBXBXBXBXBXBXBXBXBXBX",
"BXBXBXBXBXBXBXBXBXBXBXBXBXBXBXBXBXBXBXBXBXBXBXBXBXBXBXBXBXBXBXBXBXBXBXBXBXBXBXBXBXBXBXBXBXBXBXBXBXBXBXBXBXBXBXBXBXBXBXBXBXBXBXBXBXBXBXBXBXBXBXBXBXBXBX",
"BXBXBXBXBXBXBXBXBXBXBXBXBXBXBXBXBXBXBXBXBXBXBXBXBXBXBXBXBXBXBXBXBXBXBXBXBXBXBXBXBXBXBXBXBXBXBXBXBXBXBXBXBXBXBXBXBXBXBXBXBXBXBXBXBXBXBXBXBXBXBXBXBXBXBX",
"BXBXBXBXBXBXBXBXBXBXBXBXBXBXBXBXBXBXBXBXBXBXBXBXBXBXBXBXBXBXBXBXBXBXBXBXBXBXBXBXBXBXBXBXBXBXBXBXBXBXBXBXBXBXBXBXBXBXBXBXBXBXBXBXBXBXBXBXBXBXBXBXBXBXBX",
"BXBXBXBXBXBXBXBXBXBXBXBXBXBXBXBXBXBXBXBXBXBXBXBXBXBXBXBXBXBXBXBXBXBXBXBXBXBXBXBXBXBXBXBXBXBXBXBXBXBXBXBXBXBXBXBXBXBXBXBXBXBXBXBXBXBXBXBXBXBXBXBXBXBXBX",
"BXBXBXBXBXBXBXBXBXBXBXBXBXBXBXBXBXBXBXBXBXBXBXBXBXBXBXBXBXBXBXBXBXBXBXBXBXBXBXBXBXBXBXBXBXBXBXBXBXBXBXBXBXBXBXBXBXBXBXBXBXBXBXBXBXBXBXBXBXBXBXBXBXBXBX",
"BXBXBXBXBXBXBXBXBXBXBXBXBXBXBXBXBXBXBXBXBXBXBXBXBXBXBXBXBXBXBXBXBXBXBXBXBXBXBXBXBXBXBXBXBXBXBXBXBXBXBXBXBXBXBXBXBXBXBXBXBXBXBXBXBXBXBXBXBXBXBXBXBXBXBX",
"BXBXBXBXBXBXBXBXBXBXBXBXBXBXBXBXBXBXBXBXBXBXBXBXBXBXBXBXBXBXBXBXBXBXBXBXBXBXBXBXBXBXBXBXBXBXBXBXBXBXBXBXBXBXBXBXBXBXBXBXBXBXBXBXBXBXBXBXBXBXBXBXBXBXBX",
"BXBXBXBXBXBXBXBXBXBXBXBXBXBXBXBXBXBXBXBXBXBXBXBXBXBXBXBXBXBXBXBXBXBXBXBXBXBXBXBXBXBXBXBXBXBXBXBXBXBXBXBXBXBXBXBXBXBXBXBXBXBXBXBXBXBXBXBXBXBXBXBXBXBXBX",
"BXBXBXBXBXBXBXBXBXBXBXBXBXBXBXBXBXBXBXBXBXBXBXBXBXBXBXBXBXBXBXBXBXBXBXBXBXBXBXBXBXBXBXBXBXBXBXBXBXBXBXBXBXBXBXBXBXBXBXBXBXBXBXBXBXBXBXBXBXBXBXBXBXBXBX",
"BXBXBXBXBXBXBXBXBXBXBXBXBXBXBXBXBXBXBXBXBXBXBXBXBXBXBXBXBXBXBXBXBXBXBXBXBXBXBXBXBXBXBXBXBXBXBXBXBXBXBXBXBXBXBXBXBXBXBXBXBXBXBXBXBXBXBXBXBXBXBXBXBXBXBX",
"BXBXBXBXBXBXBXBXBXBXBXBXBXBXBXBXBXBXBXBXBXBXBXBXBXBXBXBXBXBXBXBXBXBXBXBXBXBXBXBXBXBXBXBXBXBXBXBXBXBXBXBXBXBXBXBXBXBXBXBXBXBXBXBXBXBXBXBXBXBXBXBXBXBXBX",
"BXBXBXBXBXBXBXBXBXBXBXBXBXBXBXBXBXBXBXBXBXBXBXBXBXBXBXBXBXO & , & * % q q w - & : & & % & : % BXBXBXBXBXBXBXBXBXBXBXBXBXBXBXBXBXBXBXBXBXBXBXBXBXBXBXBX",
"BXBXBXBXBXBXBXBXBXBXBXBXBXBXBXBXBXBXBXBXBXBXBXBXBXBXBXBXn i i i r i e 4 ; $ 8 p e 9 9 r e r p i BXBXBXBXBXBXBXBXBXBXBXBXBXBXBXBXBXBXBXBXBXBXBXBXBXBXBX",
"BXBXBXBXBXBXBXBXBXBXBXBXBXBXBXBXBXBXBXBXBXBXBXBXBX: , O ~.mXcXxXMXNXcXi o   W fXqXiXiXfXiXqXqXfXR..   > BXBXBXBXBXBXBXBXBXBXBXBXBXBXBXBXBXBXBXBXBXBXBX",
"BXBXBXBXBXBXBXBXBXBXBXBXBXBXBXBXBXBXBXBXBXBXBXBXn Q Q Q +XbXMXcX).).W.J J J `.5X2X2X2X,X<X:X*X5X].J H W n BXBXBXBXBXBXBXBXBXBXBXBXBXBXBXBXBXBXBXBXBXBX",
"BXBXBXBXBXBXBXBXBXBXBXBXBXBXBXBXBXBXBXBXBXBX> # i cXNXbXMXxXMX_.+   3 OXlXeX*Xc.n.v.7.0.M.x.0.0.:XaXvXOXr : > BXBXBXBXBXBXBXBXBXBXBXBXBXBXBXBXBXBXBXBX",
"BXBXBXBXBXBXBXBXBXBXBXBXBXBXBXBXBXBXBXBXBXBX; + 9 oXlXsXdXfXvX.X3 + 3 .XdX6X&Xx.q.:.:.8.F.,X<X*X3XK.&Xi.8 + : BXBXBXBXBXBXBXBXBXBXBXBXBXBXBXBXBXBXBXBX",
"BXBXBXBXBXBXBXBXBXBXBXBXBXBXBXBXBXBXBXBXBXBXi r k 8XyXfX@X'.7X^.i r h '.rX5X&Xc.v.7.0.J.I.1X5X5X&Xc.m.g.f 0 i BXBXBXBXBXBXBXBXBXBXBXBXBXBXBXBXBXBXBXBX",
"BXBXBXBXBXBXBXBXBXBXBXBXBXBXBXBXBXBXBX> & H uXgXgXgXrXsXF 8 $ c uXgX9X|.c.7.m.M.b.D.4X6X5X%XA.A.m.m.m.c.h.N.N.M q ; BXBXBXBXBXBXBXBXBXBXBXBXBXBXBXBXBX",
"BXBXBXBXBXBXBXBXBXBXBXBXBXBXBXBXBXBXBX- + F lXlXdXsXsXlXb % O c qXrXwXU.;.8.F.I.&X3X=X=XD.A.q.q.q.v.q.:.1.1.>.B 2 ; BXBXBXBXBXBXBXBXBXBXBXBXBXBXBXBXBX",
"BXBXBXBXBXBXBXBXBXBXBXBXBXBXBXBXBXBXBX+   b mXbXxXbXbXNXn $ X j qXyXtXK.0.0.Y.6X5X,X@.[  .j.m.q.q.M.x.;.1.j.N.j X + BXBXBXBXBXBXBXBXBXBXBXBXBXBXBXBXBX",
"BXBXBXBXBXBXBXBXBXBXBXBXBXBXBXBX- w )._.(.jXxXbXcXQ v b R.(.!.`.$X&X&X;X;X>X$Xh.h.5.#.*.*.#.#.X.4.M.q.8.z.n.j.y.A / G w < BXBXBXBXBXBXBXBXBXBXBXBXBXBX",
"BXBXBXBXBXBXBXBXBXBXBXBXBXBXBX> * $ _.NXbXnXlXlXjX0 . + ( hXeX<XZ.Z.L.;X,X2XV.' ] ..1.1.4.X...' #.x.:.7.m.M.x.x.6.x.A 3 : u BXBXBXBXBXBXBXBXBXBXBXBXBX",
"BXBXBXBXBXBXBXBXBXBXBXBXBXBXBX; . X (.kXfXaXaXvXuX8 + . ~ I.S.%X4X6X;Xs.) X.,.=.=.4.n.n.x.1.=.1.%.....X.:.;.0.z.,.G.A 1 X > BXBXBXBXBXBXBXBXBXBXBXBXBX",
"BXBXBXBXBXBXBXBXBXBXBXBXBXBXBXH H F .XpXrX'.Q.Q.W.H H F t.m.G.|.6X6X6Xd.O.] #.1.&.1.v.v.v.-.-.2.$.| | +.Z.T.T.Z.w.l.t.B M D BXBXBXBXBXBXBXBXBXBXBXBXBX",
"BXBXBXBXBXBXBXBXBXBXBXBX* + h uXdXpXrXwXsX( @ + 0 #XdXtX&Xm.b.%X6XeX6Xs.{ ] o.&.&.6.v.q.8.:.-.4.#.' ` s.wXrXwX%Xc.;.;.1.G.`.t 3 * BXBXBXBXBXBXBXBXBXBX",
"BXBXBXBXBXBXBXBXBXBXBXBX* # d 9XwXwXrXwXsXE.3 # r @XrXeX6X;X<X}.h.>.#.>.,.*.<.6.9.9.v.q.q.8.0.n.G.D.$XD.N.h.h.9.0.c.n.=.=.s.t $ # BXBXBXBXBXBXBXBXBXBX",
"BXBXBXBXBXBXBXBXBXBXBXBX* @ g 8XpXrXrX0XsXE.$ * r @XrXrXyX5XeX{.[ ' ] 5.1.-.6.v.q.v.v.q.q.J.A.D.<XeXrX1Xa.+.} 1.J.m.n.=.<.u.t % , BXBXBXBXBXBXBXBXBXBX",
"BXBXBXBXBXBXBXBXBXBXBXBX* $ d 8XpXwXwXwXpXQ.3 + 9 #XsXeX-XZ.A.3. .O.{ <.&.&.6.;.q.M.M.q.c.:XrXwX0XwXrX1Xd.| X.4.M.v.0.=.2.u.t $ % BXBXBXBXBXBXBXBXBXBX",
"BXBXBXBXBXBXBXBXBXBXBXBX- $ d 8XpXwXwXwXpXQ.3 @ 9 #XsXrX%XM.M.1...{ { $.=.=.1.8.v.A.U.U.I.:X4X2X2X5XrX1Xs.{ ..z.M.v.9.=.4.u.a @ % BXBXBXBXBXBXBXBXBXBX",
"BXBXBXBXBXBXBXBXBXBXBXBX* @ h 8XpX0XrXrXdXW.3 # 9 #XsXeX*Xc.v.6...] | <.1.1.9.q.c.|.5X5X5X&XD.C.:X6XrX1Xs.{  .4.M.v.q.1.4.u.a $ % BXBXBXBXBXBXBXBXBXBX",
"BXBXBXBXBXBXBXBXBXBXBXBX# $ i uXlXlXlXlXzX/.3 @ 9 #XpXrX%Xc.q.6...] ] <.=.-.9.v.M.F.5XeX5XT.n.m.*X5XrX1X@.{ ..z.M.v.7.-.4.u.a @ % BXBXBXBXBXBXBXBXBXBX",
"BXBXBXBXBXBXBXBXBXBXBXBX* + z kXzXzXzXzXMX^.4 @ 9 #XpXeX&Xm.x.1...{ { <.=.=.9.m.m.U.2XeX5XP.8.v.*XeXrX1Xa.{ ..3.M.x.0.-.4.u.a $ % BXBXBXBXBXBXBXBXBXBX",
"BXBXBXBXBXBXBXBXBXBXBXBX- + h kXbXxXzXzXMX^.- # r #XpXeXY.v.M.z. .] | $.<.&.M.5X4X:XI.D.P.v.8.0.*XrXrX1X@.{ ..k.M.c.9.=.2.u.a $ % BXBXBXBXBXBXBXBXBXBX",
"BXBXBXBXBXBXBXBXBXBXBXBX- + h kXMXmXzXzXMX).3 @ r #XtXwXY.q.M.z...' ..<.2.=.M.5X:X*Xm.M.v.q.8.m.%XeXrX1Xs.{ ..4.M.x.9.1.4.u.a $ % BXBXBXBXBXBXBXBXBXBX",
"BXBXBXBXBXBXBXBXBXBXBXBX: # l kXmXzXbXlXbX(.$ $ 9 XXtXeXI.m.G.l...' | $.4.=.9.M.v.8.8.v.q.8.7.m.-XrXrX,Xs.{ ..k.M.v.9.-.k.u.t $ % BXBXBXBXBXBXBXBXBXBX",
"BXBXBXBXBXBXBXBXBXBXBXBX* @ d 9X0X3X3X;X0XE.$ + 9 XXaXyX<X;X,XG.) ' ] <.1.=.6.v.8.:.:.q.q.q.q.m.*XrXrX1Xs.{ ..j.M.v.9.-.4.u.t $ % BXBXBXBXBXBXBXBXBXBX",
"BXBXBXBXBXBXBXBXBXBXBXBX* @ s g.m.b.q.8.L.^ 3 @ 9 8XrXrXrXwXtX}.@.' ] $.<.=.1.M.q.;.8.v.x.q.v.J.:XrXrX1Xs.{ ..9.M.v.9.-.k.u.t $ % BXBXBXBXBXBXBXBXBXBX",
"BXBXBXBXBXBXBXBXBXBXBXBX: X t N.F.M.9.9.P.^ 3 @ 9 XXrXrXyXrXtX}.@.[ ..<.2.=.6.M.J.8.q.v.M.q.8.c.%XrXrX,X@.X...4.M.x.9.1.4.u.a $ # BXBXBXBXBXBXBXBXBXBX",
"BXBXBXBXBXBXBXBXBXBXBXBX* $ s V.M.x.x.M.U.A 3 + 9 oXpXwX5X1X2X{.@...| %.1.&.6.v.8.8.q.M.c.q.;.c.*XeXrX1X@.{ { C.%XU.M.-.k.i.t $ # BXBXBXBXBXBXBXBXBXBX",
"BXBXBXBXBXBXBXBXBXBXBXBX: @ s V.J.8.;.v.A.^ 5 $ r oXaX5X&XA.m.3. .' ] 2.k.1.6.M.v.v.v.x.c.v.0.m.%XtXyX2X{ ' ' }.rXeX;Xj.l.i.a $ & BXBXBXBXBXBXBXBXBXBX",
"BXBXBXBXBXBXBXBXBXBXBXBX; 2 s V.M.x.v.M.P.^ 3 $ p #XdXwXY.c.v.9.e.,.5.#.#.o.1.x.9.v.v.q.v.Y.*X%X$XS.[.[.S.b.V.=X3X:XY.5.1.d.t $ # BXBXBXBXBXBXBXBXBXBX",
"BXBXBXBXBXBXBXBXBXBXBXBXBXX d g.D.b.M.n.A.P 5 @ r oXsXyX=XS.A.m.c.M.n.o.' ' o.<.1.4.v.q.J.>XeXrX[.[ ) d.0XpXrX;Xb.v.x.e.l.`.9 $ * BXBXBXBXBXBXBXBXBXBX",
"BXBXBXBXBXBXBXBXBXBXBXBXBXBXBXh i s P s.X.[ R R L k h d !.wX4X*Xc.v.x...] } $.<.-.6.q.q.m.4XrXtX}.) ' @.Z.A.J.;.-.C./ s t z BXBXBXBXBXBXBXBXBXBXBXBXBX",
"BXBXBXBXBXBXBXBXBXBXBXBXBXBXBX: @ 1 K O.[ { | +.E 7 @ X ( dXpX1Xc.8.x.,.X.X.#.<.,.w.P.I.$X=X,X<XV.h.d.h.7.:.n.6.5.S.S 5 + > BXBXBXBXBXBXBXBXBXBXBXBXBX",
"BXBXBXBXBXBXBXBXBXBXBXBXBXBXBX> * 5 L a.d.@.} +.R y X X !.lXdX2Xc.7.x.n.M.x.*.] ' s.wXtX6X>.) ) V.rXwX<XI.M.G.k.4.F.~ 3 * > BXBXBXBXBXBXBXBXBXBXBXBXBX",
"BXBXBXBXBXBXBXBXBXBXBXBXBXBXBXBXBXBXD N N S O.{ p.N N B G ! J !.3X&XY.M.q.q.-.e.,.h.C.S.[.S.C.V.{.:X&XT.c.9.l.Y C G G BXBXBXBXBXBXBXBXBXBXBXBXBXBXBXBX",
"BXBXBXBXBXBXBXBXBXBXBXBXBXBXBXBXBXBXBX= o f O.} | +.f.d.f 1 o z uXtX4XA.q.J.J.v.v.6. .' O. XrX5X*Xz.x.9.:.-.h.j . o BXBXBXBXBXBXBXBXBXBXBXBXBXBXBXBXBX",
"BXBXBXBXBXBXBXBXBXBXBXBXBXBXBXBXBXBXBXq + j O.X.+.+.[ O.f 2 . x fXhX5XU.q.v.c.c.c.A.|.=X:X&XD.P.J.0.q.v.4.4.B.j $ * BXBXBXBXBXBXBXBXBXBXBXBXBXBXBXBXBX",
"BXBXBXBXBXBXBXBXBXBXBXBXBXBXBXBXBXBXBXq % M R Y Y O.[ O.B 7 6 j +XOX'.|.A.A.A.v.v.U.wXpXeXL.8.9.v.q.7.3.u.i.i.D 2 * BXBXBXBXBXBXBXBXBXBXBXBXBXBXBXBXBX",
"BXBXBXBXBXBXBXBXBXBXBXBXBXBXBXBXBXBXBXBXBXBXw 5 7 L U I U S U N 5 $ 0 .XtXwX-Xm.7.m.2XtX5XL.7.x.x.5.b.t.0 5 5 BXBXBXBXBXBXBXBXBXBXBXBXBXBXBXBXBXBXBXBX",
"BXBXBXBXBXBXBXBXBXBXBXBXBXBXBXBXBXBXBXBXBXBX; = 7 L I I I S T V 3 + 8 .XpXwX0X;X&XY.*X;X:XA.v.v.9.-.k.t.0 $ $ BXBXBXBXBXBXBXBXBXBXBXBXBXBXBXBXBXBXBXBX",
"BXBXBXBXBXBXBXBXBXBXBXBXBXBXBXBXBXBXBXBXBXBX> % 7 K Y U U T T N 2 + 8 +XlX0XwXwX0X:Xm.m.m.c.q.9.n.3.G.t.7 q q BXBXBXBXBXBXBXBXBXBXBXBXBXBXBXBXBXBXBXBX",
"BXBXBXBXBXBXBXBXBXBXBXBXBXBXBXBXBXBXBXBXBXBXBXBXBXz y y V Y I U V Z C j x z ( }.F.M.q.:.8.6.6.A./ s s c BXBXBXBXBXBXBXBXBXBXBXBXBXBXBXBXBXBXBXBXBXBXBX",
"BXBXBXBXBXBXBXBXBXBXBXBXBXBXBXBXBXBXBXBXBXBXBXBXBXBX% & D K Z Z L L G 6 X X M t.y.y._ _ _ _ t.`.J 1 , BXBXBXBXBXBXBXBXBXBXBXBXBXBXBXBXBXBXBXBXBXBXBXBX",
"BXBXBXBXBXBXBXBXBXBXBXBXBXBXBXBXBXBXBXBXBXBXBXBXBXBXBXBXBX2 4 3 2 2 2 2 3 4 3 4 4 3 5 3 5 4 4 4 BXBXBXBXBXBXBXBXBXBXBXBXBXBXBXBXBXBXBXBXBXBXBXBXBXBXBX",
"BXBXBXBXBXBXBXBXBXBXBXBXBXBXBXBXBXBXBXBXBXBXBXBXBXBXBXBXBXBXBXBXBXBXBXBXBXBXBXBXBXBXBXBXBXBXBXBXBXBXBXBXBXBXBXBXBXBXBXBXBXBXBXBXBXBXBXBXBXBXBXBXBXBXBX",
"BXBXBXBXBXBXBXBXBXBXBXBXBXBXBXBXBXBXBXBXBXBXBXBXBXBXBXBXBXBXBXBXBXBXBXBXBXBXBXBXBXBXBXBXBXBXBXBXBXBXBXBXBXBXBXBXBXBXBXBXBXBXBXBXBXBXBXBXBXBXBXBXBXBXBX",
"BXBXBXBXBXBXBXBXBXBXBXBXBXBXBXBXBXBXBXBXBXBXBXBXBXBXBXBXBXBXBXBXBXBXBXBXBXBXBXBXBXBXBXBXBXBXBXBXBXBXBXBXBXBXBXBXBXBXBXBXBXBXBXBXBXBXBXBXBXBXBXBXBXBXBX",
"BXBXBXBXBXBXBXBXBXBXBXBXBXBXBXBXBXBXBXBXBXBXBXBXBXBXBXBXBXBXBXBXBXBXBXBXBXBXBXBXBXBXBXBXBXBXBXBXBXBXBXBXBXBXBXBXBXBXBXBXBXBXBXBXBXBXBXBXBXBXBXBXBXBXBX",
"BXBXBXBXBXBXBXBXBXBXBXBXBXBXBXBXBXBXBXBXBXBXBXBXBXBXBXBXBXBXBXBXBXBXBXBXBXBXBXBXBXBXBXBXBXBXBXBXBXBXBXBXBXBXBXBXBXBXBXBXBXBXBXBXBXBXBXBXBXBXBXBXBXBXBX",
"BXBXBXBXBXBXBXBXBXBXBXBXBXBXBXBXBXBXBXBXBXBXBXBXBXBXBXBXBXBXBXBXBXBXBXBXBXBXBXBXBXBXBXBXBXBXBXBXBXBXBXBXBXBXBXBXBXBXBXBXBXBXBXBXBXBXBXBXBXBXBXBXBXBXBX",
"BXBXBXBXBXBXBXBXBXBXBXBXBXBXBXBXBXBXBXBXBXBXBXBXBXBXBXBXBXBXBXBXBXBXBXBXBXBXBXBXBXBXBXBXBXBXBXBXBXBXBXBXBXBXBXBXBXBXBXBXBXBXBXBXBXBXBXBXBXBXBXBXBXBXBX",
"BXBXBXBXBXBXBXBXBXBXBXBXBXBXBXBXBXBXBXBXBXBXBXBXBXBXBXBXBXBXBXBXBXBXBXBXBXBXBXBXBXBXBXBXBXBXBXBXBXBXBXBXBXBXBXBXBXBXBXBXBXBXBXBXBXBXBXBXBXBXBXBXBXBXBX",
"BXBXBXBXBXBXBXBXBXBXBXBXBXBXBXBXBXBXBXBXBXBXBXBXBXBXBXBXBXBXBXBXBXBXBXBXBXBXBXBXBXBXBXBXBXBXBXBXBXBXBXBXBXBXBXBXBXBXBXBXBXBXBXBXBXBXBXBXBXBXBXBXBXBXBX",
"BXBXBXBXBXBXBXBXBXBXBXBXBXBXBXBXBXBXBXBXBXBXBXBXBXBXBXBXBXBXBXBXBXBXBXBXBXBXBXBXBXBXBXBXBXBXBXBXBXBXBXBXBXBXBXBXBXBXBXBXBXBXBXBXBXBXBXBXBXBXBXBXBXBXBX",
"BXBXBXBXBXBXBXBXBXBXBXBXBXBXBXBXBXBXBXBXBXBXBXBXBXBXBXBXBXBXBXBXBXBXBXBXBXBXBXBXBXBXBXBXBXBXBXBXBXBXBXBXBXBXBXBXBXBXBXBXBXBXBXBXBXBXBXBXBXBXBXBXBXBXBX",
"BXBXBXBXBXBXBXBXBXBXBXBXBXBXBXBXBXBXBXBXBXBXBXBXBXBXBXBXBXBXBXBXBXBXBXBXBXBXBXBXBXBXBXBXBXBXBXBXBXBXBXBXBXBXBXBXBXBXBXBXBXBXBXBXBXBXBXBXBXBXBXBXBXBXBX",
"BXBXBXBXBXBXBXBXBXBXBXBXBXBXBXBXBXBXBXBXBXBXBXBXBXBXBXBXBXBXBXBXBXBXBXBXBXBXBXBXBXBXBXBXBXBXBXBXBXBXBXBXBXBXBXBXBXBXBXBXBXBXBXBXBXBXBXBXBXBXBXBXBXBXBX",
"BXBXBXBXBXBXBXBXBXBXBXBXBXBXBXBXBXBXBXBXBXBXBXBXBXBXBXBXBXBXBXBXBXBXBXBXBXBXBXBXBXBXBXBXBXBXBXBXBXBXBXBXBXBXBXBXBXBXBXBXBXBXBXBXBXBXBXBXBXBXBXBXBXBXBX",
"BXBXBXBXBXBXBXBXBXBXBXBXBXBXBXBXBXBXBXBXBXBXBXBXBXBXBXBXBXBXBXBXBXBXBXBXBXBXBXBXBXBXBXBXBXBXBXBXBXBXBXBXBXBXBXBXBXBXBXBXBXBXBXBXBXBXBXBXBXBXBXBXBXBXBX"
};
