/* XPM */
static char *result[] = {
/* columns rows colors chars-per-pixel */
"75 75 228 2 ",
"   c #2D1C03",
".  c #291704",
"X  c #341D01",
"o  c #3B1D02",
"O  c #311400",
"+  c #2F2307",
"@  c #352403",
"#  c #3C2504",
"$  c #33240B",
"%  c #3A250D",
"&  c #35290C",
"*  c #3A2B0B",
"=  c #3B2A03",
"-  c #2C2010",
";  c #362811",
":  c #382916",
">  c #3E3417",
",  c #422905",
"<  c #442808",
"1  c #45320D",
"2  c #5C390D",
"3  c #56380A",
"4  c #463617",
"5  c #563D12",
"6  c #5A3F12",
"7  c #462D12",
"8  c #643F10",
"9  c #603B07",
"0  c #473923",
"q  c #544114",
"w  c #574717",
"e  c #56410D",
"r  c #65420C",
"t  c #6A450E",
"y  c #72490E",
"u  c #634413",
"i  c #6C4511",
"p  c #644814",
"a  c #694912",
"s  c #644A1D",
"d  c #5F5025",
"f  c #634E29",
"g  c #6C5321",
"h  c #615422",
"j  c #775928",
"k  c #645634",
"l  c #7B6536",
"z  c #8A5916",
"x  c #91610E",
"c  c #8C641B",
"v  c #92621D",
"b  c #976716",
"n  c #A0691D",
"m  c #AA7117",
"M  c #8A5F28",
"N  c #88672C",
"B  c #8B712F",
"V  c #8A6935",
"C  c #8C733B",
"Z  c #8A753B",
"A  c #9C7A3B",
"S  c #947835",
"D  c #966D2C",
"F  c #A67525",
"G  c #AB7324",
"H  c #867442",
"J  c #967B46",
"K  c #816D43",
"L  c #B78628",
"P  c #A8833A",
"I  c #BC8F3A",
"U  c #DD8D03",
"Y  c #DD9206",
"T  c #CB8A19",
"R  c #D78E17",
"E  c #D3911B",
"W  c #E88702",
"Q  c #E58C01",
"!  c #EA8B01",
"~  c #E78A0C",
"^  c #E59304",
"/  c #EB9303",
"(  c #ED950C",
")  c #ED9D0C",
"_  c #E6960A",
"`  c #F2960D",
"'  c #F29C0E",
"]  c #F89B06",
"[  c #EC9411",
"{  c #EE9C13",
"}  c #E6971A",
"|  c #F29D12",
" . c #FA9F12",
".. c #F18F08",
"X. c #EEA40C",
"o. c #F6AD04",
"O. c #FBAD05",
"+. c #F2A40D",
"@. c #F9A10D",
"#. c #FBAC0C",
"$. c #F8AA09",
"%. c #FCB30E",
"&. c #FEBA0D",
"*. c #FBB506",
"=. c #EEA513",
"-. c #ECA31E",
";. c #E8A616",
":. c #F4A315",
">. c #FAA314",
",. c #F4AA15",
"<. c #FBAC14",
"1. c #F5A41B",
"2. c #FCA51B",
"3. c #F5AB1B",
"4. c #FBAB1B",
"5. c #FDB314",
"6. c #FDBA14",
"7. c #F6B41C",
"8. c #FBB41C",
"9. c #F5B91C",
"0. c #FDBA1D",
"q. c #F5B614",
"w. c #C68C27",
"e. c #D28F2A",
"r. c #D48E26",
"t. c #D29123",
"y. c #D1932A",
"u. c #D79D24",
"i. c #D49E36",
"p. c #CF9A30",
"a. c #E69A24",
"s. c #DAA137",
"d. c #E3A524",
"f. c #EDA625",
"g. c #EDA62B",
"h. c #EDAB2C",
"j. c #EEAB20",
"k. c #F5A322",
"l. c #F4AC23",
"z. c #FBAD22",
"x. c #F4A92D",
"c. c #FBA320",
"v. c #EBB329",
"b. c #F5B423",
"n. c #FCB523",
"m. c #F5BB25",
"M. c #FDBB23",
"N. c #F6B42B",
"B. c #FCB62A",
"V. c #F6BC2C",
"C. c #FCBB2B",
"Z. c #E5A633",
"A. c #EEA534",
"S. c #EEAC3A",
"D. c #F2AC33",
"F. c #F2AD3A",
"G. c #ECB637",
"H. c #FAB535",
"J. c #F4BC34",
"K. c #FABC33",
"L. c #F4BC3B",
"P. c #F9BC3C",
"I. c #F4B537",
"U. c #FAC22D",
"Y. c #F8C028",
"T. c #EFC03B",
"R. c #F6C234",
"E. c #FAC234",
"W. c #F5C33B",
"Q. c #FAC43B",
"!. c #F6C83D",
"~. c #9E8946",
"^. c #AB8E54",
"/. c #BEA45F",
"(. c #C9A549",
"). c #DDB849",
"_. c #CCAB56",
"`. c #C6A758",
"'. c #D1A948",
"]. c #E9B847",
"[. c #F3BD44",
"{. c #F5BE47",
"}. c #F9BF50",
"|. c #E5AF4A",
" X c #C6AB65",
".X c #DEBF73",
"XX c #D9AE63",
"oX c #E1BC6C",
"OX c #EFC840",
"+X c #F5C543",
"@X c #FAC444",
"#X c #F6CA45",
"$X c #FAC945",
"%X c #F5C64B",
"&X c #FAC64B",
"*X c #F5CA4B",
"=X c #FBCB4B",
"-X c #FBD04F",
";X c #F5C552",
":X c #FCC654",
">X c #F6CB52",
",X c #FBCC53",
"<X c #FCCD5C",
"1X c #F3C65D",
"2X c #FCD254",
"3X c #FDD35D",
"4X c #FCDA5C",
"5X c #EDCD6C",
"6X c #FCCB63",
"7X c #F1C768",
"8X c #FDD464",
"9X c #FED865",
"0X c #FDD56A",
"qX c #FEDB6C",
"wX c #F7D766",
"eX c #EECC71",
"rX c #F2CD72",
"tX c #F7D576",
"yX c #FDD472",
"uX c #FEDC75",
"iX c #F7D679",
"pX c #FCDA7A",
"aX c #F5D878",
"sX c #FFE36D",
"dX c #FFE67E",
"fX c #FDD984",
"gX c #FFE585",
"hX c None",
/* pixels */
"hXhXhXhXhXhXhXhXhXhXhXhXhXhXhXhXhXhXhXhXhXhXhXhXhXhXhXhXhXhXhXhXhXhXhXhXhXhXhXhXhXhXhXhXhXhXhXhXhXhXhXhXhXhXhXhXhXhXhXhXhXhXhXhXhXhXhXhXhXhXhXhXhXhXhX",
"hXhXhXhXhXhXhXhXhXhXhXhXhXhXhXhXhXhXhXhXhXhXhXhXhXhXhXhXhXhXhXhXhXhXhXhXhXhXhXhXhXhXhXhXhXhXhXhXhXhXhXhXhXhXhXhXhXhXhXhXhXhXhXhXhXhXhXhXhXhXhXhXhXhXhX",
"hXhXhXhXhXhXhXhXhXhXhXhXhXhXhXhXhXhXhXhXhXhXhXhXhXhXhXhXhXhXhXhXhXhXhXhXhXhXhXhXhXhXhXhXhXhXhXhXhXhXhXhXhXhXhXhXhXhXhXhXhXhXhXhXhXhXhXhXhXhXhXhXhXhXhX",
"hXhXhXhXhXhXhXhXhXhXhXhXhXhXhXhXhXhXhXhXhXhXhXhXhXhXhXhXhXhXhXhXhXhXhXhXhXhXhXhXhXhXhXhXhXhXhXhXhXhXhXhXhXhXhXhXhXhXhXhXhXhXhXhXhXhXhXhXhXhXhXhXhXhXhX",
"hXhXhXhXhXhXhXhXhXhXhXhXhXhXhXhXhXhXhXhXhXhXhXhXhXhXhXhXhXhXhXhXhXhXhXhXhXhXhXhXhXhXhXhXhXhXhXhXhXhXhXhXhXhXhXhXhXhXhXhXhXhXhXhXhXhXhXhXhXhXhXhXhXhXhX",
"hXhXhXhXhXhXhXhXhXhXhXhXhXhXhXhXhXhXhXhXhXhXhXhXhXhXhXhXhXhXhXhXhXhXhXhXhXhXhXhXhXhXhXhXhXhXhXhXhXhXhXhXhXhXhXhXhXhXhXhXhXhXhXhXhXhXhXhXhXhXhXhXhXhXhX",
"hXhXhXhXhXhXhXhXhXhXhXhXhXhXhXhXhXhXhXhXhXhXhXhXhXhXhXhXhXhXhXhXhXhXhXhXhXhXhXhXhXhXhXhXhXhXhXhXhXhXhXhXhXhXhXhXhXhXhXhXhXhXhXhXhXhXhXhXhXhXhXhXhXhXhX",
"hXhXhXhXhXhXhXhXhXhXhXhXhXhXhXhXhXhXhXhXhXhXhXhXhXhXhXhXhXhXhXhXhXhXhXhXhXhXhXhXhXhXhXhXhXhXhXhXhXhXhXhXhXhXhXhXhXhXhXhXhXhXhXhXhXhXhXhXhXhXhXhXhXhXhX",
"hXhXhXhXhXhXhXhXhXhXhXhXhXhXhXhXhXhXhXhXhXhXhXhXhXhXhXhXhXhXhXhXhXhXhXhXhXhXhXhXhXhXhXhXhXhXhXhXhXhXhXhXhXhXhXhXhXhXhXhXhXhXhXhXhXhXhXhXhXhXhXhXhXhXhX",
"hXhXhXhXhXhXhXhXhXhXhXhXhXhXhXhXhXhXhXhXhXhXhXhXhXhXhXhXhXhXhXhXhXhXhXhXhXhXhXhXhXhXhXhXhXhXhXhXhXhXhXhXhXhXhXhXhXhXhXhXhXhXhXhXhXhXhXhXhXhXhXhXhXhXhX",
"hXhXhXhXhXhXhXhXhXhXhXhXhXhXhXhXhXhXhXhXhXhXhXhXhXhXhXhXhXhXhXhXhXhXhXhXhXhXhXhXhXhXhXhXhXhXhXhXhXhXhXhXhXhXhXhXhXhXhXhXhXhXhXhXhXhXhXhXhXhXhXhXhXhXhX",
"hXhXhXhXhXhXhXhXhXhXhXhXhXhXhXhXhXhXhXhXhXhXhXhXhXhXhXhXhXhXhXhXhXhXhXhXhXhXhXhXhXhXhXhXhXhXhXhXhXhXhXhXhXhXhXhXhXhXhXhXhXhXhXhXhXhXhXhXhXhXhXhXhXhXhX",
"hXhXhXhXhXhXhXhXhXhXhXhXhXhXhXhXhXhXhXhXhXhXhXhXhXhXhXhXhXhXhXhXhXhXhXhXhXhXhXhXhXhXhXhXhXhXhXhXhXhXhXhXhXhXhXhXhXhXhXhXhXhXhXhXhXhXhXhXhXhXhXhXhXhXhX",
"hXhXhXhXhXhXhXhXhXhXhXhXhXhXhXhXhXhXhXhXhXhXhXhXhXhXhXhXhXhXhXhXhXhXhXhXhXhXhXhXhXhXhXhXhXhXhXhXhXhXhXhXhXhXhXhXhXhXhXhXhXhXhXhXhXhXhXhXhXhXhXhXhXhXhX",
"hXhXhXhXhXhXhXhXhXhXhXhXhXhXhXhXhXhXhXhXhXhXhXhXhXhXhXhXhXhXhXhXhXhXhXhXhXhXhXhXhXhXhXhXhXhXhXhXhXhXhXhXhXhXhXhXhXhXhXhXhXhXhXhXhXhXhXhXhXhXhXhXhXhXhX",
"hXhXhXhXhXhXhXhXhXhXhXhXhXhXhXhXhXhXhXhXhXhXhXhXhXhXhXhXhX$ & @ & * ; ; & * & @ * @ @ @ hXhXhXhXhXhXhXhXhXhXhXhXhXhXhXhXhXhXhXhXhXhXhXhXhXhXhXhXhXhXhX",
"hXhXhXhXhXhXhXhXhXhXhXhXhXhXhXhXhXhXhXhXhXhXhXhXhXhXhXhXf w q q q q 6 q q q w q 5 5 w 5 f hXhXhXhXhXhXhXhXhXhXhXhXhXhXhXhXhXhXhXhXhXhXhXhXhXhXhXhXhXhX",
"hXhXhXhXhXhXhXhXhXhXhXhXhXhXhXhXhXhXhXhXhXhXhXhX  X   ,  XpXaXaXtX0X8XyXaXiXiXiXiXiXiXpX X7   @ - hXhXhXhXhXhXhXhXhXhXhXhXhXhXhXhXhXhXhXhXhXhXhXhXhXhX",
"hXhXhXhXhXhXhXhXhXhXhXhXhXhXhXhXhXhXhXhXhXhXhXH Z S S S ).$X@X@X,XwXwX<X:X$X$X$X&X=X=X,X].b x b v N hXhXhXhXhXhXhXhXhXhXhXhXhXhXhXhXhXhXhXhXhXhXhXhXhX",
"hXhXhXhXhXhXhXhXhXhXhXhXhXhXhXhXhXhXhX& # = @ ~.gXuXdXqXR.9.%.X.v.,X3X!.B.b.,.,.B.B.B.M.0.q.5.z.B.G # * < * hXhXhXhXhXhXhXhXhXhXhXhXhXhXhXhXhXhXhXhXhX",
"hXhXhXhXhXhXhXhXhXhXhXhXhXhXhXhXhX+ l  X_._._.).W.C.U.W.8.3.L.,X%X[.K.C.m.M.M.0.M.M.M.M.0.M.n.0.q.;.w.T T L j & hXhXhXhXhXhXhXhXhXhXhXhXhXhXhXhXhXhXhX",
"hXhXhXhXhXhXhXhXhXhXhXhXhXhXhXhXk q S pX9X9X9XQ.8.5.b.b.8.l.+X3X=XK.M.0.M.M.M.0.0.0.M.C.M.M.M.m.0.n.8.5.8.P.v 3 k hXhXhXhXhXhXhXhXhXhXhXhXhXhXhXhXhXhX",
"hXhXhXhXhXhXhXhXhXhXhXhXhXhX$ @ ^.gX1XJ.m.m.C.N.3.$.$.3.:X0X&XV.Y.M.B.Y.M.m.M.C.Y.M.M.0.m.B.M.0.0.0.b.J.6XwXI.g.G , $ hXhXhXhXhXhXhXhXhXhXhXhXhXhXhXhX",
"hXhXhXhXhXhXhXhXhXhXhXhXhXhXZ N '.2XU.0.0.q.%.<.,.8.B.L.%X>XJ.,.#.,.3.2.2.3.3.3.2.,.0.6.0.M.6.&.6.C.#X*X8X9X%X+Xs.z M hXhXhXhXhXhXhXhXhXhXhXhXhXhXhXhX",
"hXhXhXhXhXhXhXhXhXhXhXhXX 5 5XsX#Xq.&.0.B.5.o.o.+.I.8X4XJ.M.:.~ ~ ! Q ! ! ! W ! ! Q =.B.M.0.9.M.N.%X0XwXwX8X0X0X,XH.Z.2 @ hXhXhXhXhXhXhXhXhXhXhXhXhXhX",
"hXhXhXhXhXhXhXhXhXhX* H /.(.L.W.R.C.B.3.3.n.b.W.,X%XZ.{ | | ' >. . .>.>. . . . .@.>.' ' ` ` [ [.2X3X8X8XwX8X,XW.C.n.l.T L N % hXhXhXhXhXhXhXhXhXhXhXhX",
"hXhXhXhXhXhXhXhXhX0 @ C dX4Xm.M.M.m.8.#.o.Y.L.%X<X{._ ! / ! ' #.O.#.<.<.<.4.2.<.<.<.+.! ( } a.{.6X6X0X8X<X3XQ.9.6.0.6.5.B.N # 0 hXhXhXhXhXhXhXhXhXhXhX",
"hXhXhXhXhXhXhXhXhX> . B pX2XC.M.8.$.8.B.C.2X3XG.Y [ 2.2.2.<.4.M.M.0.0.0.n.5.#.<.8.M.n.B.P.,X<XZ.R S.9XwXW.V.B.n.M.0.0.,.l.z O 0 hXhXhXhXhXhXhXhXhXhXhX",
"hXhXhXhXhXhXhXhXhXZ N I 2X#Xb.q.#.$.m.!.+X].].g.[ ] <.4.8.8.8.M.M.0.M.0.M.0.%.#.6.m.E.@X&X3X8X].Z.S.L.G.m.m.M.0.M.M.M.q.8.L z M hXhXhXhXhXhXhXhXhXhXhX",
"hXhXhXhXhXhXhX: , `.dX,Xq.M.<.<.2.3.L.4X,Xa.~ | <.#.0.M.M.M.M.M.M.M.M.M.0.0.M.M.9.V.#X8X8X0X0XqX9XL.U ^ n.M.0.M.M.M.M.M.M.n.n.w., % hXhXhXhXhXhXhXhXhX",
"hXhXhXhXhXhXhX; # `.uX$X&.M.4.3.P.,X[.d.-.1. .<.8.6.0.0.M.0.0.M.Y.0.M.0.6.6.B.K.$X,X3X0X0XyX8X&XQ.V.7.3.+.) 3.M.0.0.0.6.B.4.O.T , # hXhXhXhXhXhXhXhXhX",
"hXhXhXhXhXhXhXq 3 '.9X!.9.m.b.v.&X3XL.Q ! <.o.5.M.0.0.M.M.0.M.M.M.M.0.0.6.0.C.[.8X9X0X0X8X8X,XE.9.6.0.B.( Q 3.M.0.0.0.6.B.8.<.T 3 5 hXhXhXhXhXhXhXhXhX",
"hXhXhXhXhX% s eX7X[.J.N.+.z.2X2X@XW.7.! ` >.O.5.M.M.0.M.Y.0.0.0.M.M.M.M.M.W.,X8X8X0X0X0X,XW.K.M.0.0.0.B.( Q 3.M.0.0.M.0.0.4.<.3.g.i.s $ hXhXhXhXhXhXhX",
"hXhXhXhXhX$ w rX0XL.B.H.m.K.=X=XN.3.:.` ` ,.5.8.M.0.M.M.Y.0.Y.0.0.0.m.R.W.$X8X0XqX8X3X,X@XK.M.0.0.0.0.0.+.) 3.,.3.M.M.E.E.9.#.O.4.A.i o hXhXhXhXhXhXhX",
"hXhXhXhXhX@ w eX6X8.,.[.8X8XR.V.) Q ' 2.2.M.0.8.M.0.M.M.0.M.0.0.0.M.J.*X3X8X0X0X9X8X&XV.m.M.M.0.0.0.0.0.0.C.| W | V.V.,X8X&XB.8.z.A.i @ hXhXhXhXhXhXhX",
"hXhXhXhXhX@ p 5X0X>X%X%X$XQ.C.C.' ! ' 2.<.9.n.M.M.M.0.M.M.0.0.b.U.$X=X3X0X0X0X8X*XQ.C.M.M.0.0.M.0.M.M.M.0.M.| W -.=X$X@X!.K.9.&.<.f.a @ hXhXhXhXhXhXhX",
"hXhXhXhXhX@ p rXyX8X3X=Xm.0.0.M.' ! ( 4.#.0.M.M.Y.M.M.0.0.0.M.U.+X3X8X0X0X8X8X=XK.0.0.M.C.M.M.M.M.M.M.M.0.m.=.W f.4X3XC.M.M.8.5.2.g.y @ hXhXhXhXhXhXhX",
"hXhXhXhXhX@ a eX0X!.Y.C.0.0.0.C.+.Q | 2.#.0.0.M.M.M.M.0.8.m.E.2X4X0X0X0X8X2XW.K.M.0.0.M.M.M.C.M.M.M.0.0.M.M.:.Q { P.K.C.M.n.B.0.<.g.a @ hXhXhXhXhXhXhX",
"hXhXhXhXhX# p eX9XW.m.B.0.0.0.B.' ! ` 2.#.0.M.0.0.0.0.m.U.R.:X0X0XwX8X<X,X@XV.M.M.0.0.M.M.M.M.M.M.0.M.m.Q.@Xk.W | 8.&.6.0.6.M.6.O.f.i @ hXhXhXhXhXhXhX",
"hXhXhXhXhX# p eX8XE.M.C.0.0.0.B.) ! ` 4.#.n.M.8.0.0.m.R.2X8X0X8X0X8X8X!.m.C.M.M.M.0.M.Y.M.0.0.M.M.M.m.L.3X8XA.W ' 8.*.6.6.0.m.9.#.f.a @ hXhXhXhXhXhXhX",
"hXhXhXhXhX@ p rX8XR.B.C.0.0.6.M.X.Q ' z.<.n.M.M.M.V.$X,X8X8X0X0X8X&XQ.m.0.0.0.0.0.0.M.M.M.0.M.M.C.R.=X$X#X+Xf.Q | B.M.C.V.R.=XQ.z.A.i @ hXhXhXhXhXhXhX",
"hXhXhXhXhX@ p eX8XE.B.M.0.0.0.M.=.Q | 3.<.n.M.B.J.+X8X8X8XwX8X2X$XV.0.0.M.M.M.M.M.M.M.M.0.M.M.Y.J.$X8X2XV.N.:.Q ' m.M.K.J.$X3X=Xz.g.i @ hXhXhXhXhXhXhX",
"hXhXhXhXhX@ p tXsXR.0.0.0.M.0.0.n.B.k./ _ 8.9.Q.3X8X0X0X0X0X>XR.0.6.0.0.M.M.M.M.M.M.M.C.0.M.C.=X4X:X[.H.{ _ k.B.8.0.M.=X4X#XL.C.z.D.i @ hXhXhXhXhXhXhX",
"hXhXhXhXhXhXh  X_.].E.C.M.M.0.0.0.C.3.Q ( K.!.,X0X0X0X8XwX>X@XM.6.6.6.0.M.Y.M.M.M.C.M.M.B.R.W.>X<X@XM.8.[ ! <.M.m.R.!.*X=XR.m.j.T w.g hXhXhXhXhXhXhXhX",
"hXhXhXhXhXhXhX& , _.uX$X9.0.M.M.0.0.,.Q } <XqX0X0X0X9X4XW.m.M.M.M.M.0.0.M.Y.M.C.C.M.0.0.J.3X4X!.9.0.Y.M.( Q ,.9.E.4X4XR.H.b.z.w.< < hXhXhXhXhXhXhXhXhX",
"hXhXhXhXhXhXhX* = `.9X$XM.M.8.6.6.0.7.g.S.F.F.1XwX3X$XQ.C.6.6.M.C.C.Y.M.M.M.0.&.6.M.Q.$X*X$X&XU.6.*.:.k.,.=.L.>X*X!.Q.V.M.<.#.T 7 : hXhXhXhXhXhXhXhXhX",
"hXhXhXhXhXhXhX* 1 /.aX;XJ.K.M.M.C.V.+X<X;Xa.Y S.3X=XC.0.M.0.0.M.M.M.M.M.M.0.0.6.0.R.=X8X-XV.B.M.B.3.Q _ N.R.2X0X,Xb.n.0.0.z.x.L 1 : hXhXhXhXhXhXhXhXhX",
"hXhXhXhXhXhXhXhXhXk w P 8X=XC.B.@X:X<X6X7X;X}.S.u.-.B.0.6.B.C.M.M.0.M.0.0.0.m.K.,X2X*XW.Q.Y.M.X.( | 8.m.,X3X@Xm.U.C.9.q.z.m 2 h hXhXhXhXhXhXhXhXhXhXhX",
"hXhXhXhXhXhXhXhXhX>   B qX<XW.R.}.6X6X6X6X,X,Xx._ :.z.8.8.l.n.0.0.M.M.M.M.Y.R.!.-X-XQ.l.x.7.q.=.( l.P.+X,X2XE.0.M.C.B.<.l.v X 4 hXhXhXhXhXhXhXhXhXhXhX",
"hXhXhXhXhXhXhXhXhXhX@ Z gXuX6X<X6X6X6X6X,XK.m.M.K.3./ Q ! W :.C.Y.U.C.M.0.Q.8X8X@XC.:.Q ^ Q ~ 3.m.+X0X3XR.m.m.m.M.0.M.b.H.v X 4 hXhXhXhXhXhXhXhXhXhXhX",
"hXhXhXhXhXhXhXhXhXhXhXK J A 1X6X6X<X:X@XE.M.0.0.M.7.:.:.1.1.:.:.:.1.1.:.:.f.F.F.f.1.:.:.:.:.k.P.*X*X>X&XC.&.6.C.5.O.7.m v N hXhXhXhXhXhXhXhXhXhXhXhXhX",
"hXhXhXhXhXhXhXhXhXhXhXhX. 5 oXyX<X:X@XM.0.n.M.B.M.M.M.0.M.C.+.! ! Q Q Q Q Q ! Q U U ,.M.C.m.C.,X0X$X9.8.C.0.6.n.B.D.s.8 . hXhXhXhXhXhXhXhXhXhXhXhXhXhX",
"hXhXhXhXhXhXhXhXhXhXhXhXhXhXf u (.wX&X9.6.0.0.M.M.M.M.0.0.0.8.7.I.%X%XI.b.5.b.z.5.o.6.m.J.=X2X+XJ.C.M.0.M.B.5.n.w.8 f hXhXhXhXhXhXhXhXhXhXhXhXhXhXhXhX",
"hXhXhXhXhXhXhXhXhXhXhXhXhXhXhX@ ^.XX|.H.0.M.m.6.C.C.&.n.M.M.M.J.%X2X3XQ.0.6.B.C.M.0.M.P.+X2X2XU.B.9.q.n.n.m.-.y.F , hXhXhXhXhXhXhXhXhXhXhXhXhXhXhXhXhX",
"hXhXhXhXhXhXhXhXhXhXhXhXhXhXhXhXhXo N fX9XqX0XE.M.0.*.6.C.m.$X4X2XL.m.M.M.C.B.M.0.M.@X4X,XT.P.V.M.8.%.5.%.H.z # w hXhXhXhXhXhXhXhXhXhXhXhXhXhXhXhXhXhX",
"hXhXhXhXhXhXhXhXhXhXhXhXhXhXhXhXhXhXl J A A A i.m.z.q.9.W.#X*X&XQ.m.6.M.C.M.B.C.E.!.$X&XQ.8.8.8.M.t.n n n D l hXhXhXhXhXhXhXhXhXhXhXhXhXhXhXhXhXhXhXhX",
"hXhXhXhXhXhXhXhXhXhXhXhXhXhXhXhXhXhXhX. X X o n N.x.x.D.&X8X&Xm.M.B.B.6.&.5.m.P.<X3X$Xb.7.x.l.3.x.F # $ - - hXhXhXhXhXhXhXhXhXhXhXhXhXhXhXhXhXhXhXhXhX",
"hXhXhXhXhXhXhXhXhXhXhXhXhXhXhXhXhXhXhXhXhXhXhXj i r u y i.K.z.5.5.5.<.5.%.5.%.8.M.H.B.0.u.y r r u j hXhXhXhXhXhXhXhXhXhXhXhXhXhXhXhXhXhXhXhXhXhXhXhXhX",
"hXhXhXhXhXhXhXhXhXhXhXhXhXhXhXhXhXhXhXhXhXhXhXhX$ ; $ 7 P t.e.e.t.E E r.y.y.E R E r.e.y.L 3 % ; - hXhXhXhXhXhXhXhXhXhXhXhXhXhXhXhXhXhXhXhXhXhXhXhXhXhX",
"hXhXhXhXhXhXhXhXhXhXhXhXhXhXhXhXhXhXhXhXhXhXhXhXhXhXhXhX4 < , , , , , , , , , < < , , < > hXhXhXhXhXhXhXhXhXhXhXhXhXhXhXhXhXhXhXhXhXhXhXhXhXhXhXhXhXhX",
"hXhXhXhXhXhXhXhXhXhXhXhXhXhXhXhXhXhXhXhXhXhXhXhXhXhXhXhXhXhXhXhXhXhXhXhXhXhXhXhXhXhXhXhXhXhXhXhXhXhXhXhXhXhXhXhXhXhXhXhXhXhXhXhXhXhXhXhXhXhXhXhXhXhXhX",
"hXhXhXhXhXhXhXhXhXhXhXhXhXhXhXhXhXhXhXhXhXhXhXhXhXhXhXhXhXhXhXhXhXhXhXhXhXhXhXhXhXhXhXhXhXhXhXhXhXhXhXhXhXhXhXhXhXhXhXhXhXhXhXhXhXhXhXhXhXhXhXhXhXhXhX",
"hXhXhXhXhXhXhXhXhXhXhXhXhXhXhXhXhXhXhXhXhXhXhXhXhXhXhXhXhXhXhXhXhXhXhXhXhXhXhXhXhXhXhXhXhXhXhXhXhXhXhXhXhXhXhXhXhXhXhXhXhXhXhXhXhXhXhXhXhXhXhXhXhXhXhX",
"hXhXhXhXhXhXhXhXhXhXhXhXhXhXhXhXhXhXhXhXhXhXhXhXhXhXhXhXhXhXhXhXhXhXhXhXhXhXhXhXhXhXhXhXhXhXhXhXhXhXhXhXhXhXhXhXhXhXhXhXhXhXhXhXhXhXhXhXhXhXhXhXhXhXhX",
"hXhXhXhXhXhXhXhXhXhXhXhXhXhXhXhXhXhXhXhXhXhXhXhXhXhXhXhXhXhXhXhXhXhXhXhXhXhXhXhXhXhXhXhXhXhXhXhXhXhXhXhXhXhXhXhXhXhXhXhXhXhXhXhXhXhXhXhXhXhXhXhXhXhXhX",
"hXhXhXhXhXhXhXhXhXhXhXhXhXhXhXhXhXhXhXhXhXhXhXhXhXhXhXhXhXhXhXhXhXhXhXhXhXhXhXhXhXhXhXhXhXhXhXhXhXhXhXhXhXhXhXhXhXhXhXhXhXhXhXhXhXhXhXhXhXhXhXhXhXhXhX",
"hXhXhXhXhXhXhXhXhXhXhXhXhXhXhXhXhXhXhXhXhXhXhXhXhXhXhXhXhXhXhXhXhXhXhXhXhXhXhXhXhXhXhXhXhXhXhXhXhXhXhXhXhXhXhXhXhXhXhXhXhXhXhXhXhXhXhXhXhXhXhXhXhXhXhX",
"hXhXhXhXhXhXhXhXhXhXhXhXhXhXhXhXhXhXhXhXhXhXhXhXhXhXhXhXhXhXhXhXhXhXhXhXhXhXhXhXhXhXhXhXhXhXhXhXhXhXhXhXhXhXhXhXhXhXhXhXhXhXhXhXhXhXhXhXhXhXhXhXhXhXhX",
"hXhXhXhXhXhXhXhXhXhXhXhXhXhXhXhXhXhXhXhXhXhXhXhXhXhXhXhXhXhXhXhXhXhXhXhXhXhXhXhXhXhXhXhXhXhXhXhXhXhXhXhXhXhXhXhXhXhXhXhXhXhXhXhXhXhXhXhXhXhXhXhXhXhXhX",
"hXhXhXhXhXhXhXhXhXhXhXhXhXhXhXhXhXhXhXhXhXhXhXhXhXhXhXhXhXhXhXhXhXhXhXhXhXhXhXhXhXhXhXhXhXhXhXhXhXhXhXhXhXhXhXhXhXhXhXhXhXhXhXhXhXhXhXhXhXhXhXhXhXhXhX",
"hXhXhXhXhXhXhXhXhXhXhXhXhXhXhXhXhXhXhXhXhXhXhXhXhXhXhXhXhXhXhXhXhXhXhXhXhXhXhXhXhXhXhXhXhXhXhXhXhXhXhXhXhXhXhXhXhXhXhXhXhXhXhXhXhXhXhXhXhXhXhXhXhXhXhX",
"hXhXhXhXhXhXhXhXhXhXhXhXhXhXhXhXhXhXhXhXhXhXhXhXhXhXhXhXhXhXhXhXhXhXhXhXhXhXhXhXhXhXhXhXhXhXhXhXhXhXhXhXhXhXhXhXhXhXhXhXhXhXhXhXhXhXhXhXhXhXhXhXhXhXhX",
"hXhXhXhXhXhXhXhXhXhXhXhXhXhXhXhXhXhXhXhXhXhXhXhXhXhXhXhXhXhXhXhXhXhXhXhXhXhXhXhXhXhXhXhXhXhXhXhXhXhXhXhXhXhXhXhXhXhXhXhXhXhXhXhXhXhXhXhXhXhXhXhXhXhXhX",
"hXhXhXhXhXhXhXhXhXhXhXhXhXhXhXhXhXhXhXhXhXhXhXhXhXhXhXhXhXhXhXhXhXhXhXhXhXhXhXhXhXhXhXhXhXhXhXhXhXhXhXhXhXhXhXhXhXhXhXhXhXhXhXhXhXhXhXhXhXhXhXhXhXhXhX",
"hXhXhXhXhXhXhXhXhXhXhXhXhXhXhXhXhXhXhXhXhXhXhXhXhXhXhXhXhXhXhXhXhXhXhXhXhXhXhXhXhXhXhXhXhXhXhXhXhXhXhXhXhXhXhXhXhXhXhXhXhXhXhXhXhXhXhXhXhXhXhXhXhXhXhX"
};
