/* XPM */
static char *result[] = {
/* columns rows colors chars-per-pixel */
"75 75 239 2 ",
"   c #270D00",
".  c #2B1502",
"X  c #2D1B00",
"o  c #2A1504",
"O  c #321D00",
"+  c #361B06",
"@  c #2B2404",
"#  c #342203",
"$  c #3B2303",
"%  c #352B0B",
"&  c #3C2B0C",
"*  c #382808",
"=  c #392E12",
"-  c #392B16",
";  c #393215",
":  c #352A0D",
">  c #3A2920",
",  c #421C01",
"<  c #452A05",
"1  c #432A0B",
"2  c #462805",
"3  c #4D3509",
"4  c #493709",
"5  c #53340A",
"6  c #59380A",
"7  c #483817",
"8  c #533D13",
"9  c #513410",
"0  c #422D1D",
"q  c #663A0C",
"w  c #703F0D",
"e  c #473B22",
"r  c #5A3B23",
"t  c #603C21",
"y  c #544111",
"u  c #5A451A",
"i  c #52410A",
"p  c #63430C",
"a  c #6C410D",
"s  c #73480E",
"d  c #644A1B",
"f  c #654417",
"g  c #774D18",
"h  c #72531D",
"j  c #584421",
"k  c #5C512D",
"l  c #6A4C22",
"z  c #69532B",
"x  c #775928",
"c  c #685A38",
"v  c #74522E",
"b  c #7B622A",
"n  c #786D3D",
"m  c #804D11",
"M  c #8A4F14",
"N  c #87581A",
"B  c #975917",
"V  c #88530F",
"C  c #89631B",
"Z  c #94671B",
"A  c #A26818",
"S  c #A57115",
"D  c #B4781B",
"F  c #885C26",
"G  c #945B21",
"H  c #87662B",
"J  c #9C6F29",
"K  c #856835",
"L  c #87733B",
"P  c #93763B",
"I  c #957328",
"U  c #A46827",
"Y  c #AA7829",
"T  c #B77824",
"R  c #AE6E2E",
"E  c #C37C29",
"W  c #D57A32",
"Q  c #866D43",
"!  c #937746",
"~  c #8D7440",
"^  c #98803C",
"/  c #B88631",
"(  c #B89538",
")  c #AB8730",
"_  c #DD8D00",
"`  c #DE9109",
"'  c #CD8D18",
"]  c #D7961B",
"[  c #E58C02",
"{  c #EA8B01",
"}  c #EA8807",
"|  c #E59202",
" . c #EC9403",
".. c #ED9309",
"X. c #EB9908",
"o. c #E59609",
"O. c #F29C0B",
"+. c #F69A09",
"@. c #E88E12",
"#. c #EC9B12",
"$. c #E69716",
"%. c #F49D13",
"&. c #F79E19",
"*. c #EEA20D",
"=. c #FAA10B",
"-. c #F6AA09",
";. c #FCAD0C",
":. c #F7A40A",
">. c #FEB606",
",. c #FCBB0B",
"<. c #FDB509",
"1. c #EEA012",
"2. c #ECA71D",
"3. c #F3A212",
"4. c #FAA314",
"5. c #F5AD13",
"6. c #FCAC14",
"7. c #FAA51A",
"8. c #F5AC1B",
"9. c #FCAC1C",
"0. c #F5A51D",
"q. c #FBB314",
"w. c #FDBA14",
"e. c #F5B21A",
"r. c #FCB41C",
"t. c #F6BB1D",
"y. c #FDBA1D",
"u. c #C98D2A",
"i. c #CB9424",
"p. c #D39224",
"a. c #D99528",
"s. c #C88A35",
"d. c #D69A35",
"f. c #CD8E31",
"g. c #E69D29",
"h. c #DCA638",
"j. c #D5A52F",
"k. c #E4A323",
"l. c #ECAA2D",
"z. c #EAA726",
"x. c #F5AB22",
"c. c #FBAC23",
"v. c #F5AC2C",
"b. c #F7A828",
"n. c #EEB12A",
"m. c #F5B224",
"M. c #FDB524",
"N. c #F6BC23",
"B. c #FDBB23",
"V. c #F6B52B",
"C. c #FCB52A",
"Z. c #F5BB2C",
"A. c #FBBB2B",
"S. c #EAAA36",
"D. c #F2AB33",
"F. c #FDAF3A",
"G. c #ECB73A",
"H. c #F5B433",
"J. c #FEB631",
"K. c #F4BD33",
"L. c #FBBB33",
"P. c #F4BA3A",
"I. c #F9BD3C",
"U. c #F3B53D",
"Y. c #F4C12E",
"T. c #FAC127",
"R. c #F6C235",
"E. c #FAC234",
"W. c #F4C43C",
"Q. c #FAC33C",
"!. c #9C8344",
"~. c #A48B46",
"^. c #B5944A",
"/. c #B6994B",
"(. c #B89B46",
"). c #AA9458",
"_. c #B59758",
"`. c #AD8F4F",
"'. c #BBA25D",
"]. c #AC9D65",
"[. c #B39A68",
"{. c #AE9F74",
"}. c #B4A372",
"|. c #C69E4A",
" X c #D3AC4A",
".X c #EDB542",
"XX c #F5B946",
"oX c #FABD50",
"OX c #EDB44B",
"+X c #C6AA64",
"@X c #CDB361",
"#X c #D3B367",
"$X c #E4BF6B",
"%X c #F6C443",
"&X c #FAC543",
"*X c #FBCA45",
"=X c #F5C54B",
"-X c #F6CA4C",
";X c #FBCB4C",
":X c #F8C748",
">X c #FCD14C",
",X c #F9C051",
"<X c #F6CB53",
"1X c #FBCC53",
"2X c #FBCD5B",
"3X c #F4C758",
"4X c #FCD254",
"5X c #FDD35C",
"6X c #F9D556",
"7X c #E9C656",
"8X c #DEC06E",
"9X c #E3C16B",
"0X c #EAC76B",
"qX c #FCCD61",
"wX c #F6CC67",
"eX c #FDD563",
"rX c #FDDA64",
"tX c #FDD56B",
"yX c #FDD96B",
"uX c #F4D66A",
"iX c #E4C673",
"pX c #F2CF74",
"aX c #F9D676",
"sX c #EDD46E",
"dX c #FFE57E",
"fX c #FFE477",
"gX c #FFE06E",
"hX c #BDAE84",
"jX c #F5DA85",
"kX c #FADA86",
"lX c #E4D093",
"zX c #FFE785",
"xX c #FFF897",
"cX c #F7E59A",
"vX c #ECD7AB",
"bX c #FFF8B6",
"nX c #FDF3AD",
"mX c #FFF6C5",
"MX c None",
/* pixels */
"MXMXMXMXMXMXMXMXMXMXMXMXMXMXMXMXMXMXMXMXMXMXMXMXMXMXMXMXMXMXMXMXMXMXMXMXMXMXMXMXMXMXMXMXMXMXMXMXMXMXMXMXMXMXMXMXMXMXMXMXMXMXMXMXMXMXMXMXMXMXMXMXMXMXMX",
"MXMXMXMXMXMXMXMXMXMXMXMXMXMXMXMXMXMXMXMXMXMXMXMXMXMXMXMXMXMXMXMXMXMXMXMXMXMXMXMXMXMXMXMXMXMXMXMXMXMXMXMXMXMXMXMXMXMXMXMXMXMXMXMXMXMXMXMXMXMXMXMXMXMXMX",
"MXMXMXMXMXMXMXMXMXMXMXMXMXMXMXMXMXMXMXMXMXMXMXMXMXMXMXMXMXMXMXMXMXMXMXMXMXMXMXMXMXMXMXMXMXMXMXMXMXMXMXMXMXMXMXMXMXMXMXMXMXMXMXMXMXMXMXMXMXMXMXMXMXMXMX",
"MXMXMXMXMXMXMXMXMXMXMXMXMXMXMXMXMXMXMXMXMXMXMXMXMXMXMXMXMXMXMXMXMXMXMXMXMXMXMXMXMXMXMXMXMXMXMXMXMXMXMXMXMXMXMXMXMXMXMXMXMXMXMXMXMXMXMXMXMXMXMXMXMXMXMX",
"MXMXMXMXMXMXMXMXMXMXMXMXMXMXMXMXMXMXMXMXMXMXMXMXMXMXMXMXMXMXMXMXMXMXMXMXMXMXMXMXMXMXMXMXMXMXMXMXMXMXMXMXMXMXMXMXMXMXMXMXMXMXMXMXMXMXMXMXMXMXMXMXMXMXMX",
"MXMXMXMXMXMXMXMXMXMXMXMXMXMXMXMXMXMXMXMXMXMXMXMXMXMXMXMXMXMXMXMXMXMXMXMXMXMXMXMXMXMXMXMXMXMXMXMXMXMXMXMXMXMXMXMXMXMXMXMXMXMXMXMXMXMXMXMXMXMXMXMXMXMXMX",
"MXMXMXMXMXMXMXMXMXMXMXMXMXMXMXMXMXMXMXMXMXMXMXMXMXMXMXMXMXMXMXMXMXMXMXMXMXMXMXMXMXMXMXMXMXMXMXMXMXMXMXMXMXMXMXMXMXMXMXMXMXMXMXMXMXMXMXMXMXMXMXMXMXMXMX",
"MXMXMXMXMXMXMXMXMXMXMXMXMXMXMXMXMXMXMXMXMXMXMXMXMXMXMXMXMXMXMXMXMXMXMXMXMXMXMXMXMXMXMXMXMXMXMXMXMXMXMXMXMXMXMXMXMXMXMXMXMXMXMXMXMXMXMXMXMXMXMXMXMXMXMX",
"MXMXMXMXMXMXMXMXMXMXMXMXMXMXMXMXMXMXMXMXMXMXMXMXMXMXMXMXMXMXMXMXMXMXMXMXMXMXMXMXMXMXMXMXMXMXMXMXMXMXMXMXMXMXMXMXMXMXMXMXMXMXMXMXMXMXMXMXMXMXMXMXMXMXMX",
"MXMXMXMXMXMXMXMXMXMXMXMXMXMXMXMXMXMXMXMXMXMXMXMXMXMXMXMXMXMXMXMXMXMXMXMXMXMXMXMXMXMXMXMXMXMXMXMXMXMXMXMXMXMXMXMXMXMXMXMXMXMXMXMXMXMXMXMXMXMXMXMXMXMXMX",
"MXMXMXMXMXMXMXMXMXMXMXMXMXMXMXMXMXMXMXMXMXMXMXMXMXMXMXMXMXMXMXMXMXMXMXMXMXMXMXMXMXMXMXMXMXMXMXMXMXMXMXMXMXMXMXMXMXMXMXMXMXMXMXMXMXMXMXMXMXMXMXMXMXMXMX",
"MXMXMXMXMXMXMXMXMXMXMXMXMXMXMXMXMXMXMXMXMXMXMXMXMXMXMXMXMXMXMXMXMXMXMXMXMXMXMXMXMXMXMXMXMXMXMXMXMXMXMXMXMXMXMXMXMXMXMXMXMXMXMXMXMXMXMXMXMXMXMXMXMXMXMX",
"MXMXMXMXMXMXMXMXMXMXMXMXMXMXMXMXMXMXMXMXMXMXMXMXMXMXMXMXMXMXMXMXMXMXMXMXMXMXMXMXMXMXMXMXMXMXMXMXMXMXMXMXMXMXMXMXMXMXMXMXMXMXMXMXMXMXMXMXMXMXMXMXMXMXMX",
"MXMXMXMXMXMXMXMXMXMXMXMXMXMXMXMXMXMXMXMXMXMXMXMXMXMXMXMXMXMXMXMXMXMXMXMXMXMXMXMXMXMXMXMXMXMXMXMXMXMXMXMXMXMXMXMXMXMXMXMXMXMXMXMXMXMXMXMXMXMXMXMXMXMXMX",
"MXMXMXMXMXMXMXMXMXMXMXMXMXMXMXMXMXMXMXMXMXMXMXMXMXMXMXMXMXMXMXMXMXMXMXMXMXMXMXMXMXMXMXMXMXMXMXMXMXMXMXMXMXMXMXMXMXMXMXMXMXMXMXMXMXMXMXMXMXMXMXMXMXMXMX",
"MXMXMXMXMXMXMXMXMXMXMXMXMXMXMXMXMXMXMXMXMXMXMXMXMXMXMXMXMX% = ; = % & % % % % & & = % % % : MXMXMXMXMXMXMXMXMXMXMXMXMXMXMXMXMXMXMXMXMXMXMXMXMXMXMXMXMX",
"MXMXMXMXMXMXMXMXMXMXMXMXMXMXMXMXMXMXMXMXMXMXMXMXMXMXMXMXj 8 1 * 4 8 8 8 y y 8 8 8 8 y 8 8 8 z MXMXMXMXMXMXMXMXMXMXMXMXMXMXMXMXMXMXMXMXMXMXMXMXMXMXMXMX",
"MXMXMXMXMXMXMXMXMXMXMXMXMXMXMXMXMXMXMXMXMXMXMXMXMXMXX l lXjXu   ! kXpXpXpXpXpXuXuXuXaXuXpXjX).@ - MXMXMXMXMXMXMXMXMXMXMXMXMXMXMXMXMXMXMXMXMXMXMXMXMXMX",
"MXMXMXMXMXMXMXMXMXMXMXMXMXMXMXMXMXMXMXMXMXMXMXMXMXQ K P ~.~.! K |.5X1X1X;X*X:X5XeXeX1X*X*X1Xh.B H MXMXMXMXMXMXMXMXMXMXMXMXMXMXMXMXMXMXMXMXMXMXMXMXMXMX",
"MXMXMXMXMXMXMXMXMXMXMXMXMXMXMXMXMXMXMXMXMXMXMXe . !.xX#X+ , #XdX*XV.Z.A.t.y.K.=XyXqXP.N.y.y.C.M.S.6 $ MXMXMXMXMXMXMXMXMXMXMXMXMXMXMXMXMXMXMXMXMXMXMXMX",
"MXMXMXMXMXMXMXMXMXMXMXMXMXMXMXMXMXMXMXMXMX- 7 _.@X! d b '. XG.R.A.B.w.y.Z.:X>X;XW.R.A.y.<.5.m.r.8.' / H % MXMXMXMXMXMXMXMXMXMXMXMXMXMXMXMXMXMXMXMXMXMX",
"MXMXMXMXMXMXMXMXMXMXMXMXMXMXMXMXMXMXMXMXMXj 8 @XsXL 1 x gX6XR.C.B.B.B.y.T.;X5X:Xt.r.y.M.9.6.r.y.w.q.C.Z 3 z MXMXMXMXMXMXMXMXMXMXMXMXMXMXMXMXMXMXMXMXMX",
"MXMXMXMXMXMXMXMXMXMXMXMXMXMXMXMXMXMXMXo c mXvXt o !.jXwXG.t.,.,.w.t.R.4XeX&XN.y.B.y.w.y.y.y.r.B.y.M.N.z.l.Y $ : MXMXMXMXMXMXMXMXMXMXMXMXMXMXMXMXMXMXMX",
"MXMXMXMXMXMXMXMXMXMXMXMXMXMXMXMXMXMXQ H ! {.].~ b d.4X&XL.B.w.y.R.:XW.XXXXD.-.-.c.x.8.5.q.y.y.y.y.B.B.L.&X XH L MXMXMXMXMXMXMXMXMXMXMXMXMXMXMXMXMXMXMX",
"MXMXMXMXMXMXMXMXMXMXMXMXMXMXMXMX; X ).xX'.  $ 8XfX-XN.B.N.N.B.C.;XrX;X` } { [ } { } } { c.L.B.y.y.Z.N.*XuXtXfXpX8 + MXMXMXMXMXMXMXMXMXMXMXMXMXMXMXMXMX",
"MXMXMXMXMXMXMXMXMXMXMXMXMXMX; j {.hX! z L '.|.OXR.T.Z.w.,.B.:X5XXXk.0.O.+.=.&.7.+.=.=.&.&.#.8.B.N.;X2X6XrXuXeXwX/ / F & MXMXMXMXMXMXMXMXMXMXMXMXMXMXMX",
"MXMXMXMXMXMXMXMXMXMXMXMXMXMX: 4 vXmXQ   x dXrXXXt.,.t.B.C.I.<X5XD.{  .9.9.;.;.;.;.-.6.9.+.[ 1.C.Z.qXaXtXtXtX5X4XC.L.C # 7 MXMXMXMXMXMXMXMXMXMXMXMXMXMX",
"MXMXMXMXMXMXMXMXMXMXMXMXMXMXO < lXbXQ   x aX5XI.B.B.y.R.5XeXk.[ #.8.6.M.M.M.y.y.y.y.B.B.7.7.%.[ $.qXyXtXrX1XK.Y.8.8.C . 0 MXMXMXMXMXMXMXMXMXMXMXMXMXMX",
"MXMXMXMXMXMXMXMXMXMXMXMXMXn K H ].].! b ~.<X&XJ.C.E.%X=X.XP.%. .3.M.r.B.y.y.T.y.y.w.y.N.Z.I.U.S.S..XU.:X;XQ.M.B.r.m.) V F MXMXMXMXMXMXMXMXMXMXMXMXMXMX",
"MXMXMXMXMXMXMXMXMXMXMX7 # b zXsX4   `.zXwXT.N.C.V.-XrX,X@.[ 6.-.q.M.B.B.B.y.y.y.y.y.B.K.;X5XeXyXqX$._ x.L.B.y.B.M.y.M.C.i.< - MXMXMXMXMXMXMXMXMXMXMXMX",
"MXMXMXMXMXMXMXMXMXMXMX7 X x fX0X9 X ( uX-Xw.N.:X;X-XW.V.[ { 4.-.q.B.B.B.B.B.y.y.y.K.-X1XeXeXeXtX2X$.[ 7.B.t.y.B.w.B.c.c.p.$ - MXMXMXMXMXMXMXMXMXMXMXMX",
"MXMXMXMXMXMXMXMXMXMXMXk 7 b iX@Xu < ( rX-XR.W.6X4XQ.m.9.|  .7.6.q.B.B.B.N.B.B.B.A.%XeXtXtXtXtXeX<Xk.$.x.M.r.y.B.w.B.c.r.' 6 6 MXMXMXMXMXMXMXMXMXMXMXMX",
"MXMXMXMXMXMXMXMXMX- * ].cX[.1 i #X0X7XY.:X5X5X&XI.0.{ +.7.6.r.B.y.B.A.B.B.w.y.Q.5X2XtXtXtXtX1XI.K.5XeXl._ X.A.y.y.y.B.B.m.g.d.d : MXMXMXMXMXMXMXMXMXMX",
"MXMXMXMXMXMXMXMXMX; # [.bX[.X 4 0XaX<XW.%X>X:Xm.c.&...O.9.6.r.r.y.y.y.B.A.E.R.1XtXtXtXeX2X1X&XA.C.*X;XG.k.z.c.e.y.y.y.y.w.c.S.f # MXMXMXMXMXMXMXMXMXMX",
"MXMXMXMXMXMXMXMXMX; # '.nX[.@ 4 9XyXeX5X>XK.C. .[ %.7.9.B.y.y.y.y.y.y.A.L.4XrXeXtXyXtX5X%XZ.B.B.y.t.V.1XyXoX` | r.B.B.y.>.6.z.p # MXMXMXMXMXMXMXMXMXMX",
"MXMXMXMXMXMXMXMXMX- # /.cX[.# 3 9XyX-X%XR.Z.B. .{ %.6.6.B.y.B.y.y.N.A.*X<XeXeXtXtXeX-X*XA.t.y.y.w.y.A.1XrXoX@.| M.A.M.N.w.9.l.p * MXMXMXMXMXMXMXMXMXMX",
"MXMXMXMXMXMXMXMXMX; # (.zX^.# 3 9XyX:XC.y.y.C...{ +.9.6.y.B.B.B.A.A.W.2XtXtXtXeXeX>XR.N.B.y.y.B.B.B.C.4XrX,X@...m.B.B.B.q.9.l.p # MXMXMXMXMXMXMXMXMXMX",
"MXMXMXMXMXMXMXMXMX; # (.dX^.X 3 9XyX&Xm.w.y.M.X.{ %.9.6.M.y.B.Z.&X4X2XtXtXyXtX1XR.T.B.y.y.B.B.B.B.B.M.1XyX,X[ | M.B.B.A.q.;.0.p # MXMXMXMXMXMXMXMXMXMX",
"MXMXMXMXMXMXMXMXMX= + (.dX^.X 5 $XyX&Xy.y.M.M. .{ %.4.;.B.B.E.W.1XrXtXeXtX2X1XQ.N.B.y.B.B.T.T.y.B.T.t.>XyX,X| | C.B.B.E.N.6.S.p + MXMXMXMXMXMXMXMXMXMX",
"MXMXMXMXMXMXMXMXMX= # (.dX^.O 3 $XyX%XB.y.B.C.+.{ %.6.6.A.K.1XeXtXyXyXrX5XW.N.y.y.B.B.B.B.B.B.B.B.y.t.;XyX,X| ..m.T.*XrX:Xb.v.p # MXMXMXMXMXMXMXMXMXMX",
"MXMXMXMXMXMXMXMXMX= $ /.dX^.@ 3 $XyX%Xy.y.B.C. .{ %.9.C.&X1XwXtXtXtXeX=X&XB.y.w.y.B.B.B.B.T.y.B.B.r.8.&XaXoX| ..:X1X:X-XR.;.2.p # MXMXMXMXMXMXMXMXMXMX",
"MXMXMXMXMXMXMXMXMX= # (.dX^.# 3 $XyX%Xm.y.B.A.X.{ 3.8.v.4XeXeXtXtX2X;XK.N.B.y.B.B.B.B.B.B.y.B.B.A.m.2.oXtXoXo.] 2XeX&XZ.<.-.z.p # MXMXMXMXMXMXMXMXMXMX",
"MXMXMXMXMXMXMXMXMX= $ (.zX/.o 4 0XyX*XN.y.B.M.m.c.3.| X.c.G.5XrX<XK.Y.B.B.;.-.y.B.B.y.B.T.y.y.t.Z.4XeX.Xa.S.<X1XR.Z.A.A.y.6.v.a * MXMXMXMXMXMXMXMXMXMX",
"MXMXMXMXMXMXMXMXMXMX@ `.#X~.d h [.@X.XN.y.y.T.R.&XH.$.&.=.3.%X1XW.B.B.B.B.q.-.q.B.B.B.T.y.w.T.E.W.<X3XD.} D.yXeXY.B.r.T.x.' f.d MXMXMXMXMXMXMXMXMXMXMX",
"MXMXMXMXMXMXMXMXMXMXMXe $ b kX9X3 + Y V.8.M.A.1XrXuXaX,X[ { 7.c.M.M.B.B.B.B.B.y.y.B.C.B.y.T.W.5X2Xg.` 2.N.W.5XqXY.M.c.C.u.2 < MXMXMXMXMXMXMXMXMXMXMXMX",
"MXMXMXMXMXMXMXMXMXMXMXe @ b kX0Xi O T r.r.&X1XeXeXeXtX,Xo.{ 4.;.q.B.B.B.B.B.B.B.B.B.B.y.y.N.%XrXwX#.{ H.1X:X&X&Xt.y.r.;.' * = MXMXMXMXMXMXMXMXMXMXMXMX",
"MXMXMXMXMXMXMXMXMXMXMXMX@ H aX9Xi $ R S.G.rXtXtXtXeXeX%X` | 4.;.q.B.B.B.B.B.B.B.B.w.y.M.M.A.W.eXqX$.` XXyX1XM.r.C.L.n.n.i.& > MXMXMXMXMXMXMXMXMXMXMXMX",
"MXMXMXMXMXMXMXMXMXMXMXMXMXMXu h ( j.C 5 I aXuXeXeX<XR.A.C.v.X.| O.c.q.y.B.y.B.B.B.y.B.K.-X5X%X] S.3X;XXXQ.Y.,.y.;.M.S 6 h MXMXMXMXMXMXMXMXMXMXMXMXMXMX",
"MXMXMXMXMXMXMXMXMXMXMXMXMXMX# < S.*XN o x wX1X6X;XE.y.y.B.B.*.X.%.4.-.M.B.E.R.P.Q.E.E.XX<X3XU.o.$.1X5XR.q.w.B.y.=.r.B X = MXMXMXMXMXMXMXMXMXMXMXMXMXMX",
"MXMXMXMXMXMXMXMXMXMXMXMXMXMX* 4 S.2XN o h Z.>.C.K.M.y.y.B.y.B.A.%.[  .7.v.;XrXeXrXrXrXeXz._ 1.L.V.N.t.t.B.M.B.L.C.L.Z + MXMXMXMXMXMXMXMXMXMXMXMXMXMXMX",
"MXMXMXMXMXMXMXMXMXMXMXMXMXMXMXMXI J B B G Z A g.r.r.B.y.y.y.B.B.8.*.%.%.%.v.H.U..X.X.XD.7.3.m.:X*XB.>.,.Z.y.;.n.S Z MXMXMXMXMXMXMXMXMXMXMXMXMXMXMXMXMX",
"MXMXMXMXMXMXMXMXMXMXMXMXMXMXMXMX+ X U D.T + 2 i.c.e.y.B.y.y.T.B.B.A.r.| [ [ [ [ { } [ [ x.P.&X5X4XL.y.y.M.C.V.S.5 . MXMXMXMXMXMXMXMXMXMXMXMXMXMXMXMXMX",
"MXMXMXMXMXMXMXMXMXMXMXMXMXMXMXMXMXMXv q M E T g q D M.9.B.B.B.B.y.5.8.8.9.r.9.r.7.9.9.m.&X4X;XI.L.B.N.y.M.f.a d MXMXMXMXMXMXMXMXMXMXMXMXMXMXMXMXMXMXMX",
"MXMXMXMXMXMXMXMXMXMXMXMXMXMXMXMXMXMXMX+ t s.E q 2 Z a.a.V.w.M.w.q.x.6.A.A.A.B.t.w.B.I.W.*X5X:XZ.A.t.m.g.a.Y * MXMXMXMXMXMXMXMXMXMXMXMXMXMXMXMXMXMXMXMX",
"MXMXMXMXMXMXMXMXMXMXMXMXMXMXMXMXMXMXMXMXMX< 1 R W m X s F.y.B.t.w.y.B.B.y.t.B.B.B.N.4X5XW.Z.w.,.w.>.L.G $ j MXMXMXMXMXMXMXMXMXMXMXMXMXMXMXMXMXMXMXMXMX",
"MXMXMXMXMXMXMXMXMXMXMXMXMXMXMXMXMXMXMXMXMXMXMXF M g s m U U k.y.q.B.A.B.y.y.B.L.&XW.:X1XW.M.w.q.v.D U n MXMXMXMXMXMXMXMXMXMXMXMXMXMXMXMXMXMXMXMXMXMXMX",
"MXMXMXMXMXMXMXMXMXMXMXMXMXMXMXMXMXMXMXMXMXMXMX; X N W U + , f.c.e.A.C.M.r.M.M.&X5X4XK.w.q.w.m.e.h.9 + MXMXMXMXMXMXMXMXMXMXMXMXMXMXMXMXMXMXMXMXMXMXMXMX",
"MXMXMXMXMXMXMXMXMXMXMXMXMXMXMXMXMXMXMXMXMXMXMXMXMXv 5 w A A g q T C.q.q.r.r.M.B.C.L.q.>.6.A.u.a l MXMXMXMXMXMXMXMXMXMXMXMXMXMXMXMXMXMXMXMXMXMXMXMXMXMX",
"MXMXMXMXMXMXMXMXMXMXMXMXMXMXMXMXMXMXMXMXMXMXMXMXMXMX: r R A 3 . N a.p.p.p.p.a.p.p.p.] p.p.d.Y $ MXMXMXMXMXMXMXMXMXMXMXMXMXMXMXMXMXMXMXMXMXMXMXMXMXMXMX",
"MXMXMXMXMXMXMXMXMXMXMXMXMXMXMXMXMXMXMXMXMXMXMXMXMXMXMXMX1 2 1 & < < 4 2 1 < < < < < < < < < MXMXMXMXMXMXMXMXMXMXMXMXMXMXMXMXMXMXMXMXMXMXMXMXMXMXMXMXMX",
"MXMXMXMXMXMXMXMXMXMXMXMXMXMXMXMXMXMXMXMXMXMXMXMXMXMXMXMXMXMXMXMXMXMXMXMXMXMXMXMXMXMXMXMXMXMXMXMXMXMXMXMXMXMXMXMXMXMXMXMXMXMXMXMXMXMXMXMXMXMXMXMXMXMXMX",
"MXMXMXMXMXMXMXMXMXMXMXMXMXMXMXMXMXMXMXMXMXMXMXMXMXMXMXMXMXMXMXMXMXMXMXMXMXMXMXMXMXMXMXMXMXMXMXMXMXMXMXMXMXMXMXMXMXMXMXMXMXMXMXMXMXMXMXMXMXMXMXMXMXMXMX",
"MXMXMXMXMXMXMXMXMXMXMXMXMXMXMXMXMXMXMXMXMXMXMXMXMXMXMXMXMXMXMXMXMXMXMXMXMXMXMXMXMXMXMXMXMXMXMXMXMXMXMXMXMXMXMXMXMXMXMXMXMXMXMXMXMXMXMXMXMXMXMXMXMXMXMX",
"MXMXMXMXMXMXMXMXMXMXMXMXMXMXMXMXMXMXMXMXMXMXMXMXMXMXMXMXMXMXMXMXMXMXMXMXMXMXMXMXMXMXMXMXMXMXMXMXMXMXMXMXMXMXMXMXMXMXMXMXMXMXMXMXMXMXMXMXMXMXMXMXMXMXMX",
"MXMXMXMXMXMXMXMXMXMXMXMXMXMXMXMXMXMXMXMXMXMXMXMXMXMXMXMXMXMXMXMXMXMXMXMXMXMXMXMXMXMXMXMXMXMXMXMXMXMXMXMXMXMXMXMXMXMXMXMXMXMXMXMXMXMXMXMXMXMXMXMXMXMXMX",
"MXMXMXMXMXMXMXMXMXMXMXMXMXMXMXMXMXMXMXMXMXMXMXMXMXMXMXMXMXMXMXMXMXMXMXMXMXMXMXMXMXMXMXMXMXMXMXMXMXMXMXMXMXMXMXMXMXMXMXMXMXMXMXMXMXMXMXMXMXMXMXMXMXMXMX",
"MXMXMXMXMXMXMXMXMXMXMXMXMXMXMXMXMXMXMXMXMXMXMXMXMXMXMXMXMXMXMXMXMXMXMXMXMXMXMXMXMXMXMXMXMXMXMXMXMXMXMXMXMXMXMXMXMXMXMXMXMXMXMXMXMXMXMXMXMXMXMXMXMXMXMX",
"MXMXMXMXMXMXMXMXMXMXMXMXMXMXMXMXMXMXMXMXMXMXMXMXMXMXMXMXMXMXMXMXMXMXMXMXMXMXMXMXMXMXMXMXMXMXMXMXMXMXMXMXMXMXMXMXMXMXMXMXMXMXMXMXMXMXMXMXMXMXMXMXMXMXMX",
"MXMXMXMXMXMXMXMXMXMXMXMXMXMXMXMXMXMXMXMXMXMXMXMXMXMXMXMXMXMXMXMXMXMXMXMXMXMXMXMXMXMXMXMXMXMXMXMXMXMXMXMXMXMXMXMXMXMXMXMXMXMXMXMXMXMXMXMXMXMXMXMXMXMXMX",
"MXMXMXMXMXMXMXMXMXMXMXMXMXMXMXMXMXMXMXMXMXMXMXMXMXMXMXMXMXMXMXMXMXMXMXMXMXMXMXMXMXMXMXMXMXMXMXMXMXMXMXMXMXMXMXMXMXMXMXMXMXMXMXMXMXMXMXMXMXMXMXMXMXMXMX",
"MXMXMXMXMXMXMXMXMXMXMXMXMXMXMXMXMXMXMXMXMXMXMXMXMXMXMXMXMXMXMXMXMXMXMXMXMXMXMXMXMXMXMXMXMXMXMXMXMXMXMXMXMXMXMXMXMXMXMXMXMXMXMXMXMXMXMXMXMXMXMXMXMXMXMX",
"MXMXMXMXMXMXMXMXMXMXMXMXMXMXMXMXMXMXMXMXMXMXMXMXMXMXMXMXMXMXMXMXMXMXMXMXMXMXMXMXMXMXMXMXMXMXMXMXMXMXMXMXMXMXMXMXMXMXMXMXMXMXMXMXMXMXMXMXMXMXMXMXMXMXMX",
"MXMXMXMXMXMXMXMXMXMXMXMXMXMXMXMXMXMXMXMXMXMXMXMXMXMXMXMXMXMXMXMXMXMXMXMXMXMXMXMXMXMXMXMXMXMXMXMXMXMXMXMXMXMXMXMXMXMXMXMXMXMXMXMXMXMXMXMXMXMXMXMXMXMXMX",
"MXMXMXMXMXMXMXMXMXMXMXMXMXMXMXMXMXMXMXMXMXMXMXMXMXMXMXMXMXMXMXMXMXMXMXMXMXMXMXMXMXMXMXMXMXMXMXMXMXMXMXMXMXMXMXMXMXMXMXMXMXMXMXMXMXMXMXMXMXMXMXMXMXMXMX",
"MXMXMXMXMXMXMXMXMXMXMXMXMXMXMXMXMXMXMXMXMXMXMXMXMXMXMXMXMXMXMXMXMXMXMXMXMXMXMXMXMXMXMXMXMXMXMXMXMXMXMXMXMXMXMXMXMXMXMXMXMXMXMXMXMXMXMXMXMXMXMXMXMXMXMX"
};
