/* XPM */
static char *result[] = {
/* columns rows colors chars-per-pixel */
"75 75 241 2 ",
"   c #2C1D01",
".  c #2A1600",
"X  c #331D02",
"o  c #3B1D01",
"O  c #37190B",
"+  c #3B1E10",
"@  c #2E2508",
"#  c #352202",
"$  c #3A2404",
"%  c #392A03",
"&  c #3B2509",
"*  c #3C2B0D",
"=  c #362809",
"-  c #3A300E",
";  c #3B2C12",
":  c #382A16",
">  c #352B15",
",  c #401A03",
"<  c #422400",
"1  c #422B01",
"2  c #4D2B03",
"3  c #452F0B",
"4  c #492D0B",
"5  c #462406",
"6  c #542D03",
"7  c #45340B",
"8  c #4C340B",
"9  c #4A3205",
"0  c #5A3A05",
"q  c #51320A",
"w  c #553607",
"e  c #463718",
"r  c #543C13",
"t  c #5A3C11",
"y  c #513814",
"u  c #693C09",
"i  c #6C3C13",
"p  c #453A21",
"a  c #5C420E",
"s  c #574419",
"d  c #674207",
"f  c #694106",
"g  c #6B4409",
"h  c #75490B",
"j  c #7B550D",
"k  c #654918",
"l  c #794C17",
"z  c #785417",
"x  c #775B28",
"c  c #6B512A",
"v  c #7A693A",
"b  c #75652E",
"n  c #554525",
"m  c #7C6C43",
"M  c #834C16",
"N  c #8A5815",
"B  c #935E1A",
"V  c #90500B",
"C  c #A25F1C",
"Z  c #8B6219",
"A  c #956A18",
"S  c #A56913",
"D  c #AB7416",
"F  c #B06F18",
"G  c #8E5C23",
"H  c #8A692A",
"J  c #907536",
"K  c #A2752C",
"L  c #B77528",
"P  c #AA732E",
"I  c #CA7B16",
"U  c #8B744A",
"Y  c #B38726",
"T  c #BB833C",
"R  c #DE9A1B",
"E  c #D78E15",
"W  c #E58C02",
"Q  c #EA8B01",
"!  c #E58C0B",
"~  c #F48704",
"^  c #E69204",
"/  c #EB9304",
"(  c #ED9A05",
")  c #EC940A",
"_  c #ED9A0C",
"`  c #E4950B",
"'  c #F39C0C",
"]  c #F39707",
"[  c #E68A15",
"{  c #E39316",
"}  c #EA9814",
"|  c #F59E14",
" . c #F39715",
".. c #DEA41D",
"X. c #FBAB0C",
"o. c #F6A808",
"O. c #FAB20C",
"+. c #FBB809",
"@. c #EDA417",
"#. c #FAA614",
"$. c #F5AC14",
"%. c #FAAC14",
"&. c #F5A61C",
"*. c #FCA51A",
"=. c #F5AC1C",
"-. c #F9AB1B",
";. c #F6A315",
":. c #F4B214",
">. c #FCB215",
",. c #FBBB15",
"<. c #F5B41A",
"1. c #FDB41C",
"2. c #F6BB1B",
"3. c #FDBA1D",
"4. c #F7BE15",
"5. c #EBA10B",
"6. c #C18622",
"7. c #D68428",
"8. c #CE982B",
"9. c #DE9B23",
"0. c #D89A29",
"q. c #C89838",
"w. c #D59A37",
"e. c #E09A24",
"r. c #EA9926",
"t. c #FB8C22",
"y. c #D8A22F",
"u. c #D8A535",
"i. c #EDAA2C",
"p. c #EAA726",
"a. c #F4AD23",
"s. c #FAAA22",
"d. c #F3AC2B",
"f. c #F7A826",
"g. c #ECB42A",
"h. c #F5B525",
"j. c #FDB523",
"k. c #F6BA25",
"l. c #FDBB23",
"z. c #FBB52C",
"x. c #F5BB2C",
"c. c #FCBB2B",
"v. c #F4B62A",
"b. c #E4A236",
"n. c #EBAB34",
"m. c #E5A139",
"M. c #E9A939",
"N. c #F0AD34",
"B. c #EDB53B",
"V. c #ECB434",
"C. c #FBB633",
"Z. c #F5BC32",
"A. c #FABC33",
"S. c #F5BE3C",
"D. c #F9BE3B",
"F. c #F4B438",
"G. c #FAC025",
"H. c #F8C12C",
"J. c #F6C135",
"K. c #FAC134",
"L. c #F4C13C",
"P. c #FAC33C",
"I. c #F5C83F",
"U. c #EDC136",
"Y. c #98844C",
"T. c #A6884A",
"R. c #B28E42",
"E. c #BB9C4D",
"W. c #AA9453",
"Q. c #BA9E51",
"!. c #B9995B",
"~. c #AD8E52",
"^. c #BAA052",
"/. c #BDA35A",
"(. c #BB9F76",
"). c #B39968",
"_. c #BDA266",
"`. c #BEA873",
"'. c #C99947",
"]. c #C6A558",
"[. c #DBAF49",
"{. c #E9BB47",
"}. c #F4B643",
"|. c #F5B949",
" X c #E7BC58",
".X c #EEAF42",
"XX c #CEAD64",
"oX c #D2AC61",
"OX c #D4B56B",
"+X c #D7B766",
"@X c #D9BB72",
"#X c #CCB26F",
"$X c #E0BA61",
"%X c #F5C241",
"&X c #FAC543",
"*X c #FAC944",
"=X c #FAC64B",
"-X c #F7CA4B",
";X c #FBCB4B",
":X c #F4C64B",
">X c #FBD14D",
",X c #F6CA53",
"<X c #FBCD54",
"1X c #FBCD5B",
"2X c #F9C755",
"3X c #FED254",
"4X c #FDD35C",
"5X c #FAD45C",
"6X c #EAC255",
"7X c #D9C46E",
"8X c #E6C66D",
"9X c #E8C56B",
"0X c #E8C768",
"qX c #FCCE67",
"wX c #FDD464",
"eX c #FBD963",
"rX c #FDD56B",
"tX c #FDD96B",
"yX c #F5D569",
"uX c #E7C673",
"iX c #FDDA74",
"pX c #FDDB7B",
"aX c #F9D578",
"sX c #FFE17B",
"dX c #FFE377",
"fX c #D1B482",
"gX c #CDB682",
"hX c #DCC285",
"jX c #E4C988",
"kX c #FEDD82",
"lX c #F3D888",
"zX c #FBDC96",
"xX c #E8D293",
"cX c #FEE383",
"vX c #FDE49C",
"bX c #FEE79A",
"nX c #FADEA1",
"mX c #EFDAA1",
"MX c #FFE5A3",
"NX c #FFECA9",
"BX c None",
/* pixels */
"BXBXBXBXBXBXBXBXBXBXBXBXBXBXBXBXBXBXBXBXBXBXBXBXBXBXBXBXBXBXBXBXBXBXBXBXBXBXBXBXBXBXBXBXBXBXBXBXBXBXBXBXBXBXBXBXBXBXBXBXBXBXBXBXBXBXBXBXBXBXBXBXBXBXBX",
"BXBXBXBXBXBXBXBXBXBXBXBXBXBXBXBXBXBXBXBXBXBXBXBXBXBXBXBXBXBXBXBXBXBXBXBXBXBXBXBXBXBXBXBXBXBXBXBXBXBXBXBXBXBXBXBXBXBXBXBXBXBXBXBXBXBXBXBXBXBXBXBXBXBXBX",
"BXBXBXBXBXBXBXBXBXBXBXBXBXBXBXBXBXBXBXBXBXBXBXBXBXBXBXBXBXBXBXBXBXBXBXBXBXBXBXBXBXBXBXBXBXBXBXBXBXBXBXBXBXBXBXBXBXBXBXBXBXBXBXBXBXBXBXBXBXBXBXBXBXBXBX",
"BXBXBXBXBXBXBXBXBXBXBXBXBXBXBXBXBXBXBXBXBXBXBXBXBXBXBXBXBXBXBXBXBXBXBXBXBXBXBXBXBXBXBXBXBXBXBXBXBXBXBXBXBXBXBXBXBXBXBXBXBXBXBXBXBXBXBXBXBXBXBXBXBXBXBX",
"BXBXBXBXBXBXBXBXBXBXBXBXBXBXBXBXBXBXBXBXBXBXBXBXBXBXBXBXBXBXBXBXBXBXBXBXBXBXBXBXBXBXBXBXBXBXBXBXBXBXBXBXBXBXBXBXBXBXBXBXBXBXBXBXBXBXBXBXBXBXBXBXBXBXBX",
"BXBXBXBXBXBXBXBXBXBXBXBXBXBXBXBXBXBXBXBXBXBXBXBXBXBXBXBXBXBXBXBXBXBXBXBXBXBXBXBXBXBXBXBXBXBXBXBXBXBXBXBXBXBXBXBXBXBXBXBXBXBXBXBXBXBXBXBXBXBXBXBXBXBXBX",
"BXBXBXBXBXBXBXBXBXBXBXBXBXBXBXBXBXBXBXBXBXBXBXBXBXBXBXBXBXBXBXBXBXBXBXBXBXBXBXBXBXBXBXBXBXBXBXBXBXBXBXBXBXBXBXBXBXBXBXBXBXBXBXBXBXBXBXBXBXBXBXBXBXBXBX",
"BXBXBXBXBXBXBXBXBXBXBXBXBXBXBXBXBXBXBXBXBXBXBXBXBXBXBXBXBXBXBXBXBXBXBXBXBXBXBXBXBXBXBXBXBXBXBXBXBXBXBXBXBXBXBXBXBXBXBXBXBXBXBXBXBXBXBXBXBXBXBXBXBXBXBX",
"BXBXBXBXBXBXBXBXBXBXBXBXBXBXBXBXBXBXBXBXBXBXBXBXBXBXBXBXBXBXBXBXBXBXBXBXBXBXBXBXBXBXBXBXBXBXBXBXBXBXBXBXBXBXBXBXBXBXBXBXBXBXBXBXBXBXBXBXBXBXBXBXBXBXBX",
"BXBXBXBXBXBXBXBXBXBXBXBXBXBXBXBXBXBXBXBXBXBXBXBXBXBXBXBXBXBXBXBXBXBXBXBXBXBXBXBXBXBXBXBXBXBXBXBXBXBXBXBXBXBXBXBXBXBXBXBXBXBXBXBXBXBXBXBXBXBXBXBXBXBXBX",
"BXBXBXBXBXBXBXBXBXBXBXBXBXBXBXBXBXBXBXBXBXBXBXBXBXBXBXBXBXBXBXBXBXBXBXBXBXBXBXBXBXBXBXBXBXBXBXBXBXBXBXBXBXBXBXBXBXBXBXBXBXBXBXBXBXBXBXBXBXBXBXBXBXBXBX",
"BXBXBXBXBXBXBXBXBXBXBXBXBXBXBXBXBXBXBXBXBXBXBXBXBXBXBXBXBXBXBXBXBXBXBXBXBXBXBXBXBXBXBXBXBXBXBXBXBXBXBXBXBXBXBXBXBXBXBXBXBXBXBXBXBXBXBXBXBXBXBXBXBXBXBX",
"BXBXBXBXBXBXBXBXBXBXBXBXBXBXBXBXBXBXBXBXBXBXBXBXBXBXBXBXBXBXBXBXBXBXBXBXBXBXBXBXBXBXBXBXBXBXBXBXBXBXBXBXBXBXBXBXBXBXBXBXBXBXBXBXBXBXBXBXBXBXBXBXBXBXBX",
"BXBXBXBXBXBXBXBXBXBXBXBXBXBXBXBXBXBXBXBXBXBXBXBXBXBXBXBXBXBXBXBXBXBXBXBXBXBXBXBXBXBXBXBXBXBXBXBXBXBXBXBXBXBXBXBXBXBXBXBXBXBXBXBXBXBXBXBXBXBXBXBXBXBXBX",
"BXBXBXBXBXBXBXBXBXBXBXBXBXBXBXBXBXBXBXBXBXBXBXBXBXBXBXBXBXBXBXBXBXBXBXBXBXBXBXBXBXBXBXBXBXBXBXBXBXBXBXBXBXBXBXBXBXBXBXBXBXBXBXBXBXBXBXBXBXBXBXBXBXBXBX",
"BXBXBXBXBXBXBXBXBXBXBXBXBXBXBXBXBXBXBXBXBXBXBXBXBX* * * - - - - - - - - * - * ; * 3 e : : BXBXBXBXBXBXBXBXBXBXBXBXBXBXBXBXBXBXBXBXBXBXBXBXBXBXBXBXBXBX",
"BXBXBXBXBXBXBXBXBXBXBXBXBXBXBXBXBXBXBXBXBXBXBXBXe 8 8 8 8 7 7 7 7 8 7 8 8 8 8 8 8 7 1 & ; 7 7 BXBXBXBXBXBXBXBXBXBXBXBXBXBXBXBXBXBXBXBXBXBXBXBXBXBXBXBX",
"BXBXBXBXBXBXBXBXBXBXBXBXBXBXBXBXBXBXBXBXBX@   c @XuX8X8X8XuX8X8XuX8X0X9X0X0X0X0X7Xb # X Y.mXmXU @ @ BXBXBXBXBXBXBXBXBXBXBXBXBXBXBXBXBXBXBXBXBXBXBXBXBX",
"BXBXBXBXBXBXBXBXBXBXBXBXBXBXBXBXBXBXBXBXBXv x K ,X4X<X3X3X3X3X3X3X3X3X4XtXtXwX3X5XY j z U #X(.U v m U BXBXBXBXBXBXBXBXBXBXBXBXBXBXBXBXBXBXBXBXBXBXBXBX",
"BXBXBXBXBXBXBXBXBXBXBXBXBXBXBXBXBXBXp = k uXpXwXZ.k.l.l.3.2.k.k.x.x.x.:XwXqX2XA.k.k.d..XB o X ).NXmXb O : BXBXBXBXBXBXBXBXBXBXBXBXBXBXBXBXBXBXBXBXBXBX",
"BXBXBXBXBXBXBXBXBXBXBXBXBXBXBXBXBXBX: X a 8XtX1Xv.<.1.j.l.2.l.k.J.*X-X-XI.P.J.c.c.-.X.i.B < $ W.zXaX].W.W.b = BXBXBXBXBXBXBXBXBXBXBXBXBXBXBXBXBXBXBXBX",
"BXBXBXBXBXBXBXBXBXBXBXBXBXBXBXBXBXBXn 8 x 8XqX2X<.o.:.j.l.c.c.x.*X3X4X-Xx.3.>.2.l.:.o.-.S q q ~.8X0XaXiXiXb - s BXBXBXBXBXBXBXBXBXBXBXBXBXBXBXBXBXBXBX",
"BXBXBXBXBXBXBXBXBXBXBXBXBXBXBXBX  r #X9X6XU.x.c.,.l.l.3.c.&X4XwX<XL.K.H.l.,.3.l.z.z.j.j.i.e.y.j 4 8 ].dXeX0X8XOXs # BXBXBXBXBXBXBXBXBXBXBXBXBXBXBXBXBX",
"BXBXBXBXBXBXBXBXBXBXBXBXBXBXBXv x H 6X3X*X4.4.l.l.l.j.:.<.F.=X|.F.a.-.-.:.$.2.l.l.c.l.l.>.>.2.D g z T.!.^.uXcXlXJ x v BXBXBXBXBXBXBXBXBXBXBXBXBXBXBXBX",
"BXBXBXBXBXBXBXBXBXBXBXBXBX% w +XiXwXZ.z.c.3.3.c.,.3.<.^ Q Q / ~ Q Q Q Q W W @.A.l.,.,.3.c.v.+.2.f..Xj o 1 _.MXzXMXMXxXs # BXBXBXBXBXBXBXBXBXBXBXBXBXBX",
"BXBXBXBXBXBXBXBXBXBXBXBX- # 9 +XtX4XH.2.2.,.3.j.o.' | o.' ' | | | ' | d.}.}.n.@.] %.l.c.c.,.+.%.&.i.h o * `.NXzXzXMXhXa X : BXBXBXBXBXBXBXBXBXBXBXBXBX",
"BXBXBXBXBXBXBXBXBXBXBXBXe 7 a +XrX<XH.2.3.1.z.f.^ W ] X.X.%.1.-.%.X.:.J.3X4XB.[ { f.z.k.2.1.3.-.$.b.N 2 8 (.xXlXxXbXjXk 3 p BXBXBXBXBXBXBXBXBXBXBXBXBX",
"BXBXBXBXBXBXBXBXBXBX; 8 /.@X X{.S.Z.c.l.j.( ^ _ #.;.#.j.j.j.1.1.1.3.3.j.G.A.=X5X1Xi.) ^ $.c.c.3.,.k.R 0.q.x r k OXkXaX+X7XXXs : BXBXBXBXBXBXBXBXBXBXBX",
"BXBXBXBXBXBXBXBXBXBX; 1 oXpX3XH.l.l.<.=.s.) ( ' -.>.1.l.l.l.3.3.3.l.l.l.l.l.K.>X-XB.p.@.p.d.a.v.H.c.j.-.i.h X 4 oXtXrXrXsX7Xr = p BXBXBXBXBXBXBXBXBXBX",
"BXBXBXBXBXBXBXBXBXp $ < oXaXqXA.1.j./ W ) s.*.-.j.l.l.l.l.3.3.3.3.3.3.l.l.2.3.l.C.=XwXwXg.! { |.wXwX}.f.i.h X 4 OXdXtXwXiX@X8 X ; BXBXBXBXBXBXBXBXBXBX",
"BXBXBXBXBXBXBXBXs Y.W.R.{.2XD.l.l.j.) W ] #.X.%.l.l.l.l.l.1.%.:.3.l.l.l.l.l.l.l.c.;XwXrXN.! [ |.eXwXS.<.:.6.P P H H J 9XiX0XE.~.~.BXBXBXBXBXBXBXBXBXBX",
"BXBXBXBXBXBXBX* 1 ^.cXeXD.l.+.+.j.f.( W ] X.o.X.l.c.l.l.c.1.%.%.1.l.l.l.l.c.l.l.v.=XwXwXB.{ } }.4X3X}.z.3.:.j.M.0 . q @XiXwXrXsXXX9 = BXBXBXBXBXBXBXBX",
"BXBXBXBXBXBXBX& 1 E.tX1XJ.3.+.( ) ' #.X.X.1.1.1.l.l.3.G.l.l.3.3.1.l.l.l.l.3.,.3.x.:XwXrXqX2X2Xn.} _ h.x.l.O.;.m.d # t @XtXwX1XiXXX4 # BXBXBXBXBXBXBXBX",
"BXBXBXBXBXBXBX; 1 Q.iXwX:XJ.C._ Q Q *.%.%.l.3.l.l.l.l.l.l.l.l.l.l.l.l.l.l.l.c.A.%X1XrXtXwXrXwXn.W ^ =.l.l.O.-.m.d X r @XkXaXaXkX#X3 % BXBXBXBXBXBXBXBX",
"BXBXBXBXBXBXBX* 1 Q.aXrXwX4X;Xr.Q Q *.%.X.l.3.l.3.G.l.l.l.l.l.l.l.l.l.l.l.x.=X3XwXwXrXtXwXwX4Xn.W ^ -.l.l.X.#.m.d X r hXbXzXzXbX@X3 % BXBXBXBXBXBXBXBX",
"BXBXBXBXBXBXBX& 1 Q.iXwX,X=X|.} Q / *.#.%.3.3.l.l.l.l.G.3.l.l.l.l.l.l.K.&X=X5XwXeX,X-X:X5XwX4Xn.! ^ -.c.3.O.-.m.d # r hXbXzXzXvXgX3 % BXBXBXBXBXBXBXBX",
"BXBXBXBXBXBXBX; 1 ^.tXwX%Xx.1.( Q / *.%.:.3.3.l.l.l.l.l.l.3.3.l.l.l.x.=X4XwXrXyX4XI.k.k.;X4X1Xn.! ^ -.l.3.:.-.m.d X r hXbXzXzXbXgX3 = BXBXBXBXBXBXBXBX",
"BXBXBXBXBXBXBX; % ^.iX1XP.l.1.) Q / #.#.X.3.l.l.l.l.l.3.,.3.l.l.P.*X<XwXwXwX,XL.J.x.1.l.;XwXwXi.W ^ a.l.l.>.*.b.d # r jXMXnXvXNXgX7 % BXBXBXBXBXBXBXBX",
"BXBXBXBXBXBXBX* 1 ^.iX1XD.l.1./ Q ~ *.%.O.1.1.3.3.l.l.l.l.c.J.L.<XwXwXyX4X>XP.k.l.3.3.l.*XtXqXi.W ^ a.c.1.-.s.b.d X r +XpXaXaXsXXX8 * BXBXBXBXBXBXBXBX",
"BXBXBXBXBXBXBX* 1 ^.iX1XD.l.1.( Q / *.#.o.o.o.>.j.l.l.l.x.=X4XwXwXwXwX-XS.A.v.l.3.l.l.k.*XtXwXi.W Q a.c.l.%.s.b.d o w u.A.Z.Z.%Xq.2 $ BXBXBXBXBXBXBXBX",
"BXBXBXBXBXBXBX; 1 ^.iX1XD.l.j.) ~ / *.*.%.>.1.j.c.j.c.&X=X1XwXtX1X,X*XJ.c.l.3.3.3.3.l.k.-XtXwXi.W ^ h.c.1.O.$.b.d o 0 u.c.l.,.c.8.2 & BXBXBXBXBXBXBXBX",
"BXBXBXBXBXBXBX& 1 ^.iX1XD.l.1.) Q / *.-.-.l.c.c.c.Z.*X4XtXtXwXwX*Xx.h.l.l.3.3.3.l.3.3.l.*XeXwXi.W W a.l.3.%.-.m.d # w u.c.c.3.G.8.6 1 BXBXBXBXBXBXBXBX",
"BXBXBXBXBXBXBX; % Q.iX1XD.c.j._ Q Q *.#.:.l.v.K.-X<XwXwXtX4X:XJ.l.3.3.l.l.l.l.2.2.2.2.c.-XtXrXi.Q Q a.l.l.%.s.m.d o 0 y.c.,.k.K.q.2 & BXBXBXBXBXBXBXBX",
"BXBXBXBXBXBXBX; 1 ^.rX<XJ.l.1._ / ' *.o.X.1.z.%X4XrXrX4X<X=Xx.h.l.3.3.l.l.l.l.3.2.G.c.J.:X,X,Xi.} ) -.l.2.X.&.r.g $ 0 y.c.3.3.G.8.2 & BXBXBXBXBXBXBXBX",
"BXBXBXBXBXBXBX* 3 /.sXtXL.<.3.3.j.v.{ W ] X.$.F.4XwX4XL.H.l.3.l.l.l.l.l.l.l.3.l.x.*X5X5XB.{ ` =.x.k.3.3.3.>.j.M.u # 9 y.c.c.A.P.[.6 $ BXBXBXBXBXBXBXBX",
"BXBXBXBXBXBXBXBXBXY.~.R. X-XP.k.,.z.} W / X.o.h.*X;XP.v.3.+.,.3.3.c.l.3.3.3.,.3.c.;XyXyXn.! ~ *.c.2.1.>.h.6.K K Z Z A n.D.N.Y T J BXBXBXBXBXBXBXBXBXBX",
"BXBXBXBXBXBXBXBXBXBX# $ XXiX5XS.x.z.( W ] *.%.%.l.v.j.l.3.,.,.3.l.l.3.3.l.l.l.c.Z.;XwXwXg.W Q &.K.v.*.#.p.h X 2 q.P.c.z.c.y.2 X - BXBXBXBXBXBXBXBXBXBX",
"BXBXBXBXBXBXBXBXBXBX% 2 XXpXwX4X2X;Xg.=.f. .) ' %.>.>.3.l.l.l.l.3.3.l.l.c.C.&X;X<XB.b.@.a.d.d.I.>X;XC.-.d.h X 9 w.G.4.l.c.[.w = e BXBXBXBXBXBXBXBXBXBX",
"BXBXBXBXBXBXBXBXBXBXBX9 _.@X$XrXrXqXZ.l.z._ ) _ *.&.$.>.,.l.D.D.A.H.A.A.A.Z.&X<X2Xn.` ^ a.I.L.*X3X4Xb.8.8.M w i w.3.:.y.u.'.r & BXBXBXBXBXBXBXBXBXBXBX",
"BXBXBXBXBXBXBXBXBXBXBXBXe 8 t OXrXqXZ.2.c.j.1.s./ W ] %.=.S.4XwXwX5X4X4XwXwXB.R ` @.C.x.:X>X3X&Xx.{.N 2 6 F 7.7.! ) 7.u 3 e BXBXBXBXBXBXBXBXBXBXBXBXBX",
"BXBXBXBXBXBXBXBXBXBXBXBX: # 9 XXtXqXk.,.j.3.3.1.5.| | | | d.}.|.|.|.}.}.|.|.n.5.5.g.*X,X;X-X<XS.:.V.j # 5 F t.~ Q Q 7.6 @ ; BXBXBXBXBXBXBXBXBXBXBXBXBX",
"BXBXBXBXBXBXBXBXBXBXBXBXBX% r OXkXrXS.2.c.3.3.l.c.c.%.^ W Q W W Q Q Q W W ! f.C.C.-X4X5X;X3.j.z.=.n.j X , F  .~ ~  .7.w % BXBXBXBXBXBXBXBXBXBXBXBXBXBX",
"BXBXBXBXBXBXBXBXBXBXBXBXBXBXBXv x H  X<X*Xc.,.2.3.j.1.=.-.*.-.$.=.-.#.%.$.$.A.-X>X;XP.P.k.O.a.D h z C L F I  .7.V g z BXBXBXBXBXBXBXBXBXBXBXBXBXBXBXBX",
"BXBXBXBXBXBXBXBXBXBXBXBXBXBXBX-   9 +XtX<XA.2.>.1.3.3.c.c.c.l.l.3.,.G.H.G.J.*X3X4X&Xz.j.#.o.i.j X & C  .~ [ I R.i X BXBXBXBXBXBXBXBXBXBXBXBXBXBXBXBXBX",
"BXBXBXBXBXBXBXBXBXBXBXBXBXBXBXp $ r uXsXrXA.+.3.c.l.3.3.l.l.l.j.3.3.l.P.3X4X:XZ.A.l.3.l.>.j.N.B O 5 B I I u 2 q BXBXBXBXBXBXBXBXBXBXBXBXBXBXBXBXBXBXBX",
"BXBXBXBXBXBXBXBXBXBXBXBXBXBXBXBXBXBX!.~.'.h.+.O.c.l.l.l.3.3.l.c.A.P.|.*X-X;XP.z.j.-.:.h.0.L L M u g M B G c ; BXBXBXBXBXBXBXBXBXBXBXBXBXBXBXBXBXBXBXBX",
"BXBXBXBXBXBXBXBXBXBXBXBXBXBXBXBXBXBXBXX u [.d.j.j.c.l.l.3.1.j.c.=X3XeX2XZ.2.O.*.s.f.-.d.B o , B 6.L i + ; BXBXBXBXBXBXBXBXBXBXBXBXBXBXBXBXBXBXBXBXBXBX",
"BXBXBXBXBXBXBXBXBXBXBXBXBXBXBXBXBXBXBXBXBXx l S a.1.1.>.>.>.1.j.c.c.G.v.1.+.O.>.a.L M M N B G l i i BXBXBXBXBXBXBXBXBXBXBXBXBXBXBXBXBXBXBXBXBXBXBXBXBX",
"BXBXBXBXBXBXBXBXBXBXBXBXBXBXBXBXBXBXBXBXBX: O k q.0.{ 9.e.e.e.e.e.R R e.b.e.e.{ y.j o o M L L k X > BXBXBXBXBXBXBXBXBXBXBXBXBXBXBXBXBXBXBXBXBXBXBXBXBX",
"BXBXBXBXBXBXBXBXBXBXBXBXBXBXBXBXBXBXBXBXBXBXBXBXe 8 q 9 q q q q q q q 4 4 q q q 8 9 & 1 5 4 4 BXBXBXBXBXBXBXBXBXBXBXBXBXBXBXBXBXBXBXBXBXBXBXBXBXBXBXBX",
"BXBXBXBXBXBXBXBXBXBXBXBXBXBXBXBXBXBXBXBXBXBXBXBXBXBXBXBXBXBXBXBXBXBXBXBXBXBXBXBXBXBXBXBXBXBXBXBXBXBXBXBXBXBXBXBXBXBXBXBXBXBXBXBXBXBXBXBXBXBXBXBXBXBXBX",
"BXBXBXBXBXBXBXBXBXBXBXBXBXBXBXBXBXBXBXBXBXBXBXBXBXBXBXBXBXBXBXBXBXBXBXBXBXBXBXBXBXBXBXBXBXBXBXBXBXBXBXBXBXBXBXBXBXBXBXBXBXBXBXBXBXBXBXBXBXBXBXBXBXBXBX",
"BXBXBXBXBXBXBXBXBXBXBXBXBXBXBXBXBXBXBXBXBXBXBXBXBXBXBXBXBXBXBXBXBXBXBXBXBXBXBXBXBXBXBXBXBXBXBXBXBXBXBXBXBXBXBXBXBXBXBXBXBXBXBXBXBXBXBXBXBXBXBXBXBXBXBX",
"BXBXBXBXBXBXBXBXBXBXBXBXBXBXBXBXBXBXBXBXBXBXBXBXBXBXBXBXBXBXBXBXBXBXBXBXBXBXBXBXBXBXBXBXBXBXBXBXBXBXBXBXBXBXBXBXBXBXBXBXBXBXBXBXBXBXBXBXBXBXBXBXBXBXBX",
"BXBXBXBXBXBXBXBXBXBXBXBXBXBXBXBXBXBXBXBXBXBXBXBXBXBXBXBXBXBXBXBXBXBXBXBXBXBXBXBXBXBXBXBXBXBXBXBXBXBXBXBXBXBXBXBXBXBXBXBXBXBXBXBXBXBXBXBXBXBXBXBXBXBXBX",
"BXBXBXBXBXBXBXBXBXBXBXBXBXBXBXBXBXBXBXBXBXBXBXBXBXBXBXBXBXBXBXBXBXBXBXBXBXBXBXBXBXBXBXBXBXBXBXBXBXBXBXBXBXBXBXBXBXBXBXBXBXBXBXBXBXBXBXBXBXBXBXBXBXBXBX",
"BXBXBXBXBXBXBXBXBXBXBXBXBXBXBXBXBXBXBXBXBXBXBXBXBXBXBXBXBXBXBXBXBXBXBXBXBXBXBXBXBXBXBXBXBXBXBXBXBXBXBXBXBXBXBXBXBXBXBXBXBXBXBXBXBXBXBXBXBXBXBXBXBXBXBX",
"BXBXBXBXBXBXBXBXBXBXBXBXBXBXBXBXBXBXBXBXBXBXBXBXBXBXBXBXBXBXBXBXBXBXBXBXBXBXBXBXBXBXBXBXBXBXBXBXBXBXBXBXBXBXBXBXBXBXBXBXBXBXBXBXBXBXBXBXBXBXBXBXBXBXBX",
"BXBXBXBXBXBXBXBXBXBXBXBXBXBXBXBXBXBXBXBXBXBXBXBXBXBXBXBXBXBXBXBXBXBXBXBXBXBXBXBXBXBXBXBXBXBXBXBXBXBXBXBXBXBXBXBXBXBXBXBXBXBXBXBXBXBXBXBXBXBXBXBXBXBXBX",
"BXBXBXBXBXBXBXBXBXBXBXBXBXBXBXBXBXBXBXBXBXBXBXBXBXBXBXBXBXBXBXBXBXBXBXBXBXBXBXBXBXBXBXBXBXBXBXBXBXBXBXBXBXBXBXBXBXBXBXBXBXBXBXBXBXBXBXBXBXBXBXBXBXBXBX",
"BXBXBXBXBXBXBXBXBXBXBXBXBXBXBXBXBXBXBXBXBXBXBXBXBXBXBXBXBXBXBXBXBXBXBXBXBXBXBXBXBXBXBXBXBXBXBXBXBXBXBXBXBXBXBXBXBXBXBXBXBXBXBXBXBXBXBXBXBXBXBXBXBXBXBX",
"BXBXBXBXBXBXBXBXBXBXBXBXBXBXBXBXBXBXBXBXBXBXBXBXBXBXBXBXBXBXBXBXBXBXBXBXBXBXBXBXBXBXBXBXBXBXBXBXBXBXBXBXBXBXBXBXBXBXBXBXBXBXBXBXBXBXBXBXBXBXBXBXBXBXBX",
"BXBXBXBXBXBXBXBXBXBXBXBXBXBXBXBXBXBXBXBXBXBXBXBXBXBXBXBXBXBXBXBXBXBXBXBXBXBXBXBXBXBXBXBXBXBXBXBXBXBXBXBXBXBXBXBXBXBXBXBXBXBXBXBXBXBXBXBXBXBXBXBXBXBXBX",
"BXBXBXBXBXBXBXBXBXBXBXBXBXBXBXBXBXBXBXBXBXBXBXBXBXBXBXBXBXBXBXBXBXBXBXBXBXBXBXBXBXBXBXBXBXBXBXBXBXBXBXBXBXBXBXBXBXBXBXBXBXBXBXBXBXBXBXBXBXBXBXBXBXBXBX",
"BXBXBXBXBXBXBXBXBXBXBXBXBXBXBXBXBXBXBXBXBXBXBXBXBXBXBXBXBXBXBXBXBXBXBXBXBXBXBXBXBXBXBXBXBXBXBXBXBXBXBXBXBXBXBXBXBXBXBXBXBXBXBXBXBXBXBXBXBXBXBXBXBXBXBX"
};
