/* XPM */
static char *result[] = {
/* columns rows colors chars-per-pixel */
"75 75 226 2 ",
"   c #040402",
".  c #0A0603",
"X  c #040A03",
"o  c #0C0A04",
"O  c #0E0708",
"+  c #000F09",
"@  c #0D0C08",
"#  c #130604",
"$  c #1B0604",
"%  c #130B05",
"&  c #1B0B05",
"*  c #120708",
"=  c #1B070A",
"-  c #140A09",
";  c #1B0B0A",
":  c #021304",
">  c #0C1105",
",  c #001A06",
"<  c #0A1A07",
"1  c #02140A",
"2  c #0B130B",
"3  c #0D1B0A",
"4  c #131106",
"5  c #1C1206",
"6  c #151906",
"7  c #14120A",
"8  c #1B130C",
"9  c #161A0E",
"0  c #1C1B0D",
"q  c #0B1610",
"w  c #081A11",
"e  c #151512",
"r  c #1C1611",
"t  c #181D11",
"y  c #230605",
"u  c #2C0705",
"i  c #240C05",
"p  c #2B0C05",
"a  c #21020A",
"s  c #2D040C",
"d  c #230C0B",
"f  c #2B0D0B",
"g  c #340706",
"h  c #340B06",
"j  c #3B0C06",
"k  c #36070D",
"l  c #340D0A",
"z  c #3B0D0A",
"x  c #241206",
"c  c #2B1106",
"v  c #271906",
"b  c #23130B",
"n  c #2B130B",
"m  c #221A0C",
"M  c #2B1D0E",
"N  c #331106",
"B  c #3C1307",
"V  c #33130B",
"C  c #3B130B",
"Z  c #331B0C",
"A  c #3D1A0D",
"S  c #2A0A11",
"D  c #3D0511",
"F  c #251410",
"G  c #291310",
"H  c #241A13",
"J  c #2A1D14",
"K  c #341511",
"L  c #3C1411",
"P  c #331D13",
"I  c #3C1C12",
"U  c #3A1A19",
"Y  c #14220E",
"T  c #1C260E",
"R  c #24200C",
"E  c #34220E",
"W  c #232413",
"Q  c #2D2213",
"!  c #342214",
"~  c #3C2312",
"^  c #382819",
"/  c #3F3121",
"(  c #430C06",
")  c #440C0A",
"_  c #49090B",
"`  c #4B0D0B",
"'  c #540D0C",
"]  c #5C0F0E",
"[  c #421207",
"{  c #481207",
"}  c #43130C",
"|  c #4B130D",
" . c #441A0D",
".. c #4B1A0E",
"X. c #53140D",
"o. c #5B140D",
"O. c #541B0E",
"+. c #5C1B0E",
"@. c #440E12",
"#. c #4C0B13",
"$. c #560B14",
"%. c #431411",
"&. c #4B1511",
"*. c #441C13",
"=. c #4B1C13",
"-. c #4E1B1D",
";. c #531411",
":. c #5C1412",
">. c #541B11",
",. c #5C1C11",
"<. c #581A1B",
"1. c #630F0F",
"2. c #63150E",
"3. c #6B140F",
"4. c #621B0F",
"5. c #691A0F",
"6. c #72130F",
"7. c #620E17",
"8. c #641412",
"9. c #6B1612",
"0. c #641B12",
"q. c #6C1C13",
"w. c #6E121A",
"e. c #721611",
"r. c #741C14",
"t. c #7C1C14",
"y. c #75161C",
"u. c #78171A",
"i. c #751C1A",
"p. c #7A1D18",
"a. c #52210F",
"s. c #452515",
"d. c #4A2313",
"f. c #442319",
"g. c #4E241A",
"h. c #44291D",
"j. c #542413",
"k. c #5D2116",
"l. c #58281B",
"z. c #62210E",
"x. c #642214",
"c. c #6D2214",
"v. c #6C2919",
"b. c #6D291A",
"n. c #732114",
"m. c #7B2115",
"M. c #702815",
"N. c #7C2917",
"B. c #732519",
"V. c #7E2318",
"C. c #7C2B1C",
"Z. c #67331C",
"A. c #462924",
"S. c #763021",
"D. c #821D14",
"F. c #8B1D15",
"G. c #84171A",
"H. c #841E19",
"J. c #8A1D18",
"K. c #931E17",
"L. c #951E1A",
"P. c #832316",
"I. c #8C2216",
"U. c #842419",
"Y. c #8B2419",
"T. c #842A1B",
"R. c #8D2A1A",
"E. c #932217",
"W. c #992316",
"Q. c #962817",
"!. c #942419",
"~. c #9C241A",
"^. c #95291A",
"/. c #9A2A1C",
"(. c #9D321D",
"). c #94391F",
"_. c #A3251B",
"`. c #AB261B",
"'. c #A42A1C",
"]. c #AD2B1D",
"[. c #B4271C",
"{. c #B42A1E",
"}. c #BB2B1E",
"|. c #931B22",
" X c #862A21",
".X c #992D20",
"XX c #803222",
"oX c #A52D20",
"OX c #AF2821",
"+X c #BD2C20",
"@X c #AB3721",
"#X c #B23321",
"$X c #BC3221",
"%X c #B23C23",
"&X c #BB3C24",
"*X c #C22C1F",
"=X c #C92C1F",
"-X c #C32D21",
";X c #CC2E22",
":X c #D32E22",
">X c #DA2F23",
",X c #C13421",
"<X c #CB3423",
"1X c #C93A22",
"2X c #D43123",
"3X c #DC3123",
"4X c #D73C24",
"5X c #E53325",
"6X c #EB3326",
"7X c #FA3528",
"8X c #B34223",
"9X c #B04B27",
"0X c #C94223",
"qX c #C34C26",
"wX c #DD4127",
"eX c #DD4C27",
"rX c #CD5929",
"tX c #D75529",
"yX c #D95A2A",
"uX c #E14226",
"iX c #EC4B2A",
"pX c #E85A2B",
"aX c #DC632D",
"sX c #E1622D",
"dX c #EF732F",
"fX c #F46F31",
/* pixels */
". . # # & p X.X.W.M.:                     . O d = $ y f #                     . # # i ) o.H.V & # .     *                                     . o L   ",
". . . # # i p +.{.R.: .                   . # ; . # # u # .                   O # % & ) } 2.,.% . .   . .                                   X   V d   ",
"    . # # $ i p O.!.5 X             .     X   - o # # a f .                   O # o & N h ` q.% .     .                                   O X d V   X ",
"    . . . # # p N } Y.4 X                     - . # # $ f & . X               * o % i z } 2.l f = .   O                                     * :.@ . . ",
"          . . y i & r.].- X     X .       X . O . & & y g N # . . .   .       = . $ p o.D.B $ # = = d .                                 .   } ,.o # # ",
"          . . d & $ i `.-X .; * # . O O .     # % $ i p o.( y & o . . .       d b N ( E.o.i $ . .   = .                               * ; 7 ,...o # # ",
"              # ; % & d r.`.7 .   .   . O O # & # p p 2.]._.o.u y & # # d n f d b l c.}.B p # .     . *                             & # # o c.a.% $ # ",
"              . i % & y l q.4 X . . . . . . o & p u o.{.E q.].t.h h h N n y c i h N _._.h i # .       =                         ; = . . % % W.+.% # # ",
"                ; o # i h e.5 . . . o . . o % $ V | }.d., L ;.]._.X.C  .C g h j j 4.3Xn.j i #         O ;             X   O S - #     . & i `.O.& $ # ",
"                - o X & p 5.8 X . . . o o o 4 i B OXB.< o H *...}.;XQ.N.+.' { j | *X6X5.j i # .         = =             O *         . . & v [.O.& # # ",
"            . * d ; . & p 9.n X o . o o & p p { L.Y.m o % o J I *.}.5X>X:X*X[._.:X}.Y.P.j i # .           d O           *         . . $ % 0.:X} h f s ",
"            * . X ; % % l P.& . . # . 7 x h 3.}.T.U @ X . . o 0 Z ! W Z E E ..x.x.A < ,.2.i # .             d O   O   O O           # & c ].U.C f $ # ",
". .       * O     ; ; % H.0.% y l f l y z ~.2XT.f.8 X . .   . X ; 7 2 2 : : : : , > X X i.j & o             * S O O O               # o P.W.: % . # # ",
"# .     * .     . o d  .{.>.;.} V b b 9.-X;Xb.! 7 . o o . . X X # o o ; X . % # .   .   f U.y # . X .       =                     . # # ~.Z o . . . . ",
"& o   # X       X . & n.M.M N b & o X r.N.Q m o   X X . . X   . @ . X ; o o % o .   . ; - &.p.f = o .   O = S                     . # p !.@ o . # . . ",
"p @ X -         . . o B.~ b F ; . o o 2.a., X . o   . . . . X . o % : b o % > o ; ; d d o X n D.j y # f ; O - O             O   . # o | Y.X o - o . . ",
"B i - -       .   o o >.P 8 ; . X   o | Q.4 # o . . .   X X o o @ - o n b & a f 5 o o @ X o   x H.' C C $ X # f .           . . o # % r.B.  - 7 @ . . ",
"_.} b X   .     . % X q.I b .   * * # z {.c % . o o . . . . o o @ - - d *.%.z &.f & $ # o . .   & !.5.h p = o i d . o o . o # % # & % D.&.X 8 7 X   X ",
"n.`.Z X .       . o 4 Y.C d ; d ; * f C }.O.% # . . o . o o % % 5 n l z _ y.{.!.` k p i o % o o   b ~.' j u & % f d @ o o # # $ & i i P.I 3 8 .   .   ",
"p t.s.X . . X X X o A U.7 . # f # . # C Q.m.p i 5 % % % % % % 5 5 V &.:.oXwX5X5X-X9.l n & & & % X X >.~.{ ~.n.d & Z c  .5.X.0.{ i j h `.^ 9 -         ",
"i t.j.> . . X . & 7 j.i.; # . & d o i h 5.R.[ C c ; 5 ; b 8 ; n l D t.<X0XY.,.>.n.}.P.z a & & & > : < R.}.(.-X[.o.P.;X-XR.Z B +XO.( { =XN.8 - * * . . ",
"i P.k.7 o o @ ; f 8 x.0.& . . # d l h ) 4.'.4.O.| X.=.N s k k S #.@X#X8.D b b d ; J !._.t.t.F.W._._.].2XI.T h.C.{.+XS.^ > X X C =Xq.M.;Xd.F G ; O . . ",
"& D.x.3 7 7 5 b n b q.i.N & # . & C  .o.`.5X3X3X=X].'.}.OXY.$.p.aX8X#.l v 5 7 7 7 2 1 =.C.T.T.N.N.<X7X_.N x ! A./ ^ t X X X . X ..<X>Xb.t 9 7 X       ",
"i I.T., 4 4 8 f C l /.I.z i # i c p X.-X5X:X{.N...N f :.`.eXaXdX9XD G 8 4 # o o o . o + 1 1 1 1 3 $X_.C v % 8 ^ r :     .   . . > -X'.H H 9 @ X X . . ",
"Z &.}.4.@ i f k :.E.<X$X` p i i i ` -X_.4.j.Z x 4 i i p z :.qXsX@.S 8 % o o o o X . . . X X .   *.~.B N $ . . .               # r.Y.&.H 8 7   . . .   ",
"x z 9.;X0.= ) !.*X!.9.].D.h c c z `._.N h N V 4 # # % x C _ #X%Xd d % @ o o o . . . . X . .   X c.6.p i . . .               . y 0.0 A z b d f f d ; X ",
"b V ) F.uXU.$X,X0.} l n.{.( B h F.}.B N p & d # . . % & N ) OXN.7 % % o o . . . X . X   X .   : p.o.i # . .               . . # q.M 7 d G ; o X o ; d ",
"& p { :.oXiX!._ h n y q.{.O.{ 4.;XO.v i # . # f . . o & h ) ].s.@ % o o . X . X . . . . .   . 2 n.` i # . .                 # $ 2.&.  O @ . . o o # % ",
"f l }  .:._.] z c 5 % c.{.4.2.*Xm.v i # . . . = y o % 5 h o.~.9 o o X . X   X . . X . X     o m r.j i # .                   . $ ( 9.X     . . . # 7 @ ",
"= l N p h q.q.i & % > v.].r.[.E.v & # .     . . f & & h j 6.M.1 o . o . . . . . . X   . . . O b t.h p # . .   .             . # u ;..     . # - # C C ",
"i f & 5 i c q.c o . o Z.*X}.c.v x $ . . . .   # f f l h j L.A X o o X . X     X .           . 1 ,.2.$ & # .   .             . # u f   .     . y :.| - ",
"l ; o % % % V b X . 4 b.:X{.v 4 # . . .     . . & f z r.[.n.3 X X . .   . .   .   . X . . X . @ 2 Y.o.$ # . # # . .         . # y f - X # ; & i. .X @ ",
"n o . . o o o - X . 2  XW.8.V.C .     X . . = f V ,.{.*Xj.w : X .   O X X     O         O   X X @ b ,.9.8.l # # # #         X O $ j X.X.d # ; >.> % @ ",
"d # . X . . o - . . 3 .X5.x ~ =.D f d # . ; # $ & [.(.Y w @ .     .             O             O o @ X @ C c.q.C l f .         . # $ y 9.V X c ,.2 % o ",
"d . X . .   - - . X 0 Q.C 4 o b G 8 # = d . . # % r.d., o     .                     .           . . . X o # ~.E.% = # . .   . . . $ & p 0.v 5 ;.> % o ",
"; @   . X   = . . X v r.c # . . - .     *   o # $ o.Z X         X .         O X                   O   O & 4 ~.x.% & . .   .     . . # # f +.0.0.6 % o ",
"# - . X   O -   . X 5 0.& % .   .       = . X . o D.V.; . X . .   X   O                           .   . $ 5 '.>.% $ . . . .       . . % & p | 9.m o % ",
". o . .   # * . . X V O.@ # .         - = ; . # i ,._._.C o X . .           O                     # ; - b ; n.}.x # # . O       .   . . 4 c h q.M > @ ",
"X - . X X . * X X X | C - * .     . *     O ; - % % d t.*X2.% X . .                               - =   . o & E.Q.4 # % .       . . . % & N z _.~ X @ ",
". # o . . X # . X - ,.& . # ; # = =         . . . % i i t.:Xq.> O .                           . . =   . . o & & I...% l . .   . . . o % # p q.<X*.- o ",
"X - # X o o o o X ;.z # o . ; #                 . . # p h I.5Xc.@ o . .               .   .   X ; .     . o & $ X.P.% c . .     . . % % O.W.!.,.3 > # ",
"X # 9 X o > # > b 0.& # . - o                     . # i } >.[.3XO.4 # .         .   . X . .   a y .     . o o # O./.- N - X . . o % % Z 3X_.A Z 2 . . ",
"X > 8 > i y h & o.| o # # - .                     . . & p ` o.>X*XC i & . .   . . . o .   X % f #         . % # { _.i z &.# . . % & i V.*X~ %.m X o o ",
"@ 4 b & g ( o.t.p.K o   o #                       . # & x j o.E.5XD.z i o o o o . % = z %.& & ; . .     .   o # N W.i i %.z f l C C { {.C.I P 7 . o X ",
"o b Z X.t.W.W.q.v % f * - .               . .     . . # i N X.5.<X<X8.l 5 % # % & o ;.q.L ;.i.}     X X   . . . i {.4.o % # # |  .O.B.-Xd.A m X . . X ",
"5 f q.{.I.+.N x & . X - S .                 O   .   . i h ( o.9.'.iXJ.) h i & u $ +.U.o X   % &.,.f   O   . # ; V >.{.c., : i } y h e.].d.I r . . . o ",
"p ) _._.} z n & # .     . ;                 *     # ; l X.2.6.F.4XiX4X3.' ( ( u 3.Y.4 X . X X X ; 0.d . = f ; = % 8 f _.]. .%.i g ( H.'.f.U @ o o . @ ",
"| 8.=XI.` N i # . X   .   - *               O * ; ; o u D._._.].}.{.1X<XD.] ` t.`.n o o . . . - X o 8.f ;     X . & # d [.B.V # p j D.oXs.0 o o o o % ",
"V c.3XP.| V % o o .         ;               . ; . . o y E.q.) &.X.:.8.!.4X$XoX-XO.5 % o @ @ # o   C %.        . . # & o v b X & & C `.oXT 4 - % ; d & ",
"- 0.3Xu.X.c 4 o . . .   .   o -             -   X # & y 3.j.M V K I &.#.Y.pX6X!.C c 5 % % % o X O ,.O .         . . . . @ &.- # B !.5XOXR l p p M & & ",
"K (.pXL.$.z x # o . .       . -           d - . # # & h :. ., > > > 0 ~ %.!.4X-X0.c v 5 4 % o X C &.X O           . . .   %.V S C v Z W.;XQ.2.{ L g p ",
"}.wXaXpX!.' z i 4 o o . X     - ;     @ = # - # # ; p ` } %..   o o o 7 =.U q.<X`.| j c x & 4 > 9.p .                   X # ;.d X @ > *./.*X;X}.p.` ) ",
"{.~.|.@XyX#X1.) V & # o . o .   f ; ; = . % f h p h ` [ i & f   . . X # r J U k.=X_.8.) k h ;  .q.& # .               .   . d X . o o ! g.<.i.oX-XE.i.",
"&.&.y.w.y.8XqXp._ l d & o . X % o o o . % p j X.` _ o.[ i o G . . .   - X @ H ! x.].-X_.H.0.V P.:.& # .                     *   . . . H h.h.g.<..X6X2X",
"p x *.l.<.$.Y.qX(.#.s a ; . # % o o % 5 p ) 3.E._.D.r.[ & . b e .   X * .   X ; ! *.q.OX5X3X<X+XC 5 . . .       .         - *   . . . . 7 8 R s. X!.,.",
"& 4 4 ! h.g.<.w.qXyX).@.= & ; 7 % % i h ` F.!.i.r.}.e.j i . d e - X . ; .   X X @ J U %.k.-X5XI.=.d . .         . . . . . . # . . X . o . o % 6 x.t.%.",
"o o . o J ^ h.-.7.8XfXaXb.a e ; f p z 3._.U.;.=.M >.F.( i o 8 8 r 7 @ - . X . .   X % b , Q.W.B f l a # # @ . . . . o o # o ; X o o o 4 > 4 x 0 V.E.| ",
". X . . . % 4 5 f K rXrXtX@XK = l z H.[.t.&.d.~ 8 > H.1.l # f 4 8 r 7 d . X   . . . X o , ^.t.j i o d f d ; = d d d & i & & b & = & & % & N | t.;X!.} ",
". .   . X . . o d &.&XG.y..X#Xq.) ~.*X0.&.I ! F o X V F.j & ; d 8 H b n 7 .   . X . o X 4 I.2.c & . . . .   X X # j N x p & v d j | 5.P._.-X2X5X5XY.;.",
"X   .   X . o 4 n ;._.w.:.#.:.U.+X+X>.*.I ! J o . o   t.t.u o c V F d K 0 9 o     . . . 8 P.X.5 % . . o . o # i j j 9.[.+X`.].].].W.K._.}.2X3X3X5X/.O.",
"X .   .   . X o n X._.0.&.*.%.L =.*.%.! J H o . X .   5 [.2.x m %.l o.I 0 e e - . X   - v m.+.4 o . . . o & i j ( I.<X}.$X2X*XN.{ B h j [ O.m.P.-X].>.",
". .     . . . % n ;.].x.I I ! ! P P P J H o . . . . o X c.;X8.o.J.D.t.m.G H r 9 @     - i D...4 # % . o $ p j o.`.{.5.[ B  .N 5 c c c p N { ` z.I.}.>.",
".   .   . X o 4 N X.{.r.V J F F b r 8 @ . . X . . X H ^ ! '.I.E.q.V i 2.q.G r ; e   X 5 l D.Y.6 : X % $ p h e.*XW.{ j j j N N & & $ % $ & c j | z.{.n.",
"  . X   . . . % l o.{.j.7 4 . X X X     . X . . . 8 g.x.'.3XE.A x 5 ; d e.>.F r 5 X . & C '.:X`.m.n X $ { ~.{.5.B h p x i p & # . . . . % % x h  .t./.",
"  X   .   . o 4  .0.*Xk.3 2 7 @ o X . X   . X o o A q.*X6XE.N x = # % $ h e.K G 8 O . 8 o.}.m.e.F.W.n.O.E.D.O.B N i & # & & . .   . . . . # # i B ( E.",
". . . . X o 4 n } 0.;X5X'.*.2 3 7 . . . . . o o b q.<X2Xt.N v $ . . . % i X.0.G m . % & E.I.X.X.' ` e.W.o.j N C & % # . # . .   .     .   . # & p j e.",
"X .   X X - 8 Z | D.'.c./.=XR.I 9 7 : X . X o @ | :X}.o.j x % . .     . $ h r.I : X : Z `.{ ( j j [ h p p N y d d # . . *     .         . . o # & h o.",
".   X o 2 2 9 P ..W.t.` ` X.K.K.i.K q @ . . X 5 {.>X4.{ l # .     . O O # ; &.n.I >.c.{.I.B j p i x 5 & & # # . - = * * #                 . . . # u X.",
". o o 2 *.!.{.{.].'.O.[ z j } ( o.K.P.L 4 X , a.6XD.[ N & # . . O . .   . . d &.0.t.n.}.m.N p 5 & $ # . . . . .     = f * # = O O           . . % y } ",
"o o > M [.`.^.R.{.Q.B N p c z h h h r.{./.j.3 '.{.} N & o . O O         . . # y $ & p n.I.N p # # . . . . .     .   O   = * O . O =           . . i B ",
"o # 6 ^.F.C A Y Z.[.c x & % f y & p i ) F.=X<X;X3.j x . . .                 . # % & h ` I.B c # # o   .   . .     O O             * =         . . # x ",
"X : q.^.b n 5 m XX*Xv # # . # - o # x f g :.F.t.X.c # .                     . . . . & p r.{ i i $ . . .       .   #                 d         . . # 5 ",
"i &.r.I 2 > o W C.}.5 % . . # # . . o & p ) { ( j n #                       . .   . # & X.t.i & & # . . .       * O                 O =         O . % ",
"F.| i l o o o W C.T.> . . . O # . . . o $ p l l y y d #                             . & c n.q.& y # . .       = #                     = O       . O o ",
"N i l f . X . H B...o . . X   # .   . . o $ # & & = & #                           . . o % 4 q.9.y y # $ = # =                           =       . X 5 "
};
