/* XPM */
static char *result[] = {
/* columns rows colors chars-per-pixel */
"75 75 131 2 ",
"   c #110D0F",
".  c #13110F",
"X  c #160E13",
"o  c #0D1217",
"O  c #161313",
"+  c #191516",
"@  c #171F15",
"#  c #1A1917",
"$  c #1B1718",
"%  c #161A1C",
"&  c #1C1C19",
"*  c #221B16",
"=  c #221D1D",
"-  c #291C1E",
";  c #172115",
":  c #1A2417",
">  c #192917",
",  c #15211C",
"<  c #1E241B",
"1  c #15281D",
"2  c #1D2B1B",
"3  c #1B321A",
"4  c #1E3B1C",
"5  c #22231E",
"6  c #29221E",
"7  c #212D1E",
"8  c #22321F",
"9  c #221E20",
"0  c #2A1F20",
"q  c #1E3925",
"w  c #252423",
"e  c #2A2524",
"r  c #2A2926",
"t  c #292728",
"y  c #2E2E2C",
"u  c #322625",
"i  c #342C26",
"p  c #362E2A",
"a  c #392E29",
"s  c #243421",
"d  c #283724",
"f  c #263B23",
"g  c #293D25",
"h  c #383024",
"j  c #31312F",
"k  c #3B322C",
"l  c #333331",
"z  c #3A3736",
"x  c #393837",
"c  c #3D3C3A",
"v  c #523717",
"b  c #543B16",
"n  c #563C18",
"m  c #41352F",
"M  c #423D3B",
"N  c #1E401D",
"B  c #21431F",
"V  c #274024",
"C  c #2A4426",
"Z  c #2B4A27",
"A  c #2C4529",
"S  c #2D4C29",
"D  c #304128",
"F  c #324E2D",
"G  c #2E522A",
"H  c #2F5B2B",
"J  c #31552D",
"K  c #325B2E",
"L  c #2D5E31",
"P  c #345E30",
"I  c #34612F",
"U  c #366431",
"Y  c #386633",
"T  c #356932",
"R  c #3A6D35",
"E  c #3D6638",
"W  c #3A7435",
"Q  c #3C7937",
"!  c #3D7539",
"~  c #3E7B39",
"^  c #765117",
"/  c #51402D",
"(  c #41502F",
")  c #41403E",
"_  c #445E34",
"`  c #5D5D38",
"'  c #406F3B",
"]  c #417D3C",
"[  c #444342",
"{  c #494745",
"}  c #494847",
"|  c #4C4B49",
" . c #534F4E",
".. c #51504F",
"X. c #535251",
"o. c #5F5D5B",
"O. c #457A40",
"+. c #61605F",
"@. c #6B635E",
"#. c #6D6C69",
"$. c #737271",
"%. c #966918",
"&. c #A4731D",
"*. c #3F803A",
"=. c #43853E",
"-. c #44883F",
";. c #468541",
":. c #498343",
">. c #458B40",
",. c #498D43",
"<. c #479042",
"1. c #4A9344",
"2. c #4B9946",
"3. c #4F9049",
"4. c #4E9A48",
"5. c #549E4E",
"6. c #54A44E",
"7. c #56A650",
"8. c #58A351",
"9. c #57AC51",
"0. c #5EB457",
"q. c #5FB558",
"w. c #64BD5D",
"e. c #66C55F",
"r. c #BB8017",
"t. c #BE841E",
"y. c #C7891A",
"u. c #EBA31F",
"i. c #ECA422",
"p. c #FFB523",
"a. c None",
/* pixels */
"a.a.a.a.a.a.a.a.a.a.a.a.a.a.a.a.a.a.a.a.a.a.a.a.a.a.a.a.a.a.a.a.a.a.a.a.a.a.a.a.a.a.a.a.a.a.a.a.a.a.a.a.a.a.a.a.a.a.a.a.a.a.a.a.a.a.a.a.a.a.a.a.a.a.a.",
"a.a.a.a.a.a.a.a.a.a.a.a.a.a.a.a.a.a.a.a.a.a.a.a.a.a.a.a.a.a.a.a.a.a.a.a.a.a.a.a.a.a.a.a.a.a.a.a.a.a.a.a.a.a.a.a.a.a.a.a.a.a.a.a.a.a.a.a.a.a.a.a.a.a.a.",
"a.a.a.a.a.a.a.a.a.a.a.a.a.a.a.a.a.a.a.a.a.a.a.a.a.a.a.a.a.a.a.a.a.a.a.a.a.a.a.a.a.a.a.a.a.a.a.a.a.a.a.a.a.a.a.a.a.a.a.a.a.a.a.a.a.a.a.a.a.a.a.a.a.a.a.",
"a.a.a.a.a.a.a.a.a.a.a.a.a.a.a.a.a.a.a.a.a.a.a.a.a.a.a.a.a.a.a.a.a.a.a.a.a.a.a.a.a.a.a.a.a.a.a.a.a.a.a.a.a.a.a.a.a.a.a.a.a.a.a.a.a.a.a.a.a.a.a.a.a.a.a.",
"a.a.a.a.a.a.a.a.a.a.a.a.a.a.a.a.a.a.a.a.a.a.a.a.a.a.a.a.a.a.a.a.a.a.a.a.a.a.a.a.a.a.a.a.a.a.a.a.a.a.a.a.a.a.a.a.a.a.a.a.a.a.a.a.a.a.a.a.a.a.a.a.a.a.a.",
"a.a.a.a.a.a.a.a.a.a.a.a.a.a.a.a.a.a.a.a.a.a.a.a.a.a.a.a.a.a.a.a.a.a.a.a.a.a.a.a.a.a.a.a.a.a.a.a.a.a.a.a.a.a.a.a.a.a.a.a.a.a.a.a.a.a.a.a.a.a.a.a.a.a.a.",
"a.a.a.a.a.a.a.a.a.a.a.a.a.a.a.a.a.a.a.a.a.a.a.a.a.a.a.a.a.a.a.a.a.a.a.a.a.a.a.a.a.a.a.a.a.a.a.a.a.a.a.a.a.a.a.a.a.a.a.a.a.a.a.a.a.a.a.a.a.a.a.a.a.a.a.",
"a.a.a.a.a.a.a.a.a.a.a.a.a.a.a.a.a.a.a.a.a.a.a.a.a.a.a.a.a.a.a.a.a.a.a.a.a.a.a.a.a.a.a.a.a.a.a.a.a.a.a.a.a.a.a.a.a.a.a.a.a.a.a.a.a.a.a.a.a.a.a.a.a.a.a.",
"a.a.a.a.a.a.a.a.a.a.a.a.a.a.a.a.a.a.a.a.a.a.a.a.a.a.a.a.a.a.a.a.a.a.a.a.a.a.a.a.a.a.a.a.a.a.a.a.a.a.a.a.a.a.a.a.a.a.a.a.a.a.a.a.a.a.a.a.a.a.a.a.a.a.a.",
"a.a.a.a.a.a.a.a.a.a.a.a.a.a.a.a.a.a.a.a.a.a.a.a.a.a.a.a.a.a.a.a.a.a.a.a.a.a.a.a.a.a.a.a.a.a.a.a.a.a.a.a.a.a.a.a.a.a.a.a.a.a.a.a.a.a.a.a.a.a.a.a.a.a.a.",
"a.a.a.a.a.a.a.a.a.a.a.a.a.a.a.a.a.a.a.a.a.a.a.a.a.a.a.a.a.a.a.a.a.a.a.a.a.a.a.a.a.a.a.a.a.a.a.a.a.a.a.a.a.a.a.a.a.a.a.a.a.a.a.a.a.a.a.a.a.a.a.a.a.a.a.",
"a.a.a.a.a.a.a.a.a.a.a.a.a.a.a.a.a.a.a.a.a.a.a.a.a.a.a.a.a.a.a.a.a.a.a.a.a.a.a.a.a.a.a.a.a.a.a.a.a.a.a.a.a.a.a.a.a.a.a.a.a.a.a.a.a.a.a.a.a.a.a.a.a.a.a.",
"a.a.a.a.a.a.a.a.a.a.a.a.a.a.a.a.a.a.a.a.a.a.a.a.a.a.a.a.a.a.a.a.a.a.a.a.a.a.a.a.a.a.a.a.a.a.a.a.a.a.a.a.a.a.a.a.a.a.a.a.a.a.a.a.a.a.a.a.a.a.a.a.a.a.a.",
"a.a.a.a.a.a.a.a.a.a.a.a.a.a.a.a.a.a.a.a.a.a.a.a.a.a.a.a.a.a.O O a.a.a.a.a.a.a.a.a.a.a.a.a.a.a.a.a.a.a.a.a.a.a.a.a.a.a.a.a.a.a.a.a.a.a.a.a.a.a.a.a.a.a.",
"a.a.a.a.a.a.a.a.a.a.a.a.a.a.a.a.a.a.a.a.a.a.a.a.a.a.a.O % r j c y O a.a.a.a.a.a.a.a.a.a.a.a.a.a.a.a.a.a.a.a.a.a.a.a.a.a.a.a.a.a.a.a.a.a.a.a.a.a.a.a.a.",
"a.a.a.a.a.a.a.a.a.a.a.a.a.a.a.a.a.a.a.a.a.a.a.a.a.# & l [ ) ) } +. .# a.a.a.a.a.a.a.a.a.a.a.a.a.a.a.a.a.a.a.a.a.a.a.a.a.a.a.a.a.a.a.a.a.a.a.a.a.a.a.a.",
"a.a.a.a.a.a.a.a.a.a.a.a.a.a.a.a.a.a.a.a.a.a.a.a.# & c } [ ) c ) } $.X.O a.a.a.a.a.a.a.a.a.a.a.a.a.a.a.a.a.a.a.a.a.a.a.a.a.a.a.a.a.a.a.a.a.a.a.a.a.a.a.",
"a.a.a.a.a.a.a.a.a.a.a.a.a.a.a.a.a.a.a.a.a.a.a.a.% l } c x ) } ) ) } $.l a.a.a.a.a.a.a.a.a.a.a.a.a.a.a.a.a.a.a.a.a.a.a.a.a.a.a.a.a.a.a.a.a.a.a.a.a.a.a.",
"a.a.a.a.a.a.a.a.a.a.a.a.a.a.a.a.a.a.a.a.a.a.a.# t x y y y y c } [ c X.X.O a.a.a.a.a.a.a.a.a.a.a.a.a.a.a.a.a.a.a.a.a.a.a.a.a.a.a.a.a.a.a.a.a.a.a.a.a.a.",
"a.a.a.a.a.a.a.a.a.a.a.a.a.a.a.a.a.a.a.a.a.a.a.= y 9 t j y y t l [ } X.o.5 + + O O a.a.a.a.a.a.a.a.a.a.a.a.a.a.a.a.a.a.a.a.a.a.a.a.a.a.a.a.a.a.a.a.a.a.",
"a.a.a.a.a.a.a.a.a.a.a.a.a.a.a.a.a.a.a.a.a.a.# r w w j y j y y t y x ..$.w J R J g 5 + O a.a.a.a.a.a.a.a.a.a.a.a.a.a.a.a.a.a.a.a.a.a.a.a.a.a.a.a.a.a.a.",
"a.a.a.a.a.a.a.a.a.a.a.a.a.a.a.a.a.a.a.a.a.a.# r < y y y y y y l y y F #.9 U 2.>.>.>.! d O a.a.a.a.a.a.a.a.a.a.a.a.a.a.a.a.a.a.a.a.a.a.a.a.a.a.a.a.a.a.",
"a.a.a.a.a.a.a.a.a.a.a.a.a.a.a.a.a.a.a.a.a.a.& r w j j w t r # w p t 9 % O C <.=.=.>.,.6.' + + a.a.a.a.a.a.a.a.a.a.a.a.a.a.a.a.a.a.a.a.a.a.a.a.a.a.a.a.",
"a.a.a.a.a.a.a.a.a.a.a.a.a.a.a.a.a.a.a.a.a.a.9 r w j y y j t < < $ - n &.&.o ] >.;.>.=.=.0.3.# + a.a.a.a.a.a.a.a.a.a.a.a.a.a.a.a.a.a.a.a.a.a.a.a.a.a.a.",
"a.a.a.a.a.a.a.a.a.a.a.a.a.a.a.a.a.a.a.a.a.+ 5 y r y y j j w s H * %.y.p.p.n q ,.-.=.] 7.q.e.:.X a.a.a.a.a.a.a.a.a.a.a.a.a.a.a.a.a.a.a.a.a.a.a.a.a.a.a.",
"a.a.a.a.a.a.a.a.a.a.a.a.a.a.a.a.a.a.a.a.a.# r y y y j y j = V W % %.r.i.i.v 2 -.>.-.=.6.w.q.e.F O a.a.a.a.a.a.a.a.a.a.a.a.a.a.a.a.a.a.a.a.a.a.a.a.a.a.",
"a.a.a.a.a.a.a.a.a.a.a.a.a.a.a.a.a.a.a.a.a.& y y y j y y y + K ~ % v ^ n * , W >.=.-.-.-.6.0.w.5.+ a.a.a.a.a.a.a.a.a.a.a.a.a.a.a.a.a.a.a.a.a.a.a.a.a.a.",
"a.a.a.a.a.a.a.a.a.a.a.a.a.a.a.a.a.a.a.a.a.& w t j j w y w 2 Q Q J # , 1 Z ~ -.-.>.>.>.=.=.>.>.w.g X a.a.a.a.a.a.a.a.a.a.a.a.a.a.a.a.a.a.a.a.a.a.a.a.a.",
"a.a.a.a.a.a.a.a.a.a.a.a.a.a.a.a.a.a.a.a.# # 9 y j y 9 w @ T W W W W Q Q *.-.>.=.=.~ *.>.-.>.=.9.E X a.a.a.a.a.a.a.a.a.a.a.a.a.a.a.a.a.a.a.a.a.a.a.a.a.",
"a.a.a.a.a.a.a.a.a.a.a.a.a.a.a.a.a.a.a.a.# & t r w + O & I ~ Q Q =.-.-.-.>.>.-.-.~ ~ =.-.-.-.=.4.:.X a.a.a.a.a.a.a.a.a.a.a.a.a.a.a.a.a.a.a.a.a.a.a.a.a.",
"a.a.a.a.a.a.a.a.a.a.a.a.a.a.a.a.a.a.a.a.a.# < < 2 G Z T *.>.=.Q -.-.;.-.-.-.-.>.>.>.;.-.-.>.-.,.3.+ a.a.a.a.a.a.a.a.a.a.a.a.a.a.a.a.a.a.a.a.a.a.a.a.a.",
"a.a.a.a.a.a.a.a.a.a.a.a.a.a.a.a.a.a.a.a.a.$ P Q Q ~ ~ W ~ >.>.>.-.-.>.=.>.-.-.-.-.-.=.>.>.=.-.>.,.& a.a.a.a.a.a.a.a.a.a.a.a.a.a.a.a.a.a.a.a.a.a.a.a.a.",
"a.a.a.a.a.a.a.a.a.a.a.a.a.a.a.a.a.a.a.a.a.# I Q W W W W ~ -.-.-.-.-.-.-.-.-.,.>.>.,.>.=.-.-.-.>.;.& a.a.a.a.a.a.a.a.a.a.a.a.a.a.a.a.a.a.a.a.a.a.a.a.a.",
"a.a.a.a.a.a.a.a.a.a.a.a.a.a.a.a.a.a.a.a.a.# T Q W W W W W -.>.-.>.-.-.-.>.=.] ~ ] R U R -.-.=.~ ] + a.a.a.a.a.a.a.a.a.a.a.a.a.a.a.a.a.a.a.a.a.a.a.a.a.",
"a.a.a.a.a.a.a.a.a.a.a.a.a.a.a.a.a.a.a.$ + + T Q W W W ! W ~ >.] -.,.>.-.-.-.R U K R =.-.-.-.>.-.U + a.a.a.a.a.a.a.a.a.a.a.a.a.a.a.a.a.a.a.a.a.a.a.a.a.",
"a.a.a.a.a.a.a.a.a.a.a.a.a.a.a.a.a.a.a.& 7 $ V Q Q W W W W ~ S & 7 S ] <.,.-.>.>.K ] ! <.>.,.U 7 & # a.a.a.a.a.a.a.a.a.a.a.a.a.a.a.a.a.a.a.a.a.a.a.a.a.",
"a.a.a.a.a.a.a.a.a.a.a.a.a.a.a.a.a.a.a.$ I I 8 8 W Q W W Q U # B 8 ; < g R -.2.~ K -.S -.W 8 @ 8 2 $ a.a.a.a.a.a.a.a.a.a.a.a.a.a.a.a.a.a.a.a.a.a.a.a.a.",
"a.a.a.a.a.a.a.a.a.a.a.a.a.a.a.a.a.a.a.< C 5 G G 8 W W W Q H : N N B B 2 # s J 7 A R 5 8 * > B 4 2 + a.a.a.a.a.a.a.a.a.a.a.a.a.a.a.a.a.a.a.a.a.a.a.a.a.",
"a.a.a.a.a.a.a.a.a.a.a.a.a.a.a.a.a.a.a.& V 8 8 g I G Q W Q J # 3 ; # ; 3 8 3 < : 8 S # 3 3 > & : : $ a.a.a.a.a.a.a.a.a.a.a.a.a.a.a.a.a.a.a.a.a.a.a.a.a.",
"a.a.a.a.a.a.a.a.a.a.a.a.a.a.a.a.a.a.a.+ C 8 H + B W W W Q R ; + C U S s > : 3 ; g ! + : 7 8 P 8 + a.a.a.a.a.a.a.a.a.a.a.a.a.a.a.a.a.a.a.a.a.a.a.a.a.a.",
"a.a.a.a.a.a.a.a.a.a.a.a.a.a.a.a.a.a.a.O s A 7 C 8 T Q W W Q I > ! U G J S C s s ! =.P g 8 g R ' + a.a.a.a.a.a.a.a.a.a.a.a.a.a.a.a.a.a.a.a.a.a.a.a.a.a.",
"a.a.a.a.a.a.a.a.a.a.a.a.a.a.a.a.a.a.a.a.O J C V H G Q W W W -.-.=.] Y J s < P >.>.] F P 8 R 1.5.& a.a.a.a.a.a.a.a.a.a.a.a.a.a.a.a.a.a.a.a.a.a.a.a.a.a.",
"a.a.a.a.a.a.a.a.a.a.a.a.a.a.a.a.a.a.a.a.a.& I H Z H W W W W =.-.>.>.<.>.R ] >.;.;.2.g R 4.-.1.8.< a.a.a.a.a.a.a.a.a.a.a.a.a.a.a.a.a.a.a.a.a.a.a.a.a.a.",
"a.a.a.a.a.a.a.a.a.a.a.a.a.a.a.a.a.a.a.a.a.a.# I J T Q W W W =.-.-.-.-.>.>.>.>.,.K U 7 ~ -.-.' g < a.a.a.a.a.a.a.a.a.a.a.a.a.a.a.a.a.a.a.a.a.a.a.a.a.a.",
"a.a.a.a.a.a.a.a.a.a.a.a.a.a.a.a.a.a.a.a.a.a.a.# < C C Q Q W =.-.-.-.-.>.<.2.J T W A R ;.~ W _ m O a.a.a.a.a.a.a.a.a.a.a.a.a.a.a.a.a.a.a.a.a.a.a.a.a.a.",
"a.a.a.a.a.a.a.a.a.a.a.a.a.a.a.a.a.a.a.a.a.a.a.# # a.+ g R Q Q -.>.;.=.! S G F ` I S s # & A A e O a.a.a.a.a.a.a.a.a.a.a.a.a.a.a.a.a.a.a.a.a.a.a.a.a.a.",
"a.a.a.a.a.a.a.a.a.a.a.a.a.a.a.a.a.a.a.a.a.a.a.# & a.$ + : C K R =.=.<.g S s - h & s S R 3.O.< O a.a.a.a.a.a.a.a.a.a.a.a.a.a.a.a.a.a.a.a.a.a.a.a.a.a.a.",
"a.a.a.a.a.a.a.a.a.a.a.a.a.a.a.a.a.a.a.a.a.a.a.a.& $ $ a.+ O @ 7 g G K S =.R : S W ~ ,.] C X O a.a.a.a.a.a.a.a.a.a.a.a.a.a.a.a.a.a.a.a.a.a.a.a.a.a.a.a.",
"a.a.a.a.a.a.a.a.a.a.a.a.a.a.a.a.a.a.a.a.a.a.a.a.a.a.a.a.a.& c z O # # 7 : 5 7 7 5 & % O X a.a.a.a.a.a.a.a.a.a.a.a.a.a.a.a.a.a.a.a.a.a.a.a.a.a.a.a.a.a.",
"a.a.a.a.a.a.a.a.a.a.a.a.a.a.a.a.a.a.a.a.a.a.a.a.a.a.a.a.+ $ | o.< J Z 8 7 > 5 7 7 C s < & a.a.a.a.a.a.a.a.a.a.a.a.a.a.a.a.a.a.a.a.a.a.a.a.a.a.a.a.a.a.",
"a.a.a.a.a.a.a.a.a.a.a.a.a.a.a.a.a.a.a.a.a.a.a.a.a.a.a.a.2 C 5 & : W -.-.=.=.R R <.<.S f s a.a.a.a.a.a.a.a.a.a.a.a.a.a.a.a.a.a.a.a.a.a.a.a.a.a.a.a.a.a.",
"a.a.a.a.a.a.a.a.a.a.a.a.a.a.a.a.a.a.a.a.a.a.a.a.a.a.a.O Z *.=.R 7 J J ! ! J A K G g A s L $ a.a.a.a.a.a.a.a.a.a.a.a.a.a.a.a.a.a.a.a.a.a.a.a.a.a.a.a.a.",
"a.a.a.a.a.a.a.a.a.a.a.a.a.a.a.a.a.a.a.a.a.a.a.a.a.a.a.5 Q =.<.! 5 =.W S S J >.;.! 2.] O G < a.a.a.a.a.a.a.a.a.a.a.a.a.a.a.a.a.a.a.a.a.a.a.a.a.a.a.a.a.",
"a.a.a.a.a.a.a.a.a.a.a.a.a.a.a.a.a.a.a.a.a.a.a.a.a.a.a.# s I =.R # g J K K R Y s C s = l & 2 $ a.a.a.a.a.a.a.a.a.a.a.a.a.a.a.a.a.a.a.a.a.a.a.a.a.a.a.a.",
"a.a.a.a.a.a.a.a.a.a.a.a.a.a.a.a.a.a.a.a.a.a.a.a.a.a.O f Z > 5 < $ 6 6 - 6 - - u u a @. .3 Z O a.a.a.a.a.a.a.a.a.a.a.a.a.a.a.a.a.a.a.a.a.a.a.a.a.a.a.a.",
"a.a.a.a.a.a.a.a.a.a.a.a.a.a.a.a.a.a.a.a.a.a.a.a.a.a.X J =.W W G & e i i k k k i i r r = 5 & $ a.a.a.a.a.a.a.a.a.a.a.a.a.a.a.a.a.a.a.a.a.a.a.a.a.a.a.a.",
"a.a.a.a.a.a.a.a.a.a.a.a.a.a.a.a.a.a.a.a.a.a.a.a.a.a.a.5 W W ! K # * $ $ $ * # 5 = e k @.5 < a.a.a.a.a.a.a.a.a.a.a.a.a.a.a.a.a.a.a.a.a.a.a.a.a.a.a.a.a.",
"a.a.a.a.a.a.a.a.a.a.a.a.a.a.a.a.a.a.a.a.a.a.a.a.a.a.a.O < Z A 8 6 m a k h i & k l * a } O a.a.a.a.a.a.a.a.a.a.a.a.a.a.a.a.a.a.a.a.a.a.a.a.a.a.a.a.a.a.",
"a.a.a.a.a.a.a.a.a.a.a.a.a.a.a.a.a.a.a.a.a.a.a.a.a.a.a.a.a.+ + # 5 5 7 5 i = & i p 2 f X a.a.a.a.a.a.a.a.a.a.a.a.a.a.a.a.a.a.a.a.a.a.a.a.a.a.a.a.a.a.a.",
"a.a.a.a.a.a.a.a.a.a.a.a.a.a.a.a.a.a.a.a.a.a.a.a.a.a.a.a.a.a.a.& < S U 8 + # $ i M s s + a.a.a.a.a.a.a.a.a.a.a.a.a.a.a.a.a.a.a.a.a.a.a.a.a.a.a.a.a.a.a.",
"a.a.a.a.a.a.a.a.a.a.a.a.a.a.a.a.a.a.a.a.a.a.a.a.a.a.a.a.a.a.a.# O + + & # a.# & & $ + & a.a.a.a.a.a.a.a.a.a.a.a.a.a.a.a.a.a.a.a.a.a.a.a.a.a.a.a.a.a.a.",
"a.a.a.a.a.a.a.a.a.a.a.a.a.a.a.a.a.a.a.a.a.a.a.a.a.a.a.a.a.a.a.# # # # # # a.& + # & # # a.a.a.a.a.a.a.a.a.a.a.a.a.a.a.a.a.a.a.a.a.a.a.a.a.a.a.a.a.a.a.",
"a.a.a.a.a.a.a.a.a.a.a.a.a.a.a.a.a.a.a.a.a.a.a.a.a.a.a.a.a.a.a.a.a.# $ a.a.a.a.a.a.a.a.a.a.a.a.a.a.a.a.a.a.a.a.a.a.a.a.a.a.a.a.a.a.a.a.a.a.a.a.a.a.a.a.",
"a.a.a.a.a.a.a.a.a.a.a.a.a.a.a.a.a.a.a.a.a.a.a.a.a.a.a.a.a.a.a.a.a.a.a.a.a.a.a.a.a.a.a.a.a.a.a.a.a.a.a.a.a.a.a.a.a.a.a.a.a.a.a.a.a.a.a.a.a.a.a.a.a.a.a.",
"a.a.a.a.a.a.a.a.a.a.a.a.a.a.a.a.a.a.a.a.a.a.a.a.a.a.a.a.a.a.a.a.a.a.a.a.a.a.a.a.a.a.a.a.a.a.a.a.a.a.a.a.a.a.a.a.a.a.a.a.a.a.a.a.a.a.a.a.a.a.a.a.a.a.a.",
"a.a.a.a.a.a.a.a.a.a.a.a.a.a.a.a.a.a.a.a.a.a.a.a.a.a.a.a.a.a.a.a.a.a.a.a.a.a.a.a.a.a.a.a.a.a.a.a.a.a.a.a.a.a.a.a.a.a.a.a.a.a.a.a.a.a.a.a.a.a.a.a.a.a.a.",
"a.a.a.a.a.a.a.a.a.a.a.a.a.a.a.a.a.a.a.a.a.a.a.a.a.a.a.a.a.a.a.a.a.a.a.a.a.a.a.a.a.a.a.a.a.a.a.a.a.a.a.a.a.a.a.a.a.a.a.a.a.a.a.a.a.a.a.a.a.a.a.a.a.a.a.",
"a.a.a.a.a.a.a.a.a.a.a.a.a.a.a.a.a.a.a.a.a.a.a.a.a.a.a.a.a.a.a.a.a.a.a.a.a.a.a.a.a.a.a.a.a.a.a.a.a.a.a.a.a.a.a.a.a.a.a.a.a.a.a.a.a.a.a.a.a.a.a.a.a.a.a.",
"a.a.a.a.a.a.a.a.a.a.a.a.a.a.a.a.a.a.a.a.a.a.a.a.a.a.a.a.a.a.a.a.a.a.a.a.a.a.a.a.a.a.a.a.a.a.a.a.a.a.a.a.a.a.a.a.a.a.a.a.a.a.a.a.a.a.a.a.a.a.a.a.a.a.a.",
"a.a.a.a.a.a.a.a.a.a.a.a.a.a.a.a.a.a.a.a.a.a.a.a.a.a.a.a.a.a.a.a.a.a.a.a.a.a.a.a.a.a.a.a.a.a.a.a.a.a.a.a.a.a.a.a.a.a.a.a.a.a.a.a.a.a.a.a.a.a.a.a.a.a.a.",
"a.a.a.a.a.a.a.a.a.a.a.a.a.a.a.a.a.a.a.a.a.a.a.a.a.a.a.a.a.a.a.a.a.a.a.a.a.a.a.a.a.a.a.a.a.a.a.a.a.a.a.a.a.a.a.a.a.a.a.a.a.a.a.a.a.a.a.a.a.a.a.a.a.a.a.",
"a.a.a.a.a.a.a.a.a.a.a.a.a.a.a.a.a.a.a.a.a.a.a.a.a.a.a.a.a.a.a.a.a.a.a.a.a.a.a.a.a.a.a.a.a.a.a.a.a.a.a.a.a.a.a.a.a.a.a.a.a.a.a.a.a.a.a.a.a.a.a.a.a.a.a.",
"a.a.a.a.a.a.a.a.a.a.a.a.a.a.a.a.a.a.a.a.a.a.a.a.a.a.a.a.a.a.a.a.a.a.a.a.a.a.a.a.a.a.a.a.a.a.a.a.a.a.a.a.a.a.a.a.a.a.a.a.a.a.a.a.a.a.a.a.a.a.a.a.a.a.a.",
"a.a.a.a.a.a.a.a.a.a.a.a.a.a.a.a.a.a.a.a.a.a.a.a.a.a.a.a.a.a.a.a.a.a.a.a.a.a.a.a.a.a.a.a.a.a.a.a.a.a.a.a.a.a.a.a.a.a.a.a.a.a.a.a.a.a.a.a.a.a.a.a.a.a.a.",
"a.a.a.a.a.a.a.a.a.a.a.a.a.a.a.a.a.a.a.a.a.a.a.a.a.a.a.a.a.a.a.a.a.a.a.a.a.a.a.a.a.a.a.a.a.a.a.a.a.a.a.a.a.a.a.a.a.a.a.a.a.a.a.a.a.a.a.a.a.a.a.a.a.a.a."
};
