/* XPM */
static char *result[] = {
/* columns rows colors chars-per-pixel */
"75 75 122 2 ",
"   c #030304",
".  c #0A0707",
"X  c #0B0A07",
"o  c #070708",
"O  c #080709",
"+  c #0D0C0C",
"@  c #100F0F",
"#  c #12110F",
"$  c #0E0E10",
"%  c #100F12",
"&  c #141314",
"*  c #181717",
"=  c #191916",
"-  c #161619",
";  c #18171A",
":  c #17191A",
">  c #1C1B1C",
",  c #201F1E",
"<  c #21201E",
"1  c #1E1E21",
"2  c #201F21",
"3  c #1F2022",
"4  c #232324",
"5  c #282626",
"6  c #292827",
"7  c #262629",
"8  c #28272A",
"9  c #27282A",
"0  c #2B2B2C",
"q  c #302F2D",
"w  c #31312F",
"e  c #2E2E31",
"r  c #302F32",
"t  c #2F3033",
"y  c #333334",
"u  c #383735",
"i  c #373836",
"p  c #3A3936",
"a  c #363639",
"s  c #383739",
"d  c #37383B",
"f  c #3C3C3C",
"g  c #413E3D",
"h  c #3F403E",
"j  c #42413E",
"k  c #48453F",
"l  c #3E3E41",
"z  c #413F41",
"x  c #3F4043",
"c  c #444343",
"v  c #494644",
"b  c #474846",
"n  c #4B4946",
"m  c #464549",
"M  c #494749",
"N  c #47494A",
"B  c #4C4B4B",
"V  c #504C47",
"C  c #514E4C",
"Z  c #53514E",
"A  c #58554F",
"S  c #474550",
"D  c #4D4D51",
"F  c #514F52",
"G  c #4E5054",
"H  c #545353",
"J  c #595655",
"K  c #5B5855",
"L  c #55545A",
"P  c #59575A",
"I  c #5C5A5B",
"U  c #615C57",
"Y  c #615D5D",
"T  c #63625E",
"R  c #5C5B62",
"E  c #5E5D69",
"W  c #615E63",
"Q  c #605F6A",
"!  c #656164",
"~  c #6A6566",
"^  c #6E6A66",
"/  c #65626A",
"(  c #6A666B",
")  c #6D6A6D",
"_  c #716C6D",
"`  c #656471",
"'  c #696774",
"]  c #6C6B74",
"[  c #6C6C7A",
"{  c #716D73",
"}  c #716E7A",
"|  c #727075",
" . c #7A7477",
".. c #75727C",
"X. c #7B757B",
"o. c #7E787C",
"O. c #827B7E",
"+. c #757484",
"@. c #7C7781",
"#. c #7C7985",
"$. c #7C7A8B",
"%. c #847E85",
"&. c #837E89",
"*. c #868184",
"=. c #8B8287",
"-. c #85828D",
";. c #8B848C",
":. c #91888B",
">. c #828195",
",. c #8E8992",
"<. c #8E8A9A",
"1. c #958F97",
"2. c #988F90",
"3. c #96909D",
"4. c #9A939A",
"5. c #A09597",
"6. c #A69A9D",
"7. c #8E8CA6",
"8. c #9C95A2",
"9. c #9D96AB",
"0. c #A39BA5",
"q. c #AA9FA3",
/* pixels */
"] [ ] ( $.>.c e & N +.$.$.S [ <.! j H 3 0 H v v J Y L W / } &.-.,.1.8.9.m z &.` .._ W J 5 5 v Z J B v k J H n r s X.0.4.,.;.;.;.<.#.[ +.7.L q < p ` +.",
"$.+.' R E $.L 4 4 y H R z R z u f h c 4 6 H F C z Z C C B C C C B V O.0.D 3.9.3.;.^ _ H u 5 v c n H J Z Z I J u y I ~ { *.=.&.%.~ P B C R P w 4 d m d ",
"E m N N h h N i = i f r W z p v n c c 4 4 F B c n F J F C n v n B j n n y X.@.P g g V p q > n C H U I I H J c 7 f m B I J K I J c V B c c b b > a l x ",
"N N M b x B c N 4 w u ! v g M C B n c 0 4 c g v B B V B n c g g v g g & 4 u u v v g r g q > p B J I Z j a y f f f B f B P H Z H H C n c B N b w 3 d R ",
"D G B N c M B c 0 & M F s M C H C M n f 7 g g v v m n c v z g g p p 5 2 4 g v n C c u q 0 4 0 c h N H I I E C f y b c h b H H H J B C b C C h 6 $ f c ",
"G D M N c B B x 4 & u b C B Z J H C M t 7 f c c c v v z g g f g s 8 v P r p k v n V v f y 4 s n O.o.~ T B c f w t B n N b B C H C C B c B C j 5 : y b ",
"N N b b x b B x 8 > u z n H H H H C F r 2 s c g v c z j c f p r 0 F z u u u g v v n n j y 6 L >.*.^ ^ T H n n p 0 B B B c c x c b b b h N C x 6 : d f ",
"x x c c c c b x e > f f j M Z C C B M r 2 r g n f u u y u u r z W g p g f g g g j c n n 6 e x f h B V b B n B p 0 M n B N x c h h c b b h h h 4 > l l ",
"f d l m c f s y 2 , e f f g n B M c f 9 4 y u y 0 0 w w 0 4 h o.g g g g f u u g j j j j 6 6 h p g n B C F C z u 4 s B M c h h f f c n f f s 0 - < 9 s ",
"l l l c s s y 9 % > 4 e l g g z f f u 4 > r r 0 w w q 0 6 9 k w y g p u y 0 6 p p u w q > - 0 f s c c v n z V r 4 0 l f f c c f d f d s r 0 7 + > 9 0 ",
"s y e y y 9 4 1 O $ 4 7 0 0 r y u s 8 $ & 0 e 8 5 5 4 , # = > 3 8 8 2 8 0 0 0 0 4 4 4 > @ + ; q s s e 0 r y g , & < 4 9 e e e t e e e 8 2 1 -   o : 4 ",
"7 9 9 4 : > > - & & & 1 4 > > , 1 2 - $ - ; & 4 c u h c x h i 0 6 5 q u 2 * = 0 0 5 5 < = 5 5 4 4 4 7 2 , > 2 & = < > < 1 > > 4 4 4 & & 5 0 s f x e 0 ",
"8 7 1 & > f N R I E D x M G / L N c z c B s + G 9.,.] ) _ | | T Y { >.( u & u J H v p 5 g ^ v u y j f p g z M P L F c g f n J F v 0 4 8 c G R R I H D ",
"Q R l e 6 p f b m l m B H P D m B B B m c b 4 b &.H v n k h h h g B I E D 9 J 2.5.*.! L B g p f p p f f g V C V B C C C C F o.=.%.~ f 4 y y p f u d l ",
"' [ R d 4 w u s f d s f m c c c x f h x f f 0 f H N H Z G Z B N z c c B l 8 c c n H C H u p g c j j j j z v k k g g k n B V B U T J s 4 t s f f f l c ",
"v m z a > t s f f l c m m B m c l f f c f s 0 f G Z Z G G Z G B c M n B l 4 f B C B c g u p j c k k j g g v v v v V V C Z C C v j j y < y s s c x c m ",
"C c c e 4 y u f x l c m M b b l l c l l f s 7 t n C G C G Z Z Z b b B M f 4 s g F M c b f w c v c v j j g g g j k k V C Z A A Z v c q 4 y s s z f c b ",
"F z b 9 & e i s f f l c m b c x c c x l f s 7 e b H C G Z Z G B M b N M s 4 s f n M b z c 6 h j b j j h g g g g k k V V n A K C j n 0 + 9 y s f f x c ",
"n c c e & 4 9 s s s f l x x c c c l l f u u 7 y x H H B B Z G G G B n b e 1 p s f B n b b q y c k f h h g g g g g k V Z V C H v j c 0 u e 4 s u s f s ",
"l f l 6 R S - i s u s s s f l f l l f s y e 7 t i B C G G Z Z Z C B M b 9 1 s s p c N n b s > v j j j f g g g g g k V C C C V g j g 0 E Q > r u y y u ",
"f f f 6 d R 0 4 d e y u s d f d d y y i y y 4 9 u x N N B M M m b c x l e 4 s u f g z c M M > y j h j h f h p g g g v n n v v j p f 0 4 F g > r y t y ",
"l f f 9 1 r l 1 3 y e 9 t s f s a i t 0 7 1 - 9 y s c c c x c c x h f s 9 > t u u a f f z f 4 4 j f j f p p g p p g g j g p i g f f w 6 8 c 0 & w 0 9 ",
"u y y 0 8 e y y & ; e 6 6 e y s y t w w w > & 7 y s y a s i u y s d l s 3 : 4 s y 0 y r y e e & 6 y f h j p p p p g g p i i w w w 0 7 7 r e f 4 + 9 9 ",
"t 0 r 4 4 0 9 y y $ > 9 9 9 i s y y y y w i y > 0 e t e t e 0 y y a a e 4 : > 0 y y u y a 8 2 & & 9 0 q w i i u u u u p p u w w y 0 1 4 9 0 9 s 4 & 4 ",
"4 6 4 - - 4 3 4 0 0 & & > 4 7 4 4 4 0 0 7 4 > $ 1 2 e 8 0 e y e e 9 1 1 1 O & > 4 4 7 7 6 e 2 ; - 1 2 2 4 4 , > > 4 2 , , , ; , 4 = @ & 4 > 1 4 9 = $ ",
"t 9 > < < 0 t 4 - 4 t 4 9 f d 9 t s 9 > 4 y z m l l r r 6 : - > 1 P X.X.X.o.:.;.) { ( / I c g f W _ P Y H B n < 4 g P W H J F H j p j g c B f @ i L G ",
"/ D b M M B B c & c ( / R Q R G G D s 4 y / / P H I F z j w & & G R !  .;.4.6.q.%.( L F m z c n z M C C H U U u p z P ( ( ( W Y B v v v n b c = f P R ",
"N c c f f g c z 1 9 d B S R D m c m f 0 u J h h c g c g g f 5 0 B y s f c c B F D B D B M F B F F A F C B v n i u V H V V V V z v j j j c v b > 9 a x ",
"c c c c c v n b 1 0 s l L S N D D S l e d l j b n c c z p g y 4 f c D H J L H D H G F B M B F J J J J J Z Z n q p U v v C M V M n n n v B M c 1 e f d ",
"b c c c c n M f 1 7 d s m D D D G N m y l M v n n c v c g g y 4 x c N G L H J H B G B c b B D H F Z F A B v v q r C g v z g v M n v v v n n s > 9 f f ",
"c b c c g c c f 4 0 f d x S D D D N N f r c j n c v v g g g 8 > l l N B B D B B M B M l c M M B F F F C n c n r 5 k k k B F v v n v n j v k f 4 e d l ",
"x c c b f j j f 4 9 f d l m N D N B m m 8 s s f c j c c g g 4 > c f d d x m N N m m c f c b M M B z z g n j c r 5 g j j n V v v n n v j j c c 3 e l l ",
"m c c c f f f l 3 0 a l x x x x c x h x 9 0 s s g c c c g s > = f l s f x c m m c c x l c b m z s f c f j h j 0 4 h j j k n n n c n c f g j f 4 y f l ",
"c l x l d f l f 1 e a l d a l l l f p s e 4 y y u c j f g u > & f c f f c c c x z l f l c f s s s i l c c f j t 5 h j g k V n n c n c j h j s > w s f ",
"m c c m m c f s 1 e l a a a d d d f s s 0 6 r r q r s c l 9 & > i c c x c x x x l s s u 9 9 e y y y y y s f f 1 < p g k k j b B M n n H b f y 1 e d s ",
"l m m c B l s e 1 3 t a t a a i s s u s 8 4 e e 0 6 4 8 7 4 @ > y e c l x f i y e y e 9 0 e 9 0 e 9 9 6 6 y r > < j p g u w u f j j j z y y 9 1 4 i s ",
"t y a d t 7 4 7 - 1 9 t y i t t e t e i e 2 e 9 4 2 1 > 1 1 + > r 0 a s y r r e 7 7 4 4 4 8 7 4 4 4 6 0 y e 8 & , g q y u p p w q r y 7 4 3 - O 4 4 0 ",
"t 9 7 7 1 1 > &   & - 1 3 3 , 3 : 1 3 1 > & $ % - - - - & $ + & 2 7 2 7 4 4 2 > > = & & - & & 4 1 > = > > > @ X & 2 2 5 5 5 5 , 4 4 0 6 9 9 , - > > , ",
"& 1 t m N f f l s s s f B N m p g 0 O 0 O.( L D B B c z m ( ( L F C m y M H L / ' L 6 # 5 w W } } ` ! L H F C H A H Y J Y W v & 0 c I ! H H P H L I Q ",
"; a m M P G D L H L P R / ` ] ! / M 4 W _ F c c M c f g z H B c v z z l r M H ( ..P c , ( &.@.&.;.X.I I Y W ~ I W J Z Z C ! Y 2 g j f n B B C C B C C ",
"4 s s s f x B B B N b c c h k N D s 7 y r p f c b f f f h f j c z z z g s y c f g l d > C W ( ^ Y V v n C V v V C V V g g g g 5 j j j k B A K K K Z Z ",
"7 s s h c c B J H J J G Z H Z b c d 8 e f c b M b x f f c b M M m v v z s f 0 y g b d & w p z F C C Z C C C C V g g g V V V g 5 j p j v n V J J K J Z ",
"5 s s f c x c B G Z C B B H Z N m f 9 y f c N M M c f l c N B B z v n n l z f > 0 z a & y g z C H F B B V n V M g g V g k V g 5 h h j v n n Z A Z B C ",
"4 u i s h c N B C N x c b b B B m d 9 r x b B B b f u f c m B C C B B M c c c c , 2 4 ; r g g M H J F n n V v p g v g k k k z 8 p p h k n C C Z v j c ",
"4 y i s f c c b N c p f h h B B N s 7 t h c N M c s y c c B M M B B Z B n n c f s > > ; q g z M c M F C n n V C V k k k g k g 5 p h j k v n B B k j j ",
"7 9 f f s h c x c h h h h h j N c s 9 y h c c c f y s g v B c n M C C B B M M f f 0 ; & 0 f z n c c c B C M B n k g g g g k z 2 < h p p j k n v j v k ",
"1 % 6 s s i h x c h x c h h h c m s 0 t s f h l f 9 p g c v c c M c n M M b c f f e 9 ; q g v z c v v v V V V k g v g g k k g , 5 y h h h j v v v c c ",
"3 l f x x f f h c x h f h i f x h s 4 0 s i s f u 4 i f j c c g n c c c b b f f f s 8 > q g z g z c c c z v v g V g k g g v p 8 n j j k k j k c c c j ",
"9 s i i h x h f h x h f f f h f u f 4 7 y u y s 4 4 s s g g f f c c z z z f f d s s 8 > u p f f g z v g k c j j k j g k v j q 6 p p j k v j j c v c j ",
"7 i s s d x h h f s x f f f h f s 0 > 4 9 6 y e - e p s f z g f s p f f z f f s r a 8 = q u g f f f g g j c f w w p f u y q q q h j h h j k h f p f h ",
"1 7 a s d a d d t 0 9 0 t y y y r ; % 4 7 4 4 : > 3 6 e 8 2 0 8 0 e 0 e 0 0 5 7 2 7 , + 5 w w q 0 q q q 0 0 0 0 q 5 4 5 5 0 5 @ 9 y y y i t t 0 6 4 6 ",
"- 3 9 e t 9 9 e 9 4 9 9 > > 3 1 > - & 2 4 4 > $ & & 4 7 a S l z z 0 > - 2 a y q f l w 2 , u c y f m z f y e p 5 = u c f u 4 g f s a f h s p s f l B x ",
"G m d x N D N x D R ` Q 0 & 5 s G E ` } L B l - 6 J { Y ( X.%.X.W M u ; p C K A I Y K V k T ~ W ~ ! ! T Y U C p 5 M I B c s s B h h c N G G N P +...] ",
"s s a a d x x d l R E L f 4 6 w z D P Q [ [ D 9 0 =.D D C C C W ] } L 0 g C n v z n v v n v k V C H A V V j p u 6 f f j g c w f h h c x h h h h B B f ",
"t d h x x x l d d d x t i 4 4 y l z c l c s c e y H f B F F M z H W P 0 p k n V C A A C V n n V C Z V B k j g u 4 j x h j c f p k c c x c c c j b c i ",
"t a d x x x l x x x l a d 7 6 i c m N B m c S 7 y y f c z v v v v p g 5 q g v n V H K A V n V C V C V n v k j w 4 g f p h p f i h h x b b b b j c f f ",
"t t t l l l l x l a a a d 3 9 s l s c b b c x e i i f f c b b c z z g 4 u g g k Z A A J C V V V Z V V V v k v i 8 g f f f f f y t f f f h h h f s g p ",
"d 3 t t e a t t t t a d a 1 9 a c c x x f f t 4 a i u s s s s s r s f 4 q g j A Z Z Z A Z n k n V V n k k k k w 8 g f f l f f p 6 u u y i i w s s p g ",
"t 9 3 l e t a 9 t a t d t 3 6 s x f d a s s 9 4 i e t u u i s u u r u 5 q g g k C C n V n j g k n n k j j g g w 8 f f c h f p p w 4 s y i p s i s u g ",
"t t 3 3 9 9 e a t a t a d 3 4 t d s s u a s 1 7 y e y y y t y y y y r 5 5 g g j C v g g g p p u u i p p g g g w , q p z f f p i y 4 4 9 6 w i i u p g ",
"t t 9 : 7 3 7 9 e e r r t 4 3 4 8 s s s a s - 4 t e t y r r r y r r 0 2 < p g k j f g f u 0 u y w u u i g g f y , 5 y s i i y w r r > 6 5 5 0 q q y q ",
"9 9 9 1 & 1 1 1 7 7 4 2 7 > & 3 2 8 e y e 7 $ % 1 > > 9 r r r 0 r 0 0 1 = w g g r u y y 8 4 q 9 q q q 0 0 0 w 4 . - 4 7 4 4 6 4 1 1 % O + > > 8 0 , , ",
"3 3 : 1 > + & & - : 1 7 > % + = > , 2 4 1 > % % > 1 > > , 2 > = ; > , % + = < , & * ; 1 > 0 4 4 4 6 6 y g r q 0 y m b f f s f l l z D M y < = X > c B ",
"R R ` ' [ R x 0 + > / } H n M j g b c B F B L ( W H H k 5 . C %.X.J B F V v p 6 ; @ f B H W L H D Z H J L H F L W W R L I I W ( ] [ } @.| I f @ m X.{ ",
"G L E R ` +.E E 3 i ] / Z B C B n C Z T ! I ( ......{ W f 6 c B K U Y J Z c u u q , B B B G G G H H Z Z B N b C B G J H J P J G J J P ( o.X. .3 g Y U ",
"G G G x G ` +.+.a , b Z C Z C C B C B B f p c b b B c g u e r 5 0 q s s u p g p r 5 c n Z G G H G Z G Z G Z Z Z Z P J H J H J H G N C Z ~ o.( , w Z A ",
"x x l l x x S x 3 < j H H H H H J H H c j j h h f f p g g 0 q q w p p g g g f p e 6 M B H J P J Z Z B B G B C G H J I J Z Z B x c b c N v b i : u Z U ",
"x l l l x l l l 4 4 h C Z Z Z H J J N h c c c c c f p f x y 6 q w w w p f p g p 0 4 M B C Z G B B B N N B B B B C C C B N B N b h b k n B c x < w V U ",
"l d l d l x x l 4 4 h c N N S x N B c h c c n C v j g j f 4 6 w w u w u g g p p 0 4 c c m b M M N b M N B B b N B M B M f n B c j k j B b b h : u V Z ",
"l d l l l l l l 4 3 h h N D x x b c h h h v n b n j f f p 4 q w w w u w u v j g 9 6 c x b b b M B B M m b N b b N c N B c b B M c j g c v j f , q V Z ",
"l l l t d l d d 4 > f j N N l l h h h h j c n n n j h f j 6 q w w w w u q u k f 4 4 c l c c M M b M B B B m b b b c M N m B B M b f h c x h p , 5 V C ",
"S l x 9 l d d d 3 = i c B b l l h h c h j c b b b b c j h 6 6 y w w u w u w w u 6 9 c l b b m M b B B m m m c l h c c c b B B M n n y v h h a - 5 V A ",
"x S x t t d d d : : l l l l l l s f c l c c c f f c c f s 4 9 w y w w w w i w q e 9 l l c c m c b N c c l f f f f f h x x b b N n n u r c s t & 4 A v ",
"l d d l 3 t t d : : l l t l l t i s l d s s u y y y t u e 1 6 6 y u u u u u y q 9 4 e y y y s a s f l d f s s f f s s i u y u f f f f > 0 s y & 5 j u ",
"t t t d 9 : 9 t - - t l t t t l l l l l d t e e e y e y 4 > 0 0 0 s y r u u y q 7 & 1 e e e e 9 e e y d s y y e w y y t t i i y y s s > - 7 4 & , q f "
};
