/* XPM */
static char *result[] = {
/* columns rows colors chars-per-pixel */
"75 75 238 2 ",
"   c #2F1B01",
".  c #2D1A05",
"X  c #331D01",
"o  c #3A1C02",
"O  c #361905",
"+  c #352402",
"@  c #3A2301",
"#  c #3D2A03",
"$  c #362309",
"%  c #3C230A",
"&  c #3B2C0B",
"*  c #332F03",
"=  c #39300C",
"-  c #3A2E13",
";  c #382812",
":  c #3B3312",
">  c #2E2210",
",  c #432B03",
"<  c #4C2C04",
"1  c #452908",
"2  c #532D07",
"3  c #4A340B",
"4  c #47340A",
"5  c #52330A",
"6  c #5A3907",
"7  c #432E19",
"8  c #443414",
"9  c #473717",
"0  c #543C16",
"q  c #663B0B",
"w  c #69380E",
"e  c #59410C",
"r  c #5A4213",
"t  c #53421B",
"y  c #5E451D",
"u  c #754C0E",
"i  c #76470D",
"p  c #684B17",
"a  c #754B11",
"s  c #784813",
"d  c #77521A",
"f  c #6F4C0D",
"g  c #5B4C20",
"h  c #6A4B24",
"j  c #6B5323",
"k  c #775B28",
"l  c #75522C",
"z  c #7C6438",
"x  c #7D632C",
"c  c #8D5B0A",
"v  c #885718",
"b  c #8C5312",
"n  c #896014",
"m  c #A7661A",
"M  c #A8741C",
"N  c #B37219",
"B  c #8A5621",
"V  c #945E22",
"C  c #83642B",
"Z  c #9E6926",
"A  c #94742E",
"S  c #9D7527",
"D  c #876D33",
"F  c #8A7437",
"G  c #917432",
"H  c #977836",
"J  c #89712F",
"K  c #A36B27",
"L  c #AA7323",
"P  c #A6762A",
"I  c #B8792A",
"U  c #A97B32",
"Y  c #C87815",
"T  c #C0732D",
"R  c #89724A",
"E  c #B98D1C",
"W  c #99823E",
"Q  c #AB832C",
"!  c #BA862B",
"~  c #A8843E",
"^  c #B98B34",
"/  c #DB871A",
"(  c #DD9817",
")  c #CC8D0E",
"_  c #E68B01",
"`  c #EC8B02",
"'  c #E78C08",
"]  c #F08E01",
"[  c #F38501",
"{  c #E59302",
"}  c #EC9303",
"|  c #E5910A",
" . c #EB930C",
".. c #EE9B0C",
"X. c #ED9C07",
"o. c #F39C0C",
"O. c #F19808",
"+. c #E88B17",
"@. c #E79716",
"#. c #F59E14",
"$. c #F79B16",
"%. c #F48E18",
"&. c #EDA20B",
"*. c #FCAC06",
"=. c #F4A40D",
"-. c #FAA60E",
";. c #F5AB0B",
":. c #FCAC0D",
">. c #F5AA04",
",. c #FCB20C",
"<. c #FBB807",
"1. c #EBA215",
"2. c #EBA81C",
"3. c #F3A213",
"4. c #FAA513",
"5. c #F6AB14",
"6. c #FCAC14",
"7. c #FBA31B",
"8. c #F5AC1C",
"9. c #FBAB1C",
"0. c #F5A61B",
"q. c #FCB214",
"w. c #FDBB14",
"e. c #FDB51D",
"r. c #FCBA1D",
"t. c #F6B719",
"y. c #EFB212",
"u. c #C68828",
"i. c #D88A2C",
"p. c #D79927",
"a. c #C79638",
"s. c #D79935",
"d. c #D08831",
"f. c #EA8B21",
"g. c #E29B24",
"h. c #E19D2A",
"j. c #E79721",
"k. c #F08F20",
"l. c #DAA637",
"z. c #DEA92B",
"x. c #E5A52C",
"c. c #E7A929",
"v. c #F2AD23",
"b. c #FBAC24",
"n. c #F6A92B",
"m. c #EEBD27",
"M. c #F6B424",
"N. c #FDB523",
"B. c #F5BB24",
"V. c #FDBB23",
"C. c #F5B42C",
"Z. c #FCB52B",
"A. c #F5BC2C",
"S. c #FCBB2B",
"D. c #E7A532",
"F. c #E8AA38",
"G. c #F5BD32",
"H. c #FBBD33",
"J. c #F5BD3C",
"K. c #FBBD3D",
"L. c #F7B439",
"P. c #F1B338",
"I. c #FAC01C",
"U. c #EFC32C",
"Y. c #F8C12A",
"T. c #F4C235",
"R. c #FAC134",
"E. c #F5C33C",
"W. c #FAC33C",
"Q. c #FCC83F",
"!. c #9E8548",
"~. c #A88B48",
"^. c #AC934A",
"/. c #B7974B",
"(. c #A78B52",
"). c #A89253",
"_. c #B89B53",
"`. c #BBA357",
"'. c #AE9565",
"]. c #B69F64",
"[. c #B6A066",
"{. c #BEA573",
"}. c #CA9542",
"|. c #D3AD4F",
" X c #E9B749",
".X c #F4B944",
"XX c #F4B94A",
"oX c #F8B946",
"OX c #C2A962",
"+X c #D7BA66",
"@X c #CEB370",
"#X c #E2BC67",
"$X c #F6C344",
"%X c #FAC445",
"&X c #F5C843",
"*X c #FBCA44",
"=X c #FAC34B",
"-X c #FBCB4C",
";X c #F3C64A",
":X c #FCD14E",
">X c #EBC156",
",X c #F6C351",
"<X c #FBCD53",
"1X c #FBCD5A",
"2X c #F8C554",
"3X c #FCD153",
"4X c #FDD35C",
"5X c #FAD559",
"6X c #DEC171",
"7X c #E3C464",
"8X c #E4C46A",
"9X c #E6C967",
"0X c #F7CB65",
"qX c #FDD464",
"wX c #FCD965",
"eX c #FDD56A",
"rX c #FEDB6D",
"tX c #F5D36D",
"yX c #E5C775",
"uX c #FDDB74",
"iX c #FAD579",
"pX c #FEDC7C",
"aX c #F8D477",
"sX c #FFE47C",
"dX c #C9B384",
"fX c #E4C78C",
"gX c #FCDC85",
"hX c #EDD199",
"jX c #FBDD9B",
"kX c #F9DC94",
"lX c #EBD38B",
"zX c #FFE483",
"xX c #FDE39B",
"cX c #FBE198",
"vX c #F3DAA7",
"bX c #FEE6A4",
"nX c #FFEFB4",
"mX c None",
/* pixels */
"mXmXmXmXmXmXmXmXmXmXmXmXmXmXmXmXmXmXmXmXmXmXmXmXmXmXmXmXmXmXmXmXmXmXmXmXmXmXmXmXmXmXmXmXmXmXmXmXmXmXmXmXmXmXmXmXmXmXmXmXmXmXmXmXmXmXmXmXmXmXmXmXmXmXmX",
"mXmXmXmXmXmXmXmXmXmXmXmXmXmXmXmXmXmXmXmXmXmXmXmXmXmXmXmXmXmXmXmXmXmXmXmXmXmXmXmXmXmXmXmXmXmXmXmXmXmXmXmXmXmXmXmXmXmXmXmXmXmXmXmXmXmXmXmXmXmXmXmXmXmXmX",
"mXmXmXmXmXmXmXmXmXmXmXmXmXmXmXmXmXmXmXmXmXmXmXmXmXmXmXmXmXmXmXmXmXmXmXmXmXmXmXmXmXmXmXmXmXmXmXmXmXmXmXmXmXmXmXmXmXmXmXmXmXmXmXmXmXmXmXmXmXmXmXmXmXmXmX",
"mXmXmXmXmXmXmXmXmXmXmXmXmXmXmXmXmXmXmXmXmXmXmXmXmXmXmXmXmXmXmXmXmXmXmXmXmXmXmXmXmXmXmXmXmXmXmXmXmXmXmXmXmXmXmXmXmXmXmXmXmXmXmXmXmXmXmXmXmXmXmXmXmXmXmX",
"mXmXmXmXmXmXmXmXmXmXmXmXmXmXmXmXmXmXmXmXmXmXmXmXmXmXmXmXmXmXmXmXmXmXmXmXmXmXmXmXmXmXmXmXmXmXmXmXmXmXmXmXmXmXmXmXmXmXmXmXmXmXmXmXmXmXmXmXmXmXmXmXmXmXmX",
"mXmXmXmXmXmXmXmXmXmXmXmXmXmXmXmXmXmXmXmXmXmXmXmXmXmXmXmXmXmXmXmXmXmXmXmXmXmXmXmXmXmXmXmXmXmXmXmXmXmXmXmXmXmXmXmXmXmXmXmXmXmXmXmXmXmXmXmXmXmXmXmXmXmXmX",
"mXmXmXmXmXmXmXmXmXmXmXmXmXmXmXmXmXmXmXmXmXmXmXmXmXmXmXmXmXmXmXmXmXmXmXmXmXmXmXmXmXmXmXmXmXmXmXmXmXmXmXmXmXmXmXmXmXmXmXmXmXmXmXmXmXmXmXmXmXmXmXmXmXmXmX",
"mXmXmXmXmXmXmXmXmXmXmXmXmXmXmXmXmXmXmXmXmXmXmXmXmXmXmXmXmXmXmXmXmXmXmXmXmXmXmXmXmXmXmXmXmXmXmXmXmXmXmXmXmXmXmXmXmXmXmXmXmXmXmXmXmXmXmXmXmXmXmXmXmXmXmX",
"mXmXmXmXmXmXmXmXmXmXmXmXmXmXmXmXmXmXmXmXmXmXmXmXmXmXmXmXmXmXmXmXmXmXmXmXmXmXmXmXmXmXmXmXmXmXmXmXmXmXmXmXmXmXmXmXmXmXmXmXmXmXmXmXmXmXmXmXmXmXmXmXmXmXmX",
"mXmXmXmXmXmXmXmXmXmXmXmXmXmXmXmXmXmXmXmXmXmXmXmXmXmXmXmXmXmXmXmXmXmXmXmXmXmXmXmXmXmXmXmXmXmXmXmXmXmXmXmXmXmXmXmXmXmXmXmXmXmXmXmXmXmXmXmXmXmXmXmXmXmXmX",
"mXmXmXmXmXmXmXmXmXmXmXmXmXmXmXmXmXmXmXmXmXmXmXmXmXmXmXmXmXmXmXmXmXmXmXmXmXmXmXmXmXmXmXmXmXmXmXmXmXmXmXmXmXmXmXmXmXmXmXmXmXmXmXmXmXmXmXmXmXmXmXmXmXmXmX",
"mXmXmXmXmXmXmXmXmXmXmXmXmXmXmXmXmXmXmXmXmXmXmXmXmXmXmXmXmXmXmXmXmXmXmXmXmXmXmXmXmXmXmXmXmXmXmXmXmXmXmXmXmXmXmXmXmXmXmXmXmXmXmXmXmXmXmXmXmXmXmXmXmXmXmX",
"mXmXmXmXmXmXmXmXmXmXmXmXmXmXmXmXmXmXmXmXmXmXmXmXmXmXmXmXmXmXmXmXmXmXmXmXmXmXmXmXmXmXmXmXmXmXmXmXmXmXmXmXmXmXmXmXmXmXmXmXmXmXmXmXmXmXmXmXmXmXmXmXmXmXmX",
"mXmXmXmXmXmXmXmXmXmXmXmXmXmXmXmXmXmXmXmXmXmXmXmXmXmXmXmXmXmXmXmXmXmXmXmXmXmXmXmXmXmXmXmXmXmXmXmXmXmXmXmXmXmXmXmXmXmXmXmXmXmXmXmXmXmXmXmXmXmXmXmXmXmXmX",
"mXmXmXmXmXmXmXmXmXmXmXmXmXmXmXmXmXmXmXmXmXmXmXmXmXmXmXmXmXmXmXmXmXmXmXmXmXmXmXmXmXmXmXmXmXmXmXmXmXmXmXmXmXmXmXmXmXmXmXmXmXmXmXmXmXmXmXmXmXmXmXmXmXmXmX",
"mXmXmXmXmXmXmXmXmXmXmXmXmXmXmXmXmXmXmXmXmXmXmXmXmXmXmXmXmXmXmXmXmXmXmXmX= & : = - - - - - - - mXmXmXmXmXmXmXmXmXmXmXmXmXmXmXmXmXmXmXmXmXmXmXmXmXmXmXmX",
"mXmXmXmXmXmXmXmXmXmXmXmXmXmXmXmXmXmXmXmXmXmXmXmXmXmXmXmXt 8 4 & % ; 3 4 3 3 4 4 3 4 3 3 3 3 3 3 3 4 t mXmXmXmXmXmXmXmXmXmXmXmXmXmXmXmXmXmXmXmXmXmXmXmX",
"mXmXmXmXmXmXmXmXmXmXmXmXmXmXmXmXmXmXmXmXmXmXmXmXmXmX> 8 dXvXdX8 . p +X8X#XyX8X9X8X8X7X7X7X7X7X8X8XyXOX0 > mXmXmXmXmXmXmXmXmXmXmXmXmXmXmXmXmXmXmXmXmXmX",
"mXmXmXmXmXmXmXmXmXmXmXmXmXmXmXmXmXmXmXmXmXmXmXmXmXR z z '.@X'.z k H aXeXqX3X<X3X3X4XeXrXeXeX4X1X1XqX Xn a k mXmXmXmXmXmXmXmXmXmXmXmXmXmXmXmXmXmXmXmXmX",
"mXmXmXmXmXmXmXmXmXmXmXmXmXmXmXmXmXmXmXmXmXmXmX$ % {.nXhXy X 3 6XsXeXaXeX-XB.B.B.B.m.-XqX4X%XA.r.w.V.r.,.A.^ 2 % mXmXmXmXmXmXmXmXmXmXmXmXmXmXmXmXmXmXmX",
"mXmXmXmXmXmXmXmXmXmXmXmXmXmXmXmXmXmXmXmXmX9 !.).^.8XzXlXy   e #XwX5X&X$XT.r.B.W.<X-X-X&XW.Y.V.N.t.t.,.,.V.a.1 + mXmXmXmXmXmXmXmXmXmXmXmXmXmXmXmXmXmXmX",
"mXmXmXmXmXmXmXmXmXmXmXmXmXmXmXmXmXmXmXmX9 4 ).zXuX9X9X+Xj 4 a #XtX-XB.r.t.Y.A.-XqX4X$XB.r.r.r.N.b.0.5.V.Y.a.6 3 h mXmXmXmXmXmXmXmXmXmXmXmXmXmXmXmXmXmX",
"mXmXmXmXmXmXmXmXmXmXmXmXmXmXmXmXmX. X J 6X7XtXsXiXx , r [.yX>XU.Y.B.r.V.W.4XqX<XT.R.S.V.V.r.V.S.S.N.r.A.V.P.s.l.S % > mXmXmXmXmXmXmXmXmXmXmXmXmXmXmXmX",
"mXmXmXmXmXmXmXmXmXmXmXmXmXmXmXmXmXz j ^.zXaX+X_.`.D j k  XwX*Xr.V.V.T.E.%X$X.XA.5.5.9.t.N.8.b.t.V.r.V.S.V.N.q.,.) s j mXmXmXmXmXmXmXmXmXmXmXmXmXmXmXmX",
"mXmXmXmXmXmXmXmXmXmXmXmXmXmX- + z jXxXjXjXjXz + , `.sX4XA.m.A.Z.C.E.5XwX%X| ' _ ` ` ` ` ` _ { } N.S.S.V.w.w.V.V.Z.n.P.K , = mXmXmXmXmXmXmXmXmXmXmXmXmX",
"mXmXmXmXmXmXmXmXmXmXmXmXmXmX; X z jXcXcXxXbXR   # `.uX:XW.t.B.*X-XXXF.F.n.$.$.$.$.$.$.o.=.o.o.#.3.#.=.r.V.S.S.I.N.t.S.M @ ; mXmXmXmXmXmXmXmXmXmXmXmXmX",
"mXmXmXmXmXmXmXmXmXmXmXmXmXmX9 , D jXjXkXlXhXR 1 e `.rX1X=XG.T.1X4X=X| _ O.6.*.:.6.:.*.*.*.:.9.7.} ` X.b.L.Z.<.<.V.A.$XP 2 9 mXmXmXmXmXmXmXmXmXmXmXmXmX",
"mXmXmXmXmXmXmXmXmXmXmXmX= z @X+X7XiXgX(.0 y ~.@X+X XA.G.1X5X2Xx.( @.7.4.6.N.w.t.N.N.r.w.w.r.e.N.-.>.$. .{ &.r.Y.W.<X0XP.p.a.C # 8 mXmXmXmXmXmXmXmXmXmX",
"mXmXmXmXmXmXmXmXmXmXmX: + j iXuXeXqXsXW X + ).sX5XQ.Y.T.;X,XoX..{ o.9.q.t.r.B.V.V.N.V.V.V.V.V.V.q.,.9.} ] o.b.c.J.qXeX=X9.Z.v @ 7 mXmXmXmXmXmXmXmXmXmX",
"mXmXmXmXmXmXmXmXmXmXmX=   h yXrXeXuXsXR O o ~ uX1XwXeX3Xg.' ] 4.9.9.V.V.V.V.V.V.r.V.V.V.r.V.V.V.r.r.N.9.b.7.` { c.qXeX$X=.v.v O 7 mXmXmXmXmXmXmXmXmXmX",
"mXmXmXmXmXmXmXmXmXmXl (.~./.tXpX+XD D H (.~.+XuXtX<XQ.J.@.` ] 4.6.6.V.V.V.V.V.V.V.V.N.q.t.V.V.V.V.V.r.5.9.$.` _ v.%X&XA.9.t.) S P k mXmXmXmXmXmXmXmXmX",
"mXmXmXmXmXmXmXmXmX+ r 8XsXeXqXuX^.o O G sXrXeXqX1XJ.t.b.@.} O.4.6.6.V.V.V.V.V.V.r.N.t.;.6.e.V.V.V.V.V.y.v.v. .| 1.Z.e.w.V.N.t.M.F.u # - mXmXmXmXmXmXmX",
"mXmXmXmXmXmXmXmXmX$ r +XeXeXqXuX/.1 @ G uX0X=XH.S.1. . .=.-.-.e.N.r.V.V.V.V.V.V.I.V.V.r.r.r.r.r.r.N.R.-X3X1X1X1XP.@. .5.S.S.6.:.D.u @ = mXmXmXmXmXmXmX",
"mXmXmXmXmXmXmXmXmX$ r #XgXaXaXzX_.1 o G uXqX,XA.V...` ` -.6.:.N.V.V.r.V.V.V.V.V.V.V.V.V.V.N.V.V.S.W.&X5XqXqXeXrX.X' ` 3.A.V.:.:.D.u @ = mXmXmXmXmXmXmX",
"mXmXmXmXmXmXmXmXmX$ r fXkXkXkXxX[.# X A sXqX=XZ.N...[ ] -.6.6.q.V.r.V.V.V.V.Y.r.V.V.V.V.V.V.Z.H.<XwXwX5XqXwXeXwXXX| ` 3.S.V.,.:.D.u + = mXmXmXmXmXmXmX",
"mXmXmXmXmXmXmXmX9 + y fXxXjXjXbX[.# X A uXqX=XV.N.#.] ] -.4.6.e.r.V.V.V.V.V.V.r.r.V.N.V.S.K.%X-XqXeXwX-X&X<XqXeX.X| ` 3.S.S.,.4.D.u # = mXmXmXmXmXmXmX",
"mXmXmXmXmXmXmXmX9 * t fXxXjXjXbX[.# X A uXqX$XM.r...` ] -.6.6.r.r.V.V.V.V.V.Y.r.r.r.V.S.H.-XqXqXtXqX:XU.B.E.qXqXXX .` 3.S.S.6.:.D.u + = mXmXmXmXmXmXmX",
"mXmXmXmXmXmXmXmX: $ t fXbXjXxXbX].# @ A uXqX=XM.r...` ` -.6.4.N.V.V.r.V.I.V.V.r.t.A.*X<X1XqXwXqX;XT.R.S.N.W.4XeXXX| ] 3.S.V.6.*.D.a @ = mXmXmXmXmXmXmX",
"mXmXmXmXmXmXmXmX9 + y #XgXuXuXpX_.@ + A uXtX$XM.t.#.` ` -.6.6.N.V.V.r.r.V.V.V.Y.Y.E.3XeXeXqX1X<XH.V.S.N.t.J.4XeXXX' ] #.V.S.6.*.c.s + = mXmXmXmXmXmXmX",
"mXmXmXmXmXmXmXmX7 @ 6 |.K.G.A.W.Q , + A pXqX%XN.N.O.` } -.4.6.N.V.r.r.V.V.V.S.%XqXqXqXqX4X%XA.V.w.V.V.5.;.A.4XeXXX| ] #.S.V.q.*.c.u + = mXmXmXmXmXmXmX",
"mXmXmXmXmXmXmXmX9 $ q l.Y.V.r.H.! , + A uX4X$XN.N..._ ` 4.6.6.e.V.V.V.V.R.*X%X5XqXqX<X-X=XH.S.V.r.V.N.e.t.H.qXeX.X' ] 3.S.N.6.*.x.a @ = mXmXmXmXmXmXmX",
"mXmXmXmXmXmXmXmXmX$ 6 x.H.V.w.Y.! , + G uXqX=XM.V...[ } -.6.6.r.V.r.A.G.$XqXqXeXqXqX$XA.V.r.w.w.w.V.S.S.N.E.4XeX.X| ` 3.V.S.6.*.x.a + = mXmXmXmXmXmXmX",
"mXmXmXmXmXmXmXmXmX+ e l.Y.r.w.V.! , + A uX4X$XZ.N.o.[  .4.:.:.r.V.R.*X<X4XqXtX1XE.W.S.V.r.r.V.V.V.r.V.r.V.T.4XeXXX+.` &.V.V.q.6.D.a + = mXmXmXmXmXmXmX",
"mXmXmXmXmXmXmXmXmX$ 6 x.V.V.w.Y.E , + F iX4X;XZ.N.&.| @.3.-.-.N.Z.K.5XwXeX1X5XW.t.r.V.N.V.V.r.r.V.N.e.V.A.$X1X2XXX@. .5.V.V.6.9.F.u @ & mXmXmXmXmXmXmX",
"mXmXmXmXmXmXmXmXmX% 6 F.R.w.,.S.Q @ X F sXrX-Xr.r.<.t.Z...{ } 9.b.L.4XwX3XT.V.r.V.V.V.V.V.w.>.:.r.Z.H.-X4X2Xg.( 3.e.V.t.r.w.,.q.F.a @ : mXmXmXmXmXmXmX",
"mXmXmXmXmXmXmXmXmXmXmX~ Q E H.K.p.n v A ^.~.l.N.q.w.V.Z. .] ] -.4.M.*X:X*XS.w.w.I.V.V.V.V.q.q.t.r.r.T.5XeX2X@._ o.e.w.R.&X2Xa.M U d mXmXmXmXmXmXmXmXmX",
"mXmXmXmXmXmXmXmXmXmXmX& X f  XN.<.I.W.P o @ M b.3.A.S.C..._ } 5.6.6.V.A.S.S.r.r.r.V.r.V.V.V.V.V.V.B.T.4XqXoX( _ 1.S.B.%X4XuXC o # mXmXmXmXmXmXmXmXmXmX",
"mXmXmXmXmXmXmXmXmXmXmX7 $ f J.S.Y.B.K.P o @ L e.9.%X:X2X,X;XL.c. .o.5.q.q.N.r.w.r.w.I.V.V.V.S.B.Q.<X,XF.x.2.8.y.G.-X<X=XS.oXv o : mXmXmXmXmXmXmXmXmXmX",
"mXmXmXmXmXmXmXmXmXmXmXmX; d |.l.c.M..XP 2 6 Z s.p.>XsXtXtX4X*X@.| ..0.4.9.N.w.S.H.Y.S.S.Y.Y.A.H.*X<XXXh.| 1.R.U.&X1X0X Xp.s.B o mXmXmXmXmXmXmXmXmXmXmX",
"mXmXmXmXmXmXmXmXmXmXmXmXmXmX8 , d f. .' / i.v < 6 }.rX:XE.S.S.N.Z.b.} | ..9.5.K.eXqXqXeXeXqXeX0Xz.( @.Z.N.A.4XqX,X8.n.P < 3 mXmXmXmXmXmXmXmXmXmXmXmXmX",
"mXmXmXmXmXmXmXmXmXmXmXmXmXmX$ + i %.[ ` ` +.b X # a.2X&XU.A.N.V.V.e.&.&.3.#.#.n.J.XXXXXXXX.X.XJ.2.X.1.W.Q.*X2X0XR.>.b.Z @ * mXmXmXmXmXmXmXmXmXmXmXmXmX",
"mXmXmXmXmXmXmXmXmXmXmXmXmXmXmX@ u f.k.f.+.f.i o # I .Xv.w.r.N.r.r.V.V.S.9._ ` _ _ _ ' _ _ _ _ { N.Y.T.4XqX<XV.Z.M.y.C.S % - mXmXmXmXmXmXmXmXmXmXmXmXmX",
"mXmXmXmXmXmXmXmXmXmXmXmXmXmXmXmXmXs s m %. .Y N m v d c ( N.9.V.V.r.q.;.9.8.8.9.0.9.8.5.9.8.8.M.=X5X-XE.$XH.6.q.u.d d x mXmXmXmXmXmXmXmXmXmXmXmXmXmXmX",
"mXmXmXmXmXmXmXmXmXmXmXmXmXmXmXmXmXmXX B d.Y %.%.i.f   < d.0.:.N.S.r.>.5.q.w.r.S.S.V.r.r.w.Y.Y.T.1XqX1XA.B.C.7.b.N @ % mXmXmXmXmXmXmXmXmXmXmXmXmXmXmXmX",
"mXmXmXmXmXmXmXmXmXmXmXmXmXmXmXmXmXmXmXmX2 2 b Y N q o 2 s.N.q.N.r.w.V.Z.S.w.r.V.w.w.V.V.A.*X3X3XT.Y.A.V.I.I.q.S.M # 1 mXmXmXmXmXmXmXmXmXmXmXmXmXmXmXmX",
"mXmXmXmXmXmXmXmXmXmXmXmXmXmXmXmXmXmXmXmXmX7 l b V i q i K I u.c.<.*.N.Z.N.V.V.w.w.r.R.$X;X-X<X-XT.B.N.N.,.1.E N A 8 mXmXmXmXmXmXmXmXmXmXmXmXmXmXmXmXmX",
"mXmXmXmXmXmXmXmXmXmXmXmXmXmXmXmXmXmXmXmXmXmXmX1 1 V T I 6 X 5 s.N.7.8.;.,.N.V.r.S.G.-X4X3X%XC.N.V.V.N.n.L.^ < % mXmXmXmXmXmXmXmXmXmXmXmXmXmXmXmXmXmXmX",
"mXmXmXmXmXmXmXmXmXmXmXmXmXmXmXmXmXmXmXmXmXmXmXmXmXl w i b v v B v m n.6.:.e.9.e.N.N.H.H.Z.Z.e.q.,.q.c.c v C mXmXmXmXmXmXmXmXmXmXmXmXmXmXmXmXmXmXmXmXmX",
"mXmXmXmXmXmXmXmXmXmXmXmXmXmXmXmXmXmXmXmXmXmXmXmXmXmX% 1 K T K 2   q }.x.g.h.h.g.@.g.g.g.g.h.h.g.@.x.}.5 O mXmXmXmXmXmXmXmXmXmXmXmXmXmXmXmXmXmXmXmXmXmX",
"mXmXmXmXmXmXmXmXmXmXmXmXmXmXmXmXmXmXmXmXmXmXmXmXmXmXmXmX7 2 1 1 o 1 3 5 5 5 5 5 5 5 5 5 5 5 5 5 5 3 0 mXmXmXmXmXmXmXmXmXmXmXmXmXmXmXmXmXmXmXmXmXmXmXmX",
"mXmXmXmXmXmXmXmXmXmXmXmXmXmXmXmXmXmXmXmXmXmXmXmXmXmXmXmXmXmXmXmXmXmXmXmXmXmXmXmXmXmXmXmXmXmXmXmXmXmXmXmXmXmXmXmXmXmXmXmXmXmXmXmXmXmXmXmXmXmXmXmXmXmXmX",
"mXmXmXmXmXmXmXmXmXmXmXmXmXmXmXmXmXmXmXmXmXmXmXmXmXmXmXmXmXmXmXmXmXmXmXmXmXmXmXmXmXmXmXmXmXmXmXmXmXmXmXmXmXmXmXmXmXmXmXmXmXmXmXmXmXmXmXmXmXmXmXmXmXmXmX",
"mXmXmXmXmXmXmXmXmXmXmXmXmXmXmXmXmXmXmXmXmXmXmXmXmXmXmXmXmXmXmXmXmXmXmXmXmXmXmXmXmXmXmXmXmXmXmXmXmXmXmXmXmXmXmXmXmXmXmXmXmXmXmXmXmXmXmXmXmXmXmXmXmXmXmX",
"mXmXmXmXmXmXmXmXmXmXmXmXmXmXmXmXmXmXmXmXmXmXmXmXmXmXmXmXmXmXmXmXmXmXmXmXmXmXmXmXmXmXmXmXmXmXmXmXmXmXmXmXmXmXmXmXmXmXmXmXmXmXmXmXmXmXmXmXmXmXmXmXmXmXmX",
"mXmXmXmXmXmXmXmXmXmXmXmXmXmXmXmXmXmXmXmXmXmXmXmXmXmXmXmXmXmXmXmXmXmXmXmXmXmXmXmXmXmXmXmXmXmXmXmXmXmXmXmXmXmXmXmXmXmXmXmXmXmXmXmXmXmXmXmXmXmXmXmXmXmXmX",
"mXmXmXmXmXmXmXmXmXmXmXmXmXmXmXmXmXmXmXmXmXmXmXmXmXmXmXmXmXmXmXmXmXmXmXmXmXmXmXmXmXmXmXmXmXmXmXmXmXmXmXmXmXmXmXmXmXmXmXmXmXmXmXmXmXmXmXmXmXmXmXmXmXmXmX",
"mXmXmXmXmXmXmXmXmXmXmXmXmXmXmXmXmXmXmXmXmXmXmXmXmXmXmXmXmXmXmXmXmXmXmXmXmXmXmXmXmXmXmXmXmXmXmXmXmXmXmXmXmXmXmXmXmXmXmXmXmXmXmXmXmXmXmXmXmXmXmXmXmXmXmX",
"mXmXmXmXmXmXmXmXmXmXmXmXmXmXmXmXmXmXmXmXmXmXmXmXmXmXmXmXmXmXmXmXmXmXmXmXmXmXmXmXmXmXmXmXmXmXmXmXmXmXmXmXmXmXmXmXmXmXmXmXmXmXmXmXmXmXmXmXmXmXmXmXmXmXmX",
"mXmXmXmXmXmXmXmXmXmXmXmXmXmXmXmXmXmXmXmXmXmXmXmXmXmXmXmXmXmXmXmXmXmXmXmXmXmXmXmXmXmXmXmXmXmXmXmXmXmXmXmXmXmXmXmXmXmXmXmXmXmXmXmXmXmXmXmXmXmXmXmXmXmXmX",
"mXmXmXmXmXmXmXmXmXmXmXmXmXmXmXmXmXmXmXmXmXmXmXmXmXmXmXmXmXmXmXmXmXmXmXmXmXmXmXmXmXmXmXmXmXmXmXmXmXmXmXmXmXmXmXmXmXmXmXmXmXmXmXmXmXmXmXmXmXmXmXmXmXmXmX",
"mXmXmXmXmXmXmXmXmXmXmXmXmXmXmXmXmXmXmXmXmXmXmXmXmXmXmXmXmXmXmXmXmXmXmXmXmXmXmXmXmXmXmXmXmXmXmXmXmXmXmXmXmXmXmXmXmXmXmXmXmXmXmXmXmXmXmXmXmXmXmXmXmXmXmX",
"mXmXmXmXmXmXmXmXmXmXmXmXmXmXmXmXmXmXmXmXmXmXmXmXmXmXmXmXmXmXmXmXmXmXmXmXmXmXmXmXmXmXmXmXmXmXmXmXmXmXmXmXmXmXmXmXmXmXmXmXmXmXmXmXmXmXmXmXmXmXmXmXmXmXmX",
"mXmXmXmXmXmXmXmXmXmXmXmXmXmXmXmXmXmXmXmXmXmXmXmXmXmXmXmXmXmXmXmXmXmXmXmXmXmXmXmXmXmXmXmXmXmXmXmXmXmXmXmXmXmXmXmXmXmXmXmXmXmXmXmXmXmXmXmXmXmXmXmXmXmXmX",
"mXmXmXmXmXmXmXmXmXmXmXmXmXmXmXmXmXmXmXmXmXmXmXmXmXmXmXmXmXmXmXmXmXmXmXmXmXmXmXmXmXmXmXmXmXmXmXmXmXmXmXmXmXmXmXmXmXmXmXmXmXmXmXmXmXmXmXmXmXmXmXmXmXmXmX",
"mXmXmXmXmXmXmXmXmXmXmXmXmXmXmXmXmXmXmXmXmXmXmXmXmXmXmXmXmXmXmXmXmXmXmXmXmXmXmXmXmXmXmXmXmXmXmXmXmXmXmXmXmXmXmXmXmXmXmXmXmXmXmXmXmXmXmXmXmXmXmXmXmXmXmX"
};
