/* XPM */
static char *_45208704b2d41b3c980105b43d244e87ZKvXvd94WCIcTxE[] = {
/* columns rows colors chars-per-pixel */
"75 75 231 2 ",
"   c None",
".  c #010001",
"X  c #080708",
"o  c #190904",
"O  c #0A1316",
"+  c #0B1A1C",
"@  c #141614",
"#  c #260801",
"$  c #370D00",
"%  c #3C1300",
"&  c #351202",
"*  c #2E180D",
"=  c #2D251D",
"-  c #0E2626",
";  c #15252A",
":  c #123333",
">  c #193435",
",  c #162B32",
"<  c #2B3639",
"1  c #333534",
"2  c #061E21",
"3  c #411600",
"4  c #481903",
"5  c #521A00",
"6  c #591C00",
"7  c #480F00",
"8  c #651E00",
"9  c #681F00",
"0  c #5C2205",
"q  c #642301",
"w  c #6B2300",
"e  c #682907",
"r  c #722600",
"t  c #742A02",
"y  c #7B2D03",
"u  c #792E08",
"i  c #7E330E",
"p  c #6E3313",
"a  c #51433B",
"s  c #6C4E3A",
"d  c #2C3E44",
"f  c #194747",
"g  c #1A5453",
"h  c #384344",
"j  c #3A4D52",
"k  c #374D54",
"l  c #3A5458",
"z  c #285053",
"x  c #385C60",
"c  c #266A6A",
"v  c #267A7A",
"b  c #386265",
"n  c #47585A",
"m  c #4E5453",
"M  c #75594A",
"N  c #706959",
"B  c #445D63",
"V  c #486369",
"C  c #4B6A71",
"Z  c #51747A",
"A  c #6A6C6B",
"S  c #6B7778",
"D  c #767369",
"F  c #872A01",
"G  c #82350E",
"H  c #89360A",
"J  c #8D3A0E",
"K  c #823105",
"L  c #933C0E",
"P  c #853A15",
"I  c #8B3C16",
"U  c #853C19",
"Y  c #8B3E19",
"T  c #813610",
"R  c #933E11",
"E  c #933E19",
"W  c #8E411B",
"Q  c #9A4214",
"!  c #94431D",
"~  c #9B461A",
"^  c #964216",
"/  c #AD4915",
"(  c #A2491C",
")  c #AC4C1A",
"_  c #A14415",
"`  c #B1511E",
"'  c #B04D1C",
"]  c #944622",
"[  c #964925",
"{  c #9C4922",
"}  c #9E4F2B",
"|  c #984924",
" . c #9F502C",
".. c #8C593F",
"X. c #A24B23",
"o. c #A3522E",
"O. c #AE542B",
"+. c #AD5022",
"@. c #B35323",
"#. c #BB5725",
"$. c #BC5825",
"%. c #B5572B",
"&. c #A85734",
"*. c #B25F3D",
"=. c #BB5D34",
"-. c #B04F20",
";. c #AE603D",
":. c #BB623E",
">. c #B4603D",
",. c #C25C28",
"<. c #CD632E",
"1. c #C6653A",
"2. c #D46832",
"3. c #DE733C",
"4. c #EE793D",
"5. c #825945",
"6. c #805A49",
"7. c #985D44",
"8. c #936045",
"9. c #AA6245",
"0. c #B76544",
"q. c #BA6745",
"w. c #BD6845",
"e. c #BE6B49",
"r. c #B56A48",
"t. c #BA7357",
"y. c #B27A62",
"u. c #C36A45",
"i. c #CC6D44",
"p. c #C26C4A",
"a. c #CA6F49",
"s. c #C16742",
"d. c #D36E44",
"f. c #D06F49",
"g. c #CC7045",
"h. c #CB714D",
"j. c #D67245",
"k. c #DB7445",
"l. c #D57249",
"z. c #DA734A",
"x. c #DF7A49",
"c. c #C67150",
"v. c #CB7251",
"b. c #EB7D49",
"n. c #E57947",
"m. c #F47E44",
"M. c #F87F42",
"N. c #27807F",
"B. c #AD8A7B",
"V. c #B1826D",
"C. c #FC8344",
"Z. c #F6834B",
"A. c #FC854A",
"S. c #FF8A4B",
"D. c #FD8C52",
"F. c #F68A56",
"G. c #FD9153",
"H. c #FF904E",
"J. c #F29465",
"K. c #257D81",
"L. c #5D7E84",
"P. c #447D80",
"I. c #617C83",
"U. c #2B8F8E",
"Y. c #2E8585",
"T. c #318989",
"R. c #2A908E",
"E. c #2F9394",
"W. c #35AEAD",
"Q. c #3BA9A9",
"!. c #37B4B3",
"~. c #5B8C93",
"^. c #5C8D93",
"/. c #67858B",
"(. c #6E8D95",
"). c #6E8F98",
"_. c #698991",
"`. c #718B93",
"'. c #708A94",
"]. c #6D939B",
"[. c #6B989F",
"{. c #6E9097",
"}. c #72949C",
"|. c #709194",
" X c #71868E",
".X c #4D9EA1",
"XX c #6B9BA3",
"oX c #6C9EA7",
"OX c #749CA4",
"+X c #779BA4",
"@X c #51B0B3",
"#X c #66A5AC",
"$X c #6AA4AB",
"%X c #67A6AB",
"&X c #74A2AB",
"*X c #78A6AD",
"=X c #65ACB3",
"-X c #6AACB3",
";X c #74AAB3",
":X c #63B4BB",
">X c #62B8BE",
",X c #69B3B9",
"<X c #70B1B7",
"1X c #62BCC2",
"2X c #66B9C1",
"3X c #5FBEC2",
"4X c #3FCFCE",
"5X c #3FE1E0",
"6X c #5DC6CA",
"7X c #47D8D8",
"8X c #5AD7DA",
"9X c #57CCCF",
"0X c #65C4CA",
"qX c #63CDD2",
"wX c #64D8DB",
"eX c #55E7E8",
"rX c #4DF5F5",
"tX c #4DFCFC",
"yX c #4EF7F7",
"uX c #53FEFE",
"iX c #59FEFE",
"pX c #58F4F5",
"aX c #4EEDED",
"sX c #62F8FA",
"dX c #65EAEE",
"fX c #42E0DF",
"gX c #9B9B9D",
"hX c #A79B96",
"jX c #AB9186",
"kX c #A7A09D",
"lX c #ACAAAB",
/* pixels */
"                                                                . . . . . . . . . . . .                                                               ",
"                                                      . . . . f Q.W.W.W.W.W.W.W.W.W.Q.Y.. . . .                                                       ",
"                                                  . . v v v v !.uXwXwXwXwXwXwXwXwXwXiXaXv v v N.>   .                                                 ",
"                                                f f g eXpXpXpXeX8X:XXX_._._._._.{.%X9XeXpXpXpXsXv f f >                                               ",
"                                          - - : uXiXpX[._.(.(.(.).yXeX].XX].XX].:XtX=X`.(.(.(. XwXiXiXv - -                                           ",
"                                    O X + aXtXyXtX9X(.XX].].].].].aX8X(.].].].(.=XyX=X).[.].].].].=XyXyXrXiXc X X                                     ",
"                                  O 7XfX7X%X$X$XXX6XrX[.|.OX+XOXOX> + O O O O O + 2 L.*XOXOXOX X8XeX$X$X$XoX9X5X7Xz .                                 ",
"                              . c 4XtX8X$X].].(.(.$X2XsX.X; , ; ; 4 5 5 5 5 5 5 5 5 = ; ; ; z sXqX,X).(.).].$X1XuX7XW..                               ",
"                            X Y.@XwX6X6X6X(.}.OX*XZ d K.z % $ $ $ q r r r r r r r t 3 $ % $ = K.z j &XOXOX`.:XqX0XqXqXT.f                             ",
"                          f c dX,X X`.1XeX0X~.B C 1 # # 7 y t t y ~ ~ Y Y Y Y Y Y Y K t t t 8 # # * V B C 1X8X8X).`.{.dXE.g                           ",
"                        - Q.sX(.].].[.|.].7Xc X . % K y u i G u r m.Z.w.p.p.p.p.e.p.P t J G i y y q X X @ 5X=X`.].].[. XqXpX: -                       ",
"                    . - tX0X(.[.].].].]./.X % u t t t w ] p.l.O.w 4.b.0.q.q.q.q.q.e.i R S.n.=.t t t t y q . B OX{.].].XX].XXiXv .                     ",
"                    . + tXtXeX].(.{.*Xk O q w w w W 0.>.0.q.l.O.w 4.b.q.w.w.q.q.q.p.i R S.n.i.1.w.&.w w w w * ; +X].].`.6XyXuXc .                     ",
"                  X T.9X=X=X>XaX0X(., * 0 w ) 3.=.:.e.w.w.q.l.O.w 4.b.0.w.w.w.w.w.p.i R S.g.u.j.p.0.=.=.O.t q 4 ; C ;XeXqX=X-X@X!.+                   ",
"                  . W.iX(.'.].qXP.< $ 6 t q ,.D.k.a.q.q.u.i.z.O.w 4.b.0.w.q.q.q.q.p.i R S.i.w.d.i.i.l.z.1.t r q % = l 6X=X'. X8XtX. .                 ",
"                > c @X8X].].].+X< . t P W w $.S.d.i.u.q.u.d.l.O.w 4.b.0.q.w.u.w.q.p.i R S.i.q.i.d.d.d.d.1.w R ( K # . '.}.].].>X9Xc f                 ",
"              . - iX2X X].].{./.1 o q } p.w $.S.i.d.d.w.u.d.p.} w 4.b.0.w.u.d.u.q.p.i R S.g.0.q.i.d.d.l.1.w 2.A.t % @ Z _.].].'.(.iXE..               ",
"              O > rX1X].XXXX/.. 3 y r } 0.w $.S.w.u.d.w.u.d.p.} w 4.b.0.d.d.d.u.q.p.i R S.g.0.w.i.d.d.u.;.w <.m.t t e . l OX[.XXoXpXU.X               ",
"            . Q.eX].8XyXyX0X/.X % K ;.q.0.w $.S.w.u.d.q.u.d.p.} w 4.b.0.d.d.d.u.q.p.i R S.g.0.w.i.d.d.u.;.w <.A.0.! q . l ;XaXyXrXoX6XaXO .           ",
"            . W.iX(.$X=X2Xx ; 0 q t 0.e.0.w $.S.w.u.d.i.d.d.p.} w 4.b.0.d.d.d.u.q.p.i R S.g.0.w.w.u.d.u.;.w <.A.e.W 8 0 = > #X,X=X(.qXtXO .           ",
"            . W.pX].].(.+X< . t W &.0.w.0.w $.S.w.w.u.d.i.u.p.} w 4.b.0.d.d.d.u.q.p.i R S.g.0.w.q.u.d.u.;.w <.A.w.&.[ K $ . /.|.].(.0XtXO .           ",
"            . W.iX].].].*Xd . w o.c.q.w.0.w $.S.w.q.w.d.i.0.p.} w 4.b.0.d.d.d.u.q.p.i R S.g.0.w.q.u.d.i.:.w <.A.0.p.0.u & X ].OX].(.qXtXX .           ",
"            : Q.eX(.].(.L.1 o w { p.q.w.0.w $.S.w.q.w.d.i.q.p.} w 4.b.0.d.d.i.u.w.p.i R S.g.0.w.q.u.d.j.1.w <.A.0.w.*.y % @ Z /.].(.2XeXf :           ",
"        . : uX1X].oX$X~.. 3 y u o.p.q.w.0.w $.S.w.q.w.d.i.q.p.} w 4.b.q.d.i.0.i.i.e.i R S.i.q.w.q.u.d.j.1.w <.A.0.w.0.i y e . l ;XXXXXXXiXE..         ",
"        . : uXtXyXyXtX7X. 3 H m.j.0.w.w.0.w $.S.w.q.w.w.w.q.p.} w 4.m.i.d.i.q.i.i.e.i R S.i.0.w.q.u.d.j.1.w <.A.0.q.q.w.! q . Y.uXrXyXrXuXU..         ",
"        . : uX6X%X=X,X^.. 3 H C.j.0.q.w.0.w #.S.w.q.q.q.q.0.e.} w 4.m.i.u.w.q.i.i.e.i R S.i.0.q.q.u.d.d.1.w <.A.0.q.0.p.! q . x <X#X=X=XiXU..         ",
"        . : uX:X`.].}.I.. % H S.n.e.p.p.w.w ,.H.p.p.p.p.p.p.c.o.r C.A.z.p.p.p.l.l.c.T ^ H.l.e.p.p.p.a.h.s.w 2.D.p.p.p.c.| q . j +X(.'.].iXU..         ",
"        . : uX>X].[.oX_.# 5 t #.X.] [ [ ] q R $.] ] ] ] ] ] [ P w -.@.{ [ ] ] { { [ t u $.{ ] ] ] ] ] ] W q Q $.] ] ] [ i q # n ;X].].XXiXU..         ",
"        . : uX:X`.]./.D Q Q Q J L L L L R Q R J L L L L L L L R Q R R L L L L L L L Q ^ L L L L L L L L L Q R J L L L L R Q _ 5.S {.].].iXU..         ",
"        . : tX3X].-Xs F S.A.A.A.A.A.D.D.A.A.A.A.A.A.A.D.S.A.A.A.A.A.A.A.A.A.D.A.A.A.A.A.A.A.A.A.D.D.A.A.A.A.A.A.A.S.D.A.A.C.S.' q [.$XoXiXU..         ",
"        . : uXyXrXtXN F A.j.0.w.w.e.kXV.:.w.w.w.w.w.w.kXB.:.w.w.w.w.w.w.:.y.lXt.:.w.w.w.w.w.w.:.jXhXw.w.w.w.w.w.:.B.kXw.w.0.p.! p eXyXrXuXU..         ",
"        . : tX6XoX,Xs F S.z.w.p.e.e.t.t.e.e.e.e.e.e.e.t.t.e.e.e.e.e.e.e.e.e.t.e.e.e.e.e.e.p.e.e.t.t.e.e.e.e.e.e.e.t.t.e.e.e.c.^ w XX$X%XiXU..         ",
"        . : tX:X`.].S N ) ^ Y Y Y Y I I Y Y Y Y Y Y Y I I Y Y Y Y Y Y Y Y I I Y Y Y Y Y Y Y Y Y I I Y Y Y Y Y Y Y I I Y Y Y E 5.S (.].{.iXU..         ",
"        . : tX>X).].oX_.& 6 r 8 8 w w w w w w 8 8 w 9 w w w w w w 8 8 8 w w w w w 8 w w 8 8 w w w w w w w w q 8 w w q 9 w w $ m ;X].].[.iXU..         ",
"        . : tX:X`.].}.I.. 3 K ~ ^ P I I I t H ~ E I I I I I Y G t Q ~ I I I I I I ^ u u ~ I I I I I I I P r I ~ I I I Y i e . j +X(.].].iXU..         ",
"        . : tX6XoX$X$X^.. 3 H A.x.w.p.p.w.w $.S.k.a.p.e.p.e.c.o.w m.A.j.p.e.p.e.p.x.G R S.l.w.p.e.e.e.p.0.w 2.S.w.a.j.p.] q . l <X$X$X$XiXU..         ",
"        . : uXyXyXyXtX7X. 3 H C.j.0.q.w.0.w #.S.d.d.d.w.q.q.p.} w 4.m.i.w.q.q.q.u.k.G R S.i.0.w.q.q.q.w.*.w <.A.0.i.d.p.! q . Y.uXrXyXyXuXU..         ",
"        . : uX6XoX%X-X^.. 3 H C.j.0.u.e.0.w #.S.w.u.d.w.q.q.p.} w 4.m.d.d.i.q.q.u.k.G R S.i.0.w.w.w.q.e.*.w <.A.i.d.d.l.~ q . l <X$X$X%XiXU..         ",
"        . : tX:X`.].}.I.. 3 H C.n.0.a 7.u.w #.S.w.u.d.w.q.q.p.} w 4.b.w.d.i.q.u.i.z.G R S.i.0.w.q.q.q.e.*.w <.A.d.i.u.z.( q . j OX(.).{.iXU..         ",
"        . : tX>X).].OX/.. 3 H C.r.M S N s w $.S.w.u.d.i.u.q.p.} w 4.b.0.d.i.0.i.d.a.G R S.i.0.w.u.u.q.e.*.w <.A.d.u.q.z.( q . l &X[.].XXiXU..         ",
"        . : tX:X`.].}.I.. 3 H C.5.h lXS < q $.S.w.u.i.d.i.0.p.} w 4.b.0.d.i.u.d.i.e.i R S.i.0.q.i.d.q.e.*.w <.A.d.u.q.z.( q . j +X(.(.{.iXU..         ",
"        . : tX6X$X%X-X^.. 3 H C.7.m gXA a q $.S.w.q.q.d.i.w.p.} w 4.b.0.i.d.d.d.i.p.i R S.i.0.q.i.i.q.e.*.w <.A.d.u.q.z.( q . l <X%X$X%XiXU..         ",
"        . : uXtXyXyXtX7X. 3 H C.k.9.h 5.s.w $.S.w.q.w.d.d.d.p.} w 4.b.0.q.u.d.d.i.e.i R S.i.0.q.i.i.q.e.*.w <.A.d.u.q.z.( q . Y.iXrXyXyXuXU..         ",
"        . : uX1XoX$X$X^.. 3 H C.k.9.h 5.s.w #.S.w.q.w.w.u.d.p.} w 4.b.q.w.u.d.d.i.e.i R S.i.0.q.i.i.q.e.*.w <.A.d.d.i.z.~ q . l ;XoX$X$XiXU..         ",
"        . : uX:X'.].}.I.. 3 H C.k.9.h 5.s.w #.S.w.q.w.q.u.d.p.} w 4.b.q.w.u.d.d.i.e.i R S.i.0.q.i.i.q.e.*.w <.A.d.d.d.a.! q . j OX).].{.iXU..         ",
"        . : uX2X].].OX/.. 3 H C.k.9.h 5.s.w #.S.w.q.w.q.u.d.p.} w 4.b.q.q.u.d.d.i.e.i R S.i.0.w.i.i.q.e.*.w <.A.u.i.d.p.] q . l &X[.].[.iXU..         ",
"        . : tX:X`.].}.I.. 3 H C.k.9.h 5.s.w #.S.w.q.w.q.u.d.a.o.w 4.b.q.q.u.d.d.i.e.i R S.i.0.q.i.i.q.e.*.w <.A.0.i.d.p.] q . j +X(.(.].iXR..         ",
"        . : uX6X$X=X-X^.. 3 H C.k.9.h 5.s.w #.S.w.q.w.q.u.i.z.O.w 4.b.0.q.u.d.d.i.e.i R S.i.q.u.i.i.w.p.*.w <.A.q.i.d.p.] q . l <X%X=X=XiXU..         ",
"        . : uXyXyXyXtX7X. 3 H C.k.9.h 6.0.w $.S.w.q.w.w.q.q.l.O.w 4.b.0.q.u.d.d.i.e.i R S.i.w.d.d.d.d.p.*.w <.A.q.i.d.z.~ q . Y.iXrXyXrXuXU..         ",
"        . : tX1XXXoX$X~.. 3 H C.8.m gXA a q $.S.w.q.w.w.w.q.l.O.w 4.b.0.q.u.d.d.i.e.i R S.i.w.d.d.d.d.p.*.w <.A.q.i.d.z.~ q . l ;XXXoXoXiXU..         ",
"        . : uX:X`.].}.I.. 3 H C.5.z lXS < q $.S.w.q.w.w.q.q.l.O.w 4.b.0.q.u.d.d.i.e.i R S.i.w.d.d.d.d.p.*.w <.A.q.i.d.p.! q . j OX].].{.iXU..         ",
"        . : uX2X).].OX/.. 3 H C.w.M A N ..w $.S.w.q.w.w.q.q.l.O.w 4.b.0.w.w.u.u.u.p.i R S.i.q.d.i.i.d.p.*.w <.A.0.i.d.e.! q . l &X[.].[.iXU..         ",
"        . : uX:X`.].}.I.. 3 H C.n.0.s 7.u.w #.S.w.q.w.w.q.q.l.O.w 4.b.0.w.q.q.q.q.p.i R S.l.u.d.u.w.d.p.*.w <.A.q.u.u.p.! q . j +X(.(.].iXU..         ",
"        . : uX6X=X=X,X^.. 3 H C.j.0.u.p.0.w #.S.w.q.w.w.q.q.l.O.w 4.b.0.w.w.w.w.q.p.i R S.n.d.i.u.w.d.p.*.w <.A.q.q.q.p.! q . x ,X=X=X=XiXU..         ",
"        . : uXyXyXrXuX7X. 3 H C.k.0.q.w.0.w #.S.w.q.w.w.q.q.l.O.w 4.b.q.w.w.q.q.q.p.i R S.n.i.q.q.u.d.p.>.w <.A.q.q.q.p.! q . Y.uXrXyXrXuXU..         ",
"        . : uX1X].XXoX~.. 3 H C.j.0.q.w.0.w #.S.w.q.q.q.q.q.l.O.w 4.b.0.q.q.q.q.q.e.i R S.k.u.q.q.u.d.d.1.w <.A.0.q.0.e.! q . l &XXXXXXXiXU..         ",
"        . : tX>X`.].}.L.. 3 J S.n.e.p.p.e.w ,.H.p.p.p.p.a.l.v.o.r C.Z.e.p.p.p.p.p.c.T Q H.b.l.l.a.p.p.z.i.w 2.D.p.p.p.c.| q . j +X].].].iXR..         ",
"        . : tX>X).].oX_.% 5 r _ ! U U U P q G ( U U U U Y E Y i q Q ~ U U U U U U Y w t ( ^ Y E Y U U Y I 8 J ( U U U Y u q $ m ;X].].[.iXR..         ",
"        . : tX:X X}.S M @.@.-.) ) ) / ) ) @.) ) ) ) ) / / ) ) ) ` ) ) ) ) / / ) ) ) ` ) ) ) ) ) / / ) ) ) ` ) ) ) / / ) ) ` @...A `.(.].iXR..         ",
"        . : tX6X=X2Xs F S.A.Z.Z.Z.Z.J.F.Z.Z.A.Z.A.A.Z.J.F.Z.Z.Z.Z.A.A.Z.Z.F.J.F.Z.Z.Z.Z.A.A.Z.Z.F.J.Z.A.A.Z.A.Z.Z.F.J.Z.Z.Z.D.) w %X:X=XiXU..         ",
"        . : uXyXrXyXN F A.l.0.q.0.r.kXy.>.0.0.0.0.0.0.hXB.:.0.0.0.0.0.0.:.y.kXt.:.0.0.0.0.0.0.:.jXhX0.0.0.0.0.0.>.B.hX0.0.0.e.! p eXuXrXuXU..         ",
"        . : tX1X].$Xs F A.j.q.w.w.w.e.w.w.w.w.w.w.w.w.w.e.w.w.w.w.w.w.w.w.w.e.e.w.w.w.w.w.w.w.w.e.e.w.w.w.w.w.w.w.e.e.w.w.w.p.! e |.XXXXiXU..         ",
"        . : tX>X'.]._.D R G i G G G G G G i G G G G G G G G G G i G G i G G G G G G G G G G G G G G G G G i G G G G G G G T H M  X{.].[.iXU..         ",
"        . : tX>X].].oX/.# 5 r 8 q q q w w w w 8 w w w w w w w w w q 8 w w w q w w w w w 8 w w q q w q q w w w 8 w w w w w w # n &X].].[.iXU..         ",
"        . : uX:X X(.|.S . 3 K -.+.{ X.| ! r R #.] ] ] { { ] [ P r ) +.] ] ] X.] ] | u K #.{ ] X.] ] X.| ! w Q @.] ] ] | G q . j +X(.'.{.iXU..         ",
"        . : tX9X,X:X>X.X. 3 H S.b.f.z.h.w.w ,.H.p.e.p.z.f.e.c.o.w M.Z.e.p.f.z.a.p.c.i R H.l.p.x.p.p.x.h.0.w 2.S.u.p.p.c.{ q . b 2X:X:X:XiXU..         ",
"        . : uXyXrXrXuX7X. 3 H C.j.0.d.u.0.w #.A.w.q.q.d.u.0.p.} w 4.b.0.d.d.i.d.i.e.i L S.i.0.d.u.w.d.u.*.w <.A.0.q.0.e.! q . Y.uXrXrXrXuXU..         ",
"        . : uX1X].[.OX/.. 3 H C.k.q.d.u.0.w $.S.w.q.w.d.i.q.p. .w 4.b.0.d.i.q.i.i.e.i L S.i.q.w.i.d.d.p.*.w <.A.q.q.q.p.! q . l &X[.].[.iXU..         ",
"        . : uX:X'.].OX/.. 3 H C.k.q.d.d.i.w #.S.w.u.i.u.w.q.p. .w 4.b.0.d.i.q.i.i.e.i L S.i.0.q.i.d.w.p.>.w <.A.q.q.q.p.! q . j OX].].[.iXU..         ",
"        . : yX>X(.].OXI.. 3 H C.j.0.u.i.d.w #.S.q.s.d.q.q.q.p.} w 4.b.u.d.i.q.i.d.f.G L S.i.0.q.w.u.q.w.*.w <.A.0.q.0.e.! q . l OX{.].[.uXU..         ",
"        . : iX0X+XOX*X_.. 3 L S.x.w.e.a.i.t ,.D.l.a.a.p.p.p.c.o.t m.A.l.l.a.p.a.l.n.J Q H.l.e.p.p.e.p.p.0.r 2.S.p.p.e.c.{ w . n *XOXOX&XiXE..         ",
"          > W.Z B V V l . # e <.%. .o.o.} 4 W 2.%.O.o.o.o.o.&.U 4 $.<.O.o.o.o.o.o.=.0 e 2.O.o.o.o.o.o.&.[ 3 ( 2.o.o.o.&.p 3 . < C V V V Q.v X         ",
"            . . . . . . . . X q w w w r q . & r w w w w w w t 3 . 0 w w w w w w w t o o r w w w w w w t 0 . 3 r w w w t & . . . . . . . .             ",
"                                                                                                                                                      ",
"                                                                                                                                                      "
};
