/* XPM */
static char *d3c9033a855f4eb8d1a7738e4abeb3a1cSSqAgtahDeUQvw0[] = {
/* columns rows colors chars-per-pixel */
"75 75 34 1 ",
"  c #6B5836",
". c #6A5735",
"X c #6A5836",
"o c #6A5736",
"O c #695635",
"+ c #685534",
"@ c #675534",
"# c #685634",
"$ c #675433",
"% c #665433",
"& c #695634",
"* c #645232",
"= c #5E4D2E",
"- c #5F4E2F",
"; c #604F30",
": c #695735",
"> c #635131",
", c #655332",
"< c #615031",
"1 c #5E4D2F",
"2 c #625031",
"3 c #614F30",
"4 c #5E4E2F",
"5 c #655333",
"6 c #615030",
"7 c #635232",
"8 c #645332",
"9 c #665333",
"0 c #625131",
"q c #6C5836",
"w c #5D4D2E",
"e c #6C5936",
"r c #5F4E30",
"t c white",
/* pixels */
"        ..            ..     .  .                         X.      .X       ",
"       .  .         ..  .   . .. .          ..           .  .    .  o      ",
"  ..... .. o..     .  .O .  . .. .         .  . ..      . .. .  . .. .     ",
" ..   . O+ .  .  .. ...@ .   . .. o       . O# .  .  . .  .$ .X ....       ",
".  %&   ... #. ..   OO  .     .  ...      . ..  O. .. . OO ..  ..    .     ",
". *=-;+  .. .. . O.   ..     . +O  ..      .  . :. . .. ...  ....*>,. .    ",
" #>@*<;>: .. ... #  ..      . %1;2#  .      .. . ... @.  . .O   +*3-O .    ",
" .   *-4$ ..    .+$O ..    . O25>;67. ..       .     :O . #;-*@O5-6O  .o   ",
" X   %>% .. O8><;;;*   .   . ..  5-19   .  .. ...@,*0;-*  $62-14---6>+ ..  ",
". O%     .. O;--;;9  .. .   .  . %68. :+ ..   . #----;%..  q5-*%%%6-12 ..  ",
". O@ ....  %73--@;4@q@+ .    .. .     &% . ... +%6--%;-& @+ %%   %;3;8 .   ",
" .  .. O& +41;##.&@.   .         .....  .. &# #-4;%%.%,O ..   ...2+... .   ",
". O. ..   .*6*      ....         X.. ..  .  . O6->      . .... .      .    ",
"  <6O ....    .......   . ..       .. >*. .. . .O........   . ... ....     ",
" @;1, . X ......  . qO8. .  .     X. @-w, .X. .   ..  . q.@. .  ...    .   ",
". O@. .  .    .  . %**w$ ..: .  .. . .@*O .   .   . o. +%,1+ ... .  ..     ",
"     .  ...&@O @. .34;->  :& . .   ..    .   . .:. O   64;-*  O# . .  ...  ",
"  ...   . +--2.+. *1;;-6 .  . . &% . .... . . +6-7.$. ,4;;-3.   . . O@ ..  ",
"    .. . #,;;-# . #52--@ ... X. .O .    .. . .%;--& . %03--% ...  . O+ .   ",
"   .  . $---;-O .. qO6, .X     .  .    .  . #3-;;-O ..  @-> ..     .  .    ",
"  . +.. 5-;;-> .. ..   .. ... o ....  . &.. 81--4<. . .. :. . ... o ...    ",
"  . .. . .#O@. . . ....o...  .  .  .. . &.  .@%@,: ..  ..  ...   .  .  .   ",
"   .  .o.     ... .  . . q.5. .. :O  . .   .      .  ..  ...  .@. ..    .  ",
" .....  ...... .O  O@ . &,5;2. . >4, .....  ...... .O  .# . .@@;* .. 7;@ . ",
".   .. X      .    O+ . ,1---O ...2;.  ... X     X ... #$ .q54---O ..+;;. .",
" :@.  .  X..   . .O  . @--*@# . ..7*  :   .   ..   .     . #;42,% . O *>  .",
":;-0>@ ..   . . @-;# . :5$   . . @1,.6-*%O . .  . . O<2. . #0*.q . . @1* . ",
" @5<w2 . .+& . .,0-, ..   ... Xo .#..,82w0  . .. . .*;1, ..    ..  . .5: . ",
" .*>*+ @ .;* ...  :. . ....     .  . .76<% + .;*  ....@O ......  o  .   .  ",
"..    ..  . O+ ...  .      .&    ... ...  .. .#.:& .     .   . .O o  ... X ",
" .....   o  .. . . @O .    ..  X    .   ..  .   .: ... @O .#. ..: o..      ",
"       .  ..  .  . .. . ...   . .... o...  . ...  .  . O..>-3. . o.  .     ",
"        ..  ..    .  . .   ... .+  ...          ..    .  6;-> .... .+      ",
"       .  .        .. . .#: . . .%.   .     .. ...     . %%O. .    .. .    ",
"      . .. .         . .>-;. . .2=;0.  .   .  .   .     .    .    .  .     ",
"      . .# .        . .6;-> .. %7@06;,. . . .# 5,. .     ....      o.   o. ",
"       .  .  ....... . %%O. .. .  .01;O . o .. 710 ..             ..   .  .",
"   .   .  . ..      ..     .. .....*0@ .   . ..e>0. .    X ..    .  . . .. ",
"  ..... O. .  .O+,7@  O# .. . :. .   . .   .   @;5 .    ...  .  .o.. .. .O ",
" .    . +.  +2;;--25:.OO .   .  .   ...   o .O @6# .   .   +. . . ..  ..  .",
". @0+O      @;--0;* O.  .   ... o ..   .  . .+   . . .. .O O. .. .o>* .X.. ",
" +--13@. ..76;63+r-@ ... X  .  .. O>2* ..  .  . :O ..  ..O   .. O;0;;. .   ",
" %@.%0->. +11;...#. ..    .. +#  q%>;0...   .. .  .. O# . ..... *--;-% .   ",
".   .;40.  %7%     . ..   . 5=->5@>10.  .       ..   ..q .   . O;-;;-@ .   ",
" .  .@$. .    ..... .  .  . %70-14---;2@ ..    .  .#+,>*. .   . O+;18 .    ",
". %@     ......   X. +. .  . q0;@+#@;-1* . .. . .>;;-42*.  .   .  @,. .    ",
". :. . #. .       o. @. . X ..%O  .03026. .  .  .74-2<;O .+ .   ..   .     ",
". q .. O. .         .  .    .   . O7.  ..  .+  5;;<6%%-* .+ .     ...      ",
" .%. ..  .         .....      .. .   .   . .O .611+ . . .  .               ",
" %16: ...         .     . ..      ... #%  .  . O,%. .. ......              ",
" 533: .   ...... . . *7 ..  .   ..  . >=> ... .    .  ..       .       ..  ",
". .. .  .       . .60;-:  #. . .  .. .*;7 ..  ....... ....69 .   X   ..  . ",
" .  . . ..+,*.O@  5--;-5  :. .. ....   .  .  .    .  . @-0-< ..+. o    .. .",
"  ..   . q*147.. .;-;;-% .  . . %# .... ..  .o.%** @O .2--;-+ .:. o  .... .",
"  .  .. O*2;-2  . O+31> .o..  . .. .   ..o  . .64-% . +-;;;;O .   . .,.  . ",
" o .. . 61--4> . .  +*. . ..   .  o    .  .. @06;-, .. O@-4$ . .    .  ..  ",
" . :+ . ,2226& .. ..   . .... o ....  . ... O44--4% . .  $% .. ..    ..    ",
"   .. .    .. .  .o ...o...  . .   .o . #O  .*2>6>. .. ..  .... .. o ...   ",
"     X o...  . .. . . o.  @>. . .9@ .. .   .    .  .  .. .. ....  . .   .  ",
"    .    ..... ... %# . *201> . .;1% .  ..  .... .. :.  .. .   ** .. &*# . ",
"              .    O.  O;1-;8 ....;* .....    ..... :...,.  .22619 . @--# .",
" ....... ...  . .%# .. 742O.  .. %;+      .             : . %--;3@  : #;@ .",
".    .  . q .. .6w;. . .#.  ..o. *3O @>,:. .. ...  . +5: . .6-*.. . ..73. .",
" O5%. .: #7O . O%*2O ..   .. . .     7;0;2.  .   .. +-w0 .. .O   . .  07  .",
" *-267OO @0O..      ...... .. . .  .  %2-;:.. %7. . #@**. ..  ..  . .    . ",
" .%>-4O .   +. ....:.    . .O ..... . +$@O &. 5*....     .....  .. . ....  ",
". $,5+.. ...  . . .% .,>@ .   .  .   .    .  . q.@  ....:     . O. .....   ",
" .     .    ..   .. O*;w7 .... .. .   .... .. ..     . O@e#>0# .  ..  .    ",
"  ..... ..        . #;>*: .  . :& .             o.    .  @0-=@ .... .. . . ",
"       .  .        . .   .    .  .           ..        . %;*% ..  . &. .X  ",
"      . :. .        . ... X    ..           .  .        .     .    .  .  ..",
"      . O. .         ..             ..     . O. .       X. ...    X .. . O.",
"       .  .                        .  .    . O. o        ..             .  ",
"        ..                        . :. .    .  .                         . ",
"                                  . .. .     ..                            "
};
