/* XPM */
static char *_a602f1afa6443f2ae265428d3338648Lgp3SHHjn16PrtOM[] = {
/* columns rows colors chars-per-pixel */
"75 75 148 2 ",
"   c None",
".  c #0A0907",
"X  c #0E0D0C",
"o  c #100F0E",
"O  c #12110F",
"+  c #141412",
"@  c #181715",
"#  c #1A1917",
"$  c #1D1C1A",
"%  c #221E1B",
"&  c #23211E",
"*  c #262422",
"=  c #292622",
"-  c #2B2925",
";  c #2C2C29",
":  c #302B26",
">  c #332E29",
",  c #35312C",
"<  c #3A332C",
"1  c #2F3130",
"2  c #353532",
"3  c #3B3632",
"4  c #3C3A35",
"5  c #3D3D3A",
"6  c #403731",
"7  c #433B35",
"8  c #463D38",
"9  c #4A3F39",
"0  c #494036",
"q  c #44443E",
"w  c #4D433C",
"e  c #50443C",
"r  c #444543",
"t  c #4B4C45",
"y  c #454748",
"u  c #4C4C49",
"i  c #524740",
"p  c #544A42",
"a  c #5A4E46",
"s  c #5D5044",
"d  c #53534C",
"f  c #5E5149",
"g  c #555653",
"h  c #575851",
"j  c #5B5B54",
"k  c #55595A",
"l  c #5A5D5E",
"z  c #625547",
"x  c #62554C",
"c  c #66584F",
"v  c #6D5D4E",
"b  c #675950",
"n  c #6A5B53",
"m  c #5F605A",
"M  c #606057",
"N  c #6F6057",
"B  c #63645C",
"V  c #67685F",
"C  c #706157",
"Z  c #74645A",
"A  c #78675D",
"S  c #7A695F",
"D  c #5B5F60",
"F  c #5E6263",
"G  c #636565",
"H  c #6C6C64",
"J  c #666A6C",
"K  c #6A6D6D",
"L  c #7D6C61",
"P  c #6F7066",
"I  c #707167",
"U  c #75766C",
"Y  c #77786E",
"T  c #78796F",
"R  c #6B6F71",
"E  c #6D7173",
"W  c #717476",
"Q  c #7C7C72",
"!  c #747779",
"~  c #767A7C",
"^  c #7C7C78",
"/  c #806F64",
"(  c #837166",
")  c #877469",
"_  c #89766A",
"`  c #8D796D",
"'  c #7F8176",
"]  c #808176",
"[  c #84857A",
"{  c #87887B",
"}  c #898A7E",
"|  c #7D8182",
" . c #878780",
".. c #8D8E82",
"X. c #828688",
"o. c #85898B",
"O. c #8C8C88",
"+. c #8F9084",
"@. c #919286",
"#. c #95968A",
"$. c #97988B",
"%. c #9A9B8E",
"&. c #9C9C93",
"*. c #A2A395",
"=. c #A6A69E",
"-. c #A4A499",
";. c #A8A99A",
":. c #ADAE9F",
">. c #AEAF9F",
",. c #ACAD9D",
"<. c #AAABA3",
"1. c #ADAEA3",
"2. c #ACACA3",
"3. c #AFB0A0",
"4. c #AFB0A8",
"5. c #B0B1A1",
"6. c #B1B2A2",
"7. c #B2B3A3",
"8. c #B0B1A2",
"9. c #B3B4A5",
"0. c #B5B6A7",
"q. c #B4B5A6",
"w. c #B3B5A5",
"e. c #B2B2AB",
"r. c #B7B7AA",
"t. c #B7B9A9",
"y. c #BABBAB",
"u. c #BBBBAD",
"i. c #BABBAF",
"p. c #BDBEAF",
"a. c #BABBAC",
"s. c #B9BAB1",
"d. c #BDBEB6",
"f. c #BFBFB8",
"g. c #BFC0AF",
"h. c #BFC0B2",
"j. c #C0C0B3",
"k. c #C2C2B6",
"l. c #C3C4B7",
"z. c #C6C7B7",
"x. c #C2C3BB",
"c. c #C6C7BF",
"v. c #CBCDBC",
"b. c #C9CAC3",
"n. c #C9CAC4",
"m. c #CBCCC5",
"M. c #CECFC9",
"N. c #E3E4D9",
/* pixels */
"                                                                                                                                                      ",
"                                                                                                                                                      ",
"                                                                                                                                                      ",
"                                                                                                                                                      ",
"                                                                                                                                                      ",
"                                                                                                                                                      ",
"                                                                                                                                                      ",
"                                                                                                                                                      ",
"                                                                                                                                                      ",
"                                                                                                                                                      ",
"                                                                                                                                                      ",
"                                                                                                                                                      ",
"                                                                                                                                                      ",
"                                                                                                                                                      ",
"                                                                                                                                                      ",
"                                                                                                                                                      ",
"                                                                                                                                                      ",
"                                                                    @ + o X +                                                                         ",
"                                                              + + + ; d T Q ; + #                                                                     ",
"                                                        + + $ ; q 2 - H ;.z.@.O * # X                                                                 ",
"                                                    @ + ; d H Q [ I # t Q 3.k.u ; Q d % X                                                             ",
"                                                  + & j Q ' Q Y U Q , , V ;.q.=.+ U *.-.g o #                                                         ",
"                                                + , U Q T P H T Q Q h $ d ..6.l.u 2 -...d.O.@ @                                                       ",
"                                              + , U Q U T U U ] ..} I $ r H 6.q.&.+ ] +.[ x.&.+ #                                                     ",
"                                            + = P B T Y T Y Q ........4 > M &.>.k.2 q $.} } m.^ X                                                     ",
"                                            @ h U Y T Y T U [ ..} } $.B $ j Q 9.p.Q $ ....{ #.M.5 o                                                   ",
"                                          + , V d Q Y Y T U [ ..&.&...Q $ u V >.6.1.# I @.&...s.&.O                                                   ",
"                                          + h Q U T Y T T U [ +.e.4.....5 , B $.3.j.5 t #.<.#.#.n., o                                                 ",
"                                          $ I Q T Y Y Y Y U H Q #.@.} @.H & j } 6.p.H - #...} } b.B .                                                 ",
"                                        + > Q U U Y T Q Q ' m U $.@.@.#.U $ u U q.9.#.$ } #.$.@.c.O.X                                                 ",
"                                        + q ' Q ' Q U H B j u q 5 , - = $ O q V 6.>.1.= & ; 5 u #.&.+                                                 ",
"                                        + q t q 4 - $ # # & ; 4 q d j H T 3 , j ;.>.r.2 q G u 2 # $ $                                                 ",
"                                        # # $ - - q V Q %.;.6.t.t.@.y.g.z.H = j $.6.u.4 U v.u.u.f.H O                                                 ",
"                                        + d ..$.} #.*.*.q.9.6.;.*.@.#.+.+.B * j Q q.y.r j u.>.>.N.O..                                                 ",
"                                        X B $.] &.@.] H j u 4 ; & $ # # $ # + j d *.h.5 + ; 2 5 B 5 +                                                 ",
"                                        + 5 j 2 2 * $ $ @ + < < 6 9 e a f x 3 # 4 B j + w 6 > % O O #                                                 ",
"                                        # # @ = ; 5 u K ; < L n a - - 8 z x x 8 # + @ x S x 3 & % #                                                   ",
"                                        + 2 k l F G ! ! = w L b & $ = # $ 3 a n a 6 C ( x = @ ; > #                                                   ",
"                                          2 ~ K E R X.K $ z L p # 3 7 3 ; # % i A / ( n * # 3 4 3 $                                                   ",
"                                          = D k k F W 1 > C / i # 3 3 3 4 4 $ & L L / 7 @ 3 4 3 3 $                                                   ",
"                                          = R ! E o.X.= i Z ( z # , 4 3 3 2 = $ S ) ` > $ 4 3 3 - #                                                   ",
"                                          * D D G W E * w L ( A = $ 2 , > = + 8 ) n x i @ # * % @ #                                                   ",
"                                          - K J J ! X.r : ( / ( a @ # $ # + 3 ) i $ & , x > $ & < #                                                   ",
"                                          & J G F R ! g & ( ( ( / z > - 3 x ( _ , ; 4 $ S _ A ( w +                                                   ",
"                                          + 2 J F E | G # w C L ( Z / / ) ) / ) f % & 7 / S ( b @                                                     ",
"                                            % G F J ~ l # @ % 7 Z L / ( / / ( / ( A A ( ( ( / * +                                                     ",
"                                            + y R J ~ l +   $ + p _ L / / ( / / / L ( / L ( S $                                                       ",
"                                              = g K ! 2 O $ - @ , S w ( _ C Z _ ( p ( ` a N x +                                                       ",
"                                              + # ; - @   @ - $ @ - $ 8 C < 8 ( z # p f $ & $ @                                                       ",
"                                                        X 3 #.U @ - & + $ # @ # + 2 $ @ #                                                             ",
"                                                        & Y #.#.& > , $ - T U d V ;.G # &                                                             ",
"                                                      + - U *.%.- $ = z , q ..&.@.#. .+ $                                                             ",
"                                                        # & , 4 & & # 0 7 # = d ] #.-.& +                                                             ",
"                                                      + = > 7 $ # $ + # @ 0 v < = 4 m - - @                                                           ",
"                                                      & , = = = % & - # = * < s z e - $ : $                                                           ",
"                                                      , S n f a - & : = = = $ % > 4 4 = & &                                                           ",
"                                                      & n C S n = & , , , < < < > = : = > $                                                           ",
"                                                      + * p w w # & 6 + < # < $ < & < , $                                                             ",
"                                                        @ @ $ $ @ & 8 @ w $ 7 = > - = -                                                               ",
"                                                          #   # $ & $ # % # $ & & # @ @                                                               ",
"                                                              # $ % # % @   @ $ & # % #                                                               ",
"                                                              # # # % % $   $ # # % % #                                                               ",
"                                                                  # #                                                                                 ",
"                                                                                                                                                      ",
"                                                                                                                                                      ",
"                                                                                                                                                      ",
"                                                                                                                                                      ",
"                                                                                                                                                      ",
"                                                                                                                                                      ",
"                                                                                                                                                      ",
"                                                                                                                                                      ",
"                                                                                                                                                      ",
"                                                                                                                                                      ",
"                                                                                                                                                      ",
"                                                                                                                                                      "
};
