/* XPM */
static char *b23e6e9dcd3a40e2a82bd752a64e36191mVKYmLQ976WxKRr[] = {
/* columns rows colors chars-per-pixel */
"75 75 227 2 ",
"   c None",
".  c #2D1C03",
"X  c #291704",
"o  c #341D01",
"O  c #3B1D02",
"+  c #311400",
"@  c #2F2307",
"#  c #352403",
"$  c #3C2504",
"%  c #33240B",
"&  c #3A250D",
"*  c #35290C",
"=  c #3A2B0B",
"-  c #3B2A03",
";  c #2C2010",
":  c #362811",
">  c #382916",
",  c #3E3417",
"<  c #422905",
"1  c #442808",
"2  c #45320D",
"3  c #5C390D",
"4  c #56380A",
"5  c #463617",
"6  c #563D12",
"7  c #5A3F12",
"8  c #462D12",
"9  c #643F10",
"0  c #603B07",
"q  c #473923",
"w  c #544114",
"e  c #574717",
"r  c #56410D",
"t  c #65420C",
"y  c #6A450E",
"u  c #72490E",
"i  c #634413",
"p  c #6C4511",
"a  c #644814",
"s  c #694912",
"d  c #644A1D",
"f  c #5F5025",
"g  c #634E29",
"h  c #6C5321",
"j  c #615422",
"k  c #775928",
"l  c #645634",
"z  c #7B6536",
"x  c #8A5916",
"c  c #91610E",
"v  c #8C641B",
"b  c #92621D",
"n  c #976716",
"m  c #A0691D",
"M  c #AA7117",
"N  c #8A5F28",
"B  c #88672C",
"V  c #8A6935",
"C  c #8C733B",
"Z  c #8A753B",
"A  c #9C7A3B",
"S  c #947835",
"D  c #916F2E",
"F  c #A67525",
"G  c #AB7324",
"H  c #867442",
"J  c #967B46",
"K  c #816D43",
"L  c #B78628",
"P  c #A8833A",
"I  c #BC8F3A",
"U  c #DD8D03",
"Y  c #DD9206",
"T  c #CB8A19",
"R  c #D78E17",
"E  c #D3911B",
"W  c #E88702",
"Q  c #E58C01",
"!  c #EA8B01",
"~  c #E78A0C",
"^  c #E59304",
"/  c #EB9303",
"(  c #ED950C",
")  c #ED9D0C",
"_  c #E6960A",
"`  c #F2960D",
"'  c #F29C0E",
"]  c #F89B06",
"[  c #EC9411",
"{  c #EE9C13",
"}  c #E6971A",
"|  c #F29D12",
" . c #FA9F12",
".. c #F18F08",
"X. c #EEA40C",
"o. c #F6AD04",
"O. c #FBAD05",
"+. c #F2A40D",
"@. c #F9A10D",
"#. c #FBAC0C",
"$. c #F8AA09",
"%. c #FCB30E",
"&. c #FEBA0D",
"*. c #FBB506",
"=. c #EEA513",
"-. c #ECA31E",
";. c #E8A616",
":. c #F4A315",
">. c #FAA314",
",. c #F4AA15",
"<. c #FBAC14",
"1. c #F5A41B",
"2. c #FCA51B",
"3. c #F5AB1B",
"4. c #FBAB1B",
"5. c #FDB314",
"6. c #FDBA14",
"7. c #F6B41C",
"8. c #FBB41C",
"9. c #F5B91C",
"0. c #FDBA1D",
"q. c #F5B614",
"w. c #C68C27",
"e. c #D28F2A",
"r. c #D48E26",
"t. c #D29123",
"y. c #D1932A",
"u. c #D79D24",
"i. c #D49E36",
"p. c #CF9A30",
"a. c #E69A24",
"s. c #DAA137",
"d. c #E3A524",
"f. c #EDA625",
"g. c #EDA62B",
"h. c #EDAB2C",
"j. c #EEAB20",
"k. c #F5A322",
"l. c #F4AC23",
"z. c #FBAD22",
"x. c #F4A92D",
"c. c #FBA320",
"v. c #EBB329",
"b. c #F5B423",
"n. c #FCB523",
"m. c #F5BB25",
"M. c #FDBB23",
"N. c #F6B42B",
"B. c #FCB62A",
"V. c #F6BC2C",
"C. c #FCBB2B",
"Z. c #E5A633",
"A. c #EEA534",
"S. c #EEAC3A",
"D. c #F2AC33",
"F. c #F2AD3A",
"G. c #ECB637",
"H. c #FAB535",
"J. c #F4BC34",
"K. c #FABC33",
"L. c #F4BC3B",
"P. c #F9BC3C",
"I. c #F4B537",
"U. c #FAC22D",
"Y. c #F8C028",
"T. c #EFC03B",
"R. c #F6C234",
"E. c #FAC234",
"W. c #F5C33B",
"Q. c #FAC43B",
"!. c #F6C83D",
"~. c #9E8946",
"^. c #AB8E54",
"/. c #BEA45F",
"(. c #C9A549",
"). c #DDB849",
"_. c #CCAB56",
"`. c #C6A758",
"'. c #D1A948",
"]. c #E9B847",
"[. c #F3BD44",
"{. c #F5BE47",
"}. c #F9BF50",
"|. c #E5AF4A",
" X c #C6AB65",
".X c #DEBF73",
"XX c #D9AE63",
"oX c #E1BC6C",
"OX c #EFC840",
"+X c #F5C543",
"@X c #FAC444",
"#X c #F6CA45",
"$X c #FAC945",
"%X c #F5C64B",
"&X c #FAC64B",
"*X c #F5CA4B",
"=X c #FBCB4B",
"-X c #FBD04F",
";X c #F5C552",
":X c #FCC654",
">X c #F6CB52",
",X c #FBCC53",
"<X c #FCCD5C",
"1X c #F3C65D",
"2X c #FCD254",
"3X c #FDD35D",
"4X c #FCDA5C",
"5X c #EDCD6C",
"6X c #FCCB63",
"7X c #F1C768",
"8X c #FDD464",
"9X c #FED865",
"0X c #FDD56A",
"qX c #FEDB6C",
"wX c #F7D766",
"eX c #EECC71",
"rX c #F2CD72",
"tX c #F7D576",
"yX c #FDD472",
"uX c #FEDC75",
"iX c #F7D679",
"pX c #FCDA7A",
"aX c #F5D878",
"sX c #FFE36D",
"dX c #FFE67E",
"fX c #FDD984",
"gX c #FFE585",
/* pixels */
"                                                                                                                                                      ",
"                                                                                                                                                      ",
"                                                                                                                                                      ",
"                                                                                                                                                      ",
"                                                                                                                                                      ",
"                                                                                                                                                      ",
"                                                                                                                                                      ",
"                                                                                                                                                      ",
"                                                                                                                                                      ",
"                                                                                                                                                      ",
"                                                                                                                                                      ",
"                                                                                                                                                      ",
"                                                                                                                                                      ",
"                                                                                                                                                      ",
"                                                                                                                                                      ",
"                                                          % # # * : : * * = - # # # # #                                                               ",
"                                                        g 7 w w w 7 7 6 w w w w w w w w f                                                             ",
"                                                # o . =  XuXaXaXaX0XwX0XtXiXiXiXiXiXiXpX X8 . % ;                                                     ",
"                                              H Z S C S ).=X@X@X;X8XwX<X:X=X$X$X=X=X=X,X|.n c n b V                                                   ",
"                                      & $ $ # ~.gXuXuXqXR.9.5.X.v.2X3X!.B.b.,.,.n.B.B.n.0.5.8.z.C.G $ $ 1 &                                           ",
"                                  * z  X_._._.).W.V.U.L.8.4.P.,X,X[.K.V.m.B.M.0.B.B.B.M.0.n.n.8.%.;.w.T T I k *                                       ",
"                                l 6 S pX9X9X9XQ.8.5.0.b.8.l.+X3X=XC.8.0.M.M.M.0.0.0.B.B.M.M.M.M.M.0.8.5.0.P.n 4 l                                     ",
"                            % # ^.fX1XG.m.m.V.N.3.$.$.l.:X0X=XY.Y.M.C.M.M.M.C.C.M.M.0.0.n.B.M.0.0.0.m.J.6X8XG.g.G $ %                                 ",
"                            C D '.=XY.0.0.%.%.<.,.8.B.L.%X,XJ.,.>.,.3.1.,.3.3.2.1.,.q.6.0.M.6.&.6.Y.#X%X8X8X%X@Xs.x N                                 ",
"                        . r 5XsX!.9.&.0.B.,.o.o.,.I.8X3XR.M.:.~ ~ ! Q ! ! ! ! ! ! Q =.B.B.0.0.M.V.%X9X0XwX9X0XyX:XH.Z.0 %                             ",
"                    * H /.(.L.W.K.C.B.4.4.n.b.W.,X{.d.-.{ ) | >.>. .>.>.>.>.>.@.@.>.' ( ` ` { [.3X3X9X8XwX8X*XW.C.N.l.T L B &                         ",
"                  q # C dX2Xm.n.n.n.8.#.o.m.L.%X<X[._ ! ! ! ' #.O.#.<.<.<.4.4.,.<.<.+./ ( } u.{.<X<X0X8X3X2XQ.0.6.0.6.8.H.v # q                       ",
"                  , X V pX<XY.M.5.$.8.B.V.2X8XG.Y [ c.2.>.>.4.B.M.0.0.8.n.8.#.<.n.M.n.B.L.,X<XZ.R S.qXwXW.V.C.M.M.0.0.<.l.v + q                       ",
"                  Z B I ,X@X9.q.#.#.b.!.@X[.].g.( ] 4.4.7.8.n.M.M.M.0.0.M.0.5.%.6.M.E.@X*X3X8X].Z.S.L.G.V.M.M.0.M.B.B.5.b.L x N                       ",
"              > < `.dX,Xq.M.<.<.<.3.J.4X,Xa.~ | <.O.0.M.M.M.M.M.M.M.M.0.0.0.M.M.0.V.#X8X8X0X0X0X9XI.U ^ b.M.M.0.0.M.B.B.B.b.M.w.< =                   ",
"              * $ `.uX$X6.B.4.3.P.,X[.d.-.1.>.<.0.6.0.0.M.0.0.M.M.M.M.0.6.6.B.K.$X,X3X0X0X0X8X&XW.V.7.3.' ) 3.B.M.0.0.6.B.<.O.T < %                   ",
"              w 4 '.9XQ.6.B.b.v.%X3XL.Q ! <.o.5.M.0.0.M.M.0.0.M.M.M.M.0.6.0.K.[.3X0X0X0X0X3X,XE.9.6.0.B.( Q 3.M.0.0.0.6.B.7.<.E 3 4                   ",
"          * d .X7X+XL.N.+.z.,X2X@XK.b.Q ..>.o.q.M.M.M.M.M.0.0.M.B.M.M.0.m.W.,X8X9X9X0X0X2XW.K.M.0.6.0.B.[ Q 3.M.0.0.M.0.0.7.,.3.a.i.d %               ",
"          % a rX0XK.N.H.N.K.=X=XN.3.:.( ' 4.#.8.M.M.M.M.M.M.0.6.0.M.n.E.W.=X8X0X0X9X3X,X@XV.n.0.0.0.0.n.+.) 1.3.4.B.M.E.E.0.#.O.2.A.p #               ",
"          # e eX8X9.,.P.9X3XJ.V.) Q ' 2.4.B.M.0.M.M.M.B.M.M.0.6.0.n.J.=X3X9X0X0X0X3X=XV.B.B.0.0.0.0.M.0.0.B.| W { V.V.,X9X&XB.8.z.A.p #               ",
"          # s 5XyX,X%X;X$XQ.m.B.' ! ' 2.<.0.M.M.M.M.M.M.M.0.0.M.V.$X=X3X9X0X0X8X*XQ.C.B.M.M.M.0.M.M.M.0.0.m.:.! -.=X$X+X!.K.M.&.<.g.y #               ",
"          # s rXyX8X3X=Xm.0.0.B.' ! ' 2.#.0.M.M.M.M.M.0.0.0.M.V.+X3X9X0X0XwX8X,XV.0.0.M.B.B.B.B.B.M.M.0.0.m.:.W f.3X3XV.0.M.8.5.4.g.y #               ",
"          # a eX0X!.V.C.0.0.0.B.' Q ' 4.#.0.0.M.M.B.M.0.0.b.Q.2X3XwX0X0X9X,XW.K.M.0.0.M.M.B.B.B.M.M.0.0.0.n.:.W { P.K.C.B.n.B.8.<.g.s #               ",
"          # a eX0XR.n.B.0.0.0.B.' Q ` 4.#.0.M.0.0.0.0.M.Y.W.,X0X0XwX8X3X,X@XV.n.M.0.M.M.M.M.M.M.M.M.0.C.W.@Xk.W ' 0.&.6.0.6.n.6.O.f.s #               ",
"          # a eX0XR.m.B.0.0.0.B.' Q ` 2.<.n.M.0.0.0.m.J.,X9X9X9X0X0X3X!.m.B.B.M.0.0.M.M.M.0.0.M.M.n.m.L.3X8XD.W ' 0.*.6.0.0.V.9.#.f.s #               ",
"          # a eX9XE.B.B.0.0.0.B.) Q ' z.<.n.B.M.M.V.$X,X8X0X0X0X8X&XQ.m.0.0.0.0.0.M.M.M.M.M.M.M.m.E.=X=X#X$Xf.W | B.M.B.V.E.=XQ.z.A.s #               ",
"          # a eX8XE.B.B.0.0.0.M.X.^ | 4.<.8.M.B.J.+X8X0XwXwX9X3X=XC.0.M.M.M.M.M.M.M.M.M.M.M.M.C.J.$X8X,XV.N.:.! ) n.M.V.J.$X3X=Xz.g.p #               ",
"          % a tXqXU.0.0.0.M.0.0.b.B.k.^ _ 8.0.Q.3X8X0X0X0X0X,XV.0.0.0.0.M.M.M.M.M.M.B.B.M.0.B.=X3X,X[.H.{ ^ 3.B.b.9.M.=X3X$XL.V.z.D.p #               ",
"            h `._.].Q.C.M.B.0.0.0.B.3.Q [ H.W.>X0X0X0X9X3X2X@Xn.6.&.6.M.B.M.M.M.B.B.B.M.C.E.!.>X<X&XM.8.[ Q 4.M.m.R.!.=X-XR.m.j.T w.h                 ",
"              = < `.uX&XM.0.M.M.0.M.,.U } <XqX0X0X0X9X3XW.V.m.M.M.M.M.0.M.M.m.B.B.B.0.6.E.3X4XOX9.0.M.B.( Q :.0.R.3X4XR.B.b.z.w.< =                   ",
"              = - `.qX$XM.M.0.0.6.0.b.h.S.F.F.;XwX3X$XQ.V.6.6.M.C.C.M.M.M.B.0.&.6.m.Q.=X*X%X$XV.6.*.:.k.,.=.L.>X*X$XQ.V.B.<.#.T 1 >                   ",
"              = 2 /.tX;XJ.K.M.M.B.V.@X3X:X} Y G.8X=XN.M.0.0.0.M.B.m.M.M.M.M.0.6.0.R.=X8X-XV.B.B.B.3.Q _ N.R.,X9X=Xm.0.0.0.z.x.L 2 >                   ",
"                  l w P 9X=XV.B.@X:X<X6X6X;X}.S.a.-.B.6.6.C.B.M.M.0.M.0.0.0.n.J.,X2X$XR.Q.C.0.X._ 1.8.m.,X<X$XC.C.B.0.q.z.M 4 j                       ",
"                  , X D qX<XW.R.:X6X<X6X6X:X&Xh._ { z.8.8.b.b.M.0.M.M.0.0.C.R.!.-X2XW.b.b.7.q.=.( l.Q.!.-X2XE.0.M.C.M.<.l.b o 5                       ",
"                    # C gXuX<X<X6X6X6X<X:XJ.m.n.C.4./ ! ! W :.C.C.V.C.B.M.!.8X9X@XC.:.Q Q Q ~ 3.m.+X0X3XR.m.m.n.M.0.M.n.H.b O 5                       ",
"                      K J P 1X6X6X<X:X@XE.M.0.M.B.7.,.>.:.1.:.:.:.1.1.:.:.f.D.D.f.1.:.>.>.:.k.P.%X*X>X@XC.&.6.C.5.*.3.M v B                           ",
"                        X 6 oXyX6X:X@Xn.0.M.B.B.n.m.M.0.M.C.+.! ! Q Q Q ! ! W Q Q U =.M.V.m.C.,X0X$X9.0.B.6.6.B.B.D.s.3 X                             ",
"                            g i (.9X$X0.6.0.0.M.B.M.M.0.0.0.8.3.I.@X=XL.z.7.b.b.4.$.q.B.K.=X2X+XK.C.M.0.B.B.5.n.w.t d                                 ",
"                              # ^.XX|.J.0.M.M.6.V.B.&.M.M.M.m.R.%X3X3XQ.0.6.B.C.M.6.m.P.+X2X2XE.B.0.q.b.b.b.d.y.F <                                   ",
"                                  O B fX0X0X0XE.M.6.*.0.B.m.$X3X,XL.V.n.B.B.B.M.0.M.@X8X2XL.J.V.B.0.5.5.%.H.x $ q                                     ",
"                                    z J A A A i.b.b.q.9.Q.#X*X&XQ.M.6.0.M.B.C.C.E.Q.$X*XE.7.9.8.7.t.m m m D z                                         ",
"                                      X o o O m N.x.D.D.&X8X+Xm.M.B.B.0.&.6.B.W.<X3X$Xm.b.l.l.3.N.G O % % X                                           ",
"                                              k i i 9 u p.K.n.0.5.5.5.5.5.5.%.5.B.H.B.0.u.u t t t k                                                   ",
"                                                % * % 8 P y.r.e.t.E E t.e.y.E R R r.e.y.L 4 & : ;                                                     ",
"                                                        8 < < < < < < < < < < < < < < $ 5                                                             ",
"                                                                                                                                                      ",
"                                                                                                                                                      ",
"                                                                                                                                                      ",
"                                                                                                                                                      ",
"                                                                                                                                                      ",
"                                                                                                                                                      ",
"                                                                                                                                                      ",
"                                                                                                                                                      ",
"                                                                                                                                                      ",
"                                                                                                                                                      ",
"                                                                                                                                                      ",
"                                                                                                                                                      ",
"                                                                                                                                                      ",
"                                                                                                                                                      ",
"                                                                                                                                                      "
};
