/* XPM */
static char *result[] = {
/* columns rows colors chars-per-pixel */
"75 75 235 2 ",
"   c #010100",
".  c #090A0B",
"X  c #060A0A",
"o  c #0C1616",
"O  c #171B1C",
"+  c #1D0B04",
"@  c #291106",
"#  c #181F20",
"$  c #0D2626",
"%  c #0D2D2C",
"&  c #1C2325",
"*  c #1C2628",
"=  c #17292A",
"-  c #143435",
";  c #183939",
":  c #0F3131",
">  c #24292C",
",  c #222527",
"<  c #382F2A",
"1  c #332E2C",
"2  c #272D32",
"3  c #292E31",
"4  c #2B3033",
"5  c #283639",
"6  c #333332",
"7  c #461902",
"8  c #491A02",
"9  c #591D01",
"0  c #641D00",
"q  c #6A1C00",
"w  c #761B00",
"e  c #5D2205",
"r  c #552A14",
"t  c #492A19",
"y  c #662100",
"u  c #6B2400",
"i  c #6D2A05",
"p  c #712600",
"a  c #742A02",
"s  c #7B2D04",
"d  c #782A07",
"f  c #7B310B",
"g  c #7D3008",
"h  c #7B3919",
"j  c #463830",
"k  c #6E4930",
"l  c #363D42",
"z  c #163F41",
"x  c #1C5555",
"c  c #354245",
"v  c #235959",
"b  c #2F444C",
"n  c #287070",
"m  c #475050",
"M  c #735548",
"N  c #6C5245",
"B  c #6F6958",
"V  c #596E75",
"C  c #59767C",
"Z  c #4D656C",
"A  c #727775",
"S  c #435C61",
"D  c #813107",
"F  c #85340A",
"G  c #8B370D",
"H  c #843913",
"J  c #8A3A12",
"K  c #843A15",
"L  c #933D11",
"P  c #9B3F11",
"I  c #8C3208",
"U  c #9B4315",
"Y  c #97441A",
"T  c #89431A",
"R  c #A4491A",
"E  c #AB4B1B",
"W  c #B2511F",
"Q  c #B14F1D",
"!  c #944723",
"~  c #9A4A24",
"^  c #964A27",
"/  c #9A5331",
"(  c #A14B22",
")  c #A74F25",
"_  c #AB5326",
"`  c #B25121",
"'  c #BA5929",
"]  c #A65634",
"[  c #AC5934",
"{  c #AD5C3A",
"}  c #A85733",
"|  c #B95B32",
" . c #B25E3B",
".. c #B45A33",
"X. c #B14F21",
"o. c #B6623E",
"O. c #B3763D",
"+. c #C15C29",
"@. c #C85F2A",
"#. c #C15F38",
"$. c #C9612E",
"%. c #D2672F",
"&. c #CA693E",
"*. c #C96638",
"=. c #D26731",
"-. c #D36933",
";. c #DA6D37",
":. c #EE793E",
">. c #E6753C",
",. c #F07A3F",
"<. c #905D44",
"1. c #8F6045",
"2. c #AD6141",
"3. c #B56442",
"4. c #BB6643",
"5. c #BC6946",
"6. c #BC6B4A",
"7. c #B5694A",
"8. c #B77458",
"9. c #B37350",
"0. c #AF7863",
"q. c #B35D40",
"w. c #C46B45",
"e. c #CB6D44",
"r. c #C36D4A",
"t. c #CA6F48",
"y. c #C56741",
"u. c #D26C42",
"i. c #D86F44",
"p. c #C9724B",
"a. c #D57146",
"s. c #DB7446",
"d. c #D37249",
"f. c #DB7348",
"g. c #CD7751",
"h. c #EB7B44",
"j. c #EC7D48",
"k. c #E47845",
"l. c #F37E44",
"z. c #FB7E41",
"x. c #F17F49",
"c. c #B08573",
"v. c #D5935A",
"b. c #D18E59",
"n. c #F58146",
"m. c #FC8244",
"M. c #FF8946",
"N. c #F5824A",
"B. c #FE8649",
"V. c #FF8A4A",
"C. c #FE914F",
"Z. c #FF8F51",
"A. c #FF9351",
"S. c #EE804C",
"D. c #F1A65F",
"F. c #D8B675",
"G. c #DDA562",
"H. c #FAAA63",
"J. c #FDB76A",
"K. c #EBBA73",
"L. c #F2BC73",
"P. c #FFBE72",
"I. c #EAA962",
"U. c #DAA05E",
"Y. c #FDC274",
"T. c #F9C779",
"R. c #FED27F",
"E. c #597D83",
"W. c #6C7B84",
"Q. c #2C8C8C",
"!. c #2F918F",
"~. c #308F90",
"^. c #2F9191",
"/. c #309192",
"(. c #319B9A",
"). c #38A9A9",
"_. c #3DB4B4",
"`. c #549191",
"'. c #72848D",
"]. c #6E8D95",
"[. c #6A8C94",
"{. c #708B94",
"}. c #6D939B",
"|. c #67969B",
" X c #74949D",
".X c #6B8488",
"XX c #499FA1",
"oX c #6B9CA3",
"OX c #6C98A3",
"+X c #739BA3",
"@X c #769FA8",
"#X c #48AEAE",
"$X c #52B5B7",
"%X c #6CA4AB",
"&X c #68A4AB",
"*X c #72A3AB",
"=X c #65ADB3",
"-X c #68AAB2",
";X c #63B4BA",
":X c #67B3B9",
">X c #7AA9B2",
",X c #5EC2BA",
"<X c #57BDC1",
"1X c #61BCC1",
"2X c #3DD8D7",
"3X c #5EC2C6",
"4X c #5EC5CA",
"5X c #5DC9CD",
"6X c #4AD9DA",
"7X c #56DCDD",
"8X c #59D7D9",
"9X c #4FCACC",
"0X c #61C3C7",
"qX c #62CDD1",
"wX c #64D9DE",
"eX c #56DEE1",
"rX c #4CEBEB",
"tX c #5CE2E4",
"yX c #52ECED",
"uX c #54E5E6",
"iX c #4EF3F4",
"pX c #4DFFFF",
"aX c #4BF7F7",
"sX c #53F2F3",
"dX c #53FFFF",
"fX c #59F9FA",
"gX c #54EEF0",
"hX c #60E2E6",
"jX c #818586",
"kX c #979B9B",
"lX c #AD9890",
"zX c #ADA29D",
"xX c #ABA8A7",
"cX c #FFD883",
"vX c None",
/* pixels */
"vXvXvXvXvXvXvXvXvXvXvXvXvXvXvXvXvXvXvXvXvXvXvXvXvXvXvXvXvXvXvXvXvXvXvXvXvXvXvXvXvXvXvXvXvXvXvXvXvXvXvXvXvXvXvXvXvXvXvXvXvXvXvXvXvXvXvXvXvXvXvXvXvXvXvX",
"vXvXvXvXvXvXvXvXvXvXvXvXvXvXvXvXvXvXvXvXvXvXvXvXvXvXvXvXvXvXvX; - ; ; ; ; - : b O + H L J Y T u G J H h vXvXvXvXvXvXvXvXvXvXvXvXvXvXvXvXvXvXvXvXvXvXvX",
"vXvXvXvXvXvXvXvXvXvXvXvXvXvXvXvXvXvXvXvXvXvXvXvXvXvX- - - % x pXdXyXgXsXsXsXrX6XB P m.M.A.T.v.9 =.V.r.! u vXvXvXvXvXvXvXvXvXvXvXvXvXvXvXvXvXvXvXvXvXvX",
"vXvXvXvXvXvXvXvXvXvXvXvXvXvXvXvXvXvXvXvXvXvXvX$ $ % 6XsXgXsXsXrX3XoX}. X X[.A f =.V.N.D.T.g.] y =.B.r.~ u F H vXvXvXvXvXvXvXvXvXvXvXvXvXvXvXvXvXvXvXvX",
"vXvXvXvXvXvXvXvXvXvXvXvXvXvXvXvXvXvXvXvX$ $ ; iXiXuX&X}.OXOXoX X8XpX*X].{.k U m.n.M.R.H.m.t.] 0 =.B.a.( u h.;.d vXvXvXvXvXvXvXvXvXvXvXvXvXvXvXvXvXvXvX",
"vXvXvXvXvXvXvXvXvXvXvXvXvXvXvXvXvXo o x rXrXyXiX8XoX}. X}. X}.W.$XrXoXB u ;.m.m.M.N.T.D.z.t.] u =.B.f.( u ,.h.4.K i vXvXvXvXvXvXvXvXvXvXvXvXvXvXvXvXvX",
"vXvXvXvXvXvXvXvXvXvXvXvXvXvXvXo n iXrX8XoXoXoX}.0XsX=X}.[.[.E.. X o X @ a ;.M.z.J.Y.f ` V.t.] y =.B.f.( u :.j.5.J y o vXvXvXvXvXvXvXvXvXvXvXvXvXvXvXvX",
"vXvXvXvXvXvXvXvXvXvXvXvXvX. $ 6XrXpX:XoX}.}.}. X}.|.gX).X . o , , > > t s ;.M.z.J.T.p Q M.t.} 0 =.m.a.( u :.j.5.D k uXn X vXvXvXvXvXvXvXvXvXvXvXvXvXvX",
"vXvXvXvXvXvXvXvXvXvXvXvXX !.uX&X%XoXuX7XOX}.].+XS . o $ , , , 3 2 6 e ( n.n.m.z.J.T.p Q V.f.| y =.B.s.( u :.j.5.H p h `.rXo X vXvXvXvXvXvXvXvXvXvXvXvX",
"vXvXvXvXvXvXvXvXvXvX  - 6X<X%X}.}.}.oX;XsXv o o O , , , 4 3 4 3 3 4 y E V.m.M.,.J.T.i Q V.f.| y =.m.i.( u ,.j.5.J u w B ;X6X^.  vXvXvXvXvXvXvXvXvXvXvX",
"vXvXvXvXvXvXvXvXvX  ).9X-XoX[.}.}.}.+XE.= & , , > 3 4 4 4 3 3 3 2 6 e R V.z.C.Y.v.5.p Q V.f.| y =.B.s.~ u :.x.e.J u u B oX%X$X9X-   vXvXvXvXvXvXvXvXvX",
"vXvXvXvXvXvXvXvXvX  9XaXuX;X].}.}.+X2 O # > 3 3 3 3 4 > 3 3 3 2 t i -.:.m.m.C.cXv.{ u ` V.f.| y =.B.r.~ u :.n.a.J F k._ k 8XaXdX%   vXvXvXvXvXvXvXvXvX",
"vXvXvXvXvXvXvXX x 9X=X&X=X8XuX>XZ # # , 4 3 3 3 3 3 3 3 3 3 3 2 r s n.M.m.m.C.R.v.o.p ` V.f.| y =.B.6.! u :.n.i.J F Z.Q y &X:X&X9X).  vXvXvXvXvXvXvXvX",
"vXvXvXvXvXvXvX  x dX=X{.{.&X#X5 & # 3 4 3 3 3 3 3 3 3 3 3 3 3 > r D :.m.m.m.C.R.b. .u ` V.f.| q =.B.r.^ u :.x.a.J F V.X.i {.}.].dX6X  vXvXvXvXvXvXvXvX",
"vXvXvXvXvXvXo ).$X=XoXOX}.+X'.  . 6 3 3 3 3 3 3 3 3 3 3 3 3 2 2 t a ,.M.m.,.C.cXv.{ u ` V.f.| 0 =.B.r.! p :.l.d.J D V.E y +XoX}.=X$X_.v . vXvXvXvXvXvX",
"vXvXvXvXvX    pXtX.X{.].+XS 2 & , 3 3 3 3 3 3 3 3 3 3 3 3 3 3 r Y -.m.m.m.H.H.b.g.&.p ` V.k.| 0 =.B.d.~ q :.x.d.J F B.*./ k B +X'.&XdXv   vXvXvXvXvXvX",
"vXvXvXvX  n ).=X4XeXuXqXkXz   3 3 3 3 3 3 3 3 3 3 3 3 3 3 3 < u @.C.m.m.z.Y.L.q.e.u.u X.V.d...0 =.B.s.( u :.l.i.J F B.f.7.w B 7X7X8X;X#X(.o vXvXvXvXvX",
"vXvXvXvX  !.dX[.%X5X5X#Xb 2 # 3 3 3 3 3 3 3 3 3 3 3 3 3 3 3 < y ' V.m.m.z.P.L.5.t.u.u ` V.r.] y =.m.s.( u :.x.i.J F B.k.5.p B wX5X1X'.tXpXX   vXvXvXvX",
"vXvXvXvX  Q.fXoX].]. XV   O 5 3 3 3 3 3 3 3 3 3 3 3 3 3 3 2 < y +.V.m.m.z.P.L.q.e.&.u ` V.t.] y =.m.f.( u :.x.i.J F B.h.&.D r 5 W.}.].8XrXX   vXvXvXvX",
"vXvXvXvX  Q.pXoX}.}.>XE.  O 3 3 3 3 3 3 4 3 3 3 3 3 3 3 3 3 < u +.V.m.B.V.T.T.r.p.e.u ` V.w.] y =.B.t.~ u :.n.a.J F B.k.&.D 7   C *X{.tXaX    vXvXvXvX",
"vXvXvX= n XX0X].{.{.Z b o , 3 3 3 3 3 4 3 3 3 3 3 3 3 3 3 2 < y +.M.V.>.` O.O.T ! ! u ` Z.g.{ q =.m.6.! u :.x.t.H F V.k.4.D 8   V  X'.=X4Xn v vXvXvXvX",
"vXvX  $ pXtX1X5X4XqX=   6 3 3 3 3 3 3 3 3 3 3 3 3 3 3 3 3 2 < u +.V.$.` R R E E Q R y J ' ~ T u ;.Z.g.^ u :.h.6.H F B.s. .s 7   XXqX0X0X4XdX/.  vXvXvX",
"vXvX  $ aXyX7XuX7XtX; . 3 2 3 3 3 3 3 3 3 3 3 3 3 3 3 3 3 2 < y @.B.u R C.N.S.S.S.h.Q R U R P 9 R ' ~ K p ,.N.r.K F N.s.q.f 8   #XtX7X7XeXfX!.  vXvXvX",
"vXvX  $ pX3X'.].{. X,   3 2 3 3 4 3 3 3 3 3 3 4 3 3 3 3 3 2 < y +.V.u R C.w.7.4.0.0.S.S.N.x.;.R U U R G 0 ' ' / f G Z.k.3.D 7   V  X].].}.pX!.  vXvXvX",
"vXvX  $ pX4X}.oX}.*X*   3 3 3 3 3 3 3 3 3 3 3 4 3 3 3 3 3 2 < y +.B.U ` *.[ } ) c.lX7.4.4.0.g.j.N.x.B.*.L U P Y a d =...^ s 7   C *X|. XoXdX!.  vXvXvX",
"vXvX  $ pX1X'.].{. X*   4 3 3 3 3 3 3 3 3 3 3 3 3 3 3 3 3 2 < u +.V.Z.-.J p 0 y Y } ] } } lXlX3.7.7.0.g.N.N.x.x.` L L L L p 8 + C  X].{.|.dX!.  vXvXvX",
"vXvX  $ pX8X=X:X:X:X= X 3 3 3 3 3 3 3 3 3 3 3 3 3 3 3 3 3 2 < y +.V.z.m.C._ T H d u a u 0 ~ ..[ } 2.zX0.4.5.7.0.S.N.N.N.x.U I a [.;X=X=X;XdX!.  vXvXvX",
"vXvX  $ pXiXyXyXyXgX5   3 3 > 3 3 3 3 4 3 4 3 3 3 3 3 3 3 2 < u +.V.m.m.m.Y.L.r.~ f a g L p u a u d [ [ { [ 9.zX0.3.6.9.8.N.@.q ,XgXyXyXrXpX!.  vXvXvX",
"vXvX  $ pX4X{.}.}. X*   4 3 3 3 3 3 3 4 3 3 3 3 3 3 3 3 3 3 < y +.V.m.m.m.P.L.3.e.u.u ` V.Y d a f G u p a y F o.{ { [ c.zX6.] w W.oX}.].oXdX^.  vXvXvX",
"vXvX  $ pX4X{.OX}.@X,   4 3 3 3 3 3 3 3 3 3 3 3 3 3 3 3 3 2 < u +.V.m.m.z.P.L.4.e.e.p W V.p.] 0 -.l.f d p D f u a p u ! 3.3.! 9 A oX}.}.oXdX/.  vXvXvX",
"vXvX  $ pX0X{.}.]. X* X 4 3 3 3 4 3 3 3 3 3 3 3 3 3 3 3 3 3 < y +.M.m.m.,.P.L.u.w.4.u W V.r.] u %.V.5.~ p l.-.d a a f g a s 8   C +X}.[.|.dX/.  vXvXvX",
"vXvX  $ pX5XOXoX&X%X=   4 3 3 3 3 3 3 3 3 3 3 4 3 3 4 3 3 > < u +.V.m.m.m.P.L.u.w.4.u ` V.p.] y =.N.5.! u :.j.4.H F V.` u s 7   E.%XoXoX&XdX^.  vXvXvX",
"vXvX  $ pXaXiXsXyXfXz   3 3 3 3 4 3 3 3 3 3 3 3 3 3 3 3 2 2 < u +.V.m.m.z.Y.L.;.9.2.u X.V.t.] 0 -.B.r.! u ,.j.6.H F V.a.{ D 7   $XaXiXyXyXpX!.  vXvXvX",
"vXvX  $ pX5XOXoXoX*X>   3 3 3 3 3 3 3 3 3 3 3 3 3 3 3 3 3 2 < y +.M.m.M.z.Y.L.5.M b i _ V.t.] y =.B.f.~ u ,.h.6.H F M.s.3.f 7   E.%XoX&X&XdX^.  vXvXvX",
"vXvX  $ pX4X{.}.}.+X&   3 3 3 3 3 3 3 3 3 3 3 3 3 3 3 3 3 2 < u +.V.m.m.l.P.F.j 0.kXc <.V.t.] y -.B.f.~ u ,.j.5.H F B.f.2.D 7   C +X}.].OXpX^.  vXvXvX",
"vXvX  $ pX4X].oX}.+X& . 3 2 3 3 3 3 3 3 3 4 4 3 3 3 3 3 3 2 < y +.V.m.m.m.P.F.l jXxXc 1.M.t.] y -.B.f.( q h.j.6.H F B.k.y.D 7   C +X}. XoXdX^.  vXvXvX",
"vXvX  $ pX0X{.}.}.+X*   3 3 3 3 3 3 3 3 3 3 3 3 3 3 3 3 3 2 < y +.V.m.m.z.P.F.5 jXxXc 1.M.r.] 0 -.B.d.( q l.h.5.H F B.h.y.D 7   C oX}.}.OXdX^.  vXvXvX",
"vXvX  $ pXiXyXgXrXgX;   3 3 3 3 3 3 4 3 3 3 3 3 3 3 3 3 3 2 < u +.V.m.m.m.P.K.2.B m r ` M.f.| u -.B.f.( u :.x.d.J F B.k.&.D 7   $XsXrXyXrXpX^.  vXvXvX",
"vXvX  $ pX8X=X:X:X1X2   3 3 3 3 3 3 3 3 3 3 3 3 3 3 3 3 3 3 < y +.V.m.m.m.P.K.w.N 6 u W V.f.| 0 =.B.f.( u :.l.d.J F B.h.y.D 7   `.:X=X:X;XdX^.  vXvXvX",
"vXvX  $ pX0X'. X{. X*   3 3 3 3 3 3 3 3 3 3 3 3 3 3 3 3 3 2 < y +.V.m.m.z.P.L.u.M c y ` V.k.| 0 =.B.r.~ p :.x.i.J F B.k.&.D 7   V +X].].}.dX^.  vXvXvX",
"vXvX  $ pX4X].oX}.*X*   4 3 3 3 3 3 3 3 4 3 3 3 3 3 3 3 3 3 < u +.V.m.m.z.P.L.i.M c y ` V.f.| u =.B.r.! u :.x.a.J F B.f.o.D 7   C *X}.}.oXdX/.  vXvXvX",
"vXvX  $ pX3X'.].{. X&   4 3 3 3 4 3 3 3 3 3 3 3 3 3 3 3 3 3 < y +.M.m.m.z.P.L.i.M j u ` V.k.| 0 =.B.5.! p ,.j.r.H F V.a.o.f 7   V  X{.{.}.dX^.  vXvXvX",
"vXvX  $ dXyX7XeX7XtX;   4 3 3 3 3 3 3 3 3 3 3 3 3 3 3 3 3 3 < y +.V.m.m.z.P.L.y.M c y _ V.f.| y =.B.d.~ u ,.j.7.H F B.k.4.D 7   #XhX7X7X7XdX!.  vXvXvX",
"vXvX  $ pXuX4XqX5XqX2 X 4 3 3 3 3 3 3 3 3 4 3 3 3 3 3 3 3 2 < u +.M.m.M.z.P.L.e.N 6 u W V.f.| 0 -.B.f.( u ,.j.5.H F B.h.&.D 7   XXqX0X5X5XdX!.  vXvXvX",
"vXvX  $ pX3X'.{.{. X&   4 > 3 3 3 3 3 4 3 3 3 3 3 3 3 3 3 2 < y +.V.m.m.z.Y.K.N B A j } V.s.| u =.B.f.~ u ,.j.7.H F B.k.&.D 7   V  X{.{.}.dX!.  vXvXvX",
"vXvX  $ pX4X].oX}.+X*   4 3 3 3 3 3 3 3 3 3 3 3 3 3 3 3 3 2 < y +.M.m.m.z.Y.F.z jXxXb 1.M.d.[ y =.B.f.( u ,.x.w.J F B.h.&.D 7   C @X}.}.oXdX!.  vXvXvX",
"vXvX  $ pX1X'.{.{. X*   4 3 3 3 3 3 3 3 3 3 4 3 3 3 3 3 3 2 < u +.V.m.M.z.Y.F.5 jXxXb 1.M.p.} y =.B.f.( u ,.l.a.J F B.k.y.D 7   V  X].].}.dX!.  vXvXvX",
"vXvX  $ pXuX4X4X0XqX;   4 3 3 3 3 3 3 3 3 3 3 3 3 3 3 3 3 3 < y ' V.m.m.z.Y.K.k A A j ] M.p.] y =.B.u.~ u :.x.i.J F B.k.y.D 7   XX5X3X4X4XdX!.  vXvXvX",
"vXvX  $ pXyX7XeX7XhX;   6 3 3 3 3 3 4 3 3 3 3 3 3 4 3 3 3 2 < u +.M.m.m.,.P.L.w.<.k u W V.w.] y =.B.6.^ u :.n.t.H F V.s.{ D 8   #XtX8X8X7XdX^.  vXvXvX",
"vXvX  $ pX0X'.{.'. X*   3 3 3 3 3 3 3 3 3 3 3 3 3 3 3 3 3 2 < y +.V.m.M.m.P.L.3.d.s.u ` V.d.[ y =.z.r.^ w h.j.6.H F M.s.7.D 7   V  X{.{.}.dX^.  vXvXvX",
"vXvX  $ pX4X].oXOX@X*   3 3 3 3 3 3 3 4 3 3 3 3 3 3 3 3 3 2 < u +.V.m.m.,.Y.L.y.e.e.p ` V.k.| y -.z.6.! u :.j.p.J G Z.&.^ s 8 + E.*X}. XoXdX^.  vXvXvX",
"vXvX  $ pX4X'.].]. X&   3 3 3 3 3 3 3 3 3 4 3 3 3 3 3 3 3 2 < y +.V.m.m.,.P.L.u.u.y.u X.V.f...y -.B.r.^ u z.h./ d s &.W J U G p B .X}.{.|.dX^.  vXvXvX",
"vXvX  $ pX8X-X:X:X:X2   3 3 3 2 3 3 3 3 3 3 3 3 3 3 3 3 3 3 < y +.V.m.m.z.P.L.u.w.3.u ` M.s.o.y ;.B.[ K q =.@.H L L G =.B.N.*.f p k -X=X;XdX!.  vXvXvX",
"vXvX  $ pXiXyXyXyXgX;   4 3 3 2 3 3 3 3 3 3 3 3 3 3 3 3 3 3 < u +.M.m.m.z.P.L.u.t.4.p ` V.o.! y ' ;.G L L F X.B.n.n.N.g.8.7.6.6.D k gXuXuXpX!.  vXvXvX",
"vXvX  $ pX4X{.}. X+X&   3 3 3 2 3 4 3 3 4 3 4 3 3 3 3 3 3 3 < y +.V.m.M.m.Y.T.u.4.] u R >.U F G F P l.l.N.m.k.8.7.5.4.c.zX2.{ 3.k k }.].oXdX!.  vXvXvX",
"vXvX  $ pX4X{.OX}.+X& . 3 3 3 3 3 3 3 3 3 3 3 3 3 3 3 3 3 3 < u +.M.m.n.>.I.G.3.Y f G F F >.n.n.x.x.8.6.6.4.0.xX8. .{ o.{ g u y A oX}.}.oXdX^.  vXvXvX",
"vXvX  $ pX4X{.].}. X*   4 3 3 3 3 3 3 3 3 3 3 3 3 3 3 3 3 2 < y +.V.l.@.g G F s $.n.n.n.l.p.7.4.4.9.zXc...3.3.4.K u a p p s 7   C +X}.}.}.dX!.  vXvXvX",
"vXvX  $ pXqX}.&XoX*X,   4 3 3 3 3 3 3 3 3 3 3 3 3 3 3 3 3 2 < y +.V.s R N.l.l.l.d.9.5.w.O.lXlXo.3.o.7.! p d a p a a s s a s 7   E.&XoXoX&XdX^.  vXvXvX",
"vXvX  $ pXaXsXiXiXsXz X 3 3 3 3 3 3 3 3 3 4 3 3 3 3 3 3 3 3 < u +.B.p R C.e.5.&.c.xX7.o.3.6.] a s d s a p d a a u G n.a.{ D 7   _.iXrXiXrXdX/.  vXvXvX",
"vXvX  $ pXqX|.&X&X%X*   3 3 3 3 3 3 3 3 3 3 3 3 3 3 3 3 3 2 < y +.M.s R M.w.3.3.6.7.f g s s d p a a a u a >.k.4.H F M.h.w.D 7   .X*X&XoX&XdX^.  vXvXvX",
"vXvX  $ pX4X{.}.].+X,   3 3 3 3 3 3 3 > 3 3 3 3 3 3 > 3 3 2 < u +.V.h.+.f F f f f g p i p p p u +.h.&.~ p ,.x.d.J F M.k.&.D 7   C +X}.].}.dX/.  vXvXvX",
"vXvX  $ pX4X].}.}.@X*   4 3 3 3 3 3 3 3 > 3 3 3 3 3 3 3 2 2 < y +.V.m.l.>.G u u u p y E h.o.] u -.M.k.( u :.l.i.J F M.s.3.D 7   C +X}.}.oXdX/.  vXvXvX",
"vXvX  $ dXqX XOX}.*X*   3 3 3 3 3 3 3 3 3 3 3 3 3 3 3 4 4 4 < y +.V.m.m.B.I.G.| o.} p ` V.f.| 0 %.B.f.~ u :.x.a.J F V.s.{ D 7   C *X+X X%XfX/.  vXvXvX",
"vXvXvXvX- = O # O & .   . . . . . . . . . . X . . X X X . X + u +.V.m.m.z.Y.Y.f.d.e.p W V.f.| 0 =.m.r.~ u l.l.a.G F V.s.3.D 7   O & O O & - ; vXvXvXvX",
"vXvXvXvXvXvXvXvXvXvXvXvXvXvXvXvXvXvXvXvXvXvXvXvXvXvXvXvXvXvXvXu +.V.m.m.m.P.L.5.e.&.p ` V.f.| y =.m.6.^ u :.h.w.K F C.' f vXvXvXvXvXvXvXvXvXvXvXvXvXvX",
"vXvXvXvXvXvXvXvXvXvXvXvXvXvXvXvXvXvXvXvXvXvXvXvXvXvXvXvXvXvXvXy +.V.m.m.z.Y.L.3.e.u.p W V.f.| y -.N.r.! p h.j.6.K d Y T vXvXvXvXvXvXvXvXvXvXvXvXvXvXvX",
"vXvXvXvXvXvXvXvXvXvXvXvXvXvXvXvXvXvXvXvXvXvXvXvXvXvXvXvXvXvXvXu ' V.m.m.m.P.L.3.p.&.u W V.k.| y %.M.5.! u m.>.K K vXvXvXvXvXvXvXvXvXvXvXvXvXvXvXvXvXvX",
"vXvXvXvXvXvXvXvXvXvXvXvXvXvXvXvXvXvXvXvXvXvXvXvXvXvXvXvXvXvXvXy +.V.m.m.z.P.L.4.u.u.u W V.t.[ y %.m.g.! u R Y vXvXvXvXvXvXvXvXvXvXvXvXvXvXvXvXvXvXvXvX",
"vXvXvXvXvXvXvXvXvXvXvXvXvXvXvXvXvXvXvXvXvXvXvXvXvXvXvXvXvXvXvXu +.V.m.m.m.P.T.3.r.4.u W V.w.] 0 ;.B.! K vXvXvXvXvXvXvXvXvXvXvXvXvXvXvXvXvXvXvXvXvXvXvX",
"vXvXvXvXvXvXvXvXvXvXvXvXvXvXvXvXvXvXvXvXvXvXvXvXvXvXvXvXvXvXvXy +.V.m.m.,.P.K.5.5.o.u W M.g.[ u U ` vXvXvXvXvXvXvXvXvXvXvXvXvXvXvXvXvXvXvXvXvXvXvXvXvX",
"vXvXvXvXvXvXvXvXvXvXvXvXvXvXvXvXvXvXvXvXvXvXvXvXvXvXvXvXvXvXvXu +.V.m.m.m.P.K.3.5.4.u ' A._ T vXvXvXvXvXvXvXvXvXvXvXvXvXvXvXvXvXvXvXvXvXvXvXvXvXvXvXvX",
"vXvXvXvXvXvXvXvXvXvXvXvXvXvXvXvXvXvXvXvXvXvXvXvXvXvXvXvXvXvXvXy ' M.m.m.,.P.Y.o.r.5.a J ' f vXvXvXvXvXvXvXvXvXvXvXvXvXvXvXvXvXvXvXvXvXvXvXvXvXvXvXvXvX",
"vXvXvXvXvXvXvXvXvXvXvXvXvXvXvXvXvXvXvXvXvXvXvXvXvXvXvXvXvXvXvXu +.A.V.V.V.T.T.5.] ! f y e vXvXvXvXvXvXvXvXvXvXvXvXvXvXvXvXvXvXvXvXvXvXvXvXvXvXvXvXvXvX",
"vXvXvXvXvXvXvXvXvXvXvXvXvXvXvXvXvXvXvXvXvXvXvXvXvXvXvXvXvXvXvXy ) ' ' ' ' 6.9.^ h e vXvXvXvXvXvXvXvXvXvXvXvXvXvXvXvXvXvXvXvXvXvXvXvXvXvXvXvXvXvXvXvXvX",
"vXvXvXvXvXvXvXvXvXvXvXvXvXvXvXvXvXvXvXvXvXvXvXvXvXvXvXvXvXvXvXvXvX9 9 e e e 9 e vXvXvXvXvXvXvXvXvXvXvXvXvXvXvXvXvXvXvXvXvXvXvXvXvXvXvXvXvXvXvXvXvXvXvX"
};
