/* XPM */
static char *_23350b1593545e1f6b31f681eab1a9f5KYyoqzSss28EERI[] = {
/* columns rows colors chars-per-pixel */
"75 75 185 2 ",
"   c #040100",
".  c #0A0504",
"X  c #0D0906",
"o  c #0D0A09",
"O  c #100603",
"+  c #110A06",
"@  c #120D0B",
"#  c #190F0C",
"$  c #15110E",
"%  c #19120E",
"&  c #130F11",
"*  c #161211",
"=  c #1C1512",
"-  c #1E1916",
";  c #1F1918",
":  c #211714",
">  c #211A16",
",  c #291C16",
"<  c #241D1A",
"1  c #291E1B",
"2  c #26211E",
"3  c #2B221E",
"4  c #32241E",
"5  c #2D2422",
"6  c #2F2925",
"7  c #2F2628",
"8  c #2F2B28",
"9  c #322622",
"0  c #392721",
"q  c #342925",
"w  c #3A2C26",
"e  c #342C2A",
"r  c #3B2E2A",
"t  c #37302D",
"y  c #3C322D",
"u  c #3D3432",
"i  c #3F3835",
"p  c #402D24",
"a  c #443127",
"s  c #43332D",
"d  c #49362E",
"f  c #433632",
"g  c #493733",
"h  c #443935",
"j  c #4B3B35",
"k  c #453D39",
"l  c #4C3E39",
"z  c #503D35",
"x  c #523F3A",
"c  c #47413D",
"v  c #4C423D",
"b  c #53433D",
"n  c #59453E",
"m  c #4D4541",
"M  c #4F4843",
"N  c #544641",
"B  c #5A4641",
"V  c #544A45",
"C  c #5B4B45",
"Z  c #554D49",
"A  c #5C4D49",
"S  c #57504A",
"D  c #5D524C",
"F  c #5F5651",
"G  c #614E46",
"H  c #614F4A",
"J  c #63534D",
"K  c #69574F",
"L  c #68584F",
"P  c #645651",
"I  c #695752",
"U  c #655954",
"Y  c #6A5B55",
"T  c #665C58",
"R  c #6C5E59",
"E  c #715D57",
"W  c #715E59",
"Q  c #6E615B",
"!  c #73635D",
"~  c #78665F",
"^  c #72685F",
"/  c #79685F",
"(  c #756561",
")  c #796761",
"_  c #766A63",
"`  c #7D6B65",
"'  c #7E6D69",
"]  c #7E7067",
"[  c #7D726B",
"{  c #806D66",
"}  c #816E69",
"|  c #827067",
" . c #84726C",
".. c #89756D",
"X. c #85796F",
"o. c #89786F",
"O. c #847671",
"+. c #897671",
"@. c #857A72",
"#. c #8C7B74",
"$. c #8B7D79",
"%. c #917D76",
"&. c #937E79",
"*. c #8D8077",
"=. c #8E817A",
"-. c #928176",
";. c #94837D",
":. c #9A847E",
">. c #90887F",
",. c #9A897E",
"<. c #948681",
"1. c #9B8681",
"2. c #958A83",
"3. c #9C8B84",
"4. c #9D8E89",
"5. c #9E9186",
"6. c #9E928A",
"7. c #A28D86",
"8. c #A18D88",
"9. c #A28E89",
"0. c #A48F8B",
"q. c #A88F8A",
"w. c #A29187",
"e. c #A6918B",
"r. c #A4908D",
"t. c #A5928C",
"y. c #A6928E",
"u. c #A9938D",
"i. c #A9928F",
"p. c #A6988F",
"a. c #A9998E",
"s. c #B0978F",
"d. c #A59591",
"f. c #A99390",
"g. c #AA9691",
"h. c #A69992",
"j. c #AC9C93",
"k. c #AB9F98",
"l. c #B19D95",
"z. c #B39D99",
"x. c #AEA097",
"c. c #AEA199",
"v. c #B3A296",
"b. c #B3A49B",
"n. c #B9A59C",
"m. c #B6A89E",
"M. c #BAA99E",
"N. c #B5A5A1",
"B. c #BAA5A1",
"V. c #B6A9A1",
"C. c #BCACA3",
"Z. c #BEADA3",
"A. c #BFAEA8",
"S. c #BEB1A6",
"D. c #BDB1A9",
"F. c #C2AEA5",
"G. c #C2B1A6",
"H. c #CAB4A7",
"J. c #C4B4AA",
"K. c #C4B6AB",
"L. c #C9B6AB",
"P. c #C5B8AD",
"I. c #CAB9AD",
"U. c #C8B5B0",
"Y. c #C6B9B0",
"T. c #CCBCB2",
"R. c #D1BEB3",
"E. c #CFC1B5",
"W. c #D2C2B5",
"Q. c #D5C4B9",
"!. c #D8C5B9",
"~. c #D7C9BC",
"^. c #DBCABD",
"/. c #E0CDBE",
"(. c #DECDC1",
"). c #DFD0C3",
"_. c #E1CEC1",
"`. c #E3D2C5",
"'. c #E8D6C6",
"]. c #E9D8C7",
"[. c #E4D4C9",
"{. c #E9D6C8",
"}. c #ECDBCC",
"|. c #ECDDD2",
" X c #F3E5DA",
/* pixels */
"r.r.9.I Y 9 %  .#.` { { { { { { { { { ..W @ 1  .r.3.7.9.9.9.9.9.9.9.9.9.9.9.9.4.r.! n = 5 ;. .E J q   ` z.9.0.0.0.0.7.7.9.u.N + 1 h y r q 5 5 5 q e > ",
"r.f.j.W B < + C ` | | | | | | | { ` ! E f . 9 E r.r.9.9.9.9.9.7.7.9.9.9.9.9.7.3.f.+.B = = N n b C < $ 3.f.9.0.0.0.0.9.9.9.u.l o $ . .             o @ ",
"0.#.) H n = @ 3 d z C J J C B b d p 0 w > . s G W #.1.9.r.r.u.f.f.f.f.f.u.r.r.r.9.` j $ = y y q 3 . T B.r.e.e.r.e.0.0.7.3.3.u . . - q k v v c c k 5 @ ",
"h y r r 3 $ $ = 4 4 4 4 4 4 4 4 0 0 q 5 $ o 5 x j g x C H J Y ! ! Y J J J J J A b j r @ $ @ o o @ + c J N N C C B V B n b N 5   [ H.I.H.C.C.C.J.J.J.Y ",
"+ o .     . .     = > > : % @ + o o .           o % = = : > = : : : : = : > > < 1 5 = @ . . * o .   . : 1 3 5 5 2 1 < < 5 2   c Q.v.#.R Y Y Y Y Y ] c ",
"k.h.p.5.5.5.2.[ Z @   . # > 9 y u h k c V S V u e = o             o @ * # o o . . . o . q w.C.k.6.#.U h 5 > $ + . o @ X o < e 4.-.P P Y R R Y Y Y P > ",
"C.b.p.4.3.2.=.$.m e 3.m.P.W.^.`._._.^.^.~.W.T.C.p.V o k Q @.2.p.b.C.J.x.@.$.6 D D.b.m.b.W.`.^.Q.Q.^.^.~.W.T.J.C.b.b.m * 2.4.=.! J Y Y Y Y Y R ! ! R 5 ",
"P J D D A D A q   [ !.j.v.j.w.%.' _ ! R U D C b y . V |.[.^.L.C.l.7.-.) ( A O <.J.r.j.j.r.-.| ! Q Q ! ) | #.4.p.r.! = q :.D J P Y Y Y ! ~ ` { { | R 5 ",
"Y Y Y Y U R N -   >.e.` 1.3.1.1.;.#. .) Y H C C h   U j.O.! Y P P P P R J r . 4.v.J R Y I P I Y R Y Y U U P J C f g = - j.| ` ' ' ' { } } { { ` | P e ",
"Y Y Y Y Y Y s # . p.M.0.u.u.u.u.u.u.u.u.e.1.:.! 5 . Z ( P T R Q Q Q R ! N w + d.T.` ( ) ) ) ! W R R Y Y Y R R R N l - . w.l.` { { { } { ' ' ' ' | J y ",
"Y Y Y Y Y n q @ @ m.n.7.r.0.0.0.0.0.0.0.9.0.u.:.q   m $.Y R R R R R T R l q + c.Q.+.` ` ` ` ` ` ) ) ( ! ! W Y R n j =   ' W.w.` { { ' ' ' ' ' ` } C f ",
"Y Y R J j d q o * G.n.7.u.0.0.0.0.0.0.e.u.r.0.g.P   5 ;.Y T T T Y R R ! V 9 + k.7.) ' ' ` ` ` ` ` ` ` ` ` ` ) ` B g =   ! (.v.} | | } } } } } }  .B f ",
"Y P C j d l > o * 3.s.7.0.0.0.e.u.0.7.1.:.:.&.:.Q o * R ( Q ! ! ! R U A l 3 + $.| ` ' } } { ' ' { ` { ` ` ` ! J l b q   ! u.I R W ! ! ! ! ! W R J j f ",
"y r 9 5 5 2 * o $ g B B n n N N N v g s y s y y - $ @ u m h h h r 5 = @ = = o Z @.' ( R J H A J J A A A C b s r y s 3 o 3 g g j l l l g g g j g d g g ",
"            . . . .   . # +                               X o X       .               . + @ % . .     . . . . o o o @ # . @ = - - = = + . @ = 1 5 9 3 ",
"! ] #.3.5.w.p.p.k.h.=.k . < k U ' [ @.#.#.#.#.#.+. .Y c t - o > D >.k.p.5.#.] ' _ T Z u q 2 o c Q ' $.>.4.p.j.b.b.b.c.x.5.V     . # q N D V h 5 o     ",
"J.C.b.l.l.C.Q.Q.G.j.1.T   Q Q.v.k.j.k.r.r.r.r.r.r.b.F.C.C.N < E.`.T.m.k.x.b.C.G.G.G.C.k.r.N q `.`.^.`.(.^.!.T.b.:.O.' '  .u - 2.j.S.Q.!.R.F.M.r.> e _ ",
"! ! ! ! ! ! } ' ! R ( R   Q 3.J Y Y Y Y Y Y Y Y P P Y Y J + ! r.Y D A Z Z Z C V C C C l N . Q ~.) ! #.=.+.` Y J D P P P T 5 h [.C.7.../ R J L D # _ ' ",
"` ` ` ` ` ` ) ) _ _ ` !   [ C.Y ( ( ! ! ! ! ! ! ! ! Q Y 5 + @.C A J P P P P J J D D D D v   3.r.A Y P P P P U T T Y Y U Q q t +.J J J Y Y Y ! D   =.e.",
"` ` ` ` ` ` ` ` ( ! ) R   ] _.{ W ! ! ! W R R R R R ! ! 5 6 #.W Q R R R R R R R R Y Y Y J . @.+.P T Y Y Y Y Y U Y Y T U Q e > Y Y Y Y Y Y Y R C   [ L.",
"` ` ` ) ) ) ) ( ) ( ` Q   U {.u.R ) ' } ..+.#.#.%.;.1.j.F k ;.` ' ' ` ' ' ` ` ` ` ` ` `  .< y ' Y T T T R R R R Y P P D P 5 > ' ! ! ! ! ! ! _ U   Q Q.",
"` ` ' ' ` ' ` ) ( ! ! N   D {.I.;.r.e.e.u.u.u.u.u.e.9.z.c k ;.` ` ` ` ` ` ` ` ` ` ` ` )  .u . Z P D A A V b g r 9 4 4 3 4 = # ! | { } ' ' ' | Q   U (.",
"Y Y J G B b z j g d a 9 . h n.F.j.9.e.7.9.9.7.7.7.7.7.u.5 = ' | } { ` ` ) ` ` ` ` ` ) ) | v . % 4 4 9 9 9 4 9 q w r r w 9 $ + J ` ` ' ` ` ) ' U   Z b.",
"s a a a a a d a w r f w . u I | g.e.e.u.u.u.f.u.u.u.e.l.A   s B J W ) ` { } } } } } } ' ..A . $ y g l l v v l l l j g l f # $ T ` ( ) ` ` `  .C   < n ",
"q 9 9 9 9 w 4 : = = > = o y J #.;.;.1.;.&.#.} ! ! ! '  .Y > 9 s y s j b G J J J P J J J C e o $ 2 5 5 9 r f g g g j l v s @ # D Y D A A A V A y o 5 H ",
"o o @ X                 X = q y s s f y r q 9 3 , > = % @ o   . . o + @ # = < > > > < < , % .             . @ $ = > 1 5 < # @ o                     o ",
"- @   - y m U Q U D V u < +           . $ # o = > 3 q y k V U _ [ Q V f h 6 X $ = * X X o   < U _ _ Q D v y 2 $ .             3 U _ @.[ ' ' _ ^ ! ( ( ",
"<.<  .I.(.`.}.}.}.}.}.`.W.J.p.@._ D v y = = <.J.L.R.!.!.Q.W.I.I.L.H.C.l.a.V o k.J.M.c.c + ' W.}.].}.'.'.}.`.^.I.m.p.>.@.[ [ - Y  XQ.r.3.r.M.I.W.Q.Q.^.",
"- y `.Q.M.M.j.w.w.r.a.v.v.M.C.C.m.k.3.$.2 = r.m.C.l.1...) ! R Y I K J J D + h (.!.!.Q.5 m |.T.j.u.j.v.j.,.,.3.w.5.3.:.-.+.#.< U C.P D D A D J J J J P ",
"  k ^.H.7.3.1.&...! J C C C C C V V A u @ = q ! R P J P P Y Y Y Y R R ! h   =.C.' ' P   V Q.u.9.0.7.7.1.| ! J b l l j l l b . D ! J Y Y T Y Y T Y Y Y ",
". h ^.H.e.r.r.u.f.f.9.-.} ! P J P P U < - 4.h 5 R ( ! ! ! ! ! ! R Y P N 1 o Q R C D A   k J.7.u.u.u.u.u.j.j.f.3.;.#.| ! G C : q ! Y Y Y P J D C N b v ",
". e ^.H.0.e.0.0.0.0.e.r.u.9.:.| ! Y A + 2 N.J.V @ l Z V v f y e 9 9 3 , : @ V Q T R U . u C.0.u.r.r.r.e.0.0.e.r.f.f.u.r.1.:.P @ V f 9 g B b b l g f s ",
". e Q.H.7.e.e.e.0.e.0.9.9.9.r.r.9.:.J + 5 O.` 6.< . o o . . . .   . . .   . 2 u k k 7 o > N.g.r.r.e.e.0.0.e.0.0.0.0.9.9.9.r.f.9 . 3 , r B N N N B B B ",
". e (.I.0.0.9.0.0.0.9.9.9.9.9.7.r.;.C o 5 W H J v @ @ = = = > 2 e y y y e < .       . o .  .e.7.u.f.f.f.u.u.r.0.0.0.9.9.9.7.f.` . , 3 s B n n n b b n ",
"o 5 r...1.u.u.u.r.e.e.0.9.e.r.u.r.! f . 2 R P Y u $ 2.b.k.v.C.H.T.R.R.R.T.J.v.r.4.$.P 5 . q b b G ` %.#.+.%.3.u.u.r.e.e.r.r.r.9.5 o % f B n N N N N N ",
"@ @ f B G E ` #.;.1.1.7.7.;.#.| Y C 3   f R P D o D C.H.F.F.C.C.m.m.m.m.m.b.n.v.;.! W k . y N j n C C C C C J ) %.:.3.3.1.;.-...h o @ f N b n n n b b ",
"* o h J C B n n B C C J J B n n B N @ < R Y U 2 . ( ' Y Y I I I K K P I P J J J J J R 9 . = l J Y Y Y I I K J C C C J J H C C C C * o f C N N N b n n ",
"* @ 5 H A A A A C C B B B B N b l 2 X m ! D q @ @ V U A J J P P P P P I Y Y Y I P P N = # @ # 2 q y f h h j N C C B N N N b n N b = o 1 h h l v b v v ",
".     + @ @ @ o @ * - 1 < = @ o       @ - o       + .           . . . o @ = = = = = +                       X & * $ * = * * @ @ o X X . . o + * = = = ",
"k V m v v v N N k 2 $ X o $ - 5 y h k k h k c v Z S D F P U U F D S V c y 5 @ . o   $ y D ` =.3.w.p.r.@.U c e < $ o o   . + $ = < 2 2 2 > < = o       ",
"`.`.`.`.`.(.T.b.:.O.u y C.S.b.k.k.k.j.j.k.b.m.C.C.C.C.J.J.H.J.I.I.I.J.J.J.J.C.h   _ C.Q.`.{.(.W.G.v.,.3.C.C.b.j.4.2 $  .r.b.G.I.T.Q.Q.W.T.T.L.v.;.Q V ",
"*._ ! ! ! Y C N N V = V `.#.! ! R Y Y Y Y Y I Y ( +.` ! ! ! ! ( ( ( ( ) ) ..Y @ V `./.^.H.4.! J C B B B J ! ! ) _ o u [.`.!.T.H.F.b.a.w.5.r.v.G.T.W.T.",
"N N N N N B C V A f   M I.R ` | } } }  . . .} 1.r.f.%.` ' ' ' ' ' ` ' ) ) ( :   =._.v...P C A J J J J J J J b b 9   D `.4.R R Y J J J J J D J J Y U v ",
"' ' ' ' ' ` ` ! T r   c S.+.r.e.r.0.9.e.r.r.e.e.9.9. .` ` ` ` ' ' ` ` ) { A $   3.3.n P ! ` ` ` ' ` ) ( ! ! ! Z =   [ G.J U Y Y Y Y Y Y Y Y Y Y U P j ",
"` ` ` ` ` ` ` `  .Z   e C.9.r.e.0.e.e.0.0.0.9.9.r.#.) ` ` ` ` ` ` ` ) ' W w @ . w.n.:...} { { ' ' ' } } } ' } _ =   ' #.) ' ( ! R R Y Y Y Y Y Y Y U B ",
"` ` ` ` ` ` ) ) ' Z o - c.e.0.e.0.0.0.0.0.9.r.e.#.) ` ` ` ` ` ) ` ' { ) x 9 + . p.G.l.r.} ' ' ' ' ' ' ' ` ` } R * . Y ..' } } } { ' ' ` ` ` ` ` ` ` ) ",
") ` ) ) ) ) ) ) ) l @ $ j.u.r.r.r.r.e.9.0.r.3. .) ` ' ' ' ' } } ` ! Y z d w + o j.G.a.b.&.` ' ` ` ` ` ` ` ' ) V * X l | | ' ' ' { { ' ' { } } } } } } ",
"' ' ' ' ' ' ` ' ! r @ o ! e.7.3.1.7.0.u.r.%.{ } | } ` ) ! E J C b s w w s 3 + $ J.v...#.| | | | |  .| |  .( H N = o f G W ' | | | | | | } } } } } } } ",
"Y Y Y Y J A C C b 5 # @ q A C C B C A J H B H C B b g f s r q 3 1 = * $ $ @ # @ Q ! Y R Y P Y U P P P P C v l l = @ q l b C J I ! ! ~ ) ) ) ~ ~ ! ! ! ",
"% % = = = > : % @       . @ @ $ % % % > > % @ % = = = = = @ o             . . .   . + @ @ + o .                       $ < 2 9 r s g g l l l l l l l l ",
"k 5 > @ o 2 k m Z P Q _  .@.#.@.Q C u + o t k < . . . . o = 2 y m F _ O.2.k.h.h.p.>.O.T $ @ - 6 i k c m m V Z D D V u @ . o X o o @ @ @ + o . o . . . ",
"J.x.J.U + b.k.b.G.L.I.J.C.M.m.C.C.k.J . y [.T.! u 5 R 2.d.k.b.C.V.V.b.k.r.4.3.:.#...} ( > @ h.v.v.S.D.C.C.S.J.J.J.J.C._ 2 @ = % % % = 2 y k c M V Z V ",
"( R #.f < 5.U Y Y R R R Y Y I I ! Q f    .~._ P 5 D #.#.+.| ' ) ! ! ! ! ! ! ! ! ! ! ) R 3 > v.v.,.R Y Y Y Y Y Y Y R g y @ [ P.b.S.J.Y.E.Q.T.J.G.S.C.x.",
"( W N % 2 #.! ( ( ( ( ( ( ! ! ! R ! u + C.-.D m # ( } ) ` ` ' { ' ' ' ' ' ' ' ' ) ) ' J 3 > C.C.| R ! Q Q Q R R R ! g . > T.~.~.J.k.3...! U J D D N l ",
"( ! A = - ` ! ( ( ( ) ) ( ( ! ! ! ` m > T.) P 1 < } { ' ' ' ' { ' ' ` ` ` ' ' } ' ' ! l 1 = O.( R ! Q Q ! ! Q Q Q ( r   _ [.L.v. .R U J J J J J J n b ",
"` ) V # = ( ) ( ! ! W W E R Y J H B r = ( P Y > e +.| } } ' ' ' ' ' } } } ` ! R I C g g 2 o r C P Y Y Y Y Y Y Y P A # 2 Y.F.u.7.u.u.u.0.7.:.:.:.&.o.) ",
"b g q @ = N h s y r w w w w w q 9 1 = = J Y P = 2 U Y ! ) ' } } ' ) ! I C b j d g g g s = + @ @ % = = = = - - - = %   _ m.7.e.u.0.7.7.0.7.q.u.u.0.u.:.",
"< 1 < # * 1 2 2 2 3 3 3 1 > - = = = $ - Q Q r @ $ 3 s d g l b b l g a w w q q 9 3 > .     . = 2 5 2 2 < = @ @ .     @ &.e.0.0.0.7.0.7.7.7.7.7.7.e.7.G ",
". . . .       . $ $ o     $ % o .     o 5 1 @ * * * $ $ # @ @ # # $ = $ $ $ $ $ X $ c Q @.h.G.T.W.W.W.E.P.S.C.b.p.+.6 <.g.7.7.7.7.7.7.0.u.u.0.:.%.G s ",
"h.p.5.3.4.#.[ i     < D 4.A.C.V.p. .P y < = * * @ o = < q y u e e e 5 5 < < = @ @ r.J.v.I.W.R.I.G.C.M.v.j.j.j.r.1.#.5 V 0.u.j.j.j.j.j.7.{ { E n z j l ",
"b.b.M.S.a.r.v.D c p.T.Q.v. .) 3.v.G.J.J.T.P.D.e 5 w.M.J.T.Q.~.~.~.Q.E.T.T.P.Y.U e J.) _ ` ' ..| ) ! ) '  .+.+.O.) D : = w g C P R ( P g w w w w r q e ",
"P P J Y D P l f I.,.' J C J J C A D B l J B S o _ }.^.^.^.W.M.j.j.j.a.3.+.| =.u u :.' .. .' ' ' ` $.r.r.r.r.r.0.r.( # .             o @ @ .           ",
"T T Y Y Y ( e A ..n J U Y Y Y Y Y U U C f r >   2.T.j.u.:...! ! ! ! ! W J N f   u $.' ' ' ' } ' ' 2.4.7.9.r.r.9.r.D . k m u h u h y - . l 3.>.=.;.:.>.",
"R R R T T Q $ Q r.C U J J J J J J J J P J D N + +. .! ! ! ~ ` ` ` ` ` ` ' | ! $ ; J C C A A A H A H H I ! ) ! ! P = @ O.k.r.d.r.4.-.k > ) v.J.I.T.T.I.",
"J J J C b g   O.L.! ! ! ! ! ! ! ! ! ) ) ) ' ! = A | ` { ` ` ` ` ` ` ` ` ` } C = + % < 2 5 q q q q q q q q 5 2 1 = o - ! ! W ! ! W W < < ` ` _ ' ' ' ' ",
"s s r r 9 1 + d.T.+.{ } { { { } } { { { ` ` +.u r ` ~ ) ) ) ~ ~ ! ! ! W E J d 2 # $ X .                     . X @ @ < ' ' } ' ` } A @ $ h U Q ( ( ( ) ",
"s s s s f > $ j.3.| | | | | | |  . . . .| |  .e @ b n C C C C C C B B n n z s <   o - 5 e i c Z D D V M m h e 1 o X o > 1 5 r h v < X @ $ < q u l l l ",
"1 2 9 q 1 o = V A J A A A A A A A C N b j h y = o 2 w q q q q q 9 9 9 q q 2 o = Q j.S.T.E.~.(.~.T.b.w.-...( ! l 6 p.4.2.#.[ _ J c e 5 - @ .     . o * ",
"X X X X X X o @ + @ = % # = = = > < > < < < 1 = X .                     X   8 J.}.).(.~.Q.J.:.Q J C C C A A R 2 m }.(._.(.~.T.T.Q.Q.W.J.v.3.X.^ U m 5 ",
"    . X o $ - 6 u 5 o . . . . . . . @ * .   o @ = 5 u m D U T U D D V V < # $.3.o.#.;.-. .! ! ! ) '  .+.#.<.<.= V l...[ _ Q U P ! X.4.m.I.R.T.G.r.#.i ",
"2.w.j.b.C.S.J.S.c.V @ $.w.w.w.5.=.U 2 o V ' @.5.G.W.E.T.T.H.G.H.J.J.J.T.u Z 1.` ' ! R ~ #.9.u.u.u.u.r.u.r.j.O.o 2 Y P U U Y T Y U J D J Y Y U D A A = ",
"~.W.G.j.=.' U j s = D U.m.M.m.m.b.1.l # J.C.` ` #.+.#.;.;.:.:.:.:.3.;.2 . $.b.e.u.7.7.r.r.e.9.9.9.9.e.9.&.+.D o > ( ! R T Y T R Q Q R U P P P U Y V @ ",
"_ Y C b b b N N A 3 U 3.%.&.&.&.&.&.u @ x.J...! ` #.7.7.0.0.0.9.9.9.3.1 o 2.u.9.0.e.e.0.9.9.9.9.9.e.:.` ! ) k . e ! Y R ! ) ' '  . .' ' ( T P P R h X ",
";.&.&.%.+.....| ) 5 1 1.1.1.1.1.7.{ 9 o k.T.k.;.9.r.9.7.9.9.9.7.7.7.4.2 = 4.r.0.e.0.0.0.9.9.9.9.e.#.! ! ( ( 5   A 3.` '  . . . .} } } }  .' ` Y P < o ",
"u.u.u.u.u.u.u.u.u.r   N 1.:.1.1.+.J 3 $ b.I.v.3.9.7.7.9.9.7.9.9.7.7.4.1 - r.e.0.e.0.0.9.9.9.9.e.#.! ! ! ( P = . _ m.r.+.} } } } } ' ' ' ' } ) Y Z @ @ "
};
